<?xml version="1.0" standalone="no"?>
<!DOCTYPE svg PUBLIC "-//W3C//DTD SVG 1.1//EN" "http://www.w3.org/Graphics/SVG/1.1/DTD/svg11.dtd" >
<svg xmlns="http://www.w3.org/2000/svg" xmlns:xlink="http://www.w3.org/1999/xlink" version="1.1">
<metadata>
Created by FontForge 20161003 at Thu Jun 22 08:38:07 2017
 By www-data
Copyright (c) 2010 by Jos Buivenga. All rights reserved.
</metadata>
<defs>
<font id="CallunaSansItalic" horiz-adv-x="520" >
  <font-face 
    font-family="CallunaSansItalic"
    font-weight="400"
    font-style="italic"
    font-stretch="normal"
    units-per-em="1000"
    panose-1="2 0 0 0 0 0 0 0 0 0"
    ascent="750"
    descent="-250"
    x-height="450"
    cap-height="667"
    bbox="-201 -243 1104 941"
    underline-thickness="50"
    underline-position="-150"
    slope="-12"
    unicode-range="U+0020-FB06"
  />
<missing-glyph horiz-adv-x="690" 
d="M45 -53v773h600v-773h-600zM120 147l40 -41l185 186l185 -186l40 41l-185 185l185 186l-39 41l-186 -187l-186 187l-39 -41l185 -186z" />
    <glyph glyph-name="f_b" unicode="fb" horiz-adv-x="776" 
d="M298 0l137 645q-43 17 -92 17q-38 0 -65.5 -17t-44 -50t-25.5 -65t-16 -80h121l-14 -63h-116q-31 -238 -50 -321q-59 -260 -190 -302q-2 0 -4 -1l-31 53q134 45 183 419l19 152h-61v41l70 26l3 22q6 49 20 90t39 79.5t67.5 60.5t98.5 22q70 0 125 -24l52 10l-79 -371h3
q25 44 73 81.5t95 37.5q50 0 83 -41t33 -114q0 -53 -19 -108t-53 -103t-89.5 -78t-121.5 -30q-23 0 -73 6t-78 6zM591 391q-42 0 -103.5 -69t-73.5 -123l-30 -141q36 -9 67 -9q88 0 144.5 74.5t56.5 169.5q0 51 -18 74.5t-43 23.5z" />
    <glyph glyph-name="f_f_b" unicode="ffb" horiz-adv-x="1044" 
d="M566 0l137 645q-42 17 -92 17q-38 0 -66 -17t-44 -49.5t-25 -65.5t-16 -80h121l-14 -63h-116q-31 -242 -53 -333q-60 -253 -191 -291l-31 53q134 45 183 419l20 157h-194q-34 -259 -60 -357q-59 -233 -184 -271q-1 -1 -2 -1l-31 53q134 45 183 419l19 152h-61v41l70 26
l3 22q6 42 18 77.5t34.5 71.5t63.5 57t95 21q79 0 129 -41q58 66 153 66q70 0 125 -24l52 10l-79 -371h3q25 44 73 81.5t95 37.5q50 0 83 -41t33 -114q0 -53 -19 -108t-53 -103t-89.5 -78t-121.5 -30q-23 0 -73 6t-78 6zM859 391q-42 0 -103.5 -69t-73.5 -123l-30 -141
q36 -9 67 -9q88 0 144.5 74.5t56.5 169.5q0 51 -18 74.5t-43 23.5zM390 476q9 73 35 129q-47 32 -96 32q-28 0 -50.5 -12t-36.5 -29t-24 -44.5t-15 -49.5t-10 -52h193z" />
    <glyph glyph-name="f_f_h" unicode="ffh" horiz-adv-x="1054" 
d="M566 0l137 645q-42 17 -92 17q-38 0 -66 -17t-44 -49.5t-25 -65.5t-16 -80h121l-14 -63h-116q-31 -242 -53 -333q-60 -253 -191 -291l-31 53q134 45 183 419l20 157h-194q-34 -259 -60 -357q-59 -233 -184 -271q-1 -1 -2 -1l-31 53q134 45 183 419l19 152h-61v41l70 26
l3 22q6 42 18 77.5t34.5 71.5t63.5 57t95 21q79 0 129 -41q58 66 153 66q70 0 125 -24l52 10l-79 -372q96 120 197 120q45 0 68.5 -26t23.5 -65q0 -24 -19 -115l-55 -256h-74l55 259q15 68 15 88q0 46 -42 46q-49 0 -118.5 -68t-80.5 -121l-43 -204h-74zM390 476
q9 73 35 129q-47 32 -96 32q-28 0 -50.5 -12t-36.5 -29t-24 -44.5t-15 -49.5t-10 -52h193z" />
    <glyph glyph-name="f_f_j" unicode="ffj" horiz-adv-x="777" 
d="M49 387v41l70 26l3 22q6 42 18 77.5t34.5 71.5t63.5 57t95 21q76 0 127 -39q56 64 145 64q30 0 57 -8t38 -16l12 -8l-34 -60q-36 26 -77 26q-29 0 -51.5 -12.5t-36.5 -30.5t-25 -48t-16.5 -57t-11.5 -64h282l-94 -442q-24 -116 -69.5 -174t-118.5 -71l-23 60
q101 12 136 181l82 388h-203q-31 -243 -52 -334q-61 -256 -193 -295l-31 53q134 45 183 419l20 157h-194q-34 -259 -60 -357q-59 -233 -184 -271q-1 -1 -2 -1l-31 53q134 45 183 419l19 152h-61zM390 476q8 71 34 130q-45 31 -95 31q-28 0 -50.5 -12t-36.5 -29t-24 -44.5
t-15 -49.5t-10 -52h193z" />
    <glyph glyph-name="f_f_k" unicode="ffk" horiz-adv-x="989" 
d="M566 0l137 645q-42 17 -92 17q-38 0 -66 -17t-44 -49.5t-25 -65.5t-16 -80h121l-14 -63h-116q-31 -242 -53 -333q-60 -253 -191 -291l-31 53q134 45 183 419l20 157h-194q-34 -259 -60 -357q-59 -233 -184 -271q-1 -1 -2 -1l-31 53q134 45 183 419l19 152h-61v41l70 26
l3 22q6 42 18 77.5t34.5 71.5t63.5 57t95 21q79 0 129 -41q58 66 153 66q70 0 125 -24l52 10l-93 -437h11l189 173h103l-235 -209l157 -241h-88l-138 219h-12l-46 -219h-74zM390 476q9 73 35 129q-47 32 -96 32q-28 0 -50.5 -12t-36.5 -29t-24 -44.5t-15 -49.5t-10 -52h193z
" />
    <glyph glyph-name="f_h" unicode="fh" horiz-adv-x="786" 
d="M298 0l137 645q-43 17 -92 17q-38 0 -65.5 -17t-44 -50t-25.5 -65t-16 -80h121l-14 -63h-116q-31 -238 -50 -321q-59 -260 -190 -302q-2 0 -4 -1l-31 53q134 45 183 419l19 152h-61v41l70 26l3 22q6 49 20 90t39 79.5t67.5 60.5t98.5 22q70 0 125 -24l52 10l-79 -372
q96 120 197 120q45 0 68.5 -26t23.5 -65q0 -24 -19 -115l-55 -256h-74l55 259q15 68 15 88q0 46 -42 46q-49 0 -118.5 -68t-80.5 -121l-43 -204h-74z" />
    <glyph glyph-name="f_k" unicode="fk" horiz-adv-x="721" 
d="M298 0l137 645q-43 17 -92 17q-38 0 -65.5 -17t-44 -50t-25.5 -65t-16 -80h121l-14 -63h-116q-31 -238 -50 -321q-59 -260 -190 -302q-2 0 -4 -1l-31 53q134 45 183 419l19 152h-61v41l70 26l3 22q6 49 20 90t39 79.5t67.5 60.5t98.5 22q70 0 125 -24l52 10l-93 -437h11
l189 173h103l-235 -209l157 -241h-88l-138 219h-12l-46 -219h-74z" />
    <glyph glyph-name="ff" unicode="ff" horiz-adv-x="573" 
d="M49 387v41l70 26l3 22q6 42 18 77.5t34.5 71.5t63.5 57t95 21q76 0 127 -39q56 64 145 64q30 0 57 -7t38 -13l12 -7l-34 -60q-36 21 -77 21q-29 0 -51.5 -12.5t-36.5 -30.5t-25 -48.5t-16.5 -56.5t-11.5 -64h121l-14 -63h-116q-30 -246 -55 -345q-60 -241 -189 -279
l-31 53q134 45 183 419l20 157h-194q-34 -259 -60 -357q-59 -233 -184 -271q-1 -1 -2 -1l-31 53q134 45 183 419l19 152h-61zM193 450h193l4 26q8 71 34 130q-45 31 -95 31q-28 0 -50.5 -12t-36.5 -29t-24 -44.5t-15 -49.5t-10 -52z" />
    <glyph glyph-name="fi" unicode="fi" horiz-adv-x="494" 
d="M289 0l83 392h-188q-31 -243 -52 -334q-61 -256 -193 -295l-31 53q134 45 183 419l19 152h-61v41l70 26l3 22q6 49 19.5 90t37 79.5t64 60.5t94.5 22q30 0 57 -8t38 -16l12 -8l-34 -60q-36 26 -77 26q-29 0 -51.5 -12.5t-36.5 -30.5t-25 -48t-16.5 -57t-11.5 -64h267
l-96 -450h-74z" />
    <glyph glyph-name="fl" unicode="fl" horiz-adv-x="503" 
d="M298 0l137 645q-43 17 -92 17q-31 0 -55 -12.5t-39 -30.5t-26.5 -48t-17.5 -56.5t-12 -64.5h120l-14 -63h-115q-32 -237 -49 -313q-58 -261 -185 -307q-5 -2 -11 -4l-31 53q134 45 183 419l19 152h-61v41l70 26l3 22q6 49 20 90t39 79.5t67.5 60.5t98.5 22q70 0 125 -24
l52 10l-152 -714h-74z" />
    <glyph glyph-name="f_f_i" unicode="ffi" horiz-adv-x="762" 
d="M557 0l83 392h-188q-31 -243 -52 -334q-61 -256 -193 -295l-31 53q134 45 183 419l20 157h-194q-34 -259 -60 -357q-59 -233 -184 -271q-1 -1 -2 -1l-31 53q134 45 183 419l19 152h-61v41l70 26l3 22q6 42 18 77.5t34.5 71.5t63.5 57t95 21q76 0 127 -39q56 64 145 64
q30 0 57 -8t38 -16l12 -8l-34 -60q-36 26 -77 26q-29 0 -51.5 -12.5t-36.5 -30.5t-25 -48t-16.5 -57t-11.5 -64h267l-96 -450h-74zM390 476q8 71 34 130q-45 31 -95 31q-28 0 -50.5 -12t-36.5 -29t-24 -44.5t-15 -49.5t-10 -52h193z" />
    <glyph glyph-name="f_f_l" unicode="ffl" horiz-adv-x="771" 
d="M566 0l137 645q-42 17 -92 17q-38 0 -65.5 -17t-44 -50t-25.5 -65t-16 -80h121l-14 -63h-116q-31 -238 -50 -321q-59 -260 -190 -302q-2 0 -4 -1l-31 53q134 45 183 419l20 157h-194q-34 -259 -60 -357q-59 -233 -184 -271q-1 -1 -2 -1l-31 53q134 45 183 419l19 152h-61
v41l70 26l3 22q6 42 18 77.5t34.5 71.5t63.5 57t95 21q79 0 129 -41q58 66 153 66q70 0 125 -24l52 10l-152 -714h-74zM390 476q9 73 35 129q-47 32 -96 32q-28 0 -50.5 -12t-36.5 -29t-24 -44.5t-15 -49.5t-10 -52h193z" />
    <glyph glyph-name="f_j" unicode="fj" horiz-adv-x="509" 
d="M169 -177q103 13 136 181l82 388h-203q-31 -243 -52 -334q-61 -256 -193 -295l-31 53q134 45 183 419l19 152h-61v41l70 26l3 22q6 49 19.5 90t37 79.5t64 60.5t94.5 22q30 0 57 -8t38 -16l12 -8l-34 -60q-36 26 -77 26q-29 0 -51.5 -12.5t-36.5 -30.5t-25 -48t-16.5 -57
t-11.5 -64h282l-94 -442q-23 -116 -69 -174t-119 -71z" />
    <glyph glyph-name=".notdef" horiz-adv-x="690" 
d="M45 -53v773h600v-773h-600zM120 147l40 -41l185 186l185 -186l40 41l-185 185l185 186l-39 41l-186 -187l-186 187l-39 -41l185 -186z" />
    <glyph glyph-name=".null" horiz-adv-x="0" 
 />
    <glyph glyph-name="nonmarkingreturn" horiz-adv-x="333" 
 />
    <glyph glyph-name="space" unicode=" " horiz-adv-x="240" 
 />
    <glyph glyph-name="exclam" unicode="!" horiz-adv-x="258" 
d="M80 196l90 471h87l-114 -471h-63zM25 31q0 30 18 53.5t51 23.5q44 0 44 -42q0 -29 -18.5 -53.5t-51.5 -24.5q-43 0 -43 43z" />
    <glyph glyph-name="quotedbl" unicode="&#x22;" horiz-adv-x="336" 
d="M241 431l47 236h70l-7 -37l-62 -199h-48zM93 431l47 236h70l-7 -37l-62 -199h-48z" />
    <glyph glyph-name="numbersign" unicode="#" horiz-adv-x="624" 
d="M64 323l14 53h124l56 202h54l-56 -202h156l56 202h54l-56 -202h138l-14 -53h-138l-40 -144h140l-14 -53h-140l-59 -215h-55l59 215h-155l-59 -215h-55l59 215h-121l14 53h122l39 144h-123zM242 323l-40 -144h156l39 144h-155z" />
    <glyph glyph-name="dollar" unicode="$" horiz-adv-x="427" 
d="M0 42l17 68q6 -5 16 -13.5t44.5 -23t71.5 -15.5l42 198q-26 14 -41.5 24t-34.5 27t-28 39.5t-9 51.5q0 65 46.5 110t131.5 51l18 87h44l-19 -87q34 -2 63.5 -9t42.5 -14l13 -6l-21 -64q-48 27 -111 30l-40 -188q36 -18 56.5 -31.5t39.5 -43.5t19 -69q0 -71 -51 -117
t-130 -52l-18 -84h-44l18 84q-40 3 -74 14.5t-48 22.5zM290 153q0 46 -59 82l-37 -175q44 8 70 32t26 61zM148 407q0 -47 59 -78l35 165q-44 -7 -69 -30t-25 -57z" />
    <glyph glyph-name="percent" unicode="%" horiz-adv-x="704" 
d="M50 0l578 674l38 -31l-552 -643h-64zM207 358q-56 0 -90 35t-34 91q0 67 50.5 120.5t118.5 53.5q57 0 90.5 -35t33.5 -91q0 -68 -52 -121t-117 -53zM210 409q44 0 78 37.5t34 81.5q0 33 -20.5 56t-53.5 23q-42 0 -76 -37t-34 -82q0 -33 19.5 -56t52.5 -23zM349 114
q0 67 50.5 120.5t118.5 53.5q57 0 90.5 -35t33.5 -91q0 -68 -52 -121t-117 -53q-56 0 -90 35t-34 91zM404 118q0 -33 19.5 -56t52.5 -23q44 0 78 37.5t34 81.5q0 33 -20.5 56t-53.5 23q-42 0 -76 -37t-34 -82z" />
    <glyph glyph-name="ampersand" unicode="&#x26;" horiz-adv-x="646" 
d="M20 132q0 71 48.5 121t134.5 100q-21 66 -21 124q0 47 16.5 90.5t60.5 77.5t109 34q59 0 93 -34t34 -86q0 -38 -16 -70.5t-49.5 -61t-62 -47t-75.5 -45.5q11 -27 33 -70q39 -73 83 -127q60 47 97.5 103t37.5 103q0 43 -26 76l69 20q25 -36 25 -90q0 -60 -44.5 -131
t-115.5 -128q67 -65 123 -78l-39 -55q-72 16 -147 89q-100 -59 -196 -59q-73 0 -122.5 37.5t-49.5 106.5zM199 53q66 0 144 42q-42 50 -74 108q-25 44 -45 92q-63 -37 -96.5 -73.5t-33.5 -82.5q0 -43 29.5 -64.5t75.5 -21.5zM261 479q0 -41 12 -86q72 40 110 76.5t38 82.5
q0 26 -14.5 44t-44.5 18q-47 0 -74 -37t-27 -98z" />
    <glyph glyph-name="quotesingle" unicode="'" horiz-adv-x="188" 
d="M93 431l47 236h70l-7 -37l-62 -199h-48z" />
    <glyph glyph-name="parenleft" unicode="(" horiz-adv-x="285" 
d="M48 200q0 134 47.5 262t133.5 229l57 -18q-7 -8 -18.5 -22t-41.5 -61t-53 -98t-41.5 -129.5t-18.5 -158.5q0 -62 10.5 -122t25.5 -101.5t30.5 -74.5t26.5 -49l10 -16l-59 -21q-4 6 -11.5 17.5t-26.5 49.5t-33 79.5t-26 105t-12 128.5z" />
    <glyph glyph-name="parenright" unicode=")" horiz-adv-x="289" 
d="M-7 -159q7 8 19 22.5t42.5 64t54 102t42.5 132.5t19 161q0 62 -10.5 120.5t-26 98.5t-30.5 71t-25 45l-11 15l61 18q4 -5 11.5 -15.5t26 -45.5t32.5 -74.5t25.5 -101.5t11.5 -128q0 -136 -47 -271.5t-140 -234.5z" />
    <glyph glyph-name="asterisk" unicode="*" horiz-adv-x="504" 
d="M274 538l-25 150h80l-25 -150h-30zM343 498l-15 26l118 97l40 -70zM235 498l-143 53l40 70l118 -97zM328 444l15 26l143 -53l-40 -70zM132 347l-40 70l143 53l15 -26zM249 280l25 150h30l25 -150h-80z" />
    <glyph glyph-name="plus" unicode="+" 
d="M26 219v63h198v206h65v-206h195v-63h-195v-219h-65v219h-198z" />
    <glyph glyph-name="comma" unicode="," horiz-adv-x="220" 
d="M39 -5q0 36 -24 90l83 27q20 -32 20 -80q0 -117 -131 -205l-35 36q45 35 66 64t21 68z" />
    <glyph glyph-name="hyphen" unicode="-" horiz-adv-x="346" 
d="M55 215v70h226v-70h-226z" />
    <glyph glyph-name="period" unicode="." horiz-adv-x="227" 
d="M15 31q0 30 18 53.5t51 23.5q44 0 44 -42q0 -29 -18.5 -53.5t-51.5 -24.5q-43 0 -43 43z" />
    <glyph glyph-name="slash" unicode="/" horiz-adv-x="349" 
d="M15 -196h-68l376 863h68z" />
    <glyph glyph-name="zero" unicode="0" horiz-adv-x="528" 
d="M36 179q0 114 76.5 208.5t193.5 94.5q85 0 129 -52t44 -132q0 -71 -31 -141t-94 -119.5t-143 -49.5q-85 0 -130 54.5t-45 136.5zM112 181q0 -54 27.5 -90t80.5 -36q78 0 130.5 74.5t52.5 160.5q0 54 -26.5 89.5t-79.5 35.5q-80 0 -132.5 -75t-52.5 -159z" />
    <glyph glyph-name="one" unicode="1" horiz-adv-x="343" 
d="M-3 0l9 65h97l74 345h-91l8 60h169l-86 -405h98l-13 -65h-265z" />
    <glyph glyph-name="two" unicode="2" horiz-adv-x="429" 
d="M-1 0v51q12 7 31.5 20t69 51t87.5 73t69 78t31 75q0 29 -17.5 49t-48.5 20q-26 0 -55 -11.5t-44 -23.5l-16 -11l-33 50q8 7 22.5 17t56.5 27t80 17q62 0 99 -33.5t37 -85.5q0 -40 -21 -80.5t-63.5 -81.5t-76.5 -68.5t-88 -67.5h233l-8 -65h-345z" />
    <glyph glyph-name="three" unicode="3" horiz-adv-x="382" 
d="M-59 -134q103 0 185.5 46.5t82.5 126.5q0 94 -123 94h-26l7 61q62 9 127.5 56t65.5 104q0 29 -17.5 46t-51.5 17q-24 0 -53 -9.5t-46 -19.5l-18 -9l-24 54q8 5 22 13.5t54 22t75 13.5q64 0 102 -34.5t38 -87.5q0 -57 -47 -105.5t-107 -76.5q102 -32 102 -135t-101 -169.5
t-247 -66.5v59z" />
    <glyph glyph-name="four" unicode="4" horiz-adv-x="499" 
d="M-15 26l4 53l374 403h62l-84 -394h91l-13 -62h-92l-46 -219h-74l46 219h-268zM77 88h189l57 264z" />
    <glyph glyph-name="five" unicode="5" horiz-adv-x="376" 
d="M-58 -133q66 0 124.5 17.5t102 61.5t43.5 107q0 30 -10 52.5t-25.5 36t-41.5 24t-48.5 15.5t-57.5 11l59 278h266l-8 -65h-200l-34 -159q82 -21 131 -64t49 -124q0 -79 -49.5 -137t-127.5 -86t-173 -28v60z" />
    <glyph glyph-name="six" unicode="6" horiz-adv-x="490" 
d="M38 197q0 82 31 165t85.5 152.5t137 115t176.5 49.5l5 -64q-112 -6 -194.5 -73.5t-125.5 -169.5q50 56 134 56q73 0 114 -47.5t41 -121.5q0 -100 -67.5 -185.5t-171.5 -85.5q-82 0 -123.5 57t-41.5 152zM270 363q-36 0 -71.5 -15t-52.5 -30l-17 -15q-13 -54 -13 -106
q0 -144 94 -144q62 0 107.5 61.5t45.5 141.5q0 107 -93 107z" />
    <glyph glyph-name="seven" unicode="7" horiz-adv-x="431" 
d="M-40 -177q196 258 380 577h-283l7 70h376l-6 -53q-167 -290 -400 -614z" />
    <glyph glyph-name="eight" unicode="8" horiz-adv-x="492" 
d="M197 -12q-76 0 -124 44.5t-48 109.5q0 35 14.5 66.5t45 59t57.5 46t70 44.5q-71 75 -71 149q0 76 57 124t133 48q63 0 102 -35.5t39 -94.5q0 -60 -39.5 -105t-111.5 -90q32 -30 49 -49.5t33 -52t16 -66.5q0 -79 -66.5 -138.5t-155.5 -59.5zM342 177q0 25 -13.5 51t-29 43
t-43.5 44q-38 -22 -61.5 -38t-48.5 -38t-37 -45.5t-12 -49.5q0 -41 29 -66t72 -25q53 0 98.5 35.5t45.5 88.5zM218 512q0 -56 59 -115q61 38 93 72t32 76q0 35 -22.5 52t-52.5 17q-40 0 -74.5 -27t-34.5 -75z" />
    <glyph glyph-name="nine" unicode="9" horiz-adv-x="490" 
d="M7 -130q112 6 194 70.5t126 161.5q-51 -55 -134 -55q-71 0 -110.5 46t-39.5 118q0 100 66 185.5t168 85.5q82 0 123.5 -57t41.5 -152q0 -79 -31 -160t-85.5 -148t-137 -111t-176.5 -48zM210 112q34 0 69.5 15t53.5 30l18 15q13 55 13 101q0 144 -94 144
q-59 0 -103.5 -61.5t-44.5 -141.5q0 -102 88 -102z" />
    <glyph glyph-name="colon" unicode=":" horiz-adv-x="261" 
d="M30 31q0 30 18 53.5t51 23.5q44 0 44 -42q0 -29 -18.5 -53.5t-51.5 -24.5q-43 0 -43 43zM98 374q0 30 18 53.5t51 23.5q44 0 44 -42q0 -29 -18.5 -53.5t-51.5 -24.5q-43 0 -43 43z" />
    <glyph glyph-name="semicolon" unicode=";" horiz-adv-x="257" 
d="M97 374q0 30 18 53.5t51 23.5q44 0 44 -42q0 -29 -18.5 -53.5t-51.5 -24.5q-43 0 -43 43zM56 -5q0 36 -24 90l83 27q20 -32 20 -80q0 -117 -131 -205l-35 36q45 35 66 64t21 68z" />
    <glyph glyph-name="less" unicode="&#x3c;" 
d="M18 226v46l426 229l15 -66l-355 -186l355 -196l-15 -65z" />
    <glyph glyph-name="equal" unicode="=" 
d="M31 314v63h448v-63h-448zM31 124v63h448v-63h-448z" />
    <glyph glyph-name="greater" unicode="&#x3e;" 
d="M69 -12l-15 65l354 196l-354 186l15 66l426 -229v-46z" />
    <glyph glyph-name="question" unicode="?" horiz-adv-x="350" 
d="M84 196q-2 45 16 86t46 71t56 55.5t48 50.5t20 46q0 20 -16 40.5t-38 35.5t-44.5 27.5t-38.5 19.5l-16 6l32 67q8 -3 22 -9.5t50 -26.5t63 -41.5t49.5 -53.5t22.5 -64q0 -30 -20.5 -58.5t-50 -53.5t-59.5 -52t-53 -65t-27 -81h-62zM31 32q0 29 18 52.5t51 23.5
q44 0 44 -43q0 -28 -18.5 -52.5t-51.5 -24.5q-43 0 -43 44z" />
    <glyph glyph-name="at" unicode="@" horiz-adv-x="803" 
d="M22 122q0 87 36 173t95.5 152t144.5 107t176 41q130 0 206.5 -77.5t76.5 -196.5q0 -78 -34.5 -154t-104.5 -119q-21 -13 -46 -22.5t-42.5 -14t-51 -12t-50.5 -11.5l2 84q-23 -37 -57 -60.5t-71 -23.5q-48 0 -78 39t-30 105q0 122 93 220t222 98l69 -4l-64 -304
q-6 -28 -9 -48.5t-3 -26.5l1 -6q90 14 139 86.5t49 169.5q0 102 -56.5 163t-160.5 61t-194.5 -61.5t-141.5 -157.5t-51 -199q0 -106 54.5 -171.5t140.5 -70.5l-16 -55q-110 5 -177 89t-67 207zM326 53q53 0 115 98l51 239q-83 0 -150 -76.5t-67 -173.5q0 -41 13.5 -64
t37.5 -23z" />
    <glyph glyph-name="A" unicode="A" horiz-adv-x="588" 
d="M-35 0l375 672h75l110 -672h-77l-32 202h-258l-111 -202h-82zM358 564l-163 -295h210z" />
    <glyph glyph-name="B" unicode="B" horiz-adv-x="564" 
d="M42 0l132 667h156q102 0 148 -40t46 -101q0 -104 -109 -171q85 -40 85 -139q0 -93 -73.5 -154.5t-174.5 -61.5h-210zM134 67h108q81 0 127.5 41t46.5 104q0 98 -126 98h-108zM239 600l-44 -223h142q4 2 11 6t25 17.5t31.5 29t24.5 40t11 49.5q0 40 -29 60.5t-99 20.5h-73
z" />
    <glyph glyph-name="C" unicode="C" horiz-adv-x="642" 
d="M56 270q0 102 49.5 195t143.5 153.5t209 60.5q56 0 107 -14.5t74 -28.5l23 -14l-44 -65q-8 6 -21.5 15t-58 24t-90.5 15q-69 0 -129 -31.5t-98 -81t-59.5 -108.5t-21.5 -117q0 -96 54.5 -156.5t148.5 -60.5q49 0 98.5 17t74.5 35l25 17l31 -61q-4 -3 -11.5 -8
t-32.5 -18.5t-51 -23.5t-65.5 -18t-77.5 -8q-124 0 -201 78t-77 204z" />
    <glyph glyph-name="D" unicode="D" horiz-adv-x="686" 
d="M42 0l132 667h177q81 0 148 -27t111.5 -89.5t44.5 -153.5q0 -177 -129.5 -287t-323.5 -110h-160zM133 67h64q183 0 278.5 93.5t95.5 234.5q0 94 -61 149.5t-176 55.5h-96z" />
    <glyph glyph-name="E" unicode="E" horiz-adv-x="521" 
d="M42 0l132 667h374l-14 -67h-296l-44 -226h234l-14 -67h-234l-47 -240h295l-13 -67h-373z" />
    <glyph glyph-name="F" unicode="F" horiz-adv-x="497" 
d="M42 0l132 667h365l-13 -67h-287l-45 -229h227l-14 -71h-227l-60 -300h-78z" />
    <glyph glyph-name="G" unicode="G" horiz-adv-x="671" 
d="M54 266q0 103 51 197t147 155t214 61q54 0 106 -13t76 -26l25 -13l-44 -65q-8 5 -22 13.5t-58.5 22t-90.5 13.5q-94 0 -169.5 -53t-113 -130t-37.5 -158q0 -98 58.5 -156t164.5 -58q28 0 59 4.5t48 9.5l17 4l40 200h-135l13 67h213l-64 -322q-110 -31 -204 -31
q-130 0 -212 74.5t-82 203.5z" />
    <glyph glyph-name="H" unicode="H" horiz-adv-x="722" 
d="M42 0l132 667h78l-58 -293h375l57 293h78l-132 -667h-78l61 307h-374l-61 -307h-78z" />
    <glyph glyph-name="I" unicode="I" horiz-adv-x="270" 
d="M42 0l132 667h78l-132 -667h-78z" />
    <glyph glyph-name="J" unicode="J" horiz-adv-x="270" 
d="M57 75l117 592h78l-117 -591q-11 -48 -25 -85.5t-37.5 -75.5t-60.5 -62t-86 -31l-25 62q120 13 156 191z" />
    <glyph glyph-name="K" unicode="K" horiz-adv-x="556" 
d="M42 0l132 667h78l-56 -284h12l307 284h104l-354 -323l233 -344h-94l-208 316h-14l-62 -316h-78z" />
    <glyph glyph-name="L" unicode="L" horiz-adv-x="487" 
d="M42 0l132 667h78l-119 -600h305l-14 -67h-382z" />
    <glyph glyph-name="M" unicode="M" horiz-adv-x="826" 
d="M30 0l156 667h108l82 -551l303 551h117l-110 -667h-76l93 573l-318 -573h-59l-90 572l-130 -572h-76z" />
    <glyph glyph-name="N" unicode="N" horiz-adv-x="715" 
d="M41 0l133 667h78l258 -557l111 557h76l-133 -667h-78l-261 547l-108 -547h-76z" />
    <glyph glyph-name="O" unicode="O" horiz-adv-x="751" 
d="M56 272q0 100 49 193t140 153.5t200 60.5q124 0 199.5 -76.5t75.5 -198.5q0 -102 -51.5 -198t-143 -157t-196.5 -61q-123 0 -198 80.5t-75 203.5zM140 275q0 -93 49 -156t143 -63q85 0 156.5 54.5t109 134t37.5 159.5q0 89 -50 148t-142 59q-124 0 -213.5 -102
t-89.5 -234z" />
    <glyph glyph-name="P" unicode="P" horiz-adv-x="543" 
d="M42 0l132 667h174q103 0 151.5 -46t48.5 -124q0 -107 -78.5 -173.5t-183.5 -66.5h-115l-51 -257h-78zM184 324h92q86 0 137 46.5t51 121.5q0 52 -30.5 80t-103.5 28h-91z" />
    <glyph glyph-name="Q" unicode="Q" horiz-adv-x="751" 
d="M125 -76q38 6 113 30t100 40v2q-122 -5 -201.5 76.5t-79.5 205.5q0 98 49 189.5t140 151.5t199 60q125 0 200.5 -77t75.5 -200q0 -90 -39 -171t-106 -143t-149.5 -108.5t-177.5 -76.5q156 -53 261 -53q67 0 125.5 18t92.5 46l21 -61q-92 -67 -251 -67q-78 0 -153 19.5
t-225 75.5zM141 278q0 -93 52 -159t143 -66q85 0 155.5 54.5t107.5 134t37 161.5q0 90 -50 149t-142 59q-124 0 -213.5 -102t-89.5 -231z" />
    <glyph glyph-name="R" unicode="R" horiz-adv-x="566" 
d="M408 0l-126 282h-106l-56 -282h-78l132 667h157q103 0 152.5 -45.5t49.5 -113.5q0 -81 -54 -136.5t-122 -79.5l135 -292h-84zM189 349h101q55 0 107 42.5t52 112.5q0 43 -33 69.5t-103 26.5h-74z" />
    <glyph glyph-name="S" unicode="S" horiz-adv-x="489" 
d="M14 44l21 73q7 -6 20 -16t53 -26t81 -16q64 0 109 31t45 85q0 37 -25 66.5t-60 52.5t-70.5 47.5t-60.5 62.5t-25 87q0 77 63.5 132.5t163.5 55.5q37 0 76.5 -7.5t60.5 -15.5l21 -7l-20 -73q-64 32 -135 32q-63 0 -106 -30t-43 -83q0 -37 24.5 -66t60 -50.5t71 -45
t60 -61.5t24.5 -89q0 -90 -68.5 -142.5t-163.5 -52.5q-48 0 -92.5 14t-64.5 28z" />
    <glyph glyph-name="T" unicode="T" horiz-adv-x="561" 
d="M183 0l119 600h-224l14 67h530l-14 -67h-228l-119 -600h-78z" />
    <glyph glyph-name="U" unicode="U" horiz-adv-x="689" 
d="M76 188q0 30 8 72l81 407h78l-82 -414q-6 -33 -6 -59q0 -70 39.5 -104t107.5 -34q83 0 141 49t76 142l83 420h78l-85 -428q-25 -125 -104 -188t-192 -63q-97 0 -160 49.5t-63 150.5z" />
    <glyph glyph-name="V" unicode="V" horiz-adv-x="563" 
d="M185 -5l-95 672h78l75 -551l295 551h85l-362 -672h-76z" />
    <glyph glyph-name="W" unicode="W" horiz-adv-x="898" 
d="M162 -5l-57 672h76l43 -551l259 551h80l40 -551l262 551h82l-324 -672h-80l-44 539l-259 -539h-78z" />
    <glyph glyph-name="X" unicode="X" horiz-adv-x="570" 
d="M-29 0l280 340l-141 327h84l112 -271l222 271h95l-281 -340l141 -327h-84l-113 271l-221 -271h-94z" />
    <glyph glyph-name="Y" unicode="Y" horiz-adv-x="545" 
d="M172 0l57 290l-151 377h88l116 -297l236 297h91l-302 -376l-57 -291h-78z" />
    <glyph glyph-name="Z" unicode="Z" horiz-adv-x="551" 
d="M-9 0v47l469 553h-339l14 67h442l-5 -47l-468 -553h365l-14 -67h-464z" />
    <glyph glyph-name="bracketleft" unicode="[" horiz-adv-x="292" 
d="M57 -155l72 822h175l-5 -55h-112l-62 -712h112l-5 -55h-175z" />
    <glyph glyph-name="backslash" unicode="\" horiz-adv-x="597" 
d="M418 -196l-287 863h67l288 -863h-68z" />
    <glyph glyph-name="bracketright" unicode="]" horiz-adv-x="326" 
d="M16 -100h112l62 712h-112l5 55h175l-72 -822h-175z" />
    <glyph glyph-name="asciicircum" unicode="^" horiz-adv-x="550" 
d="M41 250l214 429h50l214 -429h-74l-166 334l-166 -334h-72z" />
    <glyph glyph-name="underscore" unicode="_" horiz-adv-x="542" 
d="M-45 -37h500v-57h-500v57z" />
    <glyph glyph-name="grave" unicode="`" horiz-adv-x="500" 
d="M321 506l-99 193h81l66 -166z" />
    <glyph glyph-name="a" unicode="a" horiz-adv-x="483" 
d="M22 124q0 73 32.5 149t100.5 132.5t154 56.5q24 0 67.5 -6t69.5 -6l-66 -309q-8 -36 -8 -68q0 -37 13 -62l-69 -23q-17 29 -17 66q0 24 5 48h-2q-32 -46 -77.5 -80t-95.5 -34q-47 0 -77 34.5t-30 101.5zM102 133q0 -80 46 -80q45 0 107.5 71.5t77.5 141.5l27 126
q-27 8 -62 8q-71 0 -133.5 -84t-62.5 -183z" />
    <glyph glyph-name="b" unicode="b" horiz-adv-x="494" 
d="M16 0l149 700l77 14l-79 -371h3q25 44 73 81.5t95 37.5q50 0 83 -41t33 -114q0 -53 -19 -108t-53 -103t-89.5 -78t-121.5 -30q-23 0 -73 6t-78 6zM309 391q-42 0 -103.5 -69t-73.5 -123l-30 -141q36 -9 67 -9q88 0 144.5 74.5t56.5 169.5q0 51 -18 74.5t-43 23.5z" />
    <glyph glyph-name="c" unicode="c" horiz-adv-x="428" 
d="M30 178q0 108 72 196t176 88q25 0 48 -5t38 -12t26.5 -14.5t16.5 -12.5l5 -5l-34 -59q-5 5 -14 12t-37 19t-56 12q-65 0 -113 -66t-48 -150q0 -59 26.5 -93.5t75.5 -34.5q31 0 62 12.5t46 25.5l15 13l27 -58q-7 -6 -20.5 -16t-55 -26t-82.5 -16q-79 0 -126.5 53
t-47.5 137z" />
    <glyph glyph-name="d" unicode="d" horiz-adv-x="497" 
d="M24 141q0 76 35.5 149t104 122.5t152.5 49.5q35 0 69 -9l53 247l77 14l-122 -573q-8 -35 -8 -68q0 -37 13 -62l-69 -23q-17 29 -17 66l5 48h-2q-80 -114 -171 -114q-59 0 -89.5 42t-30.5 111zM161 53q48 0 109 72t76 141l19 89q5 23 -10 34t-40 11q-84 0 -147.5 -72.5
t-63.5 -179.5q0 -40 13.5 -67.5t43.5 -27.5z" />
    <glyph glyph-name="e" unicode="e" horiz-adv-x="422" 
d="M27 159q0 109 74 206t177 97q44 0 76 -20.5t32 -66.5q0 -44 -32.5 -81.5t-83.5 -60.5t-89 -35.5t-74 -19.5v-13q0 -112 87 -112q31 0 65 14t53 28l19 14l14 -63q-8 -6 -22 -16t-56.5 -26t-83.5 -16q-77 0 -116.5 48.5t-39.5 122.5zM266 397q-43 0 -86.5 -46.5
t-62.5 -113.5q39 10 75 23t75 41t39 59q0 16 -10 26.5t-30 10.5z" />
    <glyph glyph-name="f" unicode="f" horiz-adv-x="305" 
d="M49 387v41l70 26l3 22q6 49 19 90t36.5 79.5t63 60.5t92.5 22q32 0 59.5 -7t39.5 -13l12 -7l-34 -60q-36 21 -77 21q-29 0 -51.5 -12.5t-36.5 -30.5t-25 -48.5t-16.5 -56.5t-11.5 -64h121l-14 -63h-116q-30 -246 -55 -345q-60 -241 -189 -279l-31 53q134 45 183 419
l19 152h-61z" />
    <glyph glyph-name="g" unicode="g" horiz-adv-x="483" 
d="M31 -62h68q-26 -41 -26 -65q0 -23 18 -39t54 -16t62 13.5t40 33t24 51t13 58t8 65.5t9 61h-2q-29 -44 -74 -78t-95 -34q-48 0 -78 34.5t-30 102.5q0 53 20 111t55 109t91.5 84t121.5 33q22 0 66.5 -6t70.5 -6l-58 -271q-7 -30 -14.5 -85t-13 -94.5t-21 -87t-37.5 -77.5
t-63 -51t-98 -21q-67 0 -104 27.5t-37 65.5q0 36 30 82zM148 53q45 0 107.5 71.5t77.5 141.5l28 130q-31 5 -56 5q-77 0 -140 -84t-63 -184q0 -80 46 -80z" />
    <glyph glyph-name="h" unicode="h" horiz-adv-x="505" 
d="M17 0l149 700l77 14l-79 -372q96 120 197 120q45 0 68.5 -26t23.5 -65q0 -24 -19 -115l-55 -256h-74l55 259q15 68 15 88q0 46 -42 46q-49 0 -118.5 -68t-80.5 -121l-43 -204h-74z" />
    <glyph glyph-name="i" unicode="i" horiz-adv-x="222" 
d="M180 564q-44 0 -44 47q0 24 16 42.5t41 18.5q43 0 43 -46q0 -25 -16 -43.5t-40 -18.5zM17 0l96 450h74l-96 -450h-74z" />
    <glyph glyph-name="j" unicode="j" horiz-adv-x="222" 
d="M180 564q-44 0 -44 47q0 24 16 42.5t41 18.5q43 0 43 -46q0 -25 -16 -43.5t-40 -18.5zM18 4l95 446h74l-94 -442q-24 -116 -72 -174t-126 -71l-23 62q110 13 146 179z" />
    <glyph glyph-name="k" unicode="k" horiz-adv-x="440" 
d="M17 0l149 700l77 14l-93 -437h11l189 173h103l-235 -209l157 -241h-88l-138 219h-12l-46 -219h-74z" />
    <glyph glyph-name="l" unicode="l" horiz-adv-x="222" 
d="M17 0l149 700l77 14l-152 -714h-74z" />
    <glyph glyph-name="m" unicode="m" horiz-adv-x="762" 
d="M16 0l94 443l77 14l-24 -113q92 118 187 118q49 0 71.5 -34.5t12.5 -86.5q93 121 190 121q43 0 64.5 -26t21.5 -65q0 -24 -19 -115l-55 -256h-74l55 259q15 75 15 88q0 46 -36 46q-46 0 -112 -68.5t-78 -123.5l-43 -201h-74l55 259q15 75 15 88q0 46 -37 46
q-45 0 -111 -66t-77 -120l-44 -207h-74z" />
    <glyph glyph-name="n" unicode="n" horiz-adv-x="504" 
d="M16 0l94 443l77 14l-25 -116q97 121 198 121q45 0 68.5 -26t23.5 -65q0 -24 -19 -115l-55 -256h-74l55 259q15 68 15 88q0 46 -42 46q-49 0 -118 -68t-81 -122l-43 -203h-74z" />
    <glyph glyph-name="o" unicode="o" horiz-adv-x="504" 
d="M30 179q0 108 74 195.5t180 87.5q82 0 127.5 -54.5t45.5 -129.5q0 -45 -17.5 -95t-49 -94t-81.5 -72.5t-107 -28.5q-83 0 -127.5 55.5t-44.5 135.5zM110 182q0 -59 24 -94t74 -35q74 0 121.5 69.5t47.5 152.5q0 55 -24 88.5t-73 33.5q-70 0 -120 -62t-50 -153z" />
    <glyph glyph-name="p" unicode="p" horiz-adv-x="495" 
d="M-34 -232l144 675l77 14l-24 -115q78 120 168 120q59 0 89.5 -42t30.5 -111q0 -76 -34 -149t-99.5 -122.5t-146.5 -49.5q-37 0 -80 17l-48 -223zM113 109q-6 -30 10.5 -44.5t48.5 -14.5q79 0 139 72.5t60 179.5q0 40 -13.5 67.5t-43.5 27.5q-48 0 -110 -75.5t-77 -147.5z
" />
    <glyph glyph-name="q" unicode="q" horiz-adv-x="494" 
d="M25 143q0 53 19 108t53 103t89.5 78t121.5 30q22 0 72 -6t79 -6l-143 -668l-77 -14l72 335h-3q-26 -42 -73 -78.5t-94 -36.5q-50 0 -83 41t-33 114zM105 157q0 -51 18 -74.5t43 -23.5q42 0 103.5 68.5t72.5 120.5l30 144q-32 9 -66 9q-88 0 -144.5 -74.5t-56.5 -169.5z
" />
    <glyph glyph-name="r" unicode="r" horiz-adv-x="333" 
d="M16 0l94 443l77 14l-25 -116h4q73 118 146 118q9 0 17.5 -1.5t12.5 -3.5l5 -1l-17 -83q-20 7 -37 7q-45 0 -100 -75q-53 -73 -61 -106l-42 -196h-74z" />
    <glyph glyph-name="s" unicode="s" horiz-adv-x="356" 
d="M-1 25l17 65q48 -37 108 -37q38 0 61 16t23 47q0 29 -22.5 53t-50 40.5t-50 47.5t-22.5 71q0 62 45.5 98t116.5 36q30 0 56.5 -6.5t38.5 -13.5l11 -6l-18 -65q-44 26 -93 26q-82 0 -82 -61q0 -23 15 -42t36 -33.5t42.5 -31t36.5 -43t15 -60.5q0 -67 -47.5 -102.5
t-114.5 -35.5q-32 0 -62.5 9t-44.5 19z" />
    <glyph glyph-name="t" unicode="t" horiz-adv-x="350" 
d="M55 83q0 21 6 46l56 258h-61v42l75 25l20 96l81 19l-25 -119h135l-14 -63h-134l-53 -245q-5 -21 -5 -43q0 -46 35 -46q41 0 102 50l18 -61q-79 -54 -141 -54q-45 0 -70 24t-25 71z" />
    <glyph glyph-name="u" unicode="u" horiz-adv-x="499" 
d="M35 86q0 23 19 117l52 247h75l-54 -250q-17 -80 -17 -96q0 -21 11 -36t34 -15q49 0 113 71.5t79 141.5l39 184h74l-66 -309q-18 -85 5 -130l-72 -23q-26 42 -12 114h-2q-80 -114 -178 -114q-49 0 -74.5 29t-25.5 69z" />
    <glyph glyph-name="v" unicode="v" horiz-adv-x="430" 
d="M113 -5q-49 260 -56 455h79q0 -113 32 -367q9 16 39 66.5t44.5 76.5t38 69t40.5 80.5t30 74.5h81q-15 -38 -36 -81t-35 -71t-45.5 -81.5t-41 -69.5t-49.5 -80.5t-45 -71.5h-76z" />
    <glyph glyph-name="w" unicode="w" horiz-adv-x="696" 
d="M111 -5q-43 227 -51 455h79q0 -137 27 -366q115 199 176 366h75q0 -139 27 -369q130 225 183 369h78q-73 -184 -241 -455h-71q-27 142 -41 309q-69 -145 -170 -309h-71z" />
    <glyph glyph-name="x" unicode="x" horiz-adv-x="436" 
d="M-29 0l197 231l-102 219h80l73 -166l139 166h89l-199 -230l104 -220h-78l-76 166l-140 -166h-87z" />
    <glyph glyph-name="y" unicode="y" horiz-adv-x="424" 
d="M-135 -175q105 17 217 155q10 12 14 24.5t4 26v31.5q-3 76 -16.5 191.5t-32.5 196.5h80q45 -221 33 -361q62 92 115.5 195.5t75.5 165.5h81q-76 -189 -216 -393q-93 -134 -183 -214q-84 -75 -156 -80z" />
    <glyph glyph-name="z" unicode="z" horiz-adv-x="416" 
d="M-7 0v47l296 339h-219l8 64h321l-6 -52l-295 -334h238l-14 -64h-329z" />
    <glyph glyph-name="braceleft" unicode="{" horiz-adv-x="334" 
d="M114 59q0 176 -102 178l5 51q43 1 72.5 28t44 80.5t19 85t9.5 89.5q0 2 0.5 3.5t0.5 3.5v3q7 81 63.5 120.5t146.5 39.5l-4 -51q-47 -4 -74 -12.5t-41.5 -32t-19 -45t-9.5 -72.5q-14 -128 -43.5 -184t-81.5 -80v-2q34 -13 57 -63t23 -136q0 -25 -3 -71t-3 -63
q0 -53 24 -75.5t95 -28.5l-4 -51q-89 0 -136 33t-47 110q0 15 4 63t4 79z" />
    <glyph glyph-name="bar" unicode="|" horiz-adv-x="299" 
d="M111 -225v974h68v-974h-68z" />
    <glyph glyph-name="braceright" unicode="}" horiz-adv-x="334" 
d="M107 -13q11 126 46 191.5t80 83.5v2q-81 34 -81 195q0 18 3 64t3 63q0 54 -24 76.5t-94 27.5l4 51q84 0 133 -35t49 -106q0 -15 -4 -62t-4 -75q0 -173 103 -175l-5 -51q-42 -1 -71.5 -29.5t-43.5 -78.5t-20.5 -89.5t-10.5 -90.5q-1 -10 -1 -15q-13 -160 -208 -160l4 51
q45 4 71.5 13t41 30.5t20 46t9.5 72.5z" />
    <glyph glyph-name="asciitilde" unicode="~" horiz-adv-x="568" 
d="M52 175q0 155 130 155q39 0 69 -15.5t45.5 -34t37 -34t44.5 -15.5q68 0 68 95h62q0 -155 -130 -155q-39 0 -69 15.5t-45.5 34t-37 34t-44.5 15.5q-68 0 -68 -95h-62z" />
    <glyph glyph-name="uni00A0" unicode="&#xa0;" horiz-adv-x="240" 
 />
    <glyph glyph-name="exclamdown" unicode="&#xa1;" horiz-adv-x="249" 
d="M158 254l-90 -471h-87l114 471h63zM213 419q0 -30 -18 -53.5t-51 -23.5q-44 0 -44 42q0 29 18.5 53.5t51.5 24.5q43 0 43 -43z" />
    <glyph glyph-name="cent" unicode="&#xa2;" horiz-adv-x="433" 
d="M212 67h-6l-21 -89h-44l22 95q-57 14 -89.5 59.5t-32.5 109.5q0 90 62 165t159 83l21 87h44l-21 -87q36 -4 64.5 -19t38.5 -27l10 -13l-45 -55q-3 4 -9.5 11t-28.5 19.5t-46 15.5l-68 -287q28 1 57 13t44 24l15 11l24 -58q-6 -6 -18 -16t-51 -26t-81 -16zM121 243
q0 -81 58 -102l66 278q-54 -13 -89 -64t-35 -112z" />
    <glyph glyph-name="sterling" unicode="&#xa3;" horiz-adv-x="522" 
d="M60 239l11 50h64l28 83q32 97 76.5 145t116.5 48q46 0 80.5 -15t46.5 -30l12 -15l-43 -55q-3 5 -10 13.5t-32.5 22t-55.5 13.5q-40 0 -68.5 -28.5t-50.5 -101.5l-24 -80h177l-16 -50h-177q-14 -44 -31 -85t-28 -60l-10 -19q79 -34 143 -34q42 0 71 24t50 94h65
q-49 -184 -183 -184q-39 0 -106.5 19.5t-90.5 19.5q-25 0 -61 -14l-18 54q8 2 19.5 7t36.5 28t36 55l31 95h-59z" />
    <glyph glyph-name="yen" unicode="&#xa5;" horiz-adv-x="533" 
d="M86 270l11 50h89l-91 233h80l90 -242l196 242h83l-190 -233h100l-11 -50h-129l-23 -28l-9 -40h146l-10 -50h-146l-32 -152h-74l32 152h-137l10 50h137l9 39l-12 29h-119z" />
    <glyph glyph-name="brokenbar" unicode="&#xa6;" horiz-adv-x="294" 
d="M102 328v358h72v-358h-72zM102 173h72v-358h-72v358z" />
    <glyph glyph-name="section" unicode="&#xa7;" horiz-adv-x="568" 
d="M68 -92q50 61 63 148l45 350q16 124 79.5 198.5t170.5 74.5q42 0 81.5 -13t57.5 -26l18 -13l-31 -51q-62 47 -133 47q-75 0 -121.5 -63t-57.5 -156l-38 -303q-18 -144 -77 -204zM-38 -134q7 -5 19 -13t46 -21t66 -13q75 0 121.5 63t57.5 156l38 303q18 143 77 204l57 -11
q-49 -60 -62 -148l-45 -350q-16 -124 -80 -198.5t-171 -74.5q-42 0 -81 13t-57 26l-18 13z" />
    <glyph glyph-name="dieresis" unicode="&#xa8;" horiz-adv-x="500" 
d="M378 567q-42 0 -42 44q0 23 15 40.5t39 17.5q41 0 41 -43q0 -24 -15.5 -41.5t-37.5 -17.5zM213 567q-42 0 -42 44q0 23 15 40.5t39 17.5q20 0 30.5 -12t10.5 -31q0 -24 -15.5 -41.5t-37.5 -17.5z" />
    <glyph glyph-name="copyright" unicode="&#xa9;" horiz-adv-x="787" 
d="M60 333q0 143 101 244t244 101t244 -101t101 -244t-101 -244t-244 -101t-244 101t-101 244zM111 333q0 -124 85.5 -211.5t208.5 -87.5t208.5 87.5t85.5 211.5t-85.5 211.5t-208.5 87.5t-208.5 -87.5t-85.5 -211.5zM212 332q0 82 54.5 144t148.5 62q42 0 78 -15t51 -30
l16 -15l-45 -55q-5 5 -13.5 13t-36 21t-56.5 13q-54 0 -84.5 -38.5t-30.5 -92.5q0 -57 34.5 -97t91.5 -40q31 0 58.5 12t39.5 24l13 12l27 -58q-5 -6 -15.5 -16t-47.5 -26t-81 -16q-88 0 -145 57t-57 141z" />
    <glyph glyph-name="ordfeminine" unicode="&#xaa;" horiz-adv-x="384" 
d="M165 347q-36 0 -59 24.5t-23 72.5q0 82 58.5 158.5t150.5 76.5q15 0 48.5 -4t52.5 -4l-46 -217q-12 -56 5 -91l-56 -16q-19 29 -9 80h-2q-57 -80 -120 -80zM180 397q28 0 70 48.5t52 96.5l18 83q-19 6 -36 6q-50 0 -91.5 -57t-41.5 -123q0 -54 29 -54z" />
    <glyph glyph-name="guillemotleft" unicode="&#xab;" horiz-adv-x="488" 
d="M200 249l1 4q16 11 226 209l52 -15l-185 -200l103 -192l-53 -15q-24 35 -46 67.5t-34 50.5t-23 35t-16.5 24.5t-10.5 14.5t-7.5 10t-6.5 7zM162 40q-24 35 -46 67.5t-34 50.5t-23 35t-16.5 24.5t-10.5 14.5t-7.5 10t-6.5 7l1 4q16 11 226 209l52 -15l-185 -200l103 -192z
" />
    <glyph glyph-name="logicalnot" unicode="&#xac;" horiz-adv-x="610" 
d="M72 326v63h458v-278h-67v215h-391z" />
    <glyph glyph-name="registered" unicode="&#xae;" horiz-adv-x="440" 
d="M267 358q-71 0 -122 51t-51 122t51 122t122 51t122 -51t51 -122t-51 -122t-122 -51zM266 387q57 0 98.5 42.5t41.5 101.5q0 58 -41.5 100.5t-98.5 42.5t-97.5 -42t-40.5 -101t40.5 -101.5t97.5 -42.5zM305 448l-43 62h-18v-62h-41v170h60q70 0 70 -51q0 -33 -33 -49
l51 -70h-46zM244 537h22q25 0 25 26q0 27 -32 27h-15v-53z" />
    <glyph glyph-name="macron" unicode="&#xaf;" horiz-adv-x="500" 
d="M74 589l13 59h228l-13 -59h-228z" />
    <glyph glyph-name="degree" unicode="&#xb0;" horiz-adv-x="333" 
d="M220 439q-51 0 -86.5 35t-35.5 85t35.5 85t86.5 35t86.5 -35t35.5 -85t-35.5 -85t-86.5 -35zM220 485q30 0 51 21.5t21 52.5t-21 52.5t-51 21.5t-51 -21.5t-21 -52.5t21 -52.5t51 -21.5z" />
    <glyph glyph-name="plusminus" unicode="&#xb1;" 
d="M27 314v63h188v181h65v-181h190v-63h-190v-194h-65v194h-188zM28 0v63h443v-63h-443z" />
    <glyph glyph-name="twosuperior" unicode="&#xb2;" horiz-adv-x="327" 
d="M54 376v32l114 99q62 54 90.5 90.5t28.5 73.5q0 28 -17 42.5t-40 14.5q-18 0 -37 -9t-29 -18l-11 -9l-33 40q6 6 16 15t41.5 24.5t63.5 15.5q49 0 80.5 -29t31.5 -78q0 -42 -27.5 -86t-101.5 -109l-62 -54h167l-7 -55h-268z" />
    <glyph glyph-name="threesuperior" unicode="&#xb3;" horiz-adv-x="309" 
d="M52 395l23 52q36 -21 79 -21q39 0 65 20t26 49q0 28 -23.5 41.5t-58.5 13.5h-22l7 53q42 4 81 31t39 60q0 36 -45 36q-16 0 -33.5 -5t-27.5 -10l-9 -5l-26 43q47 34 107 34q46 0 75 -23.5t29 -59.5q0 -37 -29 -68t-67 -50q72 -26 72 -87q0 -50 -45.5 -90t-112.5 -40
q-26 0 -52 6.5t-39 12.5z" />
    <glyph glyph-name="acute" unicode="&#xb4;" horiz-adv-x="500" 
d="M228 506l-44 27l136 166h89z" />
    <glyph glyph-name="mu" unicode="&#xb5;" horiz-adv-x="542" 
d="M17 -39l104 489h74l-65 -305q-18 -88 43 -88q63 0 161 84l66 309h74l-71 -334q-8 -40 1 -50t49 -10l-14 -63q-28 -5 -47 -5q-44 0 -58.5 21.5t-11.5 60.5q-90 -82 -173 -82q-35 0 -59 13q-9 -45 -20.5 -123t-14.5 -94h-85q30 97 47 177z" />
    <glyph glyph-name="mu" unicode="&#x3bc;" horiz-adv-x="542" 
d="M17 -39l104 489h74l-65 -305q-18 -88 43 -88q63 0 161 84l66 309h74l-71 -334q-8 -40 1 -50t49 -10l-14 -63q-28 -5 -47 -5q-44 0 -58.5 21.5t-11.5 60.5q-90 -82 -173 -82q-35 0 -59 13q-9 -45 -20.5 -123t-14.5 -94h-85q30 97 47 177z" />
    <glyph glyph-name="paragraph" unicode="&#xb6;" horiz-adv-x="639" 
d="M116 -174q59 0 94 36t51 118l39 199h-8q-116 0 -174 57.5t-58 146.5q0 116 94 200t217 84h291l-11 -57h-68l-121 -610h-61l121 610h-71l-125 -630q-9 -46 -23 -81t-37.5 -68t-61.5 -50.5t-88 -17.5v63z" />
    <glyph glyph-name="periodcentered" unicode="&#xb7;" horiz-adv-x="239" 
d="M102 194q-43 0 -43 43q0 30 18 53.5t51 23.5q44 0 44 -42q0 -29 -18.5 -53.5t-51.5 -24.5z" />
    <glyph glyph-name="cedilla" unicode="&#xb8;" horiz-adv-x="500" 
d="M150 -73q0 15 24 53l16 25h51l-13 -22q-18 -30 -18 -37q0 -14 16 -25.5t31.5 -27t15.5 -39.5q0 -36 -34 -63.5t-82 -27.5q-24 0 -46 7.5t-33 15.5l-10 8l22 46q29 -27 67 -27q23 0 39.5 10.5t16.5 26.5q0 13 -15.5 24t-31.5 24t-16 29z" />
    <glyph glyph-name="onesuperior" unicode="&#xb9;" horiz-adv-x="265" 
d="M51 376l10 51h80l61 302h-74l6 51h142l-71 -353h75l-10 -51h-219z" />
    <glyph glyph-name="ordmasculine" unicode="&#xba;" horiz-adv-x="391" 
d="M212 347q-61 0 -93.5 39t-32.5 95q0 76 53.5 137t130.5 61q60 0 93.5 -38t33.5 -91q0 -71 -52 -137t-133 -66zM217 397q49 0 80.5 47t31.5 104q0 36 -15.5 58.5t-46.5 22.5q-46 0 -79.5 -42.5t-33.5 -103.5q0 -86 63 -86z" />
    <glyph glyph-name="guillemotright" unicode="&#xbb;" horiz-adv-x="489" 
d="M184 55l185 199l-103 193l53 15q24 -35 46 -67.5t34 -50.5t23 -35t16.5 -24.5t10.5 -14.5t7.5 -10t6.5 -7l-1 -4q-16 -11 -226 -209zM2 55l185 199l-103 193l53 15q24 -35 46 -67.5t34 -50.5t23 -35t16.5 -24.5t10.5 -14.5t7.5 -10t6.5 -7l-1 -4q-16 -11 -226 -209z" />
    <glyph glyph-name="onequarter" unicode="&#xbc;" horiz-adv-x="788" 
d="M42 268l10 51h80l61 302h-74l6 51h142l-71 -353h75l-10 -51h-219zM215 0h-75l533 687l57 -21zM578 0l21 105h-174l3 39l236 263h58l-50 -251h57l-10 -51h-57l-21 -105h-63zM501 156h108l30 154z" />
    <glyph glyph-name="onehalf" unicode="&#xbd;" horiz-adv-x="847" 
d="M45 268l10 51h80l61 302h-74l6 51h142l-71 -353h75l-10 -51h-219zM491 0v32l114 99q62 54 90.5 90.5t28.5 73.5q0 28 -17 42.5t-40 14.5q-18 0 -37 -9t-30 -18l-10 -9l-33 40q6 6 16 15t41.5 24.5t63.5 15.5q49 0 80.5 -29t31.5 -78q0 -42 -27.5 -86t-101.5 -109l-62 -54
h167l-7 -55h-268zM218 0h-75l533 687l57 -21z" />
    <glyph glyph-name="threequarters" unicode="&#xbe;" horiz-adv-x="796" 
d="M223 0h-75l533 687l57 -21zM586 0l21 105h-174l3 39l236 263h58l-50 -251h57l-10 -51h-57l-21 -105h-63zM509 156h108l30 154zM42 282l23 52q36 -21 79 -21q39 0 65 20t26 49q0 28 -23.5 41.5t-58.5 13.5h-22l7 53q42 4 81 31t39 60q0 36 -45 36q-16 0 -33.5 -5
t-27.5 -10l-9 -5l-26 43q47 34 107 34q46 0 75 -23.5t29 -59.5q0 -37 -29 -68t-67 -50q72 -26 72 -87q0 -50 -45.5 -90t-112.5 -40q-26 0 -52 6.5t-39 13.5z" />
    <glyph glyph-name="questiondown" unicode="&#xbf;" horiz-adv-x="343" 
d="M246 254q2 -43 -16 -83t-46 -68.5t-56 -53.5t-48 -49.5t-20 -44.5t16 -40.5t38 -35.5t44.5 -27.5t38.5 -19.5l16 -6l-32 -67q-8 3 -22 9.5t-50 26.5t-63 41.5t-49.5 53.5t-22.5 64q0 29 20.5 56.5t50 51.5t59.5 50.5t53 63t27 78.5h62zM299 418q0 -29 -18 -52.5
t-51 -23.5q-44 0 -44 43q0 28 18.5 52.5t51.5 24.5q43 0 43 -44z" />
    <glyph glyph-name="Agrave" unicode="&#xc0;" horiz-adv-x="588" 
d="M-35 0l375 672h75l110 -672h-77l-32 202h-258l-111 -202h-82zM358 564l-163 -295h210zM264 789l31 72l193 -95l-19 -48z" />
    <glyph glyph-name="Aacute" unicode="&#xc1;" horiz-adv-x="588" 
d="M-35 0l375 672h75l110 -672h-77l-32 202h-258l-111 -202h-82zM358 564l-163 -295h210zM330 718l-19 48l193 95l31 -72z" />
    <glyph glyph-name="Acircumflex" unicode="&#xc2;" horiz-adv-x="588" 
d="M-35 0l375 672h75l110 -672h-77l-32 202h-258l-111 -202h-82zM358 564l-163 -295h210zM275 718l-42 38l151 115h69l100 -115l-48 -38l-94 100z" />
    <glyph glyph-name="Atilde" unicode="&#xc3;" horiz-adv-x="588" 
d="M-35 0l375 672h75l110 -672h-77l-32 202h-258l-111 -202h-82zM358 564l-163 -295h210zM222 740l2.5 12.5t9.5 27t19.5 34.5t34 27t51.5 12q26 0 47.5 -10.5t32.5 -22.5t26 -22.5t30 -10.5q21 0 35.5 17.5t18.5 34.5l4 17l56 -10q-1 -5 -2.5 -13t-9.5 -28t-20 -35.5
t-35 -28t-52 -12.5q-33 0 -57 16.5t-42 33t-36 16.5q-20 0 -34.5 -16.5t-18.5 -32.5l-4 -16z" />
    <glyph glyph-name="Adieresis" unicode="&#xc4;" horiz-adv-x="588" 
d="M-35 0l375 672h75l110 -672h-77l-32 202h-258l-111 -202h-82zM358 564l-163 -295h210zM509 739q-42 0 -42 44q0 23 15 40.5t39 17.5q41 0 41 -43q0 -24 -15.5 -41.5t-37.5 -17.5zM291 739q-42 0 -42 44q0 23 15 40.5t39 17.5q20 0 30.5 -12t10.5 -31q0 -24 -15.5 -41.5
t-37.5 -17.5z" />
    <glyph glyph-name="Aring" unicode="&#xc5;" horiz-adv-x="588" 
d="M-35 0l375 672h75l110 -672h-77l-32 202h-258l-111 -202h-82zM358 564l-163 -295h210zM391 711q-42 0 -63.5 20t-21.5 50q0 35 28.5 62.5t76.5 27.5q44 0 65 -18.5t21 -47.5q0 -37 -28.5 -65.5t-77.5 -28.5zM392 745q25 0 42 17t17 40q0 14 -10.5 24.5t-29.5 10.5
q-28 0 -42.5 -17.5t-14.5 -38.5q0 -36 38 -36z" />
    <glyph glyph-name="AE" unicode="&#xc6;" horiz-adv-x="835" 
d="M-49 0l486 667h425l-14 -67h-296l-44 -226h234l-14 -67h-234l-47 -240h295l-13 -67h-373l44 224h-199l-161 -224h-89zM250 291h163l62 313z" />
    <glyph glyph-name="Ccedilla" unicode="&#xc7;" horiz-adv-x="644" 
d="M246 -73q0 15 24 53l8 13q-101 17 -161 91.5t-60 185.5q0 102 49.5 195t143.5 153.5t209 60.5q56 0 107 -14.5t74 -28.5l23 -14l-44 -65q-8 6 -21.5 15t-58 24t-90.5 15q-69 0 -129 -31.5t-98 -81t-59.5 -108.5t-21.5 -117q0 -96 54.5 -156.5t148.5 -60.5q49 0 98.5 17
t74.5 35l25 17l31 -61q-4 -3 -11.5 -8t-32.5 -18.5t-51 -23.5t-65.5 -18t-77.5 -8h-8l-3 -5q-18 -30 -18 -37q0 -14 16 -25.5t31.5 -27t15.5 -39.5q0 -36 -34 -63.5t-82 -27.5q-24 0 -46 7.5t-33 15.5l-10 8l22 46q29 -27 67 -27q23 0 39.5 10.5t16.5 26.5q0 13 -15.5 24
t-31.5 24t-16 29z" />
    <glyph glyph-name="Egrave" unicode="&#xc8;" horiz-adv-x="521" 
d="M42 0l132 667h374l-14 -67h-296l-44 -226h234l-14 -67h-234l-47 -240h295l-13 -67h-373zM249 789l31 72l193 -95l-19 -48z" />
    <glyph glyph-name="Eacute" unicode="&#xc9;" horiz-adv-x="521" 
d="M42 0l132 667h374l-14 -67h-296l-44 -226h234l-14 -67h-234l-47 -240h295l-13 -67h-373zM315 718l-19 48l193 95l31 -72z" />
    <glyph glyph-name="Ecircumflex" unicode="&#xca;" horiz-adv-x="521" 
d="M42 0l132 667h374l-14 -67h-296l-44 -226h234l-14 -67h-234l-47 -240h295l-13 -67h-373zM260 718l-42 38l151 115h69l100 -115l-48 -38l-94 100z" />
    <glyph glyph-name="Edieresis" unicode="&#xcb;" horiz-adv-x="521" 
d="M42 0l132 667h374l-14 -67h-296l-44 -226h234l-14 -67h-234l-47 -240h295l-13 -67h-373zM494 739q-42 0 -42 44q0 23 15 40.5t39 17.5q41 0 41 -43q0 -24 -15.5 -41.5t-37.5 -17.5zM276 739q-42 0 -42 44q0 23 15 40.5t39 17.5q20 0 30.5 -12t10.5 -31q0 -24 -15.5 -41.5
t-37.5 -17.5z" />
    <glyph glyph-name="Igrave" unicode="&#xcc;" horiz-adv-x="270" 
d="M42 0l132 667h78l-132 -667h-78zM99 789l31 72l193 -95l-19 -48z" />
    <glyph glyph-name="Iacute" unicode="&#xcd;" horiz-adv-x="270" 
d="M42 0l132 667h78l-132 -667h-78zM165 718l-19 48l193 95l31 -72z" />
    <glyph glyph-name="Icircumflex" unicode="&#xce;" horiz-adv-x="270" 
d="M42 0l132 667h78l-132 -667h-78zM110 718l-42 38l151 115h69l100 -115l-48 -38l-94 100z" />
    <glyph glyph-name="Idieresis" unicode="&#xcf;" horiz-adv-x="270" 
d="M42 0l132 667h78l-132 -667h-78zM315 739q-42 0 -42 44q0 23 15 40.5t39 17.5q41 0 41 -43q0 -24 -15.5 -41.5t-37.5 -17.5zM150 739q-42 0 -42 44q0 23 15 40.5t39 17.5q20 0 30.5 -12t10.5 -31q0 -24 -15.5 -41.5t-37.5 -17.5z" />
    <glyph glyph-name="Eth" unicode="&#xd0;" horiz-adv-x="693" 
d="M38 305l13 67h71l59 295h177q81 0 148 -27t111.5 -89.5t44.5 -153.5q0 -177 -129.5 -287t-323.5 -110h-160l60 305h-71zM140 67h64q183 0 278.5 93.5t95.5 234.5q0 94 -61 149.5t-176 55.5h-96l-45 -228h161l-13 -67h-161z" />
    <glyph glyph-name="Ntilde" unicode="&#xd1;" horiz-adv-x="715" 
d="M41 0l133 667h78l258 -557l111 557h76l-133 -667h-78l-261 547l-108 -547h-76zM278 740l2.5 12.5t9.5 27t19.5 34.5t34 27t51.5 12q26 0 47.5 -10.5t32.5 -22.5t26 -22.5t30 -10.5q21 0 35.5 17.5t18.5 34.5l4 17l56 -10q-1 -5 -2.5 -13t-9.5 -28t-20 -35.5t-35 -28
t-52 -12.5q-33 0 -57 16.5t-42 33t-36 16.5q-20 0 -34.5 -16.5t-18.5 -32.5l-4 -16z" />
    <glyph glyph-name="Ograve" unicode="&#xd2;" horiz-adv-x="751" 
d="M56 272q0 100 49 193t140 153.5t200 60.5q124 0 199.5 -76.5t75.5 -198.5q0 -102 -51.5 -198t-143 -157t-196.5 -61q-123 0 -198 80.5t-75 203.5zM140 275q0 -93 49 -156t143 -63q85 0 156.5 54.5t109 134t37.5 159.5q0 89 -50 148t-142 59q-124 0 -213.5 -102
t-89.5 -234zM340 789l31 72l193 -95l-19 -48z" />
    <glyph glyph-name="Oacute" unicode="&#xd3;" horiz-adv-x="751" 
d="M56 272q0 100 49 193t140 153.5t200 60.5q124 0 199.5 -76.5t75.5 -198.5q0 -102 -51.5 -198t-143 -157t-196.5 -61q-123 0 -198 80.5t-75 203.5zM140 275q0 -93 49 -156t143 -63q85 0 156.5 54.5t109 134t37.5 159.5q0 89 -50 148t-142 59q-124 0 -213.5 -102
t-89.5 -234zM406 718l-19 48l193 95l31 -72z" />
    <glyph glyph-name="Ocircumflex" unicode="&#xd4;" horiz-adv-x="751" 
d="M56 272q0 100 49 193t140 153.5t200 60.5q124 0 199.5 -76.5t75.5 -198.5q0 -102 -51.5 -198t-143 -157t-196.5 -61q-123 0 -198 80.5t-75 203.5zM140 275q0 -93 49 -156t143 -63q85 0 156.5 54.5t109 134t37.5 159.5q0 89 -50 148t-142 59q-124 0 -213.5 -102
t-89.5 -234zM351 718l-42 38l151 115h69l100 -115l-48 -38l-94 100z" />
    <glyph glyph-name="Otilde" unicode="&#xd5;" horiz-adv-x="751" 
d="M56 272q0 100 49 193t140 153.5t200 60.5q124 0 199.5 -76.5t75.5 -198.5q0 -102 -51.5 -198t-143 -157t-196.5 -61q-123 0 -198 80.5t-75 203.5zM140 275q0 -93 49 -156t143 -63q85 0 156.5 54.5t109 134t37.5 159.5q0 89 -50 148t-142 59q-124 0 -213.5 -102
t-89.5 -234zM298 740l2.5 12.5t9.5 27t19.5 34.5t34 27t51.5 12q26 0 47.5 -10.5t32.5 -22.5t26 -22.5t30 -10.5q21 0 35.5 17.5t18.5 34.5l4 17l56 -10q-1 -5 -2.5 -13t-9.5 -28t-20 -35.5t-35 -28t-52 -12.5q-33 0 -57 16.5t-42 33t-36 16.5q-20 0 -34.5 -16.5
t-18.5 -32.5l-4 -16z" />
    <glyph glyph-name="Odieresis" unicode="&#xd6;" horiz-adv-x="751" 
d="M56 272q0 100 49 193t140 153.5t200 60.5q124 0 199.5 -76.5t75.5 -198.5q0 -102 -51.5 -198t-143 -157t-196.5 -61q-123 0 -198 80.5t-75 203.5zM140 275q0 -93 49 -156t143 -63q85 0 156.5 54.5t109 134t37.5 159.5q0 89 -50 148t-142 59q-124 0 -213.5 -102
t-89.5 -234zM585 739q-42 0 -42 44q0 23 15 40.5t39 17.5q41 0 41 -43q0 -24 -15.5 -41.5t-37.5 -17.5zM367 739q-42 0 -42 44q0 23 15 40.5t39 17.5q20 0 30.5 -12t10.5 -31q0 -24 -15.5 -41.5t-37.5 -17.5z" />
    <glyph glyph-name="multiply" unicode="&#xd7;" 
d="M37 431l44 46l176 -181l176 181l44 -46l-176 -181l176 -180l-45 -46l-175 180l-175 -180l-45 46l175 180z" />
    <glyph glyph-name="Oslash" unicode="&#xd8;" horiz-adv-x="751" 
d="M56 272q0 100 49 193t140 153.5t200 60.5q84 0 147 -37l42 55h64l-64 -85q86 -78 86 -208q0 -102 -51.5 -198t-143 -157t-196.5 -61q-80 0 -143 36l-41 -54h-65l64 85q-88 80 -88 217zM140 275q0 -99 51 -159l356 467q-44 28 -104 28q-124 0 -213.5 -102t-89.5 -234z
M635 404q0 90 -49 146l-356 -468q43 -26 102 -26q85 0 156.5 54.5t109 134t37.5 159.5z" />
    <glyph glyph-name="Ugrave" unicode="&#xd9;" horiz-adv-x="689" 
d="M76 188q0 30 8 72l81 407h78l-82 -414q-6 -33 -6 -59q0 -70 39.5 -104t107.5 -34q83 0 141 49t76 142l83 420h78l-85 -428q-25 -125 -104 -188t-192 -63q-97 0 -160 49.5t-63 150.5zM306 789l31 72l193 -95l-19 -48z" />
    <glyph glyph-name="Uacute" unicode="&#xda;" horiz-adv-x="689" 
d="M76 188q0 30 8 72l81 407h78l-82 -414q-6 -33 -6 -59q0 -70 39.5 -104t107.5 -34q83 0 141 49t76 142l83 420h78l-85 -428q-25 -125 -104 -188t-192 -63q-97 0 -160 49.5t-63 150.5zM372 718l-19 48l193 95l31 -72z" />
    <glyph glyph-name="Ucircumflex" unicode="&#xdb;" horiz-adv-x="689" 
d="M76 188q0 30 8 72l81 407h78l-82 -414q-6 -33 -6 -59q0 -70 39.5 -104t107.5 -34q83 0 141 49t76 142l83 420h78l-85 -428q-25 -125 -104 -188t-192 -63q-97 0 -160 49.5t-63 150.5zM317 718l-42 38l151 115h69l100 -115l-48 -38l-94 100z" />
    <glyph glyph-name="Udieresis" unicode="&#xdc;" horiz-adv-x="689" 
d="M76 188q0 30 8 72l81 407h78l-82 -414q-6 -33 -6 -59q0 -70 39.5 -104t107.5 -34q83 0 141 49t76 142l83 420h78l-85 -428q-25 -125 -104 -188t-192 -63q-97 0 -160 49.5t-63 150.5zM551 739q-42 0 -42 44q0 23 15 40.5t39 17.5q41 0 41 -43q0 -24 -15.5 -41.5
t-37.5 -17.5zM333 739q-42 0 -42 44q0 23 15 40.5t39 17.5q20 0 30.5 -12t10.5 -31q0 -24 -15.5 -41.5t-37.5 -17.5z" />
    <glyph glyph-name="Yacute" unicode="&#xdd;" horiz-adv-x="545" 
d="M172 0l57 290l-151 377h88l116 -297l236 297h91l-302 -376l-57 -291h-78zM296 718l-19 48l193 95l31 -72z" />
    <glyph glyph-name="Thorn" unicode="&#xde;" horiz-adv-x="530" 
d="M41 0l133 667h78l-31 -152h94q103 0 151.5 -41.5t48.5 -110.5q0 -98 -75.5 -158t-176.5 -60h-115l-29 -145h-78zM162 212h91q81 0 129.5 41t48.5 107q0 88 -134 88h-89z" />
    <glyph glyph-name="germandbls" unicode="&#xdf;" horiz-adv-x="533" 
d="M43 387l8 41l73 27q8 53 21 94.5t37.5 82.5t66.5 63.5t99 22.5q72 0 110.5 -37t38.5 -90q0 -32 -16 -61t-38.5 -51t-45 -43.5t-38.5 -47t-16 -52.5q0 -19 13.5 -37.5t33 -35t39 -35t33 -44t13.5 -53.5q0 -59 -43 -101t-114 -42q-34 0 -64 8.5t-43 17.5l-13 9l20 66
q41 -38 99 -38q35 0 56.5 19.5t21.5 54.5q0 27 -20 52t-43.5 42t-43.5 46t-20 64q0 34 15.5 64.5t37.5 53.5t44 44.5t37.5 46.5t15.5 51q0 32 -20 47.5t-53 15.5q-32 0 -57 -14t-39.5 -34t-26 -54.5t-17 -61t-11.5 -69.5q-3 -24 -11 -84t-12.5 -92t-14 -89.5t-18.5 -92
t-22.5 -82t-29.5 -77.5t-37 -61t-47 -50t-57 -28l-31 53q34 12 61 40.5t47.5 79.5t33.5 91t25.5 115.5t17.5 108.5t14 112l3 24h-73z" />
    <glyph glyph-name="agrave" unicode="&#xe0;" horiz-adv-x="483" 
d="M22 124q0 73 32.5 149t100.5 132.5t154 56.5q24 0 67.5 -6t69.5 -6l-66 -309q-8 -36 -8 -68q0 -37 13 -62l-69 -23q-17 29 -17 66q0 24 5 48h-2q-32 -46 -77.5 -80t-95.5 -34q-47 0 -77 34.5t-30 101.5zM102 133q0 -80 46 -80q45 0 107.5 71.5t77.5 141.5l27 126
q-27 8 -62 8q-71 0 -133.5 -84t-62.5 -183zM290 506l-99 193h81l66 -166z" />
    <glyph glyph-name="aacute" unicode="&#xe1;" horiz-adv-x="483" 
d="M22 124q0 73 32.5 149t100.5 132.5t154 56.5q24 0 67.5 -6t69.5 -6l-66 -309q-8 -36 -8 -68q0 -37 13 -62l-69 -23q-17 29 -17 66q0 24 5 48h-2q-32 -46 -77.5 -80t-95.5 -34q-47 0 -77 34.5t-30 101.5zM102 133q0 -80 46 -80q45 0 107.5 71.5t77.5 141.5l27 126
q-27 8 -62 8q-71 0 -133.5 -84t-62.5 -183zM300 506l-44 27l136 166h89z" />
    <glyph glyph-name="acircumflex" unicode="&#xe2;" horiz-adv-x="483" 
d="M22 124q0 73 32.5 149t100.5 132.5t154 56.5q24 0 67.5 -6t69.5 -6l-66 -309q-8 -36 -8 -68q0 -37 13 -62l-69 -23q-17 29 -17 66q0 24 5 48h-2q-32 -46 -77.5 -80t-95.5 -34q-47 0 -77 34.5t-30 101.5zM102 133q0 -80 46 -80q45 0 107.5 71.5t77.5 141.5l27 126
q-27 8 -62 8q-71 0 -133.5 -84t-62.5 -183zM207 505l-44 25l140 169h52l72 -169l-49 -25l-60 125z" />
    <glyph glyph-name="atilde" unicode="&#xe3;" horiz-adv-x="483" 
d="M22 124q0 73 32.5 149t100.5 132.5t154 56.5q24 0 67.5 -6t69.5 -6l-66 -309q-8 -36 -8 -68q0 -37 13 -62l-69 -23q-17 29 -17 66q0 24 5 48h-2q-32 -46 -77.5 -80t-95.5 -34q-47 0 -77 34.5t-30 101.5zM102 133q0 -80 46 -80q45 0 107.5 71.5t77.5 141.5l27 126
q-27 8 -62 8q-71 0 -133.5 -84t-62.5 -183zM157 557q1 5 2.5 13t9 28t17.5 35.5t30.5 28t45.5 12.5q23 0 40 -12t25.5 -26.5t20 -26.5t23.5 -12q16 0 28.5 19t16.5 38l4 19l54 -10q-1 -5 -2.5 -13t-9 -29t-18.5 -37t-31.5 -29t-46.5 -13q-22 0 -39 12t-25 26.5t-19.5 26.5
t-23.5 12q-16 0 -28 -18t-16 -36l-4 -18z" />
    <glyph glyph-name="adieresis" unicode="&#xe4;" horiz-adv-x="483" 
d="M22 124q0 73 32.5 149t100.5 132.5t154 56.5q24 0 67.5 -6t69.5 -6l-66 -309q-8 -36 -8 -68q0 -37 13 -62l-69 -23q-17 29 -17 66q0 24 5 48h-2q-32 -46 -77.5 -80t-95.5 -34q-47 0 -77 34.5t-30 101.5zM102 133q0 -80 46 -80q45 0 107.5 71.5t77.5 141.5l27 126
q-27 8 -62 8q-71 0 -133.5 -84t-62.5 -183zM395 567q-42 0 -42 44q0 23 15 40.5t39 17.5q41 0 41 -43q0 -24 -15.5 -41.5t-37.5 -17.5zM230 567q-42 0 -42 44q0 23 15 40.5t39 17.5q20 0 30.5 -12t10.5 -31q0 -24 -15.5 -41.5t-37.5 -17.5z" />
    <glyph glyph-name="aring" unicode="&#xe5;" horiz-adv-x="483" 
d="M22 124q0 73 32.5 149t100.5 132.5t154 56.5q24 0 67.5 -6t69.5 -6l-66 -309q-8 -36 -8 -68q0 -37 13 -62l-69 -23q-17 29 -17 66q0 24 5 48h-2q-32 -46 -77.5 -80t-95.5 -34q-47 0 -77 34.5t-30 101.5zM102 133q0 -80 46 -80q45 0 107.5 71.5t77.5 141.5l27 126
q-27 8 -62 8q-71 0 -133.5 -84t-62.5 -183zM305 536q-38 0 -58 21t-20 52q0 38 26 65t73 27q38 0 58.5 -20t20.5 -50q0 -38 -26.5 -66.5t-73.5 -28.5zM309 575q24 0 38.5 16.5t14.5 36.5q0 14 -11 24t-30 10q-26 0 -38 -16.5t-12 -37.5q0 -14 10 -23.5t28 -9.5z" />
    <glyph glyph-name="ae" unicode="&#xe6;" horiz-adv-x="683" 
d="M0 93q0 34 18.5 60t44.5 41t71 27t78.5 17.5t87.5 11.5q16 70 16 96q0 51 -57 51q-32 0 -68.5 -12.5t-56.5 -24.5l-21 -13l-20 60q9 6 24.5 15t61.5 24.5t90 15.5q108 0 113 -80q70 80 157 80q45 0 76 -22t31 -74q0 -29 -10.5 -52.5t-32 -40t-45.5 -28t-59.5 -20
t-64.5 -13.5t-69 -10q-3 -16 -3 -32q0 -47 23 -82t69 -35q31 0 65 14t53 28l19 14l14 -63q-8 -6 -22 -16t-56 -26t-82 -16q-112 0 -144 107q-24 -41 -70.5 -74t-107.5 -33q-53 0 -88 27.5t-35 77.5zM135 53q55 0 96.5 38t57.5 103q-69 -8 -108.5 -16.5t-69 -29t-29.5 -52.5
q0 -43 53 -43zM526 397q-42 0 -83.5 -39.5t-63.5 -98.5q91 11 139 32t48 66q0 40 -40 40z" />
    <glyph glyph-name="ccedilla" unicode="&#xe7;" horiz-adv-x="430" 
d="M113 -73q0 15 24 53l10 17q-54 17 -85 65.5t-31 115.5q0 108 72 196t176 88q25 0 48 -5t38 -12t26.5 -14.5t16.5 -12.5l5 -5l-34 -59q-5 5 -14 12t-37 19t-56 12q-65 0 -113 -66t-48 -150q0 -59 26.5 -93.5t75.5 -34.5q31 0 62 12.5t46 25.5l15 13l27 -58
q-7 -6 -20.5 -16t-55 -26t-82.5 -16h-11l-3 -5q-18 -30 -18 -37q0 -11 10 -21t21.5 -16.5t21.5 -21t10 -33.5q0 -36 -34 -63.5t-82 -27.5q-24 0 -46 7.5t-32 15.5l-11 8l22 46q29 -27 67 -27q23 0 39.5 10.5t16.5 26.5q0 13 -16 24t-31.5 24t-15.5 29z" />
    <glyph glyph-name="egrave" unicode="&#xe8;" horiz-adv-x="422" 
d="M27 159q0 109 74 206t177 97q44 0 76 -20.5t32 -66.5q0 -44 -32.5 -81.5t-83.5 -60.5t-89 -35.5t-74 -19.5v-13q0 -112 87 -112q31 0 65 14t53 28l19 14l14 -63q-8 -6 -22 -16t-56.5 -26t-83.5 -16q-77 0 -116.5 48.5t-39.5 122.5zM266 397q-43 0 -86.5 -46.5
t-62.5 -113.5q39 10 75 23t75 41t39 59q0 16 -10 26.5t-30 10.5zM269 506l-99 193h81l66 -166z" />
    <glyph glyph-name="eacute" unicode="&#xe9;" horiz-adv-x="422" 
d="M27 159q0 109 74 206t177 97q44 0 76 -20.5t32 -66.5q0 -44 -32.5 -81.5t-83.5 -60.5t-89 -35.5t-74 -19.5v-13q0 -112 87 -112q31 0 65 14t53 28l19 14l14 -63q-8 -6 -22 -16t-56.5 -26t-83.5 -16q-77 0 -116.5 48.5t-39.5 122.5zM266 397q-43 0 -86.5 -46.5
t-62.5 -113.5q39 10 75 23t75 41t39 59q0 16 -10 26.5t-30 10.5zM279 506l-44 27l136 166h89z" />
    <glyph glyph-name="ecircumflex" unicode="&#xea;" horiz-adv-x="422" 
d="M27 159q0 109 74 206t177 97q44 0 76 -20.5t32 -66.5q0 -44 -32.5 -81.5t-83.5 -60.5t-89 -35.5t-74 -19.5v-13q0 -112 87 -112q31 0 65 14t53 28l19 14l14 -63q-8 -6 -22 -16t-56.5 -26t-83.5 -16q-77 0 -116.5 48.5t-39.5 122.5zM266 397q-43 0 -86.5 -46.5
t-62.5 -113.5q39 10 75 23t75 41t39 59q0 16 -10 26.5t-30 10.5zM186 505l-44 25l140 169h52l72 -169l-49 -25l-60 125z" />
    <glyph glyph-name="edieresis" unicode="&#xeb;" horiz-adv-x="422" 
d="M27 159q0 109 74 206t177 97q44 0 76 -20.5t32 -66.5q0 -44 -32.5 -81.5t-83.5 -60.5t-89 -35.5t-74 -19.5v-13q0 -112 87 -112q31 0 65 14t53 28l19 14l14 -63q-8 -6 -22 -16t-56.5 -26t-83.5 -16q-77 0 -116.5 48.5t-39.5 122.5zM266 397q-43 0 -86.5 -46.5
t-62.5 -113.5q39 10 75 23t75 41t39 59q0 16 -10 26.5t-30 10.5zM374 567q-42 0 -42 44q0 23 15 40.5t39 17.5q41 0 41 -43q0 -24 -15.5 -41.5t-37.5 -17.5zM209 567q-42 0 -42 44q0 23 15 40.5t39 17.5q20 0 30.5 -12t10.5 -31q0 -24 -15.5 -41.5t-37.5 -17.5z" />
    <glyph glyph-name="igrave" unicode="&#xec;" horiz-adv-x="222" 
d="M17 0l96 450h74l-96 -450h-74zM158 506l-99 193h81l66 -166z" />
    <glyph glyph-name="iacute" unicode="&#xed;" horiz-adv-x="222" 
d="M17 0l96 450h74l-96 -450h-74zM168 506l-44 27l136 166h89z" />
    <glyph glyph-name="icircumflex" unicode="&#xee;" horiz-adv-x="222" 
d="M17 0l96 450h74l-96 -450h-74zM75 505l-44 25l140 169h52l72 -169l-49 -25l-60 125z" />
    <glyph glyph-name="idieresis" unicode="&#xef;" horiz-adv-x="222" 
d="M17 0l96 450h74l-96 -450h-74zM263 567q-42 0 -42 44q0 23 15 40.5t39 17.5q41 0 41 -43q0 -24 -15.5 -41.5t-37.5 -17.5zM98 567q-42 0 -42 44q0 23 15 40.5t39 17.5q20 0 30.5 -12t10.5 -31q0 -24 -15.5 -41.5t-37.5 -17.5z" />
    <glyph glyph-name="eth" unicode="&#xf0;" horiz-adv-x="521" 
d="M194 509l-25 46l116 66q-48 37 -112 58l17 61q93 -24 160 -83l145 82l24 -48l-130 -73q86 -105 86 -258q0 -155 -80.5 -263.5t-194.5 -108.5q-79 0 -125.5 54t-46.5 131q0 104 76.5 196.5t184.5 92.5q85 0 109 -50q-12 102 -72 171zM206 53q43 0 80.5 29t60 71.5t35 86
t12.5 76.5q0 31 -24.5 56t-72.5 25q-77 0 -133 -65t-56 -156q0 -56 24.5 -89.5t73.5 -33.5z" />
    <glyph glyph-name="ntilde" unicode="&#xf1;" horiz-adv-x="504" 
d="M16 0l94 443l77 14l-25 -116q97 121 198 121q45 0 68.5 -26t23.5 -65q0 -24 -19 -115l-55 -256h-74l55 259q15 68 15 88q0 46 -42 46q-49 0 -118 -68t-81 -122l-43 -203h-74zM173 557q1 5 2.5 13t9 28t17.5 35.5t30.5 28t45.5 12.5q23 0 40 -12t25.5 -26.5t20 -26.5
t23.5 -12q16 0 28.5 19t16.5 38l4 19l54 -10q-1 -5 -2.5 -13t-9 -29t-18.5 -37t-31.5 -29t-46.5 -13q-22 0 -39 12t-25 26.5t-19.5 26.5t-23.5 12q-16 0 -28 -18t-16 -36l-4 -18z" />
    <glyph glyph-name="ograve" unicode="&#xf2;" horiz-adv-x="504" 
d="M30 179q0 108 74 195.5t180 87.5q82 0 127.5 -54.5t45.5 -129.5q0 -45 -17.5 -95t-49 -94t-81.5 -72.5t-107 -28.5q-83 0 -127.5 55.5t-44.5 135.5zM110 182q0 -59 24 -94t74 -35q74 0 121.5 69.5t47.5 152.5q0 55 -24 88.5t-73 33.5q-70 0 -120 -62t-50 -153zM300 506
l-99 193h81l66 -166z" />
    <glyph glyph-name="oacute" unicode="&#xf3;" horiz-adv-x="504" 
d="M30 179q0 108 74 195.5t180 87.5q82 0 127.5 -54.5t45.5 -129.5q0 -45 -17.5 -95t-49 -94t-81.5 -72.5t-107 -28.5q-83 0 -127.5 55.5t-44.5 135.5zM110 182q0 -59 24 -94t74 -35q74 0 121.5 69.5t47.5 152.5q0 55 -24 88.5t-73 33.5q-70 0 -120 -62t-50 -153zM310 506
l-44 27l136 166h89z" />
    <glyph glyph-name="ocircumflex" unicode="&#xf4;" horiz-adv-x="504" 
d="M30 179q0 108 74 195.5t180 87.5q82 0 127.5 -54.5t45.5 -129.5q0 -45 -17.5 -95t-49 -94t-81.5 -72.5t-107 -28.5q-83 0 -127.5 55.5t-44.5 135.5zM110 182q0 -59 24 -94t74 -35q74 0 121.5 69.5t47.5 152.5q0 55 -24 88.5t-73 33.5q-70 0 -120 -62t-50 -153zM217 505
l-44 25l140 169h52l72 -169l-49 -25l-60 125z" />
    <glyph glyph-name="otilde" unicode="&#xf5;" horiz-adv-x="504" 
d="M30 179q0 108 74 195.5t180 87.5q82 0 127.5 -54.5t45.5 -129.5q0 -45 -17.5 -95t-49 -94t-81.5 -72.5t-107 -28.5q-83 0 -127.5 55.5t-44.5 135.5zM110 182q0 -59 24 -94t74 -35q74 0 121.5 69.5t47.5 152.5q0 55 -24 88.5t-73 33.5q-70 0 -120 -62t-50 -153zM167 557
q1 5 2.5 13t9 28t17.5 35.5t30.5 28t45.5 12.5q23 0 40 -12t25.5 -26.5t20 -26.5t23.5 -12q16 0 28.5 19t16.5 38l4 19l54 -10q-1 -5 -2.5 -13t-9 -29t-18.5 -37t-31.5 -29t-46.5 -13q-22 0 -39 12t-25 26.5t-19.5 26.5t-23.5 12q-16 0 -28 -18t-16 -36l-4 -18z" />
    <glyph glyph-name="odieresis" unicode="&#xf6;" horiz-adv-x="504" 
d="M30 179q0 108 74 195.5t180 87.5q82 0 127.5 -54.5t45.5 -129.5q0 -45 -17.5 -95t-49 -94t-81.5 -72.5t-107 -28.5q-83 0 -127.5 55.5t-44.5 135.5zM110 182q0 -59 24 -94t74 -35q74 0 121.5 69.5t47.5 152.5q0 55 -24 88.5t-73 33.5q-70 0 -120 -62t-50 -153zM405 567
q-42 0 -42 44q0 23 15 40.5t39 17.5q41 0 41 -43q0 -24 -15.5 -41.5t-37.5 -17.5zM240 567q-42 0 -42 44q0 23 15 40.5t39 17.5q20 0 30.5 -12t10.5 -31q0 -24 -15.5 -41.5t-37.5 -17.5z" />
    <glyph glyph-name="divide" unicode="&#xf7;" 
d="M255 382q-25 0 -42.5 17.5t-17.5 42.5t17.5 42.5t42.5 17.5t42.5 -17.5t17.5 -42.5t-17.5 -42.5t-42.5 -17.5zM31 219v63h448v-63h-448zM195 59q0 25 17.5 42.5t42.5 17.5t42.5 -17.5t17.5 -42.5t-17.5 -42.5t-42.5 -17.5t-42.5 17.5t-17.5 42.5z" />
    <glyph glyph-name="oslash" unicode="&#xf8;" horiz-adv-x="504" 
d="M30 179q0 108 74 195.5t180 87.5q50 0 89 -23l31 41h60l-53 -72q46 -50 46 -130q0 -45 -17.5 -95t-49 -94t-81.5 -72.5t-107 -28.5q-50 0 -88 22l-29 -40h-61l53 71q-47 51 -47 138zM110 182q0 -49 14 -78l208 279q-22 14 -52 14q-70 0 -120 -62t-50 -153zM377 275
q0 39 -14 70l-207 -279q20 -13 52 -13q74 0 121.5 69.5t47.5 152.5z" />
    <glyph glyph-name="ugrave" unicode="&#xf9;" horiz-adv-x="499" 
d="M35 86q0 23 19 117l52 247h75l-54 -250q-17 -80 -17 -96q0 -21 11 -36t34 -15q49 0 113 71.5t79 141.5l39 184h74l-66 -309q-18 -85 5 -130l-72 -23q-26 42 -12 114h-2q-80 -114 -178 -114q-49 0 -74.5 29t-25.5 69zM293 506l-99 193h81l66 -166z" />
    <glyph glyph-name="uacute" unicode="&#xfa;" horiz-adv-x="499" 
d="M35 86q0 23 19 117l52 247h75l-54 -250q-17 -80 -17 -96q0 -21 11 -36t34 -15q49 0 113 71.5t79 141.5l39 184h74l-66 -309q-18 -85 5 -130l-72 -23q-26 42 -12 114h-2q-80 -114 -178 -114q-49 0 -74.5 29t-25.5 69zM303 506l-44 27l136 166h89z" />
    <glyph glyph-name="ucircumflex" unicode="&#xfb;" horiz-adv-x="499" 
d="M35 86q0 23 19 117l52 247h75l-54 -250q-17 -80 -17 -96q0 -21 11 -36t34 -15q49 0 113 71.5t79 141.5l39 184h74l-66 -309q-18 -85 5 -130l-72 -23q-26 42 -12 114h-2q-80 -114 -178 -114q-49 0 -74.5 29t-25.5 69zM210 505l-44 25l140 169h52l72 -169l-49 -25l-60 125z
" />
    <glyph glyph-name="udieresis" unicode="&#xfc;" horiz-adv-x="499" 
d="M35 86q0 23 19 117l52 247h75l-54 -250q-17 -80 -17 -96q0 -21 11 -36t34 -15q49 0 113 71.5t79 141.5l39 184h74l-66 -309q-18 -85 5 -130l-72 -23q-26 42 -12 114h-2q-80 -114 -178 -114q-49 0 -74.5 29t-25.5 69zM398 567q-42 0 -42 44q0 23 15 40.5t39 17.5
q41 0 41 -43q0 -24 -15.5 -41.5t-37.5 -17.5zM233 567q-42 0 -42 44q0 23 15 40.5t39 17.5q20 0 30.5 -12t10.5 -31q0 -24 -15.5 -41.5t-37.5 -17.5z" />
    <glyph glyph-name="yacute" unicode="&#xfd;" horiz-adv-x="424" 
d="M-135 -175q105 17 217 155q10 12 14 24.5t4 26v31.5q-3 76 -16.5 191.5t-32.5 196.5h80q45 -221 33 -361q62 92 115.5 195.5t75.5 165.5h81q-76 -189 -216 -393q-93 -134 -183 -214q-84 -75 -156 -80zM260 506l-44 27l136 166h89z" />
    <glyph glyph-name="thorn" unicode="&#xfe;" horiz-adv-x="497" 
d="M175 -12q-44 0 -82 17l-48 -223l-77 -14l198 932l77 14l-78 -372q79 120 170 120q57 0 87.5 -42.5t30.5 -111.5q0 -76 -34 -148.5t-99.5 -122t-144.5 -49.5zM129 174l-15 -70q-6 -28 11.5 -41t47.5 -13q79 0 139.5 72.5t60.5 174.5q0 100 -56 100q-49 0 -110.5 -74.5
t-77.5 -148.5z" />
    <glyph glyph-name="ydieresis" unicode="&#xff;" horiz-adv-x="424" 
d="M-135 -175q105 17 217 155q10 12 14 24.5t4 26v31.5q-3 76 -16.5 191.5t-32.5 196.5h80q45 -221 33 -361q62 92 115.5 195.5t75.5 165.5h81q-76 -189 -216 -393q-93 -134 -183 -214q-84 -75 -156 -80zM355 567q-42 0 -42 44q0 23 15 40.5t39 17.5q41 0 41 -43
q0 -24 -15.5 -41.5t-37.5 -17.5zM190 567q-42 0 -42 44q0 23 15 40.5t39 17.5q20 0 30.5 -12t10.5 -31q0 -24 -15.5 -41.5t-37.5 -17.5z" />
    <glyph glyph-name="Amacron" unicode="&#x100;" horiz-adv-x="588" 
d="M-35 0l375 672h75l110 -672h-77l-32 202h-258l-111 -202h-82zM358 564l-163 -295h210zM271 765l13 59h258l-13 -59h-258z" />
    <glyph glyph-name="amacron" unicode="&#x101;" horiz-adv-x="483" 
d="M22 124q0 73 32.5 149t100.5 132.5t154 56.5q24 0 67.5 -6t69.5 -6l-66 -309q-8 -36 -8 -68q0 -37 13 -62l-69 -23q-17 29 -17 66q0 24 5 48h-2q-32 -46 -77.5 -80t-95.5 -34q-47 0 -77 34.5t-30 101.5zM102 133q0 -80 46 -80q45 0 107.5 71.5t77.5 141.5l27 126
q-27 8 -62 8q-71 0 -133.5 -84t-62.5 -183zM198 589l13 59h228l-13 -59h-228z" />
    <glyph glyph-name="Abreve" unicode="&#x102;" horiz-adv-x="588" 
d="M-35 0l375 672h75l110 -672h-77l-32 202h-258l-111 -202h-82zM358 564l-163 -295h210zM390 720q-59 0 -90 28t-31 72q0 24 9 48h52q-6 -20 -6 -35q0 -60 73 -60q49 0 73.5 28t30.5 67h55q-5 -62 -48.5 -105t-117.5 -43z" />
    <glyph glyph-name="abreve" unicode="&#x103;" horiz-adv-x="483" 
d="M22 124q0 73 32.5 149t100.5 132.5t154 56.5q24 0 67.5 -6t69.5 -6l-66 -309q-8 -36 -8 -68q0 -37 13 -62l-69 -23q-17 29 -17 66q0 24 5 48h-2q-32 -46 -77.5 -80t-95.5 -34q-47 0 -77 34.5t-30 101.5zM102 133q0 -80 46 -80q45 0 107.5 71.5t77.5 141.5l27 126
q-27 8 -62 8q-71 0 -133.5 -84t-62.5 -183zM311 541q-56 0 -84.5 29t-28.5 75q0 25 9 51h52q-5 -18 -5 -39q0 -63 57 -63q70 0 92 102h52q-5 -68 -42.5 -111.5t-101.5 -43.5z" />
    <glyph glyph-name="Aogonek" unicode="&#x104;" horiz-adv-x="588" 
d="M-35 0l375 672h75l110 -672q-118 -93 -118 -144q0 -36 34 -36q23 0 49 13v-56q-35 -14 -71 -14q-38 0 -59.5 20t-21.5 55q0 29 19 61t37 50.5t54 50.5l-32 202h-258l-111 -202h-82zM358 564l-163 -295h210z" />
    <glyph glyph-name="aogonek" unicode="&#x105;" horiz-adv-x="485" 
d="M22 124q0 73 32.5 149t100.5 132.5t154 56.5q24 0 67.5 -6t69.5 -6l-66 -309q-8 -36 -8 -68q0 -37 13 -62q-132 -104 -132 -155q0 -36 34 -36q23 0 49 13v-56q-35 -14 -71 -14q-38 0 -59.5 20t-21.5 55q0 30 19 62t38 51t54 51q7 6 10 9q-6 18 -6 43q0 24 5 48h-2
q-32 -46 -77.5 -80t-95.5 -34q-47 0 -77 34.5t-30 101.5zM102 133q0 -80 46 -80q45 0 107.5 71.5t77.5 141.5l27 126q-27 8 -62 8q-71 0 -133.5 -84t-62.5 -183z" />
    <glyph glyph-name="Cacute" unicode="&#x106;" horiz-adv-x="642" 
d="M56 270q0 102 49.5 195t143.5 153.5t209 60.5q56 0 107 -14.5t74 -28.5l23 -14l-44 -65q-8 6 -21.5 15t-58 24t-90.5 15q-69 0 -129 -31.5t-98 -81t-59.5 -108.5t-21.5 -117q0 -96 54.5 -156.5t148.5 -60.5q49 0 98.5 17t74.5 35l25 17l31 -61q-4 -3 -11.5 -8
t-32.5 -18.5t-51 -23.5t-65.5 -18t-77.5 -8q-124 0 -201 78t-77 204zM387 718l-19 48l193 95l31 -72z" />
    <glyph glyph-name="cacute" unicode="&#x107;" horiz-adv-x="428" 
d="M30 178q0 108 72 196t176 88q25 0 48 -5t38 -12t26.5 -14.5t16.5 -12.5l5 -5l-34 -59q-5 5 -14 12t-37 19t-56 12q-65 0 -113 -66t-48 -150q0 -59 26.5 -93.5t75.5 -34.5q31 0 62 12.5t46 25.5l15 13l27 -58q-7 -6 -20.5 -16t-55 -26t-82.5 -16q-79 0 -126.5 53
t-47.5 137zM290 506l-44 27l136 166h89z" />
    <glyph glyph-name="Ccircumflex" unicode="&#x108;" horiz-adv-x="642" 
d="M56 270q0 102 49.5 195t143.5 153.5t209 60.5q56 0 107 -14.5t74 -28.5l23 -14l-44 -65q-8 6 -21.5 15t-58 24t-90.5 15q-69 0 -129 -31.5t-98 -81t-59.5 -108.5t-21.5 -117q0 -96 54.5 -156.5t148.5 -60.5q49 0 98.5 17t74.5 35l25 17l31 -61q-4 -3 -11.5 -8
t-32.5 -18.5t-51 -23.5t-65.5 -18t-77.5 -8q-124 0 -201 78t-77 204zM332 718l-42 38l151 115h69l100 -115l-48 -38l-94 100z" />
    <glyph glyph-name="ccircumflex" unicode="&#x109;" horiz-adv-x="428" 
d="M30 178q0 108 72 196t176 88q25 0 48 -5t38 -12t26.5 -14.5t16.5 -12.5l5 -5l-34 -59q-5 5 -14 12t-37 19t-56 12q-65 0 -113 -66t-48 -150q0 -59 26.5 -93.5t75.5 -34.5q31 0 62 12.5t46 25.5l15 13l27 -58q-7 -6 -20.5 -16t-55 -26t-82.5 -16q-79 0 -126.5 53
t-47.5 137zM197 505l-44 25l140 169h52l72 -169l-49 -25l-60 125z" />
    <glyph glyph-name="Cdotaccent" unicode="&#x10a;" horiz-adv-x="642" 
d="M56 270q0 102 49.5 195t143.5 153.5t209 60.5q56 0 107 -14.5t74 -28.5l23 -14l-44 -65q-8 6 -21.5 15t-58 24t-90.5 15q-69 0 -129 -31.5t-98 -81t-59.5 -108.5t-21.5 -117q0 -96 54.5 -156.5t148.5 -60.5q49 0 98.5 17t74.5 35l25 17l31 -61q-4 -3 -11.5 -8
t-32.5 -18.5t-51 -23.5t-65.5 -18t-77.5 -8q-124 0 -201 78t-77 204zM452 740q-40 0 -40 40q0 25 16.5 46.5t46.5 21.5q40 0 40 -39q0 -25 -16.5 -47t-46.5 -22z" />
    <glyph glyph-name="cdotaccent" unicode="&#x10b;" horiz-adv-x="428" 
d="M30 178q0 108 72 196t176 88q25 0 48 -5t38 -12t26.5 -14.5t16.5 -12.5l5 -5l-34 -59q-5 5 -14 12t-37 19t-56 12q-65 0 -113 -66t-48 -150q0 -59 26.5 -93.5t75.5 -34.5q31 0 62 12.5t46 25.5l15 13l27 -58q-7 -6 -20.5 -16t-55 -26t-82.5 -16q-79 0 -126.5 53
t-47.5 137zM297 564q-40 0 -40 40q0 25 16.5 46.5t46.5 21.5q40 0 40 -39q0 -25 -16.5 -47t-46.5 -22z" />
    <glyph glyph-name="Ccaron" unicode="&#x10c;" horiz-adv-x="642" 
d="M56 270q0 102 49.5 195t143.5 153.5t209 60.5q56 0 107 -14.5t74 -28.5l23 -14l-44 -65q-8 6 -21.5 15t-58 24t-90.5 15q-69 0 -129 -31.5t-98 -81t-59.5 -108.5t-21.5 -117q0 -96 54.5 -156.5t148.5 -60.5q49 0 98.5 17t74.5 35l25 17l31 -61q-4 -3 -11.5 -8
t-32.5 -18.5t-51 -23.5t-65.5 -18t-77.5 -8q-124 0 -201 78t-77 204zM416 718l-100 115l48 38l94 -100l136 100l42 -38l-151 -115h-69z" />
    <glyph glyph-name="ccaron" unicode="&#x10d;" horiz-adv-x="428" 
d="M30 178q0 108 72 196t176 88q25 0 48 -5t38 -12t26.5 -14.5t16.5 -12.5l5 -5l-34 -59q-5 5 -14 12t-37 19t-56 12q-65 0 -113 -66t-48 -150q0 -59 26.5 -93.5t75.5 -34.5q31 0 62 12.5t46 25.5l15 13l27 -58q-7 -6 -20.5 -16t-55 -26t-82.5 -16q-79 0 -126.5 53
t-47.5 137zM264 520l-72 169l49 25l59 -125l112 125l44 -25l-140 -169h-52z" />
    <glyph glyph-name="Dcaron" unicode="&#x10e;" horiz-adv-x="686" 
d="M42 0l132 667h177q81 0 148 -27t111.5 -89.5t44.5 -153.5q0 -177 -129.5 -287t-323.5 -110h-160zM133 67h64q183 0 278.5 93.5t95.5 234.5q0 94 -61 149.5t-176 55.5h-96zM385 718l-100 115l48 38l94 -100l136 100l42 -38l-151 -115h-69z" />
    <glyph glyph-name="dcaron" unicode="&#x10f;" horiz-adv-x="497" 
d="M24 141q0 76 35.5 149t104 122.5t152.5 49.5q35 0 69 -9l53 247l77 14l-122 -573q-8 -35 -8 -68q0 -37 13 -62l-69 -23q-17 29 -17 66l5 48h-2q-80 -114 -171 -114q-59 0 -89.5 42t-30.5 111zM161 53q48 0 109 72t76 141l19 89q5 23 -10 34t-40 11q-84 0 -147.5 -72.5
t-63.5 -179.5q0 -40 13.5 -67.5t43.5 -27.5zM547 549l62 188l86 10l-101 -198h-47z" />
    <glyph glyph-name="Dcroat" unicode="&#x110;" horiz-adv-x="693" 
d="M38 305l13 67h71l59 295h177q81 0 148 -27t111.5 -89.5t44.5 -153.5q0 -177 -129.5 -287t-323.5 -110h-160l60 305h-71zM140 67h64q183 0 278.5 93.5t95.5 234.5q0 94 -61 149.5t-176 55.5h-96l-45 -228h161l-13 -67h-161z" />
    <glyph glyph-name="dcroat" unicode="&#x111;" horiz-adv-x="497" 
d="M254 527l10 47h147l27 126l77 14l-30 -140h60l-10 -47h-60l-82 -386q-8 -35 -8 -68q0 -37 13 -62l-69 -23q-17 29 -17 66l5 48h-2q-80 -114 -171 -114q-59 0 -89.5 42t-30.5 111q0 76 35.5 149t104 122.5t152.5 49.5q35 0 69 -9l16 74h-147zM161 53q48 0 109 72t76 141
l19 89q5 23 -10 34t-40 11q-84 0 -147.5 -72.5t-63.5 -179.5q0 -40 13.5 -67.5t43.5 -27.5z" />
    <glyph glyph-name="Emacron" unicode="&#x112;" horiz-adv-x="521" 
d="M42 0l132 667h374l-14 -67h-296l-44 -226h234l-14 -67h-234l-47 -240h295l-13 -67h-373zM256 765l13 59h258l-13 -59h-258z" />
    <glyph glyph-name="emacron" unicode="&#x113;" horiz-adv-x="422" 
d="M27 159q0 109 74 206t177 97q44 0 76 -20.5t32 -66.5q0 -44 -32.5 -81.5t-83.5 -60.5t-89 -35.5t-74 -19.5v-13q0 -112 87 -112q31 0 65 14t53 28l19 14l14 -63q-8 -6 -22 -16t-56.5 -26t-83.5 -16q-77 0 -116.5 48.5t-39.5 122.5zM266 397q-43 0 -86.5 -46.5
t-62.5 -113.5q39 10 75 23t75 41t39 59q0 16 -10 26.5t-30 10.5zM177 589l13 59h228l-13 -59h-228z" />
    <glyph glyph-name="Ebreve" unicode="&#x114;" horiz-adv-x="521" 
d="M42 0l132 667h374l-14 -67h-296l-44 -226h234l-14 -67h-234l-47 -240h295l-13 -67h-373zM375 720q-59 0 -90 28t-31 72q0 24 9 48h52q-6 -20 -6 -35q0 -60 73 -60q49 0 73.5 28t30.5 67h55q-5 -62 -48.5 -105t-117.5 -43z" />
    <glyph glyph-name="ebreve" unicode="&#x115;" horiz-adv-x="422" 
d="M27 159q0 109 74 206t177 97q44 0 76 -20.5t32 -66.5q0 -44 -32.5 -81.5t-83.5 -60.5t-89 -35.5t-74 -19.5v-13q0 -112 87 -112q31 0 65 14t53 28l19 14l14 -63q-8 -6 -22 -16t-56.5 -26t-83.5 -16q-77 0 -116.5 48.5t-39.5 122.5zM266 397q-43 0 -86.5 -46.5
t-62.5 -113.5q39 10 75 23t75 41t39 59q0 16 -10 26.5t-30 10.5zM290 541q-56 0 -84.5 29t-28.5 75q0 25 9 51h52q-5 -18 -5 -39q0 -63 57 -63q70 0 92 102h52q-5 -68 -42.5 -111.5t-101.5 -43.5z" />
    <glyph glyph-name="Edotaccent" unicode="&#x116;" horiz-adv-x="521" 
d="M42 0l132 667h374l-14 -67h-296l-44 -226h234l-14 -67h-234l-47 -240h295l-13 -67h-373zM380 740q-40 0 -40 40q0 25 16.5 46.5t46.5 21.5q40 0 40 -39q0 -25 -16.5 -47t-46.5 -22z" />
    <glyph glyph-name="edotaccent" unicode="&#x117;" horiz-adv-x="422" 
d="M27 159q0 109 74 206t177 97q44 0 76 -20.5t32 -66.5q0 -44 -32.5 -81.5t-83.5 -60.5t-89 -35.5t-74 -19.5v-13q0 -112 87 -112q31 0 65 14t53 28l19 14l14 -63q-8 -6 -22 -16t-56.5 -26t-83.5 -16q-77 0 -116.5 48.5t-39.5 122.5zM266 397q-43 0 -86.5 -46.5
t-62.5 -113.5q39 10 75 23t75 41t39 59q0 16 -10 26.5t-30 10.5zM286 564q-40 0 -40 40q0 25 16.5 46.5t46.5 21.5q40 0 40 -39q0 -25 -16.5 -47t-46.5 -22z" />
    <glyph glyph-name="Eogonek" unicode="&#x118;" horiz-adv-x="521" 
d="M42 0l132 667h374l-14 -67h-296l-44 -226h234l-14 -67h-234l-47 -240h295l-13 -67q-118 -93 -118 -144q0 -36 34 -36q23 0 49 13v-56q-35 -14 -71 -14q-38 0 -59.5 20t-21.5 55q0 29 19 61t37 50.5t54 50.5h-296z" />
    <glyph glyph-name="eogonek" unicode="&#x119;" horiz-adv-x="424" 
d="M28 159q0 109 74 206t177 97q44 0 76 -20.5t32 -66.5q0 -44 -32.5 -81.5t-83.5 -60.5t-89 -35.5t-74 -19.5v-13q0 -112 87 -112q31 0 65 14t53 28l19 14l14 -63q-17 -14 -41 -27q-143 -110 -143 -163q0 -36 34 -36q23 0 49 13v-56q-35 -14 -71 -14q-38 0 -59.5 20
t-21.5 55q0 39 25 73.5t71 76.5h-5q-77 0 -116.5 48.5t-39.5 122.5zM267 397q-43 0 -86.5 -46.5t-62.5 -113.5q39 10 75 23t75 41t39 59q0 16 -10 26.5t-30 10.5z" />
    <glyph glyph-name="Ecaron" unicode="&#x11a;" horiz-adv-x="521" 
d="M42 0l132 667h374l-14 -67h-296l-44 -226h234l-14 -67h-234l-47 -240h295l-13 -67h-373zM344 718l-100 115l48 38l94 -100l136 100l42 -38l-151 -115h-69z" />
    <glyph glyph-name="ecaron" unicode="&#x11b;" horiz-adv-x="422" 
d="M27 159q0 109 74 206t177 97q44 0 76 -20.5t32 -66.5q0 -44 -32.5 -81.5t-83.5 -60.5t-89 -35.5t-74 -19.5v-13q0 -112 87 -112q31 0 65 14t53 28l19 14l14 -63q-8 -6 -22 -16t-56.5 -26t-83.5 -16q-77 0 -116.5 48.5t-39.5 122.5zM266 397q-43 0 -86.5 -46.5
t-62.5 -113.5q39 10 75 23t75 41t39 59q0 16 -10 26.5t-30 10.5zM253 520l-72 169l49 25l59 -125l112 125l44 -25l-140 -169h-52z" />
    <glyph glyph-name="Gcircumflex" unicode="&#x11c;" horiz-adv-x="671" 
d="M54 266q0 103 51 197t147 155t214 61q54 0 106 -13t76 -26l25 -13l-44 -65q-8 5 -22 13.5t-58.5 22t-90.5 13.5q-94 0 -169.5 -53t-113 -130t-37.5 -158q0 -98 58.5 -156t164.5 -58q28 0 59 4.5t48 9.5l17 4l40 200h-135l13 67h213l-64 -322q-110 -31 -204 -31
q-130 0 -212 74.5t-82 203.5zM329 718l-42 38l151 115h69l100 -115l-48 -38l-94 100z" />
    <glyph glyph-name="gcircumflex" unicode="&#x11d;" horiz-adv-x="483" 
d="M31 -62h68q-26 -41 -26 -65q0 -23 18 -39t54 -16t62 13.5t40 33t24 51t13 58t8 65.5t9 61h-2q-29 -44 -74 -78t-95 -34q-48 0 -78 34.5t-30 102.5q0 53 20 111t55 109t91.5 84t121.5 33q22 0 66.5 -6t70.5 -6l-58 -271q-7 -30 -14.5 -85t-13 -94.5t-21 -87t-37.5 -77.5
t-63 -51t-98 -21q-67 0 -104 27.5t-37 65.5q0 36 30 82zM148 53q45 0 107.5 71.5t77.5 141.5l28 130q-31 5 -56 5q-77 0 -140 -84t-63 -184q0 -80 46 -80zM206 505l-44 25l140 169h52l72 -169l-49 -25l-60 125z" />
    <glyph glyph-name="Gbreve" unicode="&#x11e;" horiz-adv-x="671" 
d="M54 266q0 103 51 197t147 155t214 61q54 0 106 -13t76 -26l25 -13l-44 -65q-8 5 -22 13.5t-58.5 22t-90.5 13.5q-94 0 -169.5 -53t-113 -130t-37.5 -158q0 -98 58.5 -156t164.5 -58q28 0 59 4.5t48 9.5l17 4l40 200h-135l13 67h213l-64 -322q-110 -31 -204 -31
q-130 0 -212 74.5t-82 203.5zM444 720q-59 0 -90 28t-31 72q0 24 9 48h52q-6 -20 -6 -35q0 -60 73 -60q49 0 73.5 28t30.5 67h55q-5 -62 -48.5 -105t-117.5 -43z" />
    <glyph glyph-name="gbreve" unicode="&#x11f;" horiz-adv-x="483" 
d="M31 -62h68q-26 -41 -26 -65q0 -23 18 -39t54 -16t62 13.5t40 33t24 51t13 58t8 65.5t9 61h-2q-29 -44 -74 -78t-95 -34q-48 0 -78 34.5t-30 102.5q0 53 20 111t55 109t91.5 84t121.5 33q22 0 66.5 -6t70.5 -6l-58 -271q-7 -30 -14.5 -85t-13 -94.5t-21 -87t-37.5 -77.5
t-63 -51t-98 -21q-67 0 -104 27.5t-37 65.5q0 36 30 82zM148 53q45 0 107.5 71.5t77.5 141.5l28 130q-31 5 -56 5q-77 0 -140 -84t-63 -184q0 -80 46 -80zM310 541q-56 0 -84.5 29t-28.5 75q0 25 9 51h52q-5 -18 -5 -39q0 -63 57 -63q70 0 92 102h52q-5 -68 -42.5 -111.5
t-101.5 -43.5z" />
    <glyph glyph-name="Gdotaccent" unicode="&#x120;" horiz-adv-x="671" 
d="M54 266q0 103 51 197t147 155t214 61q54 0 106 -13t76 -26l25 -13l-44 -65q-8 5 -22 13.5t-58.5 22t-90.5 13.5q-94 0 -169.5 -53t-113 -130t-37.5 -158q0 -98 58.5 -156t164.5 -58q28 0 59 4.5t48 9.5l17 4l40 200h-135l13 67h213l-64 -322q-110 -31 -204 -31
q-130 0 -212 74.5t-82 203.5zM449 740q-40 0 -40 40q0 25 16.5 46.5t46.5 21.5q40 0 40 -39q0 -25 -16.5 -47t-46.5 -22z" />
    <glyph glyph-name="gdotaccent" unicode="&#x121;" horiz-adv-x="483" 
d="M31 -62h68q-26 -41 -26 -65q0 -23 18 -39t54 -16t62 13.5t40 33t24 51t13 58t8 65.5t9 61h-2q-29 -44 -74 -78t-95 -34q-48 0 -78 34.5t-30 102.5q0 53 20 111t55 109t91.5 84t121.5 33q22 0 66.5 -6t70.5 -6l-58 -271q-7 -30 -14.5 -85t-13 -94.5t-21 -87t-37.5 -77.5
t-63 -51t-98 -21q-67 0 -104 27.5t-37 65.5q0 36 30 82zM148 53q45 0 107.5 71.5t77.5 141.5l28 130q-31 5 -56 5q-77 0 -140 -84t-63 -184q0 -80 46 -80zM306 564q-40 0 -40 40q0 25 16.5 46.5t46.5 21.5q40 0 40 -39q0 -25 -16.5 -47t-46.5 -22z" />
    <glyph glyph-name="Gcommaaccent" unicode="&#x122;" horiz-adv-x="671" 
d="M54 266q0 103 51 197t147 155t214 61q54 0 106 -13t76 -26l25 -13l-44 -65q-8 5 -22 13.5t-58.5 22t-90.5 13.5q-94 0 -169.5 -53t-113 -130t-37.5 -158q0 -98 58.5 -156t164.5 -58q28 0 59 4.5t48 9.5l17 4l40 200h-135l13 67h213l-64 -322q-110 -31 -204 -31
q-130 0 -212 74.5t-82 203.5zM264 -49h75q12 -17 12 -47q0 -49 -32.5 -87.5t-78.5 -59.5l-28 40q34 14 51.5 40t17.5 56q0 32 -17 58z" />
    <glyph glyph-name="gcommaaccent" unicode="&#x123;" horiz-adv-x="483" 
d="M31 -62h68q-26 -41 -26 -65q0 -23 18 -39t54 -16t62 13.5t40 33t24 51t13 58t8 65.5t9 61h-2q-29 -44 -74 -78t-95 -34q-48 0 -78 34.5t-30 102.5q0 53 20 111t55 109t91.5 84t121.5 33q22 0 66.5 -6t70.5 -6l-58 -271q-7 -30 -14.5 -85t-13 -94.5t-21 -87t-37.5 -77.5
t-63 -51t-98 -21q-67 0 -104 27.5t-37 65.5q0 36 30 82zM148 53q45 0 107.5 71.5t77.5 141.5l28 130q-31 5 -56 5q-77 0 -140 -84t-63 -184q0 -80 46 -80zM319 505h-75q-12 17 -12 47q0 49 32.5 87.5t78.5 59.5l28 -40q-34 -14 -51.5 -40t-17.5 -56q0 -32 17 -58z" />
    <glyph glyph-name="Hcircumflex" unicode="&#x124;" horiz-adv-x="722" 
d="M42 0l132 667h78l-58 -293h375l57 293h78l-132 -667h-78l61 307h-374l-61 -307h-78zM336 718l-42 38l151 115h69l100 -115l-48 -38l-94 100z" />
    <glyph glyph-name="hcircumflex" unicode="&#x125;" horiz-adv-x="505" 
d="M17 0l149 700l77 14l-79 -372q96 120 197 120q45 0 68.5 -26t23.5 -65q0 -24 -19 -115l-55 -256h-74l55 259q15 68 15 88q0 46 -42 46q-49 0 -118.5 -68t-80.5 -121l-43 -204h-74zM125 742l-44 25l140 169h52l72 -169l-49 -25l-60 125z" />
    <glyph glyph-name="Hbar" unicode="&#x126;" horiz-adv-x="728" 
d="M61 481l10 47h78l28 139h78l-28 -139h375l27 139h78l-28 -139h80l-10 -47h-79l-95 -481h-78l61 307h-374l-61 -307h-78l95 481h-79zM197 374h375l21 107h-375z" />
    <glyph glyph-name="hbar" unicode="&#x127;" horiz-adv-x="505" 
d="M69 527l10 47h60l27 126l77 14l-30 -140h146l-10 -47h-146l-39 -185q96 120 197 120q45 0 68.5 -26t23.5 -65q0 -24 -19 -115l-55 -256h-74l55 259q15 68 15 88q0 46 -42 46q-49 0 -118.5 -68t-80.5 -121l-43 -204h-74l112 527h-60z" />
    <glyph glyph-name="Itilde" unicode="&#x128;" horiz-adv-x="270" 
d="M42 0l132 667h78l-132 -667h-78zM57 740l2.5 12.5t9.5 27t19.5 34.5t34 27t51.5 12q26 0 47.5 -10.5t32.5 -22.5t26 -22.5t30 -10.5q21 0 35.5 17.5t18.5 34.5l4 17l56 -10q-1 -5 -2.5 -13t-9.5 -28t-20 -35.5t-35 -28t-52 -12.5q-33 0 -57 16.5t-42 33t-36 16.5
q-20 0 -34 -16.5t-18 -32.5l-5 -16z" />
    <glyph glyph-name="itilde" unicode="&#x129;" horiz-adv-x="222" 
d="M17 0l96 450h74l-96 -450h-74zM25 557q1 5 2.5 13t9 28t17.5 35.5t30.5 28t45.5 12.5q23 0 40 -12t25.5 -26.5t20 -26.5t23.5 -12q16 0 28.5 19t16.5 38l4 19l54 -10q-1 -5 -2.5 -13t-9 -29t-18.5 -37t-31.5 -29t-46.5 -13q-22 0 -39 12t-25 26.5t-19.5 26.5t-23.5 12
q-16 0 -28 -18t-16 -36l-4 -18z" />
    <glyph glyph-name="Imacron" unicode="&#x12a;" horiz-adv-x="270" 
d="M42 0l132 667h78l-132 -667h-78zM106 765l13 59h258l-13 -59h-258z" />
    <glyph glyph-name="imacron" unicode="&#x12b;" horiz-adv-x="222" 
d="M17 0l96 450h74l-96 -450h-74zM66 589l13 59h228l-13 -59h-228z" />
    <glyph glyph-name="Ibreve" unicode="&#x12c;" horiz-adv-x="270" 
d="M42 0l132 667h78l-132 -667h-78zM225 720q-59 0 -90 28t-31 72q0 24 9 48h52q-6 -20 -6 -35q0 -60 73 -60q49 0 73.5 28t30.5 67h55q-5 -62 -48.5 -105t-117.5 -43z" />
    <glyph glyph-name="ibreve" unicode="&#x12d;" horiz-adv-x="222" 
d="M17 0l96 450h74l-96 -450h-74zM179 541q-56 0 -84.5 29t-28.5 75q0 25 9 51h52q-5 -18 -5 -39q0 -63 57 -63q70 0 92 102h52q-5 -68 -42.5 -111.5t-101.5 -43.5z" />
    <glyph glyph-name="Iogonek" unicode="&#x12e;" horiz-adv-x="270" 
d="M42 0l132 667h78l-132 -667q-118 -93 -118 -144q0 -36 34 -36q23 0 49 13v-56q-35 -14 -71 -14q-38 0 -59.5 20t-21.5 55q0 22 8.5 43.5t29 45t32.5 35.5t40 38h-1z" />
    <glyph glyph-name="iogonek" unicode="&#x12f;" horiz-adv-x="221" 
d="M-97 -162q0 19 8 38.5t16 33t28.5 35t28.5 28.5t33 30l95 447h74l-96 -450q-118 -93 -118 -144q0 -36 34 -36q23 0 49 13v-56q-35 -14 -71 -14q-38 0 -59.5 20t-21.5 55zM179 564q-44 0 -44 47q0 24 16 42.5t41 18.5q43 0 43 -46q0 -25 -16 -43.5t-40 -18.5z" />
    <glyph glyph-name="Idotaccent" unicode="&#x130;" horiz-adv-x="270" 
d="M42 0l132 667h78l-132 -667h-78zM230 740q-40 0 -40 40q0 25 16.5 46.5t46.5 21.5q40 0 40 -39q0 -25 -16.5 -47t-46.5 -22z" />
    <glyph glyph-name="dotlessi" unicode="&#x131;" horiz-adv-x="222" 
d="M17 0l96 450h74l-96 -450h-74z" />
    <glyph glyph-name="IJ" unicode="&#x132;" horiz-adv-x="540" 
d="M42 0l132 667h78l-132 -667h-78zM327 75l117 592h78l-117 -591q-11 -48 -25 -85.5t-37.5 -75.5t-60.5 -62t-86 -31l-25 62q120 13 156 191z" />
    <glyph glyph-name="ij" unicode="&#x133;" horiz-adv-x="444" 
d="M180 564q-44 0 -44 47q0 24 16 42.5t41 18.5q43 0 43 -46q0 -25 -16 -43.5t-40 -18.5zM17 0l96 450h74l-96 -450h-74zM402 564q-44 0 -44 47q0 24 16 42.5t41 18.5q43 0 43 -46q0 -25 -16 -43.5t-40 -18.5zM240 4l95 446h74l-94 -442q-24 -116 -72 -174t-126 -71l-23 62
q110 13 146 179z" />
    <glyph glyph-name="Jcircumflex" unicode="&#x134;" horiz-adv-x="270" 
d="M57 75l117 592h78l-117 -591q-11 -48 -25 -85.5t-37.5 -75.5t-60.5 -62t-86 -31l-25 62q120 13 156 191zM110 718l-42 38l151 115h69l100 -115l-48 -38l-94 100z" />
    <glyph glyph-name="jcircumflex" unicode="&#x135;" horiz-adv-x="222" 
d="M18 4l95 446h74l-94 -442q-24 -116 -72 -174t-126 -71l-23 62q110 13 146 179zM72 505l-44 25l140 169h52l72 -169l-49 -25l-60 125z" />
    <glyph glyph-name="Kcommaaccent" unicode="&#x136;" horiz-adv-x="554" 
d="M42 0l132 667h78l-56 -284h12l307 284h104l-354 -323l233 -344h-94l-208 316h-14l-62 -316h-78zM191 -49h75q12 -17 12 -47q0 -49 -32.5 -87.5t-78.5 -59.5l-28 40q34 14 51.5 40t17.5 56q0 32 -17 58z" />
    <glyph glyph-name="kcommaaccent" unicode="&#x137;" horiz-adv-x="438" 
d="M17 0l149 700l77 14l-93 -437h11l189 173h103l-235 -209l157 -241h-88l-138 219h-12l-46 -219h-74zM124 -49h75q12 -17 12 -47q0 -49 -32.5 -87.5t-78.5 -59.5l-28 40q34 14 51.5 40t17.5 56q0 32 -17 58z" />
    <glyph glyph-name="kgreenlandic" unicode="&#x138;" horiz-adv-x="443" 
d="M17 0l95 450h74l-40 -188h8l206 188h104l-249 -221l160 -229h-89l-140 204h-12l-43 -204h-74z" />
    <glyph glyph-name="Lacute" unicode="&#x139;" horiz-adv-x="487" 
d="M42 0l132 667h78l-119 -600h305l-14 -67h-382zM165 718l-19 48l193 95l31 -72z" />
    <glyph glyph-name="lacute" unicode="&#x13a;" horiz-adv-x="222" 
d="M17 0l149 700l77 14l-152 -714h-74zM217 743l-44 27l136 166h89z" />
    <glyph glyph-name="Lcommaaccent" unicode="&#x13b;" horiz-adv-x="486" 
d="M42 0l132 667h78l-119 -600h305l-14 -67h-382zM181 -49h75q12 -17 12 -47q0 -49 -32.5 -87.5t-78.5 -59.5l-28 40q34 14 51.5 40t17.5 56q0 32 -17 58z" />
    <glyph glyph-name="lcommaaccent" unicode="&#x13c;" horiz-adv-x="222" 
d="M17 0l149 700l77 14l-152 -714h-74zM-2 -49h75q12 -17 12 -47q0 -49 -32.5 -87.5t-78.5 -59.5l-28 40q34 14 51.5 40t17.5 56q0 32 -17 58z" />
    <glyph glyph-name="Lcaron" unicode="&#x13d;" horiz-adv-x="494" 
d="M42 0l132 667h78l-119 -600h305l-14 -67h-382zM328 550l62 188l86 10l-101 -198h-47z" />
    <glyph glyph-name="lcaron" unicode="&#x13e;" horiz-adv-x="222" 
d="M17 0l149 700l77 14l-152 -714h-74zM274 550l62 188l86 10l-101 -198h-47z" />
    <glyph glyph-name="Ldot" unicode="&#x13f;" horiz-adv-x="527" 
d="M42 0l132 667h78l-119 -600h305l-14 -67h-382zM403 296q-43 0 -43 43q0 30 18 53.5t51 23.5q44 0 44 -42q0 -29 -18.5 -53.5t-51.5 -24.5z" />
    <glyph glyph-name="ldot" unicode="&#x140;" horiz-adv-x="332" 
d="M17 0l149 700l77 14l-152 -714h-74zM285 296q-43 0 -43 43q0 30 18 53.5t51 23.5q44 0 44 -42q0 -29 -18.5 -53.5t-51.5 -24.5z" />
    <glyph glyph-name="Lslash" unicode="&#x141;" horiz-adv-x="496" 
d="M18 239l12 72l323 197l-14 -72zM52 0l132 667h78l-119 -600h305l-14 -67h-382z" />
    <glyph glyph-name="lslash" unicode="&#x142;" horiz-adv-x="241" 
d="M2 242l15 71l256 146l-13 -71zM28 0l149 700l77 14l-152 -714h-74z" />
    <glyph glyph-name="Nacute" unicode="&#x143;" horiz-adv-x="715" 
d="M41 0l133 667h78l258 -557l111 557h76l-133 -667h-78l-261 547l-108 -547h-76zM386 718l-19 48l193 95l31 -72z" />
    <glyph glyph-name="nacute" unicode="&#x144;" horiz-adv-x="504" 
d="M16 0l94 443l77 14l-25 -116q97 121 198 121q45 0 68.5 -26t23.5 -65q0 -24 -19 -115l-55 -256h-74l55 259q15 68 15 88q0 46 -42 46q-49 0 -118 -68t-81 -122l-43 -203h-74zM316 506l-44 27l136 166h89z" />
    <glyph glyph-name="Ncommaaccent" unicode="&#x145;" horiz-adv-x="715" 
d="M41 0l133 667h78l258 -557l111 557h76l-133 -667h-78l-261 547l-108 -547h-76zM246 -49h75q12 -17 12 -47q0 -49 -32.5 -87.5t-78.5 -59.5l-28 40q34 14 51.5 40t17.5 56q0 32 -17 58z" />
    <glyph glyph-name="ncommaaccent" unicode="&#x146;" horiz-adv-x="504" 
d="M16 0l94 443l77 14l-25 -116q97 121 198 121q45 0 68.5 -26t23.5 -65q0 -24 -19 -115l-55 -256h-74l55 259q15 68 15 88q0 46 -42 46q-49 0 -118 -68t-81 -122l-43 -203h-74zM140 -49h75q12 -17 12 -47q0 -49 -32.5 -87.5t-78.5 -59.5l-28 40q34 14 51.5 40t17.5 56
q0 32 -17 58z" />
    <glyph glyph-name="Ncaron" unicode="&#x147;" horiz-adv-x="715" 
d="M41 0l133 667h78l258 -557l111 557h76l-133 -667h-78l-261 547l-108 -547h-76zM415 718l-100 115l48 38l94 -100l136 100l42 -38l-151 -115h-69z" />
    <glyph glyph-name="ncaron" unicode="&#x148;" horiz-adv-x="504" 
d="M16 0l94 443l77 14l-25 -116q97 121 198 121q45 0 68.5 -26t23.5 -65q0 -24 -19 -115l-55 -256h-74l55 259q15 68 15 88q0 46 -42 46q-49 0 -118 -68t-81 -122l-43 -203h-74zM290 520l-72 169l49 25l59 -125l112 125l44 -25l-140 -169h-52z" />
    <glyph glyph-name="napostrophe" unicode="&#x149;" horiz-adv-x="504" 
d="M16 0l94 443l77 14l-25 -116q97 121 198 121q45 0 68.5 -26t23.5 -65q0 -24 -19 -115l-55 -256h-74l55 259q15 68 15 88q0 46 -42 46q-49 0 -118 -68t-81 -122l-43 -203h-74zM138 731h75q12 -17 12 -47q0 -49 -32.5 -87.5t-78.5 -59.5l-28 40q34 14 51.5 40t17.5 56
q0 32 -17 58z" />
    <glyph glyph-name="Eng" unicode="&#x14a;" horiz-adv-x="714" 
d="M41 0l133 667h78l258 -557l111 557h76l-118 -591q-11 -48 -25 -85.5t-37.5 -75.5t-60.5 -62t-86 -31l-25 62q96 10 138 123l-258 540l-108 -547h-76z" />
    <glyph glyph-name="eng" unicode="&#x14b;" horiz-adv-x="504" 
d="M16 0l94 443l77 14l-25 -116q97 121 198 121q45 0 68.5 -26t23.5 -65q0 -24 -19 -115l-53 -248q-24 -116 -72 -174t-126 -71l-23 62q110 13 146 179l54 255q15 68 15 88q0 46 -42 46q-49 0 -118 -67.5t-80 -118.5l-44 -207h-74z" />
    <glyph glyph-name="Omacron" unicode="&#x14c;" horiz-adv-x="751" 
d="M56 272q0 100 49 193t140 153.5t200 60.5q124 0 199.5 -76.5t75.5 -198.5q0 -102 -51.5 -198t-143 -157t-196.5 -61q-123 0 -198 80.5t-75 203.5zM140 275q0 -93 49 -156t143 -63q85 0 156.5 54.5t109 134t37.5 159.5q0 89 -50 148t-142 59q-124 0 -213.5 -102
t-89.5 -234zM347 765l13 59h258l-13 -59h-258z" />
    <glyph glyph-name="omacron" unicode="&#x14d;" horiz-adv-x="504" 
d="M30 179q0 108 74 195.5t180 87.5q82 0 127.5 -54.5t45.5 -129.5q0 -45 -17.5 -95t-49 -94t-81.5 -72.5t-107 -28.5q-83 0 -127.5 55.5t-44.5 135.5zM110 182q0 -59 24 -94t74 -35q74 0 121.5 69.5t47.5 152.5q0 55 -24 88.5t-73 33.5q-70 0 -120 -62t-50 -153zM208 589
l13 59h228l-13 -59h-228z" />
    <glyph glyph-name="Obreve" unicode="&#x14e;" horiz-adv-x="751" 
d="M56 272q0 100 49 193t140 153.5t200 60.5q124 0 199.5 -76.5t75.5 -198.5q0 -102 -51.5 -198t-143 -157t-196.5 -61q-123 0 -198 80.5t-75 203.5zM140 275q0 -93 49 -156t143 -63q85 0 156.5 54.5t109 134t37.5 159.5q0 89 -50 148t-142 59q-124 0 -213.5 -102
t-89.5 -234zM466 720q-59 0 -90 28t-31 72q0 24 9 48h52q-6 -20 -6 -35q0 -60 73 -60q49 0 73.5 28t30.5 67h55q-5 -62 -48.5 -105t-117.5 -43z" />
    <glyph glyph-name="obreve" unicode="&#x14f;" horiz-adv-x="504" 
d="M30 179q0 108 74 195.5t180 87.5q82 0 127.5 -54.5t45.5 -129.5q0 -45 -17.5 -95t-49 -94t-81.5 -72.5t-107 -28.5q-83 0 -127.5 55.5t-44.5 135.5zM110 182q0 -59 24 -94t74 -35q74 0 121.5 69.5t47.5 152.5q0 55 -24 88.5t-73 33.5q-70 0 -120 -62t-50 -153zM321 541
q-56 0 -84.5 29t-28.5 75q0 25 9 51h52q-5 -18 -5 -39q0 -63 57 -63q70 0 92 102h52q-5 -68 -42.5 -111.5t-101.5 -43.5z" />
    <glyph glyph-name="Ohungarumlaut" unicode="&#x150;" horiz-adv-x="751" 
d="M56 272q0 100 49 193t140 153.5t200 60.5q124 0 199.5 -76.5t75.5 -198.5q0 -102 -51.5 -198t-143 -157t-196.5 -61q-123 0 -198 80.5t-75 203.5zM140 275q0 -93 49 -156t143 -63q85 0 156.5 54.5t109 134t37.5 159.5q0 89 -50 148t-142 59q-124 0 -213.5 -102
t-89.5 -234zM510 747l101 122h87l-137 -149zM392 720l-51 27l93 122h87z" />
    <glyph glyph-name="ohungarumlaut" unicode="&#x151;" horiz-adv-x="504" 
d="M30 179q0 108 74 195.5t180 87.5q82 0 127.5 -54.5t45.5 -129.5q0 -45 -17.5 -95t-49 -94t-81.5 -72.5t-107 -28.5q-83 0 -127.5 55.5t-44.5 135.5zM110 182q0 -59 24 -94t74 -35q74 0 121.5 69.5t47.5 152.5q0 55 -24 88.5t-73 33.5q-70 0 -120 -62t-50 -153zM388 506
l-44 27l132 166h84zM235 506l-43 27l129 166h83z" />
    <glyph glyph-name="OE" unicode="&#x152;" horiz-adv-x="937" 
d="M54 269q0 104 53.5 198t149.5 153t209 59q62 0 124 -12h374l-14 -67h-296l-44 -226h234l-14 -67h-234l-47 -240h295l-13 -67h-372q-63 -12 -118 -12q-137 0 -212 78.5t-75 202.5zM139 273q0 -93 51.5 -155t159.5 -62q65 0 121 10l105 531q-50 15 -120 15
q-130 0 -223.5 -101t-93.5 -238z" />
    <glyph glyph-name="oe" unicode="&#x153;" horiz-adv-x="754" 
d="M30 179q0 69 32.5 134t91.5 107t128 42q112 0 153 -105q74 105 175 105q44 0 76 -20.5t32 -66.5q0 -37 -25 -70t-57.5 -53.5t-77 -37.5t-70 -24t-49.5 -12q0 -125 87 -125q31 0 65 14t53 28l19 14l14 -63q-8 -6 -22 -16t-56.5 -26t-83.5 -16q-104 0 -137 96
q-73 -96 -176 -96q-83 0 -127.5 55.5t-44.5 135.5zM110 182q0 -59 24.5 -94t74.5 -35q74 0 121 69.5t47 152.5q0 55 -24.5 88.5t-73.5 33.5q-69 0 -119 -62.5t-50 -152.5zM598 397q-43 0 -86.5 -46.5t-62.5 -113.5q23 5 49 14t60.5 24t57 37.5t22.5 47.5q0 16 -10 26.5
t-30 10.5z" />
    <glyph glyph-name="Racute" unicode="&#x154;" horiz-adv-x="566" 
d="M408 0l-126 282h-106l-56 -282h-78l132 667h157q103 0 152.5 -45.5t49.5 -113.5q0 -81 -54 -136.5t-122 -79.5l135 -292h-84zM189 349h101q55 0 107 42.5t52 112.5q0 43 -33 69.5t-103 26.5h-74zM314 718l-19 48l193 95l31 -72z" />
    <glyph glyph-name="racute" unicode="&#x155;" horiz-adv-x="333" 
d="M16 0l94 443l77 14l-25 -116h4q73 118 146 118q9 0 17.5 -1.5t12.5 -3.5l5 -1l-17 -83q-20 7 -37 7q-45 0 -100 -75q-53 -73 -61 -106l-42 -196h-74zM249 506l-44 27l136 166h89z" />
    <glyph glyph-name="Rcommaaccent" unicode="&#x156;" horiz-adv-x="565" 
d="M408 0l-126 282h-106l-56 -282h-78l132 667h157q103 0 152.5 -45.5t49.5 -113.5q0 -81 -54 -136.5t-122 -79.5l135 -292h-84zM189 349h101q55 0 107 42.5t52 112.5q0 43 -33 69.5t-103 26.5h-74zM193 -49h75q12 -17 12 -47q0 -49 -32.5 -87.5t-78.5 -59.5l-28 40
q34 14 51.5 40t17.5 56q0 32 -17 58z" />
    <glyph glyph-name="rcommaaccent" unicode="&#x157;" horiz-adv-x="334" 
d="M16 0l94 443l77 14l-25 -116h4q73 118 146 118q9 0 17.5 -1.5t12.5 -3.5l5 -1l-17 -83q-20 7 -37 7q-45 0 -100 -75q-53 -73 -61 -106l-42 -196h-74zM0 -49h75q12 -17 12 -47q0 -49 -32.5 -87.5t-78.5 -59.5l-28 40q34 14 51.5 40t17.5 56q0 32 -17 58z" />
    <glyph glyph-name="Rcaron" unicode="&#x158;" horiz-adv-x="566" 
d="M408 0l-126 282h-106l-56 -282h-78l132 667h157q103 0 152.5 -45.5t49.5 -113.5q0 -81 -54 -136.5t-122 -79.5l135 -292h-84zM189 349h101q55 0 107 42.5t52 112.5q0 43 -33 69.5t-103 26.5h-74zM343 718l-100 115l48 38l94 -100l136 100l42 -38l-151 -115h-69z" />
    <glyph glyph-name="rcaron" unicode="&#x159;" horiz-adv-x="333" 
d="M16 0l94 443l77 14l-25 -116h4q73 118 146 118q9 0 17.5 -1.5t12.5 -3.5l5 -1l-17 -83q-20 7 -37 7q-45 0 -100 -75q-53 -73 -61 -106l-42 -196h-74zM223 520l-72 169l49 25l59 -125l112 125l44 -25l-140 -169h-52z" />
    <glyph glyph-name="Sacute" unicode="&#x15a;" horiz-adv-x="489" 
d="M14 44l21 73q7 -6 20 -16t53 -26t81 -16q64 0 109 31t45 85q0 37 -25 66.5t-60 52.5t-70.5 47.5t-60.5 62.5t-25 87q0 77 63.5 132.5t163.5 55.5q37 0 76.5 -7.5t60.5 -15.5l21 -7l-20 -73q-64 32 -135 32q-63 0 -106 -30t-43 -83q0 -37 24.5 -66t60 -50.5t71 -45
t60 -61.5t24.5 -89q0 -90 -68.5 -142.5t-163.5 -52.5q-48 0 -92.5 14t-64.5 28zM282 718l-19 48l193 95l31 -72z" />
    <glyph glyph-name="sacute" unicode="&#x15b;" horiz-adv-x="356" 
d="M-1 25l17 65q48 -37 108 -37q38 0 61 16t23 47q0 29 -22.5 53t-50 40.5t-50 47.5t-22.5 71q0 62 45.5 98t116.5 36q30 0 56.5 -6.5t38.5 -13.5l11 -6l-18 -65q-44 26 -93 26q-82 0 -82 -61q0 -23 15 -42t36 -33.5t42.5 -31t36.5 -43t15 -60.5q0 -67 -47.5 -102.5
t-114.5 -35.5q-32 0 -62.5 9t-44.5 19zM241 506l-44 27l136 166h89z" />
    <glyph glyph-name="Scircumflex" unicode="&#x15c;" horiz-adv-x="489" 
d="M14 44l21 73q7 -6 20 -16t53 -26t81 -16q64 0 109 31t45 85q0 37 -25 66.5t-60 52.5t-70.5 47.5t-60.5 62.5t-25 87q0 77 63.5 132.5t163.5 55.5q37 0 76.5 -7.5t60.5 -15.5l21 -7l-20 -73q-64 32 -135 32q-63 0 -106 -30t-43 -83q0 -37 24.5 -66t60 -50.5t71 -45
t60 -61.5t24.5 -89q0 -90 -68.5 -142.5t-163.5 -52.5q-48 0 -92.5 14t-64.5 28zM227 718l-42 38l151 115h69l100 -115l-48 -38l-94 100z" />
    <glyph glyph-name="scircumflex" unicode="&#x15d;" horiz-adv-x="356" 
d="M-1 25l17 65q48 -37 108 -37q38 0 61 16t23 47q0 29 -22.5 53t-50 40.5t-50 47.5t-22.5 71q0 62 45.5 98t116.5 36q30 0 56.5 -6.5t38.5 -13.5l11 -6l-18 -65q-44 26 -93 26q-82 0 -82 -61q0 -23 15 -42t36 -33.5t42.5 -31t36.5 -43t15 -60.5q0 -67 -47.5 -102.5
t-114.5 -35.5q-32 0 -62.5 9t-44.5 19zM148 505l-44 25l140 169h52l72 -169l-49 -25l-60 125z" />
    <glyph glyph-name="Scedilla" unicode="&#x15e;" horiz-adv-x="491" 
d="M127 -73q0 15 24 53l6 10q-39 4 -74.5 17.5t-51.5 24.5l-16 12l21 73q7 -6 20 -16t53 -26t81 -16q64 0 109 31t45 85q0 37 -25 66.5t-60 52.5t-70.5 47.5t-60.5 62.5t-25 87q0 77 63.5 132.5t163.5 55.5q37 0 76.5 -7.5t60.5 -15.5l21 -7l-20 -73q-64 32 -135 32
q-63 0 -106 -30t-43 -83q0 -37 24.5 -66t60 -50.5t71 -45t60 -61.5t24.5 -89q0 -86 -63 -137.5t-153 -56.5l-3 -6q-18 -30 -18 -37q0 -11 10 -21t21.5 -16.5t21.5 -21t10 -33.5q0 -36 -34 -63.5t-82 -27.5q-24 0 -46 7.5t-32 15.5l-11 8l22 46q29 -27 67 -27q23 0 39.5 10.5
t16.5 26.5q0 13 -16 24t-31.5 24t-15.5 29z" />
    <glyph glyph-name="scedilla" unicode="&#x15f;" horiz-adv-x="357" 
d="M64 -73q0 15 24 53l6 10q-25 3 -48.5 12t-34.5 16l-11 7l17 65q48 -37 108 -37q38 0 61 16t23 47q0 29 -22.5 53t-50 40.5t-50 47.5t-22.5 71q0 62 45.5 98t116.5 36q30 0 56.5 -6.5t37.5 -13.5l12 -6l-18 -65q-44 26 -93 26q-82 0 -82 -61q0 -23 15 -42t36 -33.5
t42.5 -31t36.5 -43t15 -60.5q0 -60 -39.5 -95.5t-99.5 -41.5l-3 -6q-18 -30 -18 -37q0 -14 16 -25.5t31.5 -27t15.5 -39.5q0 -36 -34 -63.5t-82 -27.5q-24 0 -46 7.5t-33 15.5l-10 8l22 46q29 -27 67 -27q23 0 39.5 10.5t16.5 26.5q0 13 -15.5 24t-31.5 24t-16 29z" />
    <glyph glyph-name="Scaron" unicode="&#x160;" horiz-adv-x="489" 
d="M14 44l21 73q7 -6 20 -16t53 -26t81 -16q64 0 109 31t45 85q0 37 -25 66.5t-60 52.5t-70.5 47.5t-60.5 62.5t-25 87q0 77 63.5 132.5t163.5 55.5q37 0 76.5 -7.5t60.5 -15.5l21 -7l-20 -73q-64 32 -135 32q-63 0 -106 -30t-43 -83q0 -37 24.5 -66t60 -50.5t71 -45
t60 -61.5t24.5 -89q0 -90 -68.5 -142.5t-163.5 -52.5q-48 0 -92.5 14t-64.5 28zM311 718l-100 115l48 38l94 -100l136 100l42 -38l-151 -115h-69z" />
    <glyph glyph-name="scaron" unicode="&#x161;" horiz-adv-x="356" 
d="M-1 25l17 65q48 -37 108 -37q38 0 61 16t23 47q0 29 -22.5 53t-50 40.5t-50 47.5t-22.5 71q0 62 45.5 98t116.5 36q30 0 56.5 -6.5t38.5 -13.5l11 -6l-18 -65q-44 26 -93 26q-82 0 -82 -61q0 -23 15 -42t36 -33.5t42.5 -31t36.5 -43t15 -60.5q0 -67 -47.5 -102.5
t-114.5 -35.5q-32 0 -62.5 9t-44.5 19zM215 520l-72 169l49 25l59 -125l112 125l44 -25l-140 -169h-52z" />
    <glyph glyph-name="Tcommaaccent" unicode="&#x162;" horiz-adv-x="561" 
d="M183 0l119 600h-224l14 67h530l-14 -67h-228l-119 -600h-14l-10 -17q-18 -30 -18 -37q0 -14 16 -25.5t31.5 -27t15.5 -39.5q0 -36 -34 -63.5t-82 -27.5q-24 0 -46 7.5t-32 15.5l-11 8l22 46q29 -27 67 -27q23 0 39.5 10.5t16.5 26.5q0 13 -16 24t-31.5 24t-15.5 29
q0 15 24 53l13 20h-13z" />
    <glyph glyph-name="tcommaaccent" unicode="&#x163;" horiz-adv-x="353" 
d="M94 -73q0 15 24 53l7 11q-67 14 -67 92q0 21 6 46l56 258h-61v42l75 25l20 96l81 19l-25 -119h135l-14 -63h-134l-53 -245q-5 -21 -5 -43q0 -46 35 -46q41 0 102 50l18 -61q-68 -46 -118 -52l-4 -7q-18 -30 -18 -37q0 -14 16 -25.5t31.5 -27t15.5 -39.5q0 -36 -34 -63.5
t-82 -27.5q-24 0 -46 7.5t-33 15.5l-10 8l22 46q29 -27 67 -27q23 0 39.5 10.5t16.5 26.5q0 13 -15.5 24t-31.5 24t-16 29z" />
    <glyph glyph-name="Tcaron" unicode="&#x164;" horiz-adv-x="561" 
d="M183 0l119 600h-224l14 67h530l-14 -67h-228l-119 -600h-78zM339 718l-100 115l48 38l94 -100l136 100l42 -38l-151 -115h-69z" />
    <glyph glyph-name="tcaron" unicode="&#x165;" horiz-adv-x="350" 
d="M55 83q0 21 6 46l56 258h-61v42l75 25l20 96l81 19l-25 -119h135l-14 -63h-134l-53 -245q-5 -21 -5 -43q0 -46 35 -46q41 0 102 50l18 -61q-79 -54 -141 -54q-45 0 -70 24t-25 71zM314 549l62 188l86 10l-101 -198h-47z" />
    <glyph glyph-name="Tbar" unicode="&#x166;" horiz-adv-x="562" 
d="M101 319l10 47h146l46 234h-224l14 67h530l-14 -67h-228l-46 -234h151l-9 -47h-152l-63 -319h-78l63 319h-146z" />
    <glyph glyph-name="tbar" unicode="&#x167;" horiz-adv-x="353" 
d="M27 241l10 47h60l22 99h-61v42l75 25l20 96l81 19l-25 -119h135l-14 -63h-134l-22 -99h137l-10 -47h-137l-21 -99q-5 -21 -5 -43q0 -46 35 -46q41 0 102 50l18 -61q-79 -54 -141 -54q-45 0 -70 24t-25 71q0 21 6 46l24 112h-60z" />
    <glyph glyph-name="Utilde" unicode="&#x168;" horiz-adv-x="689" 
d="M76 188q0 30 8 72l81 407h78l-82 -414q-6 -33 -6 -59q0 -70 39.5 -104t107.5 -34q83 0 141 49t76 142l83 420h78l-85 -428q-25 -125 -104 -188t-192 -63q-97 0 -160 49.5t-63 150.5zM264 740l2.5 12.5t9.5 27t19.5 34.5t34 27t51.5 12q26 0 47.5 -10.5t32.5 -22.5
t26 -22.5t30 -10.5q21 0 35.5 17.5t18.5 34.5l4 17l56 -10q-1 -5 -2.5 -13t-9.5 -28t-20 -35.5t-35 -28t-52 -12.5q-33 0 -57 16.5t-42 33t-36 16.5q-20 0 -34.5 -16.5t-18.5 -32.5l-4 -16z" />
    <glyph glyph-name="utilde" unicode="&#x169;" horiz-adv-x="499" 
d="M35 86q0 23 19 117l52 247h75l-54 -250q-17 -80 -17 -96q0 -21 11 -36t34 -15q49 0 113 71.5t79 141.5l39 184h74l-66 -309q-18 -85 5 -130l-72 -23q-26 42 -12 114h-2q-80 -114 -178 -114q-49 0 -74.5 29t-25.5 69zM160 557q1 5 2.5 13t9 28t17.5 35.5t30.5 28
t45.5 12.5q23 0 40 -12t25.5 -26.5t20 -26.5t23.5 -12q16 0 28.5 19t16.5 38l4 19l54 -10q-1 -5 -2.5 -13t-9 -29t-18.5 -37t-31.5 -29t-46.5 -13q-22 0 -39 12t-25 26.5t-19.5 26.5t-23.5 12q-16 0 -28 -18t-16 -36l-4 -18z" />
    <glyph glyph-name="Umacron" unicode="&#x16a;" horiz-adv-x="689" 
d="M76 188q0 30 8 72l81 407h78l-82 -414q-6 -33 -6 -59q0 -70 39.5 -104t107.5 -34q83 0 141 49t76 142l83 420h78l-85 -428q-25 -125 -104 -188t-192 -63q-97 0 -160 49.5t-63 150.5zM313 765l13 59h258l-13 -59h-258z" />
    <glyph glyph-name="umacron" unicode="&#x16b;" horiz-adv-x="499" 
d="M35 86q0 23 19 117l52 247h75l-54 -250q-17 -80 -17 -96q0 -21 11 -36t34 -15q49 0 113 71.5t79 141.5l39 184h74l-66 -309q-18 -85 5 -130l-72 -23q-26 42 -12 114h-2q-80 -114 -178 -114q-49 0 -74.5 29t-25.5 69zM201 589l13 59h228l-13 -59h-228z" />
    <glyph glyph-name="Ubreve" unicode="&#x16c;" horiz-adv-x="689" 
d="M76 188q0 30 8 72l81 407h78l-82 -414q-6 -33 -6 -59q0 -70 39.5 -104t107.5 -34q83 0 141 49t76 142l83 420h78l-85 -428q-25 -125 -104 -188t-192 -63q-97 0 -160 49.5t-63 150.5zM432 720q-59 0 -90 28t-31 72q0 24 9 48h52q-6 -20 -6 -35q0 -60 73 -60q49 0 73.5 28
t30.5 67h55q-5 -62 -48.5 -105t-117.5 -43z" />
    <glyph glyph-name="ubreve" unicode="&#x16d;" horiz-adv-x="499" 
d="M35 86q0 23 19 117l52 247h75l-54 -250q-17 -80 -17 -96q0 -21 11 -36t34 -15q49 0 113 71.5t79 141.5l39 184h74l-66 -309q-18 -85 5 -130l-72 -23q-26 42 -12 114h-2q-80 -114 -178 -114q-49 0 -74.5 29t-25.5 69zM314 541q-56 0 -84.5 29t-28.5 75q0 25 9 51h52
q-5 -18 -5 -39q0 -63 57 -63q70 0 92 102h52q-5 -68 -42.5 -111.5t-101.5 -43.5z" />
    <glyph glyph-name="Uring" unicode="&#x16e;" horiz-adv-x="689" 
d="M76 188q0 30 8 72l81 407h78l-82 -414q-6 -33 -6 -59q0 -70 39.5 -104t107.5 -34q83 0 141 49t76 142l83 420h78l-85 -428q-25 -125 -104 -188t-192 -63q-97 0 -160 49.5t-63 150.5zM430 686q-38 0 -58 21t-20 52q0 38 26 65t73 27q38 0 58.5 -20t20.5 -50
q0 -38 -26.5 -66.5t-73.5 -28.5zM434 725q24 0 38.5 16.5t14.5 36.5q0 14 -11 24t-30 10q-26 0 -38 -16.5t-12 -37.5q0 -14 10 -23.5t28 -9.5z" />
    <glyph glyph-name="uring" unicode="&#x16f;" horiz-adv-x="499" 
d="M35 86q0 23 19 117l52 247h75l-54 -250q-17 -80 -17 -96q0 -21 11 -36t34 -15q49 0 113 71.5t79 141.5l39 184h74l-66 -309q-18 -85 5 -130l-72 -23q-26 42 -12 114h-2q-80 -114 -178 -114q-49 0 -74.5 29t-25.5 69zM308 536q-38 0 -58 21t-20 52q0 38 26 65t73 27
q38 0 58.5 -20t20.5 -50q0 -38 -26.5 -66.5t-73.5 -28.5zM312 575q24 0 38.5 16.5t14.5 36.5q0 14 -11 24t-30 10q-26 0 -38 -16.5t-12 -37.5q0 -14 10 -23.5t28 -9.5z" />
    <glyph glyph-name="Uhungarumlaut" unicode="&#x170;" horiz-adv-x="689" 
d="M76 188q0 30 8 72l81 407h78l-82 -414q-6 -33 -6 -59q0 -70 39.5 -104t107.5 -34q83 0 141 49t76 142l83 420h78l-85 -428q-25 -125 -104 -188t-192 -63q-97 0 -160 49.5t-63 150.5zM476 747l101 122h87l-137 -149zM358 720l-51 27l93 122h87z" />
    <glyph glyph-name="uhungarumlaut" unicode="&#x171;" horiz-adv-x="499" 
d="M35 86q0 23 19 117l52 247h75l-54 -250q-17 -80 -17 -96q0 -21 11 -36t34 -15q49 0 113 71.5t79 141.5l39 184h74l-66 -309q-18 -85 5 -130l-72 -23q-26 42 -12 114h-2q-80 -114 -178 -114q-49 0 -74.5 29t-25.5 69zM381 506l-44 27l132 166h84zM228 506l-43 27l129 166
h83z" />
    <glyph glyph-name="Uogonek" unicode="&#x172;" horiz-adv-x="690" 
d="M76 188q0 30 8 72l81 407h78l-82 -414q-6 -33 -6 -59q0 -70 39.5 -104t107.5 -34q83 0 141 49t76 142l83 420h78l-85 -428q-32 -158 -151 -219q-144 -110 -144 -164q0 -36 34 -36q23 0 49 13v-56q-35 -14 -71 -14q-38 0 -59.5 20t-21.5 55q0 39 26 75t72 77
q-20 -2 -30 -2q-97 0 -160 49.5t-63 150.5z" />
    <glyph glyph-name="uogonek" unicode="&#x173;" horiz-adv-x="499" 
d="M35 86q0 23 19 117l52 247h75l-54 -250q-17 -80 -17 -96q0 -21 11 -36t34 -15q49 0 113 71.5t79 141.5l39 184h74l-66 -309q-18 -85 5 -130q-132 -104 -132 -155q0 -36 34 -36q23 0 49 13v-56q-35 -14 -71 -14q-38 0 -59.5 20t-21.5 55q0 31 21.5 65.5t39.5 52t58 52.5
q-14 36 -2 94h-2q-80 -114 -178 -114q-49 0 -74.5 29t-25.5 69z" />
    <glyph glyph-name="Wcircumflex" unicode="&#x174;" horiz-adv-x="898" 
d="M162 -5l-57 672h76l43 -551l259 551h80l40 -551l262 551h82l-324 -672h-80l-44 539l-259 -539h-78zM423 718l-42 38l151 115h69l100 -115l-48 -38l-94 100z" />
    <glyph glyph-name="wcircumflex" unicode="&#x175;" horiz-adv-x="696" 
d="M111 -5q-43 227 -51 455h79q0 -137 27 -366q115 199 176 366h75q0 -139 27 -369q130 225 183 369h78q-73 -184 -241 -455h-71q-27 142 -41 309q-69 -145 -170 -309h-71zM307 505l-44 25l140 169h52l72 -169l-49 -25l-60 125z" />
    <glyph glyph-name="Ycircumflex" unicode="&#x176;" horiz-adv-x="545" 
d="M172 0l57 290l-151 377h88l116 -297l236 297h91l-302 -376l-57 -291h-78zM241 718l-42 38l151 115h69l100 -115l-48 -38l-94 100z" />
    <glyph glyph-name="ycircumflex" unicode="&#x177;" horiz-adv-x="424" 
d="M-135 -175q105 17 217 155q10 12 14 24.5t4 26v31.5q-3 76 -16.5 191.5t-32.5 196.5h80q45 -221 33 -361q62 92 115.5 195.5t75.5 165.5h81q-76 -189 -216 -393q-93 -134 -183 -214q-84 -75 -156 -80zM167 505l-44 25l140 169h52l72 -169l-49 -25l-60 125z" />
    <glyph glyph-name="Ydieresis" unicode="&#x178;" horiz-adv-x="545" 
d="M172 0l57 290l-151 377h88l116 -297l236 297h91l-302 -376l-57 -291h-78zM475 739q-42 0 -42 44q0 23 15 40.5t39 17.5q41 0 41 -43q0 -24 -15.5 -41.5t-37.5 -17.5zM257 739q-42 0 -42 44q0 23 15 40.5t39 17.5q20 0 30.5 -12t10.5 -31q0 -24 -15.5 -41.5t-37.5 -17.5z
" />
    <glyph glyph-name="Zacute" unicode="&#x179;" horiz-adv-x="551" 
d="M-9 0v47l469 553h-339l14 67h442l-5 -47l-468 -553h365l-14 -67h-464zM299 718l-19 48l193 95l31 -72z" />
    <glyph glyph-name="zacute" unicode="&#x17a;" horiz-adv-x="416" 
d="M-7 0v47l296 339h-219l8 64h321l-6 -52l-295 -334h238l-14 -64h-329zM251 506l-44 27l136 166h89z" />
    <glyph glyph-name="Zdotaccent" unicode="&#x17b;" horiz-adv-x="551" 
d="M-9 0v47l469 553h-339l14 67h442l-5 -47l-468 -553h365l-14 -67h-464zM364 740q-40 0 -40 40q0 25 16.5 46.5t46.5 21.5q40 0 40 -39q0 -25 -16.5 -47t-46.5 -22z" />
    <glyph glyph-name="zdotaccent" unicode="&#x17c;" horiz-adv-x="416" 
d="M-7 0v47l296 339h-219l8 64h321l-6 -52l-295 -334h238l-14 -64h-329zM258 564q-40 0 -40 40q0 25 16.5 46.5t46.5 21.5q40 0 40 -39q0 -25 -16.5 -47t-46.5 -22z" />
    <glyph glyph-name="Zcaron" unicode="&#x17d;" horiz-adv-x="551" 
d="M-9 0v47l469 553h-339l14 67h442l-5 -47l-468 -553h365l-14 -67h-464zM328 718l-100 115l48 38l94 -100l136 100l42 -38l-151 -115h-69z" />
    <glyph glyph-name="zcaron" unicode="&#x17e;" horiz-adv-x="416" 
d="M-7 0v47l296 339h-219l8 64h321l-6 -52l-295 -334h238l-14 -64h-329zM225 520l-72 169l49 25l59 -125l112 125l44 -25l-140 -169h-52z" />
    <glyph glyph-name="longs" unicode="&#x17f;" horiz-adv-x="244" 
d="M49 387v41l69 22l4 26q6 49 19.5 90t37 79.5t64 60.5t94.5 22q30 0 57 -7t38 -13l12 -7l-34 -60q-36 21 -77 21q-31 0 -55.5 -15t-38.5 -35.5t-25 -56.5t-15.5 -64t-10.5 -72q-30 -238 -44 -309q-57 -285 -185 -340q-10 -4 -20 -7l-31 53q134 45 183 419l19 152h-61z" />
    <glyph glyph-name="florin" unicode="&#x192;" horiz-adv-x="404" 
d="M32 289l5 59h138l20 96q24 116 81 175.5t136 59.5q36 0 73 -11l-13 -66q-29 9 -66 9q-44 0 -81 -40t-54 -123l-21 -100h139l-5 -59h-146l-52 -252q-24 -117 -80 -176t-135 -59q-31 0 -73 11l13 66q38 -9 65 -9q43 0 80 40t54 123l53 256h-131z" />
    <glyph glyph-name="Aringacute" unicode="&#x1fa;" horiz-adv-x="585" 
d="M-37 0l356 636q-29 20 -29 56q0 35 28.5 62.5t76.5 27.5q44 0 65 -18.5t21 -47.5q0 -27 -16.5 -51t-45.5 -35l104 -630h-77l-32 202h-258l-111 -202h-82zM356 564l-163 -295h210zM346 798l-19 48l193 95l31 -72zM376 656q25 0 42 17t17 40q0 14 -10.5 24.5t-29.5 10.5
q-28 0 -42.5 -17.5t-14.5 -38.5q0 -36 38 -36z" />
    <glyph glyph-name="aringacute" unicode="&#x1fb;" horiz-adv-x="486" 
d="M23 124q0 62 24.5 128.5t76.5 123t118 76.5q-38 17 -38 61q0 35 28.5 62.5t76.5 27.5q44 0 65 -18.5t21 -47.5q0 -51 -44 -78q93 -9 96 -9l-66 -309q-8 -36 -8 -68q0 -37 13 -62l-69 -23q-17 29 -17 66q0 24 5 48h-2q-32 -46 -77.5 -80t-95.5 -34q-47 0 -77 34.5
t-30 101.5zM103 133q0 -80 46 -80q45 0 107.5 71.5t77.5 141.5l27 126q-27 8 -62 8q-71 0 -133.5 -84t-62.5 -183zM255 617l-19 48l193 95l31 -72zM290 477q25 0 42 17t17 40q0 14 -10.5 24.5t-29.5 10.5q-28 0 -42.5 -17.5t-14.5 -38.5q0 -36 38 -36z" />
    <glyph glyph-name="AEacute" unicode="&#x1fc;" horiz-adv-x="835" 
d="M-49 0l486 667h425l-14 -67h-296l-44 -226h234l-14 -67h-234l-47 -240h295l-13 -67h-373l44 224h-199l-161 -224h-89zM250 291h163l62 313zM577 718l-19 48l193 95l31 -72z" />
    <glyph glyph-name="aeacute" unicode="&#x1fd;" horiz-adv-x="683" 
d="M0 93q0 34 18.5 60t44.5 41t71 27t78.5 17.5t87.5 11.5q16 70 16 96q0 51 -57 51q-32 0 -68.5 -12.5t-56.5 -24.5l-21 -13l-20 60q9 6 24.5 15t61.5 24.5t90 15.5q108 0 113 -80q70 80 157 80q45 0 76 -22t31 -74q0 -29 -10.5 -52.5t-32 -40t-45.5 -28t-59.5 -20
t-64.5 -13.5t-69 -10q-3 -16 -3 -32q0 -47 23 -82t69 -35q31 0 65 14t53 28l19 14l14 -63q-8 -6 -22 -16t-56 -26t-82 -16q-112 0 -144 107q-24 -41 -70.5 -74t-107.5 -33q-53 0 -88 27.5t-35 77.5zM135 53q55 0 96.5 38t57.5 103q-69 -8 -108.5 -16.5t-69 -29t-29.5 -52.5
q0 -43 53 -43zM526 397q-42 0 -83.5 -39.5t-63.5 -98.5q91 11 139 32t48 66q0 40 -40 40zM424 506l-44 27l136 166h89z" />
    <glyph glyph-name="Oslashacute" unicode="&#x1fe;" horiz-adv-x="751" 
d="M56 272q0 100 49 193t140 153.5t200 60.5q84 0 147 -37l42 55h64l-64 -85q86 -78 86 -208q0 -102 -51.5 -198t-143 -157t-196.5 -61q-80 0 -143 36l-41 -54h-65l64 85q-88 80 -88 217zM140 275q0 -99 51 -159l356 467q-44 28 -104 28q-124 0 -213.5 -102t-89.5 -234z
M635 404q0 90 -49 146l-356 -468q43 -26 102 -26q85 0 156.5 54.5t109 134t37.5 159.5zM405 718l-19 48l193 95l31 -72z" />
    <glyph glyph-name="oslashacute" unicode="&#x1ff;" horiz-adv-x="504" 
d="M30 179q0 108 74 195.5t180 87.5q50 0 89 -23l31 41h60l-53 -72q46 -50 46 -130q0 -45 -17.5 -95t-49 -94t-81.5 -72.5t-107 -28.5q-50 0 -88 22l-29 -40h-61l53 71q-47 51 -47 138zM110 182q0 -49 14 -78l208 279q-22 14 -52 14q-70 0 -120 -62t-50 -153zM377 275
q0 39 -14 70l-207 -279q20 -13 52 -13q74 0 121.5 69.5t47.5 152.5zM310 506l-44 27l136 166h89z" />
    <glyph glyph-name="Scommaaccent" unicode="&#x218;" horiz-adv-x="489" 
d="M14 44l21 73q7 -6 20 -16t53 -26t81 -16q64 0 109 31t45 85q0 37 -25 66.5t-60 52.5t-70.5 47.5t-60.5 62.5t-25 87q0 77 63.5 132.5t163.5 55.5q37 0 76.5 -7.5t60.5 -15.5l21 -7l-20 -73q-64 32 -135 32q-63 0 -106 -30t-43 -83q0 -37 24.5 -66t60 -50.5t71 -45
t60 -61.5t24.5 -89q0 -90 -68.5 -142.5t-163.5 -52.5q-48 0 -92.5 14t-64.5 28zM129 -49h75q12 -17 12 -47q0 -49 -32.5 -87.5t-78.5 -59.5l-28 40q34 14 51.5 40t17.5 56q0 32 -17 58z" />
    <glyph glyph-name="scommaaccent" unicode="&#x219;" horiz-adv-x="356" 
d="M-1 25l17 65q48 -37 108 -37q38 0 61 16t23 47q0 29 -22.5 53t-50 40.5t-50 47.5t-22.5 71q0 62 45.5 98t116.5 36q30 0 56.5 -6.5t38.5 -13.5l11 -6l-18 -65q-44 26 -93 26q-82 0 -82 -61q0 -23 15 -42t36 -33.5t42.5 -31t36.5 -43t15 -60.5q0 -67 -47.5 -102.5
t-114.5 -35.5q-32 0 -62.5 9t-44.5 19zM66 -49h75q12 -17 12 -47q0 -49 -32.5 -87.5t-78.5 -59.5l-28 40q34 14 51.5 40t17.5 56q0 32 -17 58z" />
    <glyph glyph-name="uni021A" unicode="&#x21a;" horiz-adv-x="560" 
d="M182 0l119 600h-224l14 67h530l-14 -67h-228l-119 -600h-78zM161 -49h75q12 -17 12 -47q0 -49 -32.5 -87.5t-78.5 -59.5l-28 40q34 14 51.5 40t17.5 56q0 32 -17 58z" />
    <glyph glyph-name="uni021B" unicode="&#x21b;" horiz-adv-x="349" 
d="M55 83q0 21 6 46l56 258h-61v42l75 25l20 96l81 19l-25 -119h135l-14 -63h-134l-53 -245q-5 -21 -5 -43q0 -46 35 -46q41 0 102 50l18 -61q-79 -54 -141 -54q-45 0 -70 24t-25 71zM94 -49h75q12 -17 12 -47q0 -49 -32.5 -87.5t-78.5 -59.5l-28 40q34 14 51.5 40t17.5 56
q0 32 -17 58z" />
    <glyph glyph-name="circumflex" unicode="&#x2c6;" horiz-adv-x="500" 
d="M190 505l-44 25l140 169h52l72 -169l-49 -25l-60 125z" />
    <glyph glyph-name="caron" unicode="&#x2c7;" horiz-adv-x="500" 
d="M257 520l-72 169l49 25l59 -125l112 125l44 -25l-140 -169h-52z" />
    <glyph glyph-name="breve" unicode="&#x2d8;" horiz-adv-x="500" 
d="M265 541q-56 0 -84.5 29t-28.5 75q0 25 9 51h52q-5 -18 -5 -39q0 -63 57 -63q70 0 92 102h52q-5 -68 -42.5 -111.5t-101.5 -43.5z" />
    <glyph glyph-name="dotaccent" unicode="&#x2d9;" horiz-adv-x="500" 
d="M290 564q-40 0 -40 40q0 25 16.5 46.5t46.5 21.5q40 0 40 -39q0 -25 -16.5 -47t-46.5 -22z" />
    <glyph glyph-name="ring" unicode="&#x2da;" horiz-adv-x="500" 
d="M288 536q-38 0 -58 21t-20 52q0 38 26 65t73 27q38 0 58.5 -20t20.5 -50q0 -38 -26.5 -66.5t-73.5 -28.5zM292 575q24 0 38.5 16.5t14.5 36.5q0 14 -11 24t-30 10q-26 0 -38 -16.5t-12 -37.5q0 -14 10 -23.5t28 -9.5z" />
    <glyph glyph-name="ogonek" unicode="&#x2db;" horiz-adv-x="500" 
d="M84 -162q0 15 3.5 29t12.5 29t16 25t23 26t22.5 23t26 24.5t23.5 21.5l85 11l3 -5q-29 -23 -42 -34t-44 -38.5t-45.5 -51t-14.5 -42.5q0 -36 34 -36q23 0 49 13v-56q-35 -14 -71 -14q-38 0 -59.5 20t-21.5 55z" />
    <glyph glyph-name="tilde" unicode="&#x2dc;" horiz-adv-x="500" 
d="M140 557q1 5 2.5 13t9 28t17.5 35.5t30.5 28t45.5 12.5q23 0 40 -12t25.5 -26.5t20 -26.5t23.5 -12q16 0 28.5 19t16.5 38l4 19l54 -10q-1 -5 -2.5 -13t-9 -29t-18.5 -37t-31.5 -29t-46.5 -13q-22 0 -39 12t-25 26.5t-19.5 26.5t-23.5 12q-16 0 -28 -18t-16 -36l-4 -18z
" />
    <glyph glyph-name="hungarumlaut" unicode="&#x2dd;" horiz-adv-x="500" 
d="M309 506l-44 27l132 166h84zM156 506l-43 27l129 166h83z" />
    <glyph glyph-name="Delta" unicode="&#x394;" horiz-adv-x="596" 
d="M-17 0l7 34l381 633h32l115 -633l-7 -34h-528zM357 533l-274 -468h353z" />
    <glyph glyph-name="Delta" unicode="&#x2206;" horiz-adv-x="596" 
d="M-17 0l7 34l381 633h32l115 -633l-7 -34h-528zM357 533l-274 -468h353z" />
    <glyph glyph-name="Omega" unicode="&#x3a9;" horiz-adv-x="717" 
d="M-2 0l6 74h151q-68 106 -68 234q0 160 100.5 265.5t236.5 105.5q108 0 176 -65.5t68 -175.5q0 -104 -55.5 -201t-121.5 -163h146l-24 -74h-222l-7 38q3 3 28.5 32.5t37 44.5t36 48t38.5 59.5t29.5 61.5t23 71.5t7.5 72.5q0 83 -43.5 131.5t-122.5 48.5q-106 0 -177 -91
t-71 -228q0 -52 14.5 -108t23.5 -76.5t31 -66.5l-22 -38h-219z" />
    <glyph glyph-name="Omega" unicode="&#x2126;" horiz-adv-x="717" 
d="M-2 0l6 74h151q-68 106 -68 234q0 160 100.5 265.5t236.5 105.5q108 0 176 -65.5t68 -175.5q0 -104 -55.5 -201t-121.5 -163h146l-24 -74h-222l-7 38q3 3 28.5 32.5t37 44.5t36 48t38.5 59.5t29.5 61.5t23 71.5t7.5 72.5q0 83 -43.5 131.5t-122.5 48.5q-106 0 -177 -91
t-71 -228q0 -52 14.5 -108t23.5 -76.5t31 -66.5l-22 -38h-219z" />
    <glyph glyph-name="pi" unicode="&#x3c0;" horiz-adv-x="525" 
d="M63 383l15 67h446l-15 -67h-83l-56 -267q-5 -23 -5 -34q0 -16 11 -21t42 -5l-13 -63q-30 -5 -45 -5q-71 0 -71 66q0 20 10 66l55 263h-127l-11 -55q-12 -59 -26 -106t-36 -98t-54.5 -86t-73.5 -50l-31 53q68 36 99.5 105.5t55.5 186.5l10 50h-97z" />
    <glyph glyph-name="Wgrave" unicode="&#x1e80;" horiz-adv-x="898" 
d="M162 -5l-57 672h76l43 -551l259 551h80l40 -551l262 551h82l-324 -672h-80l-44 539l-259 -539h-78zM412 789l31 72l193 -95l-19 -48z" />
    <glyph glyph-name="wgrave" unicode="&#x1e81;" horiz-adv-x="696" 
d="M111 -5q-43 227 -51 455h79q0 -137 27 -366q115 199 176 366h75q0 -139 27 -369q130 225 183 369h78q-73 -184 -241 -455h-71q-27 142 -41 309q-69 -145 -170 -309h-71zM390 506l-99 193h81l66 -166z" />
    <glyph glyph-name="Wacute" unicode="&#x1e82;" horiz-adv-x="898" 
d="M162 -5l-57 672h76l43 -551l259 551h80l40 -551l262 551h82l-324 -672h-80l-44 539l-259 -539h-78zM478 718l-19 48l193 95l31 -72z" />
    <glyph glyph-name="wacute" unicode="&#x1e83;" horiz-adv-x="696" 
d="M111 -5q-43 227 -51 455h79q0 -137 27 -366q115 199 176 366h75q0 -139 27 -369q130 225 183 369h78q-73 -184 -241 -455h-71q-27 142 -41 309q-69 -145 -170 -309h-71zM400 506l-44 27l136 166h89z" />
    <glyph glyph-name="Wdieresis" unicode="&#x1e84;" horiz-adv-x="898" 
d="M162 -5l-57 672h76l43 -551l259 551h80l40 -551l262 551h82l-324 -672h-80l-44 539l-259 -539h-78zM657 739q-42 0 -42 44q0 23 15 40.5t39 17.5q41 0 41 -43q0 -24 -15.5 -41.5t-37.5 -17.5zM439 739q-42 0 -42 44q0 23 15 40.5t39 17.5q20 0 30.5 -12t10.5 -31
q0 -24 -15.5 -41.5t-37.5 -17.5z" />
    <glyph glyph-name="wdieresis" unicode="&#x1e85;" horiz-adv-x="696" 
d="M111 -5q-43 227 -51 455h79q0 -137 27 -366q115 199 176 366h75q0 -139 27 -369q130 225 183 369h78q-73 -184 -241 -455h-71q-27 142 -41 309q-69 -145 -170 -309h-71zM495 567q-42 0 -42 44q0 23 15 40.5t39 17.5q41 0 41 -43q0 -24 -15.5 -41.5t-37.5 -17.5zM330 567
q-42 0 -42 44q0 23 15 40.5t39 17.5q20 0 30.5 -12t10.5 -31q0 -24 -15.5 -41.5t-37.5 -17.5z" />
    <glyph glyph-name="uni1E9E" unicode="&#x1e9e;" horiz-adv-x="653" 
d="M30 0l74 353q68 326 337 326q28 0 62 -3t73 -8.5t53 -6.5l-5 -45l-202 -219q171 -74 171 -201q0 -83 -66.5 -145.5t-162.5 -62.5q-36 0 -72 10t-54 20l-18 10l17 74q55 -43 124 -43q62 0 106 40.5t44 94.5q0 59 -52.5 98t-124.5 58v48l183 202q-46 10 -86 10
q-101 0 -161 -62t-88 -198l-74 -350h-78z" />
    <glyph glyph-name="Ygrave" unicode="&#x1ef2;" horiz-adv-x="545" 
d="M172 0l57 290l-151 377h88l116 -297l236 297h91l-302 -376l-57 -291h-78zM230 789l31 72l193 -95l-19 -48z" />
    <glyph glyph-name="ygrave" unicode="&#x1ef3;" horiz-adv-x="424" 
d="M-135 -175q105 17 217 155q10 12 14 24.5t4 26v31.5q-3 76 -16.5 191.5t-32.5 196.5h80q45 -221 33 -361q62 92 115.5 195.5t75.5 165.5h81q-76 -189 -216 -393q-93 -134 -183 -214q-84 -75 -156 -80zM250 506l-99 193h81l66 -166z" />
    <glyph glyph-name="thinspace" unicode="&#x2009;" horiz-adv-x="15" 
 />
    <glyph glyph-name="endash" unicode="&#x2013;" horiz-adv-x="531" 
d="M56 222v63h410v-63h-410z" />
    <glyph glyph-name="emdash" unicode="&#x2014;" horiz-adv-x="921" 
d="M56 222v63h800v-63h-800z" />
    <glyph glyph-name="quoteleft" unicode="&#x2018;" horiz-adv-x="210" 
d="M138 467q-35 55 -35 99q0 45 33 91.5t86 81.5l35 -36q-76 -52 -76 -105q0 -39 42 -89z" />
    <glyph glyph-name="quoteright" unicode="&#x2019;" horiz-adv-x="211" 
d="M117 467l-35 36q76 52 76 105q0 39 -42 89l85 42q35 -55 35 -99q0 -45 -33 -91.5t-86 -81.5z" />
    <glyph glyph-name="quotesinglbase" unicode="&#x201a;" horiz-adv-x="228" 
d="M52 -12q0 39 -42 89l85 42q35 -55 35 -99q0 -45 -33 -91.5t-86 -81.5l-35 36q76 52 76 105z" />
    <glyph glyph-name="quotedblleft" unicode="&#x201c;" horiz-adv-x="367" 
d="M295 467q-35 55 -35 99q0 45 33 91.5t86 81.5l35 -36q-76 -52 -76 -105q0 -39 42 -89zM138 467q-35 55 -35 99q0 45 33 91.5t86 81.5l35 -36q-76 -52 -76 -105q0 -39 42 -89z" />
    <glyph glyph-name="quotedblright" unicode="&#x201d;" horiz-adv-x="368" 
d="M274 467l-35 36q76 52 76 105q0 39 -42 89l85 42q35 -55 35 -99q0 -45 -33 -91.5t-86 -81.5zM117 467l-35 36q76 52 76 105q0 39 -42 89l85 42q35 -55 35 -99q0 -45 -33 -91.5t-86 -81.5z" />
    <glyph glyph-name="quotedblbase" unicode="&#x201e;" horiz-adv-x="385" 
d="M133 -117q76 52 76 105q0 39 -42 89l85 42q35 -55 35 -99q0 -45 -33 -91.5t-86 -81.5zM52 -12q0 39 -42 89l85 42q35 -55 35 -99q0 -45 -33 -91.5t-86 -81.5l-35 36q76 52 76 105z" />
    <glyph glyph-name="dagger" unicode="&#x2020;" horiz-adv-x="466" 
d="M114 -139l114 528l-174 -15l17 85l168 -16l30 224h81l-56 -224l173 16l-17 -85l-167 15l-97 -528h-72z" />
    <glyph glyph-name="daggerdbl" unicode="&#x2021;" horiz-adv-x="487" 
d="M6 69l17 85l167 -15l49 250l-173 -15l17 85l167 -16l32 224h81l-57 -224l173 16l-17 -85l-167 15l-49 -250l173 15l-17 -85l-167 16l-33 -224h-81l58 224z" />
    <glyph glyph-name="bullet" unicode="&#x2022;" horiz-adv-x="380" 
d="M186 118q-58 0 -98 40t-40 98t40 98t98 40t98 -40t40 -98t-40 -98t-98 -40z" />
    <glyph glyph-name="ellipsis" unicode="&#x2026;" horiz-adv-x="739" 
d="M527 31q0 30 18 53.5t51 23.5q44 0 44 -42q0 -29 -18.5 -53.5t-51.5 -24.5q-43 0 -43 43zM272 31q0 30 18 53.5t51 23.5q44 0 44 -42q0 -29 -18.5 -53.5t-51.5 -24.5q-43 0 -43 43zM15 31q0 30 18 53.5t51 23.5q44 0 44 -42q0 -29 -18.5 -53.5t-51.5 -24.5q-43 0 -43 43z
" />
    <glyph glyph-name="perthousand" unicode="&#x2030;" horiz-adv-x="1044" 
d="M55 0l578 674l38 -31l-552 -643h-64zM212 358q-56 0 -90 35t-34 91q0 67 50.5 120.5t118.5 53.5q57 0 90.5 -35t33.5 -91q0 -68 -52 -121t-117 -53zM215 409q44 0 78 37.5t34 81.5q0 33 -20.5 56t-53.5 23q-42 0 -76 -37t-34 -82q0 -33 19.5 -56t52.5 -23zM692 114
q0 67 50.5 120.5t118.5 53.5q57 0 90.5 -35t33.5 -91q0 -68 -52 -121t-117 -53q-56 0 -90 35t-34 91zM354 114q0 67 50.5 120.5t118.5 53.5q57 0 90.5 -35t33.5 -91q0 -68 -52 -121t-117 -53q-56 0 -90 35t-34 91zM747 118q0 -33 19.5 -56t52.5 -23q44 0 78 37.5t34 81.5
q0 33 -20.5 56t-53.5 23q-42 0 -76 -37t-34 -82zM409 118q0 -33 19.5 -56t52.5 -23q44 0 78 37.5t34 81.5q0 33 -20.5 56t-53.5 23q-42 0 -76 -37t-34 -82z" />
    <glyph glyph-name="guilsinglleft" unicode="&#x2039;" horiz-adv-x="306" 
d="M162 40q-24 35 -46 67.5t-34 50.5t-23 35t-16.5 24.5t-10.5 14.5t-7.5 10t-6.5 7l1 4q16 11 226 209l52 -15l-185 -200l103 -192z" />
    <glyph glyph-name="guilsinglright" unicode="&#x203a;" horiz-adv-x="307" 
d="M2 55l185 199l-103 193l53 15q24 -35 46 -67.5t34 -50.5t23 -35t16.5 -24.5t10.5 -14.5t7.5 -10t6.5 -7l-1 -4q-16 -11 -226 -209z" />
    <glyph glyph-name="fraction" unicode="&#x2044;" horiz-adv-x="164" 
d="M-126 0h-75l533 687l57 -21z" />
    <glyph glyph-name="zerosuperior" unicode="&#x2070;" horiz-adv-x="363" 
d="M208 369q-59 0 -87 39.5t-28 103.5q0 99 50.5 187t130.5 88q60 0 87.5 -39t27.5 -103q0 -62 -21 -124.5t-64 -107t-96 -44.5zM210 426q29 0 52.5 26t35.5 64.5t18 74.5t6 64q0 75 -50 75q-38 0 -65 -44t-37 -93.5t-10 -91.5q0 -75 50 -75z" />
    <glyph glyph-name="foursuperior" unicode="&#x2074;" horiz-adv-x="341" 
d="M214 376l21 105h-174l3 39l236 263h58l-50 -251h57l-10 -51h-57l-21 -105h-63zM137 532h108l30 154z" />
    <glyph glyph-name="fivesuperior" unicode="&#x2075;" horiz-adv-x="308" 
d="M163 369q-27 0 -53 8.5t-39 16.5l-13 9l29 51q33 -28 80 -28q36 0 60 22t24 52q0 71 -132 92l37 188h195l-8 -55h-137l-20 -92q131 -37 131 -129q0 -60 -46.5 -97.5t-107.5 -37.5z" />
    <glyph glyph-name="sixsuperior" unicode="&#x2076;" horiz-adv-x="343" 
d="M206 369q-61 0 -91 37.5t-30 97.5q0 103 76.5 191.5t200.5 92.5l4 -53q-72 -5 -125 -39.5t-77 -95.5q36 41 96 41q49 0 75 -31t26 -80q0 -56 -43 -108.5t-112 -52.5zM238 587q-42 0 -88 -36q-3 -23 -3 -48q0 -77 62 -77q39 0 63 31t24 72q0 58 -58 58z" />
    <glyph glyph-name="sevensuperior" unicode="&#x2077;" horiz-adv-x="291" 
d="M122 367l-58 20q126 179 220 335h-172l5 58h257l-5 -33q-128 -209 -247 -380z" />
    <glyph glyph-name="eightsuperior" unicode="&#x2078;" horiz-adv-x="343" 
d="M198 369q-52 0 -87 29.5t-35 71.5q0 10 2 19t7 17.5t9 15t13 14.5t14 12.5t16.5 12t16 10.5t18 10.5t16.5 9.5q-51 46 -51 88q0 46 36 77t91 31q46 0 77 -26t31 -64q0 -24 -14 -45t-29.5 -32.5t-47.5 -31.5q23 -19 34 -30t21 -29.5t10 -38.5q0 -47 -40.5 -84t-107.5 -37z
M201 423q31 0 54.5 19t23.5 48q0 8 -2.5 15t-4.5 11.5t-9 12t-10 10.5t-13 11.5t-12 10.5q-3 -2 -18 -11l-20 -12t-16.5 -12t-15.5 -15t-8.5 -15.5t-4.5 -19.5q0 -24 16.5 -38.5t39.5 -14.5zM201 679q0 -18 9.5 -31.5t29.5 -30.5q33 20 49.5 36.5t16.5 37.5t-13 31.5
t-31 10.5q-24 0 -42.5 -14t-18.5 -40z" />
    <glyph glyph-name="ninesuperior" unicode="&#x2079;" horiz-adv-x="340" 
d="M97 368l-4 53q73 5 127 41t77 99q-36 -43 -98 -43q-47 0 -72.5 30.5t-25.5 77.5q0 56 42.5 108.5t109.5 52.5q61 0 91 -37.5t30 -97.5q0 -103 -76.5 -191.5t-200.5 -92.5zM221 572q42 0 88 36q3 21 3 45q0 77 -62 77q-37 0 -60.5 -31t-23.5 -72q0 -55 55 -55z" />
    <glyph glyph-name="n.sups" unicode="&#x207f;" horiz-adv-x="365" 
d="M53 297l67 316h64l-14 -66q64 74 131 74q34 0 52 -18.5t18 -45.5q0 -18 -13 -80l-39 -180h-64l39 182q10 47 10 60q0 29 -24 29q-30 0 -77 -45t-55 -79l-31 -147h-64z" />
    <glyph glyph-name="zeroinferior" unicode="&#x2080;" horiz-adv-x="363" 
d="M113 -120q-59 0 -87 39.5t-28 103.5q0 99 50.5 187t130.5 88q60 0 87.5 -39t27.5 -103q0 -62 -21 -124.5t-64 -107t-96 -44.5zM115 -63q29 0 52.5 26t35.5 64.5t18 74.5t6 64q0 75 -50 75q-38 0 -65 -44t-37 -93.5t-10 -91.5q0 -75 50 -75z" />
    <glyph glyph-name="oneinferior" unicode="&#x2081;" horiz-adv-x="268" 
d="M-42 -113l10 51h80l61 302h-74l6 51h142l-71 -353h75l-10 -51h-219z" />
    <glyph glyph-name="twoinferior" unicode="&#x2082;" horiz-adv-x="329" 
d="M-40 -113v32l114 99q62 54 90.5 90.5t28.5 73.5q0 28 -17 42.5t-40 14.5q-18 0 -37 -9t-29 -18l-11 -9l-33 40q6 6 16 15t41.5 24.5t63.5 15.5q49 0 80.5 -29t31.5 -78q0 -42 -27.5 -86t-101.5 -109l-62 -54h167l-7 -55h-268z" />
    <glyph glyph-name="threeinferior" unicode="&#x2083;" horiz-adv-x="310" 
d="M-42 -94l23 52q36 -21 79 -21q39 0 65 20t26 49q0 28 -23.5 41.5t-58.5 13.5h-22l7 53q42 4 81 31t39 60q0 36 -45 36q-16 0 -33.5 -5t-27.5 -10l-9 -5l-26 43q47 34 107 34q46 0 75 -23.5t29 -59.5q0 -37 -29 -68t-67 -50q72 -26 72 -87q0 -50 -45.5 -90t-112.5 -40
q-26 0 -52 6.5t-39 13.5z" />
    <glyph glyph-name="fourinferior" unicode="&#x2084;" horiz-adv-x="342" 
d="M120 -113l21 105h-174l3 39l236 263h58l-50 -251h57l-10 -51h-57l-21 -105h-63zM43 43h108l30 154z" />
    <glyph glyph-name="fiveinferior" unicode="&#x2085;" horiz-adv-x="308" 
d="M67 -120q-27 0 -53 8.5t-39 17.5l-13 8l29 51q33 -28 80 -28q36 0 60 22t24 52q0 71 -132 92l37 188h195l-8 -55h-137l-20 -92q131 -37 131 -129q0 -60 -46.5 -97.5t-107.5 -37.5z" />
    <glyph glyph-name="sixinferior" unicode="&#x2086;" horiz-adv-x="344" 
d="M111 -120q-61 0 -91 37.5t-30 97.5q0 103 76.5 191.5t200.5 92.5l4 -53q-72 -5 -125 -39.5t-77 -95.5q36 41 96 41q49 0 75 -31t26 -80q0 -56 -43 -108.5t-112 -52.5zM143 98q-42 0 -88 -36q-3 -22 -3 -48q0 -77 62 -77q39 0 63 31t24 72q0 58 -58 58z" />
    <glyph glyph-name="seveninferior" unicode="&#x2087;" horiz-adv-x="293" 
d="M28 -122l-58 20q126 179 220 335h-172l5 58h257l-5 -33q-128 -209 -247 -380z" />
    <glyph glyph-name="eightinferior" unicode="&#x2088;" horiz-adv-x="342" 
d="M102 -120q-52 0 -87 29.5t-35 71.5q0 10 2 19t7 17.5t9 15t13 14.5t14 12.5t16.5 12t16 10.5t18 10.5t16.5 9.5q-51 46 -51 88q0 46 36 77t91 31q46 0 77 -26t31 -64q0 -24 -14 -45t-29.5 -32.5t-47.5 -31.5q23 -19 34 -30t21 -29.5t10 -38.5q0 -47 -40.5 -84t-107.5 -37
zM105 -66q31 0 54.5 19t23.5 48q0 8 -2.5 15t-4.5 11.5t-9 12t-10 10.5t-13 11.5t-12 10.5q-3 -2 -18 -11l-20 -12t-16.5 -12t-15.5 -15t-8.5 -15.5t-4.5 -19.5q0 -24 16.5 -38.5t39.5 -14.5zM105 190q0 -18 9.5 -31.5t29.5 -30.5q33 20 49.5 36.5t16.5 37.5t-13 31.5
t-31 10.5q-24 0 -42.5 -14t-18.5 -40z" />
    <glyph glyph-name="nineinferior" unicode="&#x2089;" horiz-adv-x="341" 
d="M3 -121l-4 53q73 5 127 41t77 99q-36 -43 -98 -43q-47 0 -72.5 30.5t-25.5 77.5q0 56 42.5 108.5t109.5 52.5q61 0 91 -37.5t30 -97.5q0 -103 -76.5 -191.5t-200.5 -92.5zM127 83q42 0 88 36q3 21 3 45q0 77 -62 77q-37 0 -60.5 -31t-23.5 -72q0 -55 55 -55z" />
    <glyph glyph-name="Euro" unicode="&#x20ac;" horiz-adv-x="538" 
d="M52 311l10 50h54q38 89 109.5 146.5t165.5 57.5q41 0 77.5 -9.5t52.5 -19.5l16 -10l-32 -64q-48 37 -123 37q-62 0 -109.5 -38t-76.5 -100h262l-24 -50h-257q-11 -36 -14 -78h231l-24 -50h-207q6 -60 39 -94.5t91 -34.5q29 0 59.5 9t46.5 17l16 9l23 -59
q-65 -42 -155 -42t-143 52.5t-58 142.5h-58l11 50h48q3 32 15 78h-46z" />
    <glyph glyph-name="trademark" unicode="&#x2122;" horiz-adv-x="709" 
d="M379 401l10 266h76l62 -181l63 181h74l10 -266h-50l-8 206l-73 -206h-34l-73 207l-6 -207h-51zM196 401v223h-87v43h226v-43h-87v-223h-52z" />
    <glyph glyph-name="arrowleft" unicode="&#x2190;" horiz-adv-x="625" 
d="M319 78q-222 243 -240 260q-2 2 -5 4v4q18 14 50.5 49t194.5 215l65 -20q-119 -155 -174 -216h351v-59h-353q51 -57 176 -217z" />
    <glyph glyph-name="arrowup" unicode="&#x2191;" horiz-adv-x="625" 
d="M296 85v378q-57 -51 -217 -176l-20 65q243 222 260 240q2 2 4 5h4q14 -18 49 -50.5t215 -194.5l-20 -65q-157 119 -216 174v-376h-59z" />
    <glyph glyph-name="arrowright" unicode="&#x2192;" horiz-adv-x="625" 
d="M91 314v59h351q-44 45 -174 216l65 20q162 -180 194.5 -215t50.5 -49v-4q-22 -19 -171 -183q-46 -50 -74 -81l-65 20q114 148 176 217h-353z" />
    <glyph glyph-name="arrowdown" unicode="&#x2193;" horiz-adv-x="625" 
d="M327 97q-14 18 -49 50.5t-215 194.5l20 65q135 -103 216 -174v376h59v-378q52 48 217 176l20 -65q-243 -222 -260 -240q-2 -2 -4 -5h-4z" />
    <glyph glyph-name="partialdiff" unicode="&#x2202;" horiz-adv-x="498" 
d="M19 158q0 91 67 177t167 86q40 0 78 -15t52 -42q7 42 7 89q0 107 -44.5 168.5t-139.5 61.5v65q128 0 195 -84t67 -225q0 -111 -38.5 -215t-105.5 -170t-143 -66q-67 0 -114.5 49t-47.5 121zM186 54q56 0 104 64.5t76 163.5q-9 31 -36 51t-69 20q-76 0 -119.5 -62
t-43.5 -131q0 -46 23 -76t65 -30z" />
    <glyph glyph-name="product" unicode="&#x220f;" horiz-adv-x="719" 
d="M101 598l14 69h644l-14 -69h-98l-135 -678h-78l135 678h-292l-135 -678h-78l135 678h-98z" />
    <glyph glyph-name="summation" unicode="&#x2211;" horiz-adv-x="551" 
d="M-19 -33l299 334l-171 319l10 47h450l-14 -69h-349l162 -302l-274 -307h368l-14 -69h-477z" />
    <glyph glyph-name="minus" unicode="&#x2212;" 
d="M35 219v63h438v-63h-438z" />
    <glyph glyph-name="radical" unicode="&#x221a;" horiz-adv-x="557" 
d="M217 -36l-54 426h-123l12 60h167l38 -313l335 612h67l-430 -785h-12z" />
    <glyph glyph-name="infinity" unicode="&#x221e;" horiz-adv-x="814" 
d="M210 86q-67 0 -113.5 48t-46.5 116t46.5 116t113.5 48q96 0 193 -120q100 120 198 120q65 0 110 -46.5t45 -112.5q0 -71 -46.5 -120t-114.5 -49q-95 0 -192 119q-97 -119 -193 -119zM438 250q3 -4 9 -11.5t24 -26.5t36 -33t42.5 -26t46.5 -12q39 0 67.5 30.5t28.5 78.5
t-28.5 78.5t-67.5 30.5q-35 0 -74.5 -27.5t-61.5 -54.5zM210 141q35 0 74.5 27.5t61.5 54.5l22 27q-3 4 -9 11.5t-24 26.5t-36 33t-42.5 26t-46.5 12q-39 0 -67.5 -30.5t-28.5 -78.5t28.5 -78.5t67.5 -30.5z" />
    <glyph glyph-name="integral" unicode="&#x222b;" horiz-adv-x="390" 
d="M105 -6l110 520q24 116 79.5 175.5t132.5 59.5q34 0 69 -11l-22 -66q-27 9 -58 9q-40 0 -74 -40t-52 -123l-110 -520q-25 -117 -80 -176t-132 -59q-33 0 -68 11l22 66q27 -9 57 -9q40 0 74 40t52 123z" />
    <glyph glyph-name="approxequal" unicode="&#x2248;" 
d="M46 284l-39 50q70 70 149 70q50 0 107.5 -35t90.5 -35q60 0 110 55l39 -50q-28 -28 -68 -49t-81 -21q-50 0 -107.5 35t-90.5 35q-57 0 -110 -55zM46 110l-39 50q70 70 149 70q50 0 107.5 -35t90.5 -35q60 0 110 55l39 -50q-28 -28 -68 -49t-81 -21q-50 0 -107.5 35
t-90.5 35q-57 0 -110 -55z" />
    <glyph glyph-name="notequal" unicode="&#x2260;" 
d="M32 314v63h267l70 118l47 -30l-52 -88h116v-63h-154l-75 -127h229v-63h-266l-70 -118l-47 30l52 88h-117v63h154l76 127h-230z" />
    <glyph glyph-name="lessequal" unicode="&#x2264;" 
d="M23 321v46l426 204l15 -65l-343 -162l343 -172l-15 -64zM23 0v63h448v-63h-448z" />
    <glyph glyph-name="greaterequal" unicode="&#x2265;" 
d="M57 108l-15 64l342 172l-342 162l15 65l426 -204v-46zM35 0v63h448v-63h-448z" />
    <glyph glyph-name="triagup" unicode="&#x25b2;" horiz-adv-x="625" 
d="M45 147l-12 36q96 115 161 203.5t82 119.5l18 30h5q5 -11 18.5 -33.5t80 -113.5t162.5 -206l-12 -36q-56 19 -251.5 19t-251.5 -19z" />
    <glyph glyph-name="triagrt" unicode="&#x25ba;" horiz-adv-x="625" 
d="M168 92q19 56 19 251.5t-19 251.5l36 12q115 -96 203.5 -161t118.5 -82l31 -18v-5q-11 -5 -33.5 -18.5t-113.5 -80t-206 -162.5z" />
    <glyph glyph-name="triagdn" unicode="&#x25bc;" horiz-adv-x="625" 
d="M352 147q-5 11 -18.5 33.5t-80 113.5t-162.5 206l12 36q56 -19 251.5 -19t251.5 19l12 -36q-96 -115 -161 -203.5t-83 -118.5l-17 -31h-5z" />
    <glyph glyph-name="triaglf" unicode="&#x25c4;" horiz-adv-x="625" 
d="M95 341v5q11 5 33.5 18.5t113.5 80t206 162.5l36 -12q-19 -56 -19 -251.5t19 -251.5l-36 -12q-115 96 -203.5 161.5t-118.5 82.5z" />
    <glyph glyph-name="lozenge" unicode="&#x25ca;" horiz-adv-x="508" 
d="M178 -38l-126 401l283 390h28l128 -390l-285 -401h-28zM124 356l86 -286l208 302l-86 274z" />
    <glyph glyph-name="Euro.uc" unicode="&#xe012;" 
d="M50 370l11 55h59q40 109 116.5 181.5t183.5 72.5q39 0 74 -9.5t50 -19.5l16 -10l-35 -68q-44 38 -113 38q-74 0 -126 -51.5t-83 -133.5h253l-26 -55h-244q-8 -34 -14 -82h221l-26 -55h-197q1 -82 34 -129t100 -47q28 0 57 8.5t44 17.5l15 9l20 -62q-6 -5 -18 -12
t-49.5 -18.5t-77.5 -11.5q-98 0 -152.5 65.5t-56.5 179.5h-63l11 55h54q5 41 15 82h-53z" />
    <glyph glyph-name="cent.uc" unicode="&#xe028;" 
d="M270 113h-7l-25 -113h-45l27 119q-61 15 -96.5 63.5t-35.5 116.5q0 96 64.5 175t166.5 85l25 108h45l-25 -109q35 -5 63.5 -19.5t40.5 -26.5l11 -12l-44 -53q-33 36 -86 42l-70 -306q29 1 59 13t45 24l15 11l24 -60q-7 -6 -19.5 -16t-52.5 -26t-80 -16zM172 299
q0 -89 64 -110l67 297q-57 -13 -94 -67t-37 -120z" />
    <glyph glyph-name="dollar.uc" unicode="&#xe02c;" 
d="M29 59l16 73q7 -6 20.5 -15.5t54 -25.5t80.5 -17l52 236q-29 16 -41 23t-35.5 25t-33.5 32.5t-19.5 38t-9.5 50.5q0 74 60.5 127.5t155.5 57.5l23 102h45l-23 -104q30 -3 62 -10.5t48 -13.5l17 -6l-19 -73q-58 29 -124 33l-50 -227q30 -16 48.5 -28.5t39.5 -33.5
t31.5 -48.5t10.5 -62.5q0 -82 -61.5 -131.5t-147.5 -56.5l-22 -103h-45l22 102q-42 3 -80.5 17t-56.5 26zM193 487q0 -34 19.5 -56.5t56.5 -44.5l45 205q-53 -6 -87 -34t-34 -70zM358 187q0 56 -67 100l-46 -209q49 9 81 38t32 71z" />
    <glyph glyph-name="dotlessi.smcp" unicode="&#xe033;" horiz-adv-x="250" 
d="M34 0l95 482h75l-95 -482h-75z" />
    <glyph glyph-name="florin.uc" unicode="&#xe039;" 
d="M90 328l5 64h134l18 96q22 121 77.5 178t132.5 57q33 0 66 -11l-15 -70q-32 9 -60 9q-42 0 -75.5 -39t-47.5 -120l-19 -100h136l-5 -64h-142l-45 -247q-41 -235 -213 -235q-30 0 -65 11l14 70q32 -9 58 -9q43 0 78 39t50 120l46 251h-128z" />
    <glyph glyph-name="sterling.uc" unicode="&#xe03f;" 
d="M51 289l9 55h80l39 142q26 96 72 144.5t124 48.5q42 0 74.5 -12.5t44.5 -24.5l11 -12l-40 -59q-4 4 -11 10t-31 16.5t-51 10.5q-43 0 -71 -27.5t-46 -97.5l-36 -139h168l-15 -55h-168l-12 -49q-11 -43 -27 -84t-27 -60l-10 -19q85 -32 153 -32q40 0 70 23.5t41 90.5h69
q-13 -82 -55 -133t-122 -51q-40 0 -110 19.5t-94 19.5q-27 0 -60 -14l-21 58q7 2 18.5 7t35 27t32.5 52l40 145h-74z" />
    <glyph glyph-name="orn.001" unicode="&#xe04e;" horiz-adv-x="718" 
d="M373 396q-11 13 -16 32l-45 175q-5 19 17 30.5t44 11.5t43 -11.5t16 -30.5l-45 -175zM312 76l45 175q2 8 6 16t7 12l3 4q9 -13 14 -32l45 -175q5 -19 -16 -30.5t-43 -11.5t-44 11.5t-17 30.5zM422 368q4 14 19 28l129 126q11 11 24.5 6.5t24.5 -14.5t18 -21
q7 -12 10.5 -27.5t0 -29.5t-15.5 -17l-176 -48zM115 419q-13 4 -17 18t-1 29t10 27q7 11 18 21t24.5 15t24.5 -6l129 -127q7 -6 11.5 -13t5.5 -11l2 -4q-15 -2 -34 3zM441 283q-7 6 -11.5 13t-5.5 11l-2 4q15 2 34 -3l173 -48q13 -4 17 -18t1 -29t-10 -27q-11 -19 -32 -31
t-35 1zM107 186q-7 12 -10 27t0.5 29t16.5 18l174 48l34 3q-4 -14 -19 -28l-129 -126q-11 -11 -24.5 -6.5t-24.5 14.5t-18 21z" />
    <glyph glyph-name="orn.002" unicode="&#xe04f;" horiz-adv-x="712" 
d="M112 419q-13 4 -17 18t-1 29t10 27q7 11 18 21t24.5 15t24.5 -6l125 -123q22 27 56 33l-43 170q-5 19 17 30.5t44 11.5t43 -11.5t16 -30.5l-44 -170q35 -6 58 -32l124 121q11 11 24.5 6.5t24.5 -14.5t18 -21q7 -12 10.5 -27.5t0 -29.5t-15.5 -17l-170 -47q6 -20 6 -32
q0 -18 -6 -34l167 -46q13 -4 17 -18t1 -29t-10 -27q-11 -19 -32 -31t-35 1l-125 122q-22 -27 -57 -32l44 -170q5 -19 -16 -30.5t-43 -11.5t-44 11.5t-17 30.5l44 170q-35 6 -57 33l-125 -122q-11 -11 -24.5 -6.5t-24.5 14.5t-18 21q-7 12 -10 27t0.5 29t16.5 18l170 47
q-6 15 -6 33q0 15 5 32zM314 339q0 -23 16.5 -39.5t39.5 -16.5t39.5 16.5t16.5 39.5t-16.5 39.5t-39.5 16.5t-39.5 -16.5t-16.5 -39.5z" />
    <glyph glyph-name="orn.003" unicode="&#xe050;" horiz-adv-x="885" 
d="M126 216q-50 0 -50 67q0 72 55 136t139 64q40 0 78 -19t61.5 -40.5t55.5 -54.5q7 -8 10 -11q63 -66 92 -85q38 -24 73 -24q43 0 77.5 28.5t34.5 77.5q0 19 -7 41t-7 31q0 21 14.5 33.5t35.5 12.5q50 0 50 -67q0 -71 -55 -135.5t-139 -64.5q-41 0 -80.5 20.5t-61.5 41
t-59 60.5q-36 39 -53 56t-50.5 36.5t-64.5 19.5q-44 0 -78.5 -28.5t-34.5 -77.5q0 -18 7 -40t7 -32q0 -21 -14.5 -33.5t-35.5 -12.5z" />
    <glyph glyph-name="orn.004" unicode="&#xe051;" horiz-adv-x="842" 
d="M352 587q-19 0 -31 14t-12 33q0 45 66 45q69 0 133.5 -54t64.5 -135q0 -11 -6.5 -17.5t-15.5 -6.5q-21 0 -21 24q-2 42 -30.5 76.5t-75.5 34.5q-19 0 -40.5 -7t-31.5 -7zM104 219q-45 0 -45 65q0 71 54.5 135t135.5 64q31 0 59 -10t56 -31.5t44.5 -37.5t45.5 -46
q35 -37 54 -55t50 -36t60 -18q43 0 79 28.5t36 77.5q0 19 -7 41t-7 31q0 19 14 31t33 12q45 0 45 -66q0 -70 -55 -134t-136 -64q-40 0 -79 20t-62.5 42t-58.5 60q-29 31 -40.5 42.5t-36 32.5t-45.5 29t-45 8q-44 0 -80 -28.5t-36 -77.5q0 -18 7 -40t7 -32q0 -19 -14 -31
t-33 -12zM296 201q0 9 6 15.5t15 6.5t15.5 -6.5t6.5 -15.5q0 -43 28.5 -78.5t77.5 -35.5q19 0 41 7t31 7q19 0 31 -14t12 -33q0 -45 -65 -45q-71 0 -135 55t-64 137z" />
    <glyph glyph-name="orn.005" unicode="&#xe052;" horiz-adv-x="645" 
d="M205 529q-19 0 -31 14t-12 33q0 45 65 45q71 0 135 -55t64 -137q0 -9 -6 -15.5t-15 -6.5t-15.5 6.5t-6.5 15.5q0 43 -28.5 78.5t-77.5 35.5q-19 0 -41 -7t-31 -7zM399 275q0 9 6.5 15.5t15.5 6.5q43 0 78.5 28.5t35.5 77.5q0 19 -7 41t-7 31q0 19 14 31t33 12
q45 0 45 -65q0 -71 -55 -135t-137 -64q-9 0 -15.5 6t-6.5 15zM104 170q-45 0 -45 65q0 71 55 135t137 64q9 0 15.5 -6t6.5 -15t-6.5 -15.5t-15.5 -6.5q-43 0 -78.5 -28.5t-35.5 -77.5q0 -19 7 -41t7 -31q0 -19 -14 -31t-33 -12zM246 259q0 9 6 15.5t15 6.5t15.5 -6.5
t6.5 -15.5q0 -43 28.5 -78.5t77.5 -35.5q19 0 41 7t31 7q19 0 31 -14t12 -33q0 -45 -65 -45q-71 0 -135 55t-64 137z" />
    <glyph glyph-name="orn.006" unicode="&#xe053;" horiz-adv-x="827" 
d="M80 333q0 143 101 244t244 101t244 -101t101 -244t-101 -244t-244 -101t-244 101t-101 244zM126 333q0 -126 86.5 -215t212.5 -89t212.5 89t86.5 215t-86.5 215t-212.5 89t-212.5 -89t-86.5 -215zM294 463q-19 0 -31 14t-12 33q0 45 65 45q71 0 135 -55t64 -137
q0 -9 -6 -15.5t-15 -6.5t-15.5 6.5t-6.5 15.5q0 43 -28.5 78.5t-77.5 35.5q-18 0 -40 -7t-32 -7zM433 264q0 9 6.5 15.5t15.5 6.5q43 0 78.5 28.5t35.5 77.5q0 19 -7 41t-7 31q0 19 14 31t33 12q45 0 45 -65q0 -71 -55 -135t-137 -64q-9 0 -15.5 6t-6.5 15zM248 159
q-45 0 -45 65q0 71 55 135t137 64q9 0 15.5 -6t6.5 -15t-6.5 -15.5t-15.5 -6.5q-43 0 -78.5 -28.5t-35.5 -77.5q0 -18 7 -40t7 -32q0 -19 -14 -31t-33 -12zM335 303q0 9 6 15.5t15 6.5t15.5 -6.5t6.5 -15.5q0 -43 28.5 -78.5t77.5 -35.5q18 0 40 7t32 7q19 0 31 -14t12 -33
q0 -45 -65 -45q-71 0 -135 55t-64 137z" />
    <glyph glyph-name="orn.007" unicode="&#xe054;" horiz-adv-x="827" 
d="M80 333q0 143 101 244t244 101t244 -101t101 -244t-101 -244t-244 -101t-244 101t-101 244zM126 333q0 -126 86.5 -215t212.5 -89t212.5 89t86.5 215t-86.5 215t-212.5 89t-212.5 -89t-86.5 -215zM424 375q-8 9 -11 23l-33 129q-4 14 11.5 22t32.5 8t32 -8t12 -22
l-33 -129q-1 -6 -4 -12t-5 -8zM235 391q-14 5 -14 22.5t8 31.5q8 15 22 23.5t28 -0.5l94 -93q5 -4 8.5 -9.5t4.5 -8.5l2 -3q-11 -2 -26 2zM460 354q4 11 15 21l94 92q14 9 28 1t22 -23q5 -8 7 -19t-0.5 -21.5t-11.5 -13.5l-128 -35zM460 312q11 2 26 -2l127 -35
q10 -3 12.5 -13.5t0.5 -21.5t-7 -19q-8 -15 -22 -23.5t-28 0.5l-94 93q-5 4 -8.5 9.5t-4.5 8.5zM229 221q-8 14 -8.5 30.5t13.5 23.5l128 35l26 2q-4 -11 -15 -21l-94 -92q-14 -9 -28 -1t-22 23zM380 139l33 129q1 6 4 12t5 8l2 3q8 -9 11 -23l33 -129q3 -14 -12 -22t-32 -8
t-32 8t-12 22z" />
    <glyph glyph-name="yen.uc" unicode="&#xe06a;" 
d="M88 302l10 50h122l-123 315h84l96 -265l205 265h88l-248 -315h133l-10 -50h-144l-16 -78h144l-10 -50h-144l-34 -174h-78l34 174h-135l10 50h135l15 78h-134z" />
    <glyph glyph-name="ct" unicode="&#xe087;" horiz-adv-x="778" 
d="M30 178q0 108 72 196t176 88q20 0 38 -3q-3 12 -3 24q0 76 61 136t146 60q66 0 99 -32.5t33 -91.5q0 -20 -5 -47l-12 -58h135l-14 -63h-134l-53 -245q-5 -21 -5 -43q0 -46 36 -46q40 0 101 50l18 -61q-79 -54 -140 -54q-46 0 -71 24t-25 70q0 22 6 47l56 258h-61v42
l75 25q33 59 33 107q0 37 -22.5 54t-54.5 17q-56 0 -104.5 -44t-48.5 -111q0 -20 5 -34q13 -6 24.5 -13.5t16.5 -11.5l4 -5l-34 -59q-5 5 -14 12t-37 19t-56 12q-65 0 -113 -66t-48 -150q0 -59 26.5 -93.5t75.5 -34.5q31 0 62 12.5t46 25.5l15 13l27 -58q-7 -6 -20.5 -16
t-55 -26t-82.5 -16q-79 0 -126.5 53t-47.5 137z" />
    <glyph glyph-name="germandbls.smcp" unicode="&#xe308;" horiz-adv-x="820" 
d="M13 29l15 66q5 -5 15 -12t42.5 -19t65.5 -12q44 0 75 18t31 53q0 25 -18.5 46t-45 37t-53.5 34t-46.5 45t-20.5 61q-2 61 48 104.5t130 43.5q27 0 58 -5.5t48 -10.5l17 -6l-17 -65q-47 23 -104 23q-44 0 -73 -17.5t-29 -51.5q0 -25 18.5 -45.5t45.5 -35.5t54 -32
t46 -45.5t20 -65.5q2 -69 -53.5 -109t-130.5 -40q-37 0 -71.5 10t-50.5 20zM423 29l15 66q5 -5 15 -12t42.5 -19t65.5 -12q44 0 75 18t31 53q0 25 -18.5 46t-45 37t-53.5 34t-46.5 45t-20.5 61q-2 61 48 104.5t130 43.5q27 0 58 -5.5t48 -10.5l17 -6l-17 -65q-47 23 -104 23
q-44 0 -73 -17.5t-29 -51.5q0 -25 18.5 -45.5t45.5 -35.5t54 -32t46 -45.5t20 -65.5q2 -69 -53.5 -109t-130.5 -40q-37 0 -71.5 10t-50.5 20z" />
    <glyph glyph-name="uni021B.smcp" unicode="&#xe30b;" horiz-adv-x="457" 
d="M135 0l83 420h-169l12 62h416l-12 -62h-172l-83 -420h-75zM119 -49h75q12 -17 12 -47q0 -49 -32.5 -87.5t-78.5 -59.5l-28 40q34 14 51.5 40t17.5 56q0 32 -17 58z" />
    <glyph glyph-name="ordfeminine.smcp" unicode="&#xe351;" horiz-adv-x="457" 
d="M61 296l213 360h63l71 -360h-64l-17 94h-146l-53 -94h-67zM293 585l-80 -140h105z" />
    <glyph glyph-name="ordmasculine.smcp" unicode="&#xe352;" horiz-adv-x="469" 
d="M242 289q-74 0 -117 44t-43 112q0 81 61 147.5t155 66.5q76 0 120.5 -42.5t44.5 -109.5q0 -84 -66 -151t-155 -67zM245 345q64 0 108 50t44 106q0 43 -26 72.5t-74 29.5q-65 0 -108 -49t-43 -107q0 -42 26 -72t73 -30z" />
    <glyph glyph-name="a.sups" unicode="&#xe361;" horiz-adv-x="349" 
d="M137 289q-36 0 -59 24.5t-23 72.5q0 82 58.5 158.5t150.5 76.5q15 0 48.5 -4t52.5 -4l-46 -217q-12 -56 5 -91l-56 -16q-19 29 -9 80h-2q-57 -80 -120 -80zM152 339q28 0 70 48.5t52 96.5l18 83q-19 6 -36 6q-50 0 -91.5 -57t-41.5 -123q0 -54 29 -54z" />
    <glyph glyph-name="b.sups" unicode="&#xe362;" horiz-adv-x="354" 
d="M52 297l100 467h63l-46 -216h2q17 27 47.5 50t62.5 23q37 0 61.5 -28.5t24.5 -79.5q0 -82 -55.5 -153t-147.5 -71q-17 0 -54 4t-58 4zM124 341q22 -5 41 -5q59 0 97 51t38 116q0 64 -37 64q-28 0 -69 -47t-49 -83z" />
    <glyph glyph-name="c.sups" unicode="&#xe363;" horiz-adv-x="304" 
d="M190 289q-59 0 -94 37t-35 96q0 76 52 137.5t131 61.5q31 0 55.5 -11.5t34.5 -22.5l9 -11l-35 -45q-25 38 -68 38q-45 0 -78 -44.5t-33 -99.5q0 -38 18.5 -61t52.5 -23q22 0 43.5 10.5t32.5 20.5l10 10l20 -48q-5 -5 -15 -12.5t-40.5 -20t-60.5 -12.5z" />
    <glyph glyph-name="d.sups" unicode="&#xe364;" horiz-adv-x="359" 
d="M146 289q-43 0 -66 29.5t-23 77.5q0 84 60 154.5t149 70.5q21 0 45 -6l32 149h64l-79 -368q-12 -55 4 -91l-58 -16q-18 29 -9 76h-3q-50 -76 -116 -76zM160 339q31 0 72.5 50t50.5 95l12 57q7 32 -31 32q-52 0 -95.5 -50.5t-43.5 -117.5q0 -66 35 -66z" />
    <glyph glyph-name="e.sups" unicode="&#xe365;" horiz-adv-x="304" 
d="M174 289q-57 0 -86 34t-29 86q0 77 53.5 144.5t128.5 67.5q33 0 57.5 -14.5t24.5 -46.5q0 -31 -22 -57.5t-57.5 -43t-62.5 -26t-54 -15.5v-5q0 -74 55 -74q22 0 47.5 12t39.5 24l14 12l11 -53q-6 -5 -16 -12.5t-41.5 -20t-62.5 -12.5zM232 571q-28 0 -56.5 -31t-41.5 -76
q123 35 123 86q0 21 -25 21z" />
    <glyph glyph-name="f.sups" unicode="&#xe366;" horiz-adv-x="221" 
d="M78 564v33l50 18l4 27q19 141 143 141q23 0 42.5 -5.5t28.5 -11.5l8 -5l-24 -49q-28 20 -58 20q-40 0 -57 -30.5t-25 -88.5h85l-10 -49h-82q-26 -190 -50 -267q-45 -141 -131 -166l-26 45q55 16 83 85.5t45 185.5l17 117h-43z" />
    <glyph glyph-name="g.sups" unicode="&#xe367;" horiz-adv-x="348" 
d="M146 131q-51 0 -78.5 19t-27.5 48q0 26 22 55h59q-18 -29 -18 -45q0 -34 48 -34q21 0 37.5 9t25.5 20.5t16.5 34.5t10 37t6.5 44t6 40h-2q-50 -70 -115 -70q-36 0 -58.5 24.5t-22.5 72.5q0 51 23.5 103.5t73 92t112.5 39.5q15 0 49 -4t53 -4l-41 -190q-5 -23 -11.5 -64.5
t-10.5 -68t-16 -59.5t-28 -52.5t-45 -33.5t-68 -14zM150 339q30 0 72 48t52 97l18 86q-18 4 -33 4q-51 0 -93.5 -57.5t-42.5 -126.5q0 -51 27 -51z" />
    <glyph glyph-name="h.sups" unicode="&#xe368;" horiz-adv-x="364" 
d="M53 297l100 467h63l-48 -222q58 79 133 79q34 0 52 -18t18 -45q0 -11 -14 -81l-38 -180h-64l38 182q11 50 11 62q0 27 -25 27q-32 0 -78.5 -46.5t-53.5 -79.5l-31 -145h-63z" />
    <glyph glyph-name="i.sups" unicode="&#xe369;" horiz-adv-x="167" 
d="M168 687q-33 0 -33 33q0 18 13.5 34.5t36.5 16.5q34 0 34 -32q0 -18 -13.5 -35t-37.5 -17zM53 297l68 316h64l-68 -316h-64z" />
    <glyph glyph-name="j.sups" unicode="&#xe36a;" horiz-adv-x="167" 
d="M168 687q-33 0 -33 33q0 18 13.5 34.5t36.5 16.5q34 0 34 -32q0 -18 -13.5 -35t-37.5 -17zM-32 131l-19 50q82 10 105 119l67 313h64l-66 -310q-19 -82 -54.5 -122.5t-96.5 -49.5z" />
    <glyph glyph-name="k.sups" unicode="&#xe36b;" horiz-adv-x="325" 
d="M53 297l100 467h64l-58 -270h9l125 119h85l-162 -147l107 -169h-75l-89 151h-10l-32 -151h-64z" />
    <glyph glyph-name="l.sups" unicode="&#xe36c;" horiz-adv-x="167" 
d="M53 297l100 467h64l-100 -467h-64z" />
    <glyph glyph-name="m.sups" unicode="&#xe36d;" horiz-adv-x="546" 
d="M53 297l67 316h64l-14 -66q60 74 124 74q34 0 52.5 -22t13.5 -56q59 78 127 78q31 0 48 -18.5t17 -45.5q0 -18 -13 -80l-39 -180h-64l39 182q10 48 10 63q0 26 -21 26q-28 0 -72.5 -46t-50.5 -74l-32 -151h-64l38 182q11 55 11 63q0 26 -21 26q-29 0 -73.5 -45.5
t-51.5 -79.5l-31 -146h-64z" />
    <glyph glyph-name="o.sups" unicode="&#xe36e;" horiz-adv-x="361" 
d="M187 289q-61 0 -93.5 39t-32.5 95q0 76 53.5 137t130.5 61q60 0 93.5 -38t33.5 -91q0 -71 -52 -137t-133 -66zM192 339q49 0 80.5 47t31.5 104q0 36 -15.5 58.5t-46.5 22.5q-46 0 -79.5 -42.5t-33.5 -103.5q0 -86 63 -86z" />
    <glyph glyph-name="p.sups" unicode="&#xe36f;" horiz-adv-x="357" 
d="M20 139l101 474h64l-14 -65h2q47 73 111 73q42 0 64.5 -30t22.5 -78q0 -83 -57.5 -153.5t-140.5 -70.5q-32 0 -55 10l-34 -160h-64zM171 337q51 0 91.5 50t40.5 120q0 64 -34 64q-32 0 -73.5 -51.5t-51.5 -100.5l-10 -46q-4 -18 7.5 -27t29.5 -9z" />
    <glyph glyph-name="q.sups" unicode="&#xe370;" horiz-adv-x="356" 
d="M209 139l48 223h-3q-18 -29 -46.5 -51t-61.5 -22q-37 0 -62.5 29.5t-25.5 81.5q0 80 56 150.5t148 70.5q16 0 53.5 -4t58.5 -4l-101 -474h-64zM163 343q28 0 69 47t49 83l20 96q-20 5 -40 5q-59 0 -97 -50.5t-38 -115.5t37 -65z" />
    <glyph glyph-name="r.sups" unicode="&#xe371;" horiz-adv-x="243" 
d="M53 297l68 316h64l-15 -67h3q43 73 93 73q8 0 16.5 -1.5t13.5 -3.5l4 -2l-15 -63q-15 8 -31 8q-32 0 -66 -44.5t-42 -80.5l-29 -135h-64z" />
    <glyph glyph-name="s.sups" unicode="&#xe372;" horiz-adv-x="261" 
d="M134 289q-25 0 -48.5 7.5t-34.5 15.5l-11 7l14 52q33 -30 80 -30q53 0 53 39q0 18 -16 34t-34.5 27t-34.5 33t-16 50q0 44 33.5 70.5t85.5 26.5q23 0 43.5 -5.5t29.5 -11.5l9 -5l-15 -53q-31 23 -72 23q-50 0 -50 -37q0 -18 16 -33.5t35 -26t35 -32.5t16 -52
q0 -46 -34.5 -72.5t-83.5 -26.5z" />
    <glyph glyph-name="t.sups" unicode="&#xe373;" horiz-adv-x="263" 
d="M152 289q-72 0 -72 67q0 16 4 32l38 176h-41v34l52 15l14 70l69 13l-17 -83h94l-10 -49h-95l-36 -167q-4 -15 -4 -28q0 -28 22 -28q30 0 74 39l16 -51q-58 -40 -108 -40z" />
    <glyph glyph-name="u.sups" unicode="&#xe374;" horiz-adv-x="359" 
d="M140 289q-73 0 -73 73q0 25 12 79l36 172h64l-38 -174q-10 -45 -10 -62q0 -38 27 -38q34 0 74.5 48.5t50.5 96.5l27 129h64l-46 -217q-6 -29 -6 -49q0 -24 9 -42l-60 -16q-12 19 -12 46q0 17 2 27h-2q-51 -73 -119 -73z" />
    <glyph glyph-name="v.sups" unicode="&#xe375;" horiz-adv-x="313" 
d="M123 293q-34 184 -39 320h68q0 -94 18 -247q94 160 127 247h69q-11 -27 -25 -56.5t-25.5 -51.5t-31.5 -55.5t-29.5 -50t-33.5 -55t-32 -51.5h-66z" />
    <glyph glyph-name="w.sups" unicode="&#xe376;" horiz-adv-x="497" 
d="M120 293q-31 164 -36 320h65q0 -117 17 -247q76 135 118 247h59q0 -104 17 -250q84 148 122 250h65q-49 -124 -169 -320h-60q-19 94 -28 200q-47 -98 -110 -200h-60z" />
    <glyph glyph-name="x.sups" unicode="&#xe377;" horiz-adv-x="311" 
d="M17 297l141 162l-74 154h68l47 -110l90 110h75l-142 -161l75 -155h-67l-48 110l-91 -110h-74z" />
    <glyph glyph-name="y.sups" unicode="&#xe378;" horiz-adv-x="306" 
d="M-41 131l-14 53q42 4 85 35t67 62q15 20 15 50q0 47 -10.5 133.5t-24.5 148.5h68q26 -132 23 -225l-1 -15q77 121 124 240h69q-55 -134 -153 -275q-30 -43 -48 -66t-51 -58t-70 -55.5t-79 -27.5z" />
    <glyph glyph-name="z.sups" unicode="&#xe379;" horiz-adv-x="300" 
d="M36 297v33l203 233h-150l6 50h238l-5 -37l-202 -229h163l-10 -50h-243z" />
    <glyph glyph-name="egrave.sups" unicode="&#xe37a;" horiz-adv-x="304" 
d="M174 289q-57 0 -86 34t-29 86q0 77 53.5 144.5t128.5 67.5q33 0 57.5 -14.5t24.5 -46.5q0 -31 -22 -57.5t-57.5 -43t-62.5 -26t-54 -15.5v-5q0 -74 55 -74q22 0 47.5 12t39.5 24l14 12l11 -53q-6 -5 -16 -12.5t-41.5 -20t-62.5 -12.5zM232 571q-28 0 -56.5 -31t-41.5 -76
q123 35 123 86q0 21 -25 21zM149 714l25 58l155 -76l-16 -39z" />
    <glyph glyph-name="ampersand.001" unicode="&#xe37b;" horiz-adv-x="543" 
d="M325 265q63 -126 169.5 -237.5t206.5 -161.5l-40 -55q-99 42 -209 150.5t-183 241.5q-25 44 -45 92q-63 -37 -96.5 -73.5t-33.5 -82.5q0 -43 29.5 -64.5t75.5 -21.5q33 0 71 11l6 -65q-44 -11 -84 -11q-73 0 -122.5 37.5t-49.5 106.5q0 71 48.5 121t134.5 100
q-21 66 -21 124q0 47 16.5 90.5t60.5 77.5t109 34q59 0 93 -34t34 -86q0 -38 -16 -70.5t-49.5 -61t-62 -47t-75.5 -45.5q11 -27 33 -70zM261 479q0 -41 12 -86q72 40 110 76.5t38 82.5q0 26 -14.5 44t-44.5 18q-47 0 -74 -37t-27 -98z" />
    <glyph glyph-name="exclamdown.uc" unicode="&#xe441;" horiz-adv-x="259" 
d="M202 471l-90 -471h-87l114 471h63zM257 636q0 -30 -18 -53.5t-51 -23.5q-44 0 -44 42q0 29 18.5 53.5t51.5 24.5q43 0 43 -43z" />
    <glyph glyph-name="questiondown.uc" unicode="&#xe444;" horiz-adv-x="331" 
d="M281 471q2 -45 -16 -86t-46 -71t-56 -55.5t-48 -50.5t-20 -46q0 -20 16 -40.5t38 -35.5t44.5 -27.5t38.5 -18.5l16 -7l-32 -67q-8 3 -22 9.5t-50 26.5t-63 41.5t-49.5 53.5t-22.5 64q0 30 20.5 58.5t50 53.5t59.5 52t53 65t27 81h62zM334 635q0 -29 -18 -52.5t-51 -23.5
q-44 0 -44 43q0 28 18.5 52.5t51.5 24.5q43 0 43 -44z" />
    <glyph glyph-name="guillemotleft.uc" unicode="&#xe451;" horiz-adv-x="495" 
d="M215 331l1 4q16 11 226 209l52 -15l-185 -200l103 -192l-53 -15q-24 35 -46 67.5t-34 50.5t-23 35t-16.5 24.5t-10.5 14.5t-7.5 10t-6.5 7zM177 122q-24 35 -46 67.5t-34 50.5t-23 35t-16.5 24.5t-10.5 14.5t-7.5 10t-6.5 7l1 4q16 11 226 209l52 -15l-185 -200l103 -192
z" />
    <glyph glyph-name="guillemotright.uc" unicode="&#xe452;" horiz-adv-x="496" 
d="M207 137l185 199l-103 193l53 15q24 -35 46 -67.5t34 -50.5t23 -35t16.5 -24.5t10.5 -14.5t7.5 -10t6.5 -7l-1 -4q-16 -11 -226 -209zM25 137l185 199l-103 193l53 15q24 -35 46 -67.5t34 -50.5t23 -35t16.5 -24.5t10.5 -14.5t7.5 -10t6.5 -7l-1 -4q-16 -11 -226 -209z
" />
    <glyph glyph-name="guilsinglleft.uc" unicode="&#xe453;" horiz-adv-x="313" 
d="M177 122q-24 35 -46 67.5t-34 50.5t-23 35t-16.5 24.5t-10.5 14.5t-7.5 10t-6.5 7l1 4q16 11 226 209l52 -15l-185 -200l103 -192z" />
    <glyph glyph-name="guilsinglright.uc" unicode="&#xe454;" horiz-adv-x="314" 
d="M25 137l185 199l-103 193l53 15q24 -35 46 -67.5t34 -50.5t23 -35t16.5 -24.5t10.5 -14.5t7.5 -10t6.5 -7l-1 -4q-16 -11 -226 -209z" />
    <glyph glyph-name="braceleft.uc" unicode="&#xe459;" horiz-adv-x="331" 
d="M128 135q0 176 -102 178l5 51q43 1 72.5 28t44 80.5t19 85t9.5 89.5q0 2 0.5 3.5t0.5 3.5v3q7 81 63.5 120.5t146.5 39.5l-4 -51q-47 -4 -74 -12.5t-41.5 -32t-19 -45t-9.5 -72.5q-14 -128 -43.5 -184t-81.5 -80v-2q34 -13 57 -63t23 -136q0 -25 -3 -71t-3 -63
q0 -53 24 -75.5t95 -28.5l-4 -51q-89 0 -136 33t-47 110q0 15 4 63t4 79z" />
    <glyph glyph-name="slash.uc" unicode="&#xe461;" horiz-adv-x="301" 
d="M-5 -97h-70l407 863h69z" />
    <glyph glyph-name="backslash.uc" unicode="&#xe462;" horiz-adv-x="406" 
d="M307 -97l-256 863h68l258 -863h-70z" />
    <glyph glyph-name="bar.uc" unicode="&#xe463;" horiz-adv-x="299" 
d="M127 -154v974h68v-974h-68z" />
    <glyph glyph-name="slash.smcp" unicode="&#xe467;" horiz-adv-x="325" 
d="M15 -160h-70l355 782h70z" />
    <glyph glyph-name="backslash.smcp" unicode="&#xe468;" horiz-adv-x="375" 
d="M286 -160l-218 782h66l219 -782h-67z" />
    <glyph glyph-name="bar.smcp" unicode="&#xe469;" horiz-adv-x="300" 
d="M106 -150v783h66v-783h-66z" />
    <glyph glyph-name="hyphen.uc" unicode="&#xe482;" horiz-adv-x="383" 
d="M88 298v70h226v-70h-226z" />
    <glyph glyph-name="endash.uc" unicode="&#xe484;" horiz-adv-x="571" 
d="M89 302v63h410v-63h-410z" />
    <glyph glyph-name="emdash.uc" unicode="&#xe486;" horiz-adv-x="961" 
d="M89 302v63h800v-63h-800z" />
    <glyph glyph-name="parenleft.uc" unicode="&#xe491;" horiz-adv-x="281" 
d="M64 278q0 134 47.5 262t133.5 229l57 -18q-7 -8 -18.5 -22t-41.5 -61t-53 -98t-41.5 -129.5t-18.5 -158.5q0 -62 10.5 -122t25.5 -101.5t30.5 -74.5t26.5 -49l10 -16l-59 -21q-4 6 -11.5 17.5t-26.5 49.5t-33 79.5t-26 105t-12 128.5z" />
    <glyph glyph-name="parenright.uc" unicode="&#xe492;" horiz-adv-x="282" 
d="M2 -81q7 8 19 22.5t42.5 64t54 102t42.5 132.5t19 161q0 62 -10.5 120.5t-25.5 98.5t-30.5 71t-26.5 45l-10 15l61 18q4 -5 11.5 -15.5t26 -45.5t32.5 -74.5t25.5 -101.5t11.5 -128q0 -136 -47 -271.5t-140 -234.5z" />
    <glyph glyph-name="bracketleft.uc" unicode="&#xe493;" horiz-adv-x="294" 
d="M74 -78l72 822h175l-5 -55h-112l-62 -712h112l-5 -55h-175z" />
    <glyph glyph-name="bracketright.uc" unicode="&#xe494;" horiz-adv-x="293" 
d="M1 -23h112l62 712h-112l5 55h175l-72 -822h-175z" />
    <glyph glyph-name="braceright.uc" unicode="&#xe496;" horiz-adv-x="330" 
d="M116 63q11 126 46 191.5t80 83.5v2q-81 34 -81 195q0 18 3 64t3 63q0 54 -24 76.5t-94 27.5l4 51q84 0 133 -35t49 -106q0 -15 -4 -62t-4 -75q0 -173 103 -175l-5 -51q-42 -1 -71.5 -29.5t-43.5 -78.5t-20.5 -89.5t-10.5 -90.5q-1 -10 -1 -15q-13 -160 -208 -160l4 51
q45 4 71.5 13t41 30.5t20 46t9.5 72.5z" />
    <glyph glyph-name="zero.zero" unicode="&#xe515;" horiz-adv-x="528" 
d="M36 179q0 114 76.5 208.5t193.5 94.5q85 0 129 -52t44 -132q0 -71 -31 -141t-94 -119.5t-143 -49.5q-85 0 -130 54.5t-45 136.5zM112 181q0 -54 27.5 -90t80.5 -36q78 0 130.5 74.5t52.5 160.5q0 54 -26.5 89.5t-79.5 35.5q-80 0 -132.5 -75t-52.5 -159zM205 220
q0 25 16.5 46.5t46.5 21.5q40 0 40 -39q0 -25 -16.5 -47t-46.5 -22q-40 0 -40 40z" />
    <glyph glyph-name="four.pnum" unicode="&#xe529;" horiz-adv-x="519" 
d="M11 182l5 55l384 434h70l-85 -425h87l-12 -64h-87l-36 -182h-78l36 182h-284zM106 246h201l60 298z" />
    <glyph glyph-name="zero.tnum_zero" unicode="&#xe530;" 
d="M211 -12q-81 0 -122 63t-41 166q0 74 19.5 153.5t54 149t89.5 114.5t120 45q81 0 122.5 -62t41.5 -164q0 -101 -32.5 -206t-100 -182t-151.5 -77zM218 56q52 0 93.5 48t62.5 118t31.5 133t10.5 109q0 147 -90 147q-42 0 -77 -31t-57 -77.5t-37 -103.5t-21 -105t-6 -86
q0 -152 90 -152zM257 278q-40 0 -40 40q0 25 16.5 46.5t46.5 21.5q40 0 40 -39q0 -25 -16.5 -47t-46.5 -22z" />
    <glyph glyph-name="at.uc" unicode="&#xe531;" horiz-adv-x="783" 
d="M38 230q0 87 36 173t95.5 152t144.5 107t176 41q130 0 206.5 -77.5t76.5 -196.5q0 -78 -34.5 -154t-104.5 -119q-21 -13 -46 -22.5t-42.5 -14t-51 -12t-50.5 -11.5l2 84q-23 -37 -57 -60.5t-71 -23.5q-48 0 -78 39t-30 105q0 122 93 220t222 98l69 -4l-64 -304
q-6 -28 -9 -48.5t-3 -26.5l1 -6q90 14 139 86.5t49 169.5q0 102 -56.5 163t-160.5 61t-194.5 -61.5t-141.5 -157.5t-51 -199q0 -106 54.5 -171.5t140.5 -70.5l-16 -55q-110 5 -177 89t-67 207zM342 161q53 0 115 98l51 239q-83 0 -150 -76.5t-67 -173.5q0 -41 13.5 -64
t37.5 -23z" />
    <glyph glyph-name="zero.pnum" unicode="&#xe534;" horiz-adv-x="543" 
d="M223 -12q-81 0 -122 63t-41 166q0 74 19.5 153.5t54 149t89.5 114.5t120 45q81 0 122.5 -62t41.5 -164q0 -101 -32.5 -206t-100 -182t-151.5 -77zM230 56q52 0 93.5 48t62.5 118t31.5 133t10.5 109q0 147 -90 147q-42 0 -77 -31t-57 -77.5t-37 -103.5t-21 -105t-6 -86
q0 -152 90 -152z" />
    <glyph glyph-name="zero.pnum_zero" unicode="&#xe535;" horiz-adv-x="543" 
d="M223 -12q-81 0 -122 63t-41 166q0 74 19.5 153.5t54 149t89.5 114.5t120 45q81 0 122.5 -62t41.5 -164q0 -101 -32.5 -206t-100 -182t-151.5 -77zM230 56q52 0 93.5 48t62.5 118t31.5 133t10.5 109q0 147 -90 147q-42 0 -77 -31t-57 -77.5t-37 -103.5t-21 -105t-6 -86
q0 -152 90 -152zM269 278q-40 0 -40 40q0 25 16.5 46.5t46.5 21.5q40 0 40 -39q0 -25 -16.5 -47t-46.5 -22z" />
    <glyph glyph-name="one.pnum" unicode="&#xe536;" horiz-adv-x="385" 
d="M-13 0l12 63h128l106 537h-112l9 67h195l-120 -604h123l-12 -63h-329z" />
    <glyph glyph-name="two.pnum" unicode="&#xe537;" horiz-adv-x="490" 
d="M7 0l-5 52l180 158q91 80 146 152t55 140q0 47 -27.5 76t-73.5 29q-32 0 -67 -15t-53 -30l-19 -15l-40 52q3 3 9 8.5t25 19.5t40 24.5t52.5 19t63.5 8.5q74 0 122 -43t48 -118q0 -148 -222 -343l-123 -108h292l-8 -67h-395z" />
    <glyph glyph-name="three.pnum" unicode="&#xe538;" horiz-adv-x="468" 
d="M-6 39l36 62q58 -44 131 -44q65 0 108.5 40.5t43.5 100.5q0 56 -38 82t-96 26l-32 -2l8 67q71 6 136.5 57t65.5 111q0 32 -20.5 51.5t-57.5 19.5q-30 0 -63.5 -12.5t-52.5 -25.5l-19 -12l-32 57q9 7 25 17.5t63 27.5t90 17q67 0 109.5 -36t42.5 -94q0 -64 -49.5 -115
t-112.5 -83q58 -17 87.5 -56.5t29.5 -93.5q0 -88 -70 -150.5t-168 -62.5q-43 0 -84 12.5t-61 25.5z" />
    <glyph glyph-name="five.pnum" unicode="&#xe53a;" horiz-adv-x="454" 
d="M-1 34l32 66q55 -44 126 -44q69 0 110.5 48t41.5 107q0 119 -207 157l59 299h285l-9 -67h-216l-35 -178q207 -59 207 -208q0 -96 -71.5 -161t-165.5 -65q-38 0 -77.5 11.5t-59.5 22.5z" />
    <glyph glyph-name="six.pnum" unicode="&#xe53b;" horiz-adv-x="513" 
d="M46 197q0 110 52.5 217.5t155 183t228.5 81.5l5 -69q-116 -6 -199 -71t-126 -165q49 59 139 59q75 0 118 -49t43 -125q0 -63 -29.5 -124.5t-87 -104t-128.5 -42.5q-85 0 -128 57t-43 152zM125 197q0 -141 99 -141q61 0 107.5 61t46.5 139q0 107 -94 107
q-36 0 -72.5 -15.5t-50.5 -26.5t-24 -21q-12 -51 -12 -103z" />
    <glyph glyph-name="seven.pnum" unicode="&#xe53c;" horiz-adv-x="437" 
d="M-3 9q223 300 387 586h-282l7 72h381l-6 -53q-61 -107 -139 -229t-128 -194t-142 -203z" />
    <glyph glyph-name="eight.pnum" unicode="&#xe53d;" horiz-adv-x="518" 
d="M33 146q0 65 48.5 112t138.5 100q-76 72 -76 151q0 73 58.5 121.5t139.5 48.5q65 0 106.5 -34.5t41.5 -97.5q0 -58 -40.5 -102.5t-112.5 -89.5q33 -29 52.5 -49t36.5 -53.5t17 -69.5q0 -77 -68.5 -136t-162.5 -59q-81 0 -130 44t-49 114zM363 176q0 26 -15.5 52.5
t-31.5 42.5t-48 44q-80 -46 -120.5 -83t-40.5 -85q0 -42 30.5 -67.5t75.5 -25.5q54 0 102 35.5t48 86.5zM225 513q0 -55 64 -115q61 37 94 70.5t33 74.5q0 35 -23.5 52.5t-54.5 17.5q-41 0 -77 -27t-36 -73z" />
    <glyph glyph-name="nine.pnum" unicode="&#xe53e;" horiz-adv-x="508" 
d="M50 -12l-5 69q117 6 201 72.5t126 167.5q-52 -58 -139 -58q-73 0 -115.5 48t-42.5 121q0 63 28.5 124.5t85.5 104t126 42.5q85 0 128 -57t43 -152q0 -110 -52.5 -217.5t-155 -183t-228.5 -81.5zM250 309q78 0 145 61q12 51 12 100q0 141 -99 141q-59 0 -104 -61t-45 -139
q0 -45 21.5 -73.5t69.5 -28.5z" />
    <glyph glyph-name="zero.tnum" unicode="&#xe53f;" 
d="M211 -12q-81 0 -122 63t-41 166q0 74 19.5 153.5t54 149t89.5 114.5t120 45q81 0 122.5 -62t41.5 -164q0 -101 -32.5 -206t-100 -182t-151.5 -77zM218 56q52 0 93.5 48t62.5 118t31.5 133t10.5 109q0 147 -90 147q-42 0 -77 -31t-57 -77.5t-37 -103.5t-21 -105t-6 -86
q0 -152 90 -152z" />
    <glyph glyph-name="one.tnum" unicode="&#xe541;" 
d="M51 0l12 63h128l106 537h-112l9 67h195l-120 -604h123l-12 -63h-329z" />
    <glyph glyph-name="two.tnum" unicode="&#xe542;" 
d="M21 0l-5 52l180 158q91 80 146 152t55 140q0 47 -27.5 76t-73.5 29q-32 0 -67 -15t-53 -30l-19 -15l-40 52q3 3 9 8.5t25 19.5t40 24.5t52.5 19t63.5 8.5q74 0 122 -43t48 -118q0 -148 -222 -343l-123 -108h292l-8 -67h-395z" />
    <glyph glyph-name="three.tnum" unicode="&#xe543;" 
d="M19 39l36 62q58 -44 131 -44q65 0 108.5 40.5t43.5 100.5q0 56 -38 82t-96 26l-32 -2l8 67q71 6 136.5 57t65.5 111q0 32 -20.5 51.5t-57.5 19.5q-30 0 -63.5 -12.5t-52.5 -25.5l-19 -12l-32 57q9 7 25 17.5t63 27.5t90 17q67 0 109.5 -36t42.5 -94q0 -64 -49.5 -115
t-112.5 -83q58 -17 87.5 -56.5t29.5 -93.5q0 -88 -70 -150.5t-168 -62.5q-43 0 -84 12.5t-61 25.5z" />
    <glyph glyph-name="four.tnum" unicode="&#xe544;" 
d="M17 182l5 55l384 434h70l-85 -425h87l-12 -64h-87l-36 -182h-78l36 182h-284zM112 246h201l60 298z" />
    <glyph glyph-name="five.tnum" unicode="&#xe545;" 
d="M31 34l32 66q55 -44 126 -44q69 0 110.5 48t41.5 107q0 119 -207 157l59 299h285l-9 -67h-216l-35 -178q207 -59 207 -208q0 -96 -71.5 -161t-165.5 -65q-38 0 -77.5 11.5t-59.5 22.5z" />
    <glyph glyph-name="six.tnum" unicode="&#xe546;" 
d="M47 197q0 110 52.5 217.5t155 183t228.5 81.5l5 -69q-116 -6 -199 -71t-126 -165q49 59 139 59q75 0 118 -49t43 -125q0 -63 -29.5 -124.5t-87 -104t-128.5 -42.5q-85 0 -128 57t-43 152zM126 197q0 -141 99 -141q61 0 107.5 61t46.5 139q0 107 -94 107
q-36 0 -72.5 -15.5t-50.5 -26.5t-24 -21q-12 -51 -12 -103z" />
    <glyph glyph-name="seven.tnum" unicode="&#xe547;" 
d="M36 9q223 300 387 586h-282l7 72h381l-6 -53q-61 -107 -139 -229t-128 -194t-142 -203z" />
    <glyph glyph-name="eight.tnum" unicode="&#xe548;" 
d="M33 146q0 65 48.5 112t138.5 100q-76 72 -76 151q0 73 58.5 121.5t139.5 48.5q65 0 106.5 -34.5t41.5 -97.5q0 -58 -40.5 -102.5t-112.5 -89.5q33 -29 52.5 -49t36.5 -53.5t17 -69.5q0 -77 -68.5 -136t-162.5 -59q-81 0 -130 44t-49 114zM363 176q0 26 -15.5 52.5
t-31.5 42.5t-48 44q-80 -46 -120.5 -83t-40.5 -85q0 -42 30.5 -67.5t75.5 -25.5q54 0 102 35.5t48 86.5zM225 513q0 -55 64 -115q61 37 94 70.5t33 74.5q0 35 -23.5 52.5t-54.5 17.5q-41 0 -77 -27t-36 -73z" />
    <glyph glyph-name="nine.tnum" unicode="&#xe549;" 
d="M59 -12l-5 69q117 6 201 72.5t126 167.5q-52 -58 -139 -58q-73 0 -115.5 48t-42.5 121q0 63 28.5 124.5t85.5 104t126 42.5q85 0 128 -57t43 -152q0 -110 -52.5 -217.5t-155 -183t-228.5 -81.5zM259 309q78 0 145 61q12 51 12 100q0 141 -99 141q-59 0 -104 -61t-45 -139
q0 -45 21.5 -73.5t69.5 -28.5z" />
    <glyph glyph-name="zero.onum_tab" unicode="&#xe555;" 
d="M32 179q0 114 76.5 208.5t193.5 94.5q85 0 129 -52t44 -132q0 -71 -31 -141t-94 -119.5t-143 -49.5q-85 0 -130 54.5t-45 136.5zM108 181q0 -54 27.5 -90t80.5 -36q78 0 130.5 74.5t52.5 160.5q0 54 -26.5 89.5t-79.5 35.5q-80 0 -132.5 -75t-52.5 -159z" />
    <glyph glyph-name="zero.onum_tab_zero" unicode="&#xe556;" 
d="M32 179q0 114 76.5 208.5t193.5 94.5q85 0 129 -52t44 -132q0 -71 -31 -141t-94 -119.5t-143 -49.5q-85 0 -130 54.5t-45 136.5zM108 181q0 -54 27.5 -90t80.5 -36q78 0 130.5 74.5t52.5 160.5q0 54 -26.5 89.5t-79.5 35.5q-80 0 -132.5 -75t-52.5 -159zM201 220
q0 25 16.5 46.5t46.5 21.5q40 0 40 -39q0 -25 -16.5 -47t-46.5 -22q-40 0 -40 40z" />
    <glyph glyph-name="one.onum_tab" unicode="&#xe557;" 
d="M85 0l9 65h97l74 345h-91l8 60h169l-86 -405h98l-13 -65h-265z" />
    <glyph glyph-name="two.onum_tab" unicode="&#xe558;" 
d="M44 0v51q12 7 31.5 20t69 51t87.5 73t69 78t31 75q0 29 -17.5 49t-48.5 20q-26 0 -55 -11.5t-45 -23.5l-15 -11l-33 50q8 7 22.5 17t56.5 27t80 17q62 0 99 -33.5t37 -85.5q0 -40 -21 -80.5t-63.5 -81.5t-76.5 -68.5t-88 -67.5h233l-8 -65h-345z" />
    <glyph glyph-name="three.onum_tab" unicode="&#xe559;" 
d="M10 -134q103 0 185.5 46.5t82.5 126.5q0 94 -123 94h-26l7 61q62 9 127.5 56t65.5 104q0 29 -17.5 46t-51.5 17q-24 0 -53 -9.5t-47 -19.5l-17 -9l-24 54q8 5 22 13.5t54 22t75 13.5q64 0 102 -34.5t38 -87.5q0 -57 -47 -105.5t-107 -76.5q102 -32 102 -135t-101 -169.5
t-247 -66.5v59z" />
    <glyph glyph-name="four.onum_tab" unicode="&#xe55a;" 
d="M-5 26l4 53l374 403h62l-84 -394h91l-13 -62h-92l-46 -219h-74l46 219h-268zM87 88h189l57 264z" />
    <glyph glyph-name="five.onum_tab" unicode="&#xe55b;" 
d="M14 -133q66 0 124.5 17.5t102 61.5t43.5 107q0 30 -10 52.5t-25.5 36t-41.5 24t-48.5 15.5t-57.5 11l59 278h266l-8 -65h-200l-34 -159q82 -21 131 -64t49 -124q0 -79 -49.5 -137t-127.5 -86t-173 -28v60z" />
    <glyph glyph-name="six.onum_tab" unicode="&#xe55c;" 
d="M53 197q0 82 31 165t85.5 152.5t137 115t176.5 49.5l5 -64q-112 -6 -194.5 -73.5t-125.5 -169.5q50 56 134 56q73 0 114 -47.5t41 -121.5q0 -100 -67.5 -185.5t-171.5 -85.5q-82 0 -123.5 57t-41.5 152zM285 363q-36 0 -71.5 -15t-52.5 -30l-17 -15q-13 -54 -13 -106
q0 -144 94 -144q62 0 107.5 61.5t45.5 141.5q0 107 -93 107z" />
    <glyph glyph-name="seven.onum_tab" unicode="&#xe55d;" 
d="M4 -177q196 258 380 577h-283l7 70h376l-6 -53q-167 -290 -400 -614z" />
    <glyph glyph-name="eight.onum_tab" unicode="&#xe55e;" 
d="M211 -12q-76 0 -124 44.5t-48 109.5q0 35 14.5 66.5t45 59t57.5 46t70 44.5q-71 75 -71 149q0 76 57 124t133 48q63 0 102 -35.5t39 -94.5q0 -60 -39.5 -105t-111.5 -90q32 -30 49 -49.5t33 -52t16 -66.5q0 -79 -66.5 -138.5t-155.5 -59.5zM356 177q0 25 -13.5 51t-29 43
t-43.5 44q-38 -22 -61.5 -38t-48.5 -38t-37 -45.5t-12 -49.5q0 -41 29 -66t72 -25q53 0 98.5 35.5t45.5 88.5zM232 512q0 -56 59 -115q61 38 93 72t32 76q0 35 -22.5 52t-52.5 17q-40 0 -74.5 -27t-34.5 -75z" />
    <glyph glyph-name="nine.onum_tab" unicode="&#xe55f;" 
d="M22 -130q112 6 194 70.5t126 161.5q-51 -55 -134 -55q-71 0 -110.5 46t-39.5 118q0 100 66 185.5t168 85.5q82 0 123.5 -57t41.5 -152q0 -79 -31 -160t-85.5 -148t-137 -111t-176.5 -48zM225 112q34 0 69.5 15t53.5 30l18 15q13 55 13 101q0 144 -94 144
q-59 0 -103.5 -61.5t-44.5 -141.5q0 -102 88 -102z" />
    <glyph glyph-name="braceleft.smcp" unicode="&#xf60c;" horiz-adv-x="345" 
d="M112 -23q0 14 3 46t3 51q0 144 -106 146l5 55q35 1 60.5 16t39 33t22.5 49t11 48t5 46v4t0.5 3t0.5 4q6 75 62.5 112.5t144.5 37.5l-5 -51q-86 -6 -110.5 -36t-31.5 -116q-7 -82 -38.5 -120t-79.5 -56v-2q40 -19 63.5 -53.5t23.5 -106.5q0 -15 -2.5 -48t-2.5 -45
q0 -51 24 -72t95 -27l-5 -51q-182 0 -182 133z" />
    <glyph glyph-name="braceright.smcp" unicode="&#xf60d;" horiz-adv-x="386" 
d="M15 -105q87 7 111 36.5t31 115.5q6 65 26.5 108.5t41.5 61t52 30.5v2q-41 16 -65 47t-24 96q0 15 2.5 45.5t2.5 41.5q0 50 -24 71.5t-95 26.5l5 51q83 0 132.5 -33t49.5 -101q0 -8 -3 -37t-3 -48q0 -132 108 -134l-5 -55q-43 -1 -72 -22t-42.5 -62.5t-17.5 -65t-8 -67.5
q0 -2 -0.5 -3t-0.5 -3v-3q-12 -150 -206 -150z" />
    <glyph glyph-name="bracketleft.smcp" unicode="&#xf60e;" horiz-adv-x="316" 
d="M66 -155l69 782h173l-5 -55h-112l-59 -672h112l-5 -55h-173z" />
    <glyph glyph-name="bracketright.smcp" unicode="&#xf60f;" horiz-adv-x="339" 
d="M17 -100h112l59 672h-112l5 55h173l-69 -782h-172z" />
    <glyph glyph-name="parenleft.smcp" unicode="&#xf618;" horiz-adv-x="312" 
d="M56 183q0 79 17.5 154.5t42.5 126.5t50 90.5t42 57.5l18 19l60 -18q-7 -7 -18 -20t-39.5 -56.5t-50 -90.5t-39.5 -117.5t-18 -141.5q0 -58 10.5 -113.5t25.5 -93t30 -67t25 -43.5l11 -14l-57 -21q-4 5 -11.5 15t-26.5 44t-33.5 71.5t-26.5 96.5t-12 121z" />
    <glyph glyph-name="parenright.smcp" unicode="&#xf619;" horiz-adv-x="307" 
d="M2 -144q7 7 18.5 20.5t40.5 57.5t51 91.5t40.5 120.5t18.5 147q0 54 -10.5 107t-25 90t-29 66t-24.5 43l-11 14l58 18q4 -5 11.5 -14.5t26 -41.5t32.5 -67.5t25.5 -92t11.5 -115.5q0 -82 -18 -160t-44 -130.5t-52.5 -94t-44.5 -61.5l-18 -19z" />
    <glyph glyph-name="aringacute.smcp" unicode="&#xf625;" horiz-adv-x="490" 
d="M-28 0l266 459q-31 18 -31 58q0 35 28.5 62.5t76.5 27.5q44 0 65 -18.5t21 -47.5q0 -27 -17.5 -51.5t-47.5 -35.5l85 -454h-73l-23 128h-199l-73 -128h-78zM274 393l-116 -203h153zM263 620l-19 48l193 95l31 -72zM293 481q25 0 42 17t17 40q0 14 -10.5 24.5t-29.5 10.5
q-28 0 -42.5 -17.5t-14.5 -38.5q0 -36 38 -36z" />
    <glyph glyph-name="zero.dnom" unicode="&#xf655;" horiz-adv-x="363" 
d="M135 -7q-59 0 -87 39.5t-28 103.5q0 99 50.5 187t130.5 88q60 0 87.5 -39t27.5 -103q0 -62 -21 -124.5t-64 -107t-96 -44.5zM137 50q29 0 52.5 26t35.5 64.5t18 74.5t6 64q0 75 -50 75q-38 0 -65 -44t-37 -93.5t-10 -91.5q0 -75 50 -75z" />
    <glyph glyph-name="one.dnom" unicode="&#xf656;" horiz-adv-x="265" 
d="M-22 0l10 51h80l61 302h-74l6 51h142l-71 -353h75l-10 -51h-219z" />
    <glyph glyph-name="two.dnom" unicode="&#xf657;" horiz-adv-x="327" 
d="M-19 0v32l114 99q62 54 90.5 90.5t28.5 73.5q0 28 -17 42.5t-40 14.5q-18 0 -37 -9t-30 -18l-10 -9l-33 40q6 6 16 15t41.5 24.5t63.5 15.5q49 0 80.5 -29t31.5 -78q0 -42 -27.5 -86t-101.5 -109l-62 -54h167l-7 -55h-268z" />
    <glyph glyph-name="three.dnom" unicode="&#xf658;" horiz-adv-x="309" 
d="M-21 19l23 52q36 -21 79 -21q39 0 65 20t26 49q0 28 -23.5 41.5t-58.5 13.5h-22l7 53q42 4 81 31t39 60q0 36 -45 36q-16 0 -33.5 -5t-26.5 -10l-10 -5l-26 43q47 34 107 34q46 0 75 -23.5t29 -59.5q0 -37 -29 -68t-67 -50q72 -26 72 -87q0 -50 -45.5 -90t-112.5 -40
q-26 0 -52 6.5t-39 12.5z" />
    <glyph glyph-name="four.dnom" unicode="&#xf659;" horiz-adv-x="341" 
d="M141 0l21 105h-174l3 39l236 263h58l-50 -251h57l-10 -51h-57l-21 -105h-63zM64 156h108l30 154z" />
    <glyph glyph-name="five.dnom" unicode="&#xf65a;" horiz-adv-x="307" 
d="M89 -7q-27 0 -53 8.5t-39 16.5l-13 9l29 51q33 -28 80 -28q36 0 60 22t24 52q0 71 -132 92l37 188h195l-8 -55h-137l-20 -92q131 -37 131 -129q0 -60 -46.5 -97.5t-107.5 -37.5z" />
    <glyph glyph-name="six.dnom" unicode="&#xf65b;" horiz-adv-x="343" 
d="M133 -7q-61 0 -91 37.5t-30 97.5q0 103 76.5 191.5t200.5 92.5l4 -53q-72 -5 -125 -39.5t-77 -95.5q36 41 96 41q49 0 75 -31t26 -80q0 -56 -43 -108.5t-112 -52.5zM165 211q-42 0 -88 -36q-3 -23 -3 -48q0 -77 62 -77q39 0 63 31t24 72q0 58 -58 58z" />
    <glyph glyph-name="seven.dnom" unicode="&#xf65c;" horiz-adv-x="291" 
d="M49 -9l-58 20q126 179 220 335h-172l5 58h257l-5 -33q-128 -209 -247 -380z" />
    <glyph glyph-name="eight.dnom" unicode="&#xf65d;" horiz-adv-x="343" 
d="M125 -7q-52 0 -87 29.5t-35 71.5q0 10 2 19t7 17.5t9 15t13 14.5t14 12.5t16.5 12t16 10.5t18 10.5t16.5 9.5q-51 46 -51 88q0 46 36 77t91 31q46 0 77 -26t31 -64q0 -24 -14 -45t-29.5 -32.5t-47.5 -31.5q23 -19 34 -30t21 -29.5t10 -38.5q0 -47 -40.5 -84t-107.5 -37z
M128 47q31 0 54.5 19t23.5 48q0 8 -2.5 15t-4.5 11.5t-9 12t-10 10.5t-13 11.5t-12 10.5q-3 -2 -18 -11l-20 -12t-16.5 -12t-15.5 -15t-8.5 -15.5t-4.5 -19.5q0 -24 16.5 -38.5t39.5 -14.5zM128 303q0 -18 9.5 -31.5t29.5 -30.5q33 20 49.5 36.5t16.5 37.5t-13 31.5
t-31 10.5q-24 0 -42.5 -14t-18.5 -40z" />
    <glyph glyph-name="nine.dnom" unicode="&#xf65e;" horiz-adv-x="340" 
d="M24 -8l-4 53q73 5 127 41t77 99q-36 -43 -98 -43q-47 0 -72.5 30.5t-25.5 77.5q0 56 42.5 108.5t109.5 52.5q61 0 91 -37.5t30 -97.5q0 -103 -76.5 -191.5t-200.5 -92.5zM148 196q42 0 88 36q3 21 3 45q0 77 -62 77q-37 0 -60.5 -31t-23.5 -72q0 -55 55 -55z" />
    <glyph glyph-name="zero.numr" unicode="&#xf661;" horiz-adv-x="363" 
d="M186 256q-59 0 -87 39.5t-28 103.5q0 99 50.5 187t130.5 88q60 0 87.5 -39t27.5 -103q0 -62 -21 -124.5t-64 -107t-96 -44.5zM188 313q29 0 52.5 26t35.5 64.5t18 74.5t6 64q0 75 -50 75q-38 0 -65 -44t-37 -93.5t-10 -91.5q0 -75 50 -75z" />
    <glyph glyph-name="one.numr" unicode="&#xf662;" horiz-adv-x="268" 
d="M31 263l10 51h80l61 302h-74l6 51h142l-71 -353h75l-10 -51h-219z" />
    <glyph glyph-name="two.numr" unicode="&#xf663;" horiz-adv-x="328" 
d="M33 263v32l114 99q62 54 90.5 90.5t28.5 73.5q0 28 -17 42.5t-40 14.5q-18 0 -37 -9t-30 -18l-10 -9l-33 40q6 6 16 15t41.5 24.5t63.5 15.5q49 0 80.5 -29t31.5 -78q0 -42 -27.5 -86t-101.5 -109l-62 -54h167l-7 -55h-268z" />
    <glyph glyph-name="three.numr" unicode="&#xf664;" horiz-adv-x="310" 
d="M31 282l23 52q36 -21 79 -21q39 0 65 20t26 49q0 28 -23.5 41.5t-58.5 13.5h-22l7 53q42 4 81 31t39 60q0 36 -45 36q-16 0 -33.5 -5t-26.5 -10l-10 -5l-26 43q47 34 107 34q46 0 75 -23.5t29 -59.5q0 -37 -29 -68t-67 -50q72 -26 72 -87q0 -50 -45.5 -90t-112.5 -40
q-26 0 -52 6.5t-39 13.5z" />
    <glyph glyph-name="four.numr" unicode="&#xf665;" horiz-adv-x="342" 
d="M193 263l21 105h-174l3 39l236 263h58l-50 -251h57l-10 -51h-57l-21 -105h-63zM116 419h108l30 154z" />
    <glyph glyph-name="five.numr" unicode="&#xf666;" horiz-adv-x="308" 
d="M140 256q-27 0 -53 8.5t-39 17.5l-13 8l29 51q33 -28 80 -28q36 0 60 22t24 52q0 71 -132 92l37 188h195l-8 -55h-137l-20 -92q131 -37 131 -129q0 -60 -46.5 -97.5t-107.5 -37.5z" />
    <glyph glyph-name="six.numr" unicode="&#xf667;" horiz-adv-x="343" 
d="M184 256q-61 0 -91 37.5t-30 97.5q0 103 76.5 191.5t200.5 92.5l4 -53q-72 -5 -125 -39.5t-77 -95.5q36 41 96 41q49 0 75 -31t26 -80q0 -56 -43 -108.5t-112 -52.5zM216 474q-42 0 -88 -36q-3 -22 -3 -48q0 -77 62 -77q39 0 63 31t24 72q0 58 -58 58z" />
    <glyph glyph-name="seven.numr" unicode="&#xf668;" horiz-adv-x="293" 
d="M101 254l-58 20q126 179 220 335h-172l5 58h257l-5 -33q-128 -209 -247 -380z" />
    <glyph glyph-name="eight.numr" unicode="&#xf669;" horiz-adv-x="343" 
d="M176 256q-52 0 -87 29.5t-35 71.5q0 10 2 19t7 17.5t9 15t13 14.5t14 12.5t16.5 12t16 10.5t18 10.5t16.5 9.5q-51 46 -51 88q0 46 36 77t91 31q46 0 77 -26t31 -64q0 -24 -14 -45t-29.5 -32.5t-47.5 -31.5q23 -19 34 -30t21 -29.5t10 -38.5q0 -47 -40.5 -84t-107.5 -37z
M179 310q31 0 54.5 19t23.5 48q0 8 -2.5 15t-4.5 11.5t-9 12t-10 10.5t-13 11.5t-12 10.5q-3 -2 -18 -11l-20 -12t-16.5 -12t-15.5 -15t-8.5 -15.5t-4.5 -19.5q0 -24 16.5 -38.5t39.5 -14.5zM179 566q0 -18 9.5 -31.5t29.5 -30.5q33 20 49.5 36.5t16.5 37.5t-13 31.5
t-31 10.5q-24 0 -42.5 -14t-18.5 -40z" />
    <glyph glyph-name="nine.numr" unicode="&#xf66a;" horiz-adv-x="341" 
d="M76 255l-4 53q73 5 127 41t77 99q-36 -43 -98 -43q-47 0 -72.5 30.5t-25.5 77.5q0 56 42.5 108.5t109.5 52.5q61 0 91 -37.5t30 -97.5q0 -103 -76.5 -191.5t-200.5 -92.5zM200 459q42 0 88 36q3 21 3 45q0 77 -62 77q-37 0 -60.5 -31t-23.5 -72q0 -55 55 -55z" />
    <glyph glyph-name="abreve.smcp" unicode="&#xf66d;" horiz-adv-x="485" 
d="M-29 0l282 486h73l91 -486h-73l-23 128h-199l-73 -128h-78zM273 393l-116 -203h153zM308 552q-54 0 -88 26.5t-34 72.5q0 23 8 44h52q-6 -20 -6 -35q0 -55 73 -55q49 0 73.5 27t30.5 63h55q-5 -59 -47.5 -101t-116.5 -42z" />
    <glyph glyph-name="amacron.smcp" unicode="&#xf66e;" horiz-adv-x="485" 
d="M-29 0l282 486h73l91 -486h-73l-23 128h-199l-73 -128h-78zM273 393l-116 -203h153zM185 595l13 59h258l-13 -59h-258z" />
    <glyph glyph-name="aogonek.smcp" unicode="&#xf66f;" horiz-adv-x="485" 
d="M-29 0l282 486h73l91 -486q-118 -93 -118 -144q0 -36 34 -36q23 0 49 13v-56q-35 -14 -71 -14q-38 0 -59.5 20t-21.5 55q0 23 9 45t29.5 46t33 36t41.5 38l-22 125h-199l-73 -128h-78zM273 393l-116 -203h153z" />
    <glyph glyph-name="aeacute.smcp" unicode="&#xf670;" horiz-adv-x="676" 
d="M-43 0l362 482h346l-12 -64h-223l-28 -141h177l-13 -63h-177l-30 -150h225l-12 -64h-300l31 159h-148l-119 -159h-79zM202 222h114l40 206zM414 550l-19 48l193 95l31 -72z" />
    <glyph glyph-name="cacute.smcp" unicode="&#xf671;" horiz-adv-x="532" 
d="M40 195q-1 117 88.5 208t229.5 91q45 0 85.5 -10t58.5 -20l19 -11l-41 -62q-52 39 -131 39q-101 0 -164.5 -73t-62.5 -160q1 -65 42 -105t110 -40q37 0 75 12.5t57 25.5l19 12l30 -59q-9 -6 -25 -15t-65 -24.5t-97 -15.5q-102 0 -164.5 57t-63.5 150zM278 550l-19 48
l193 95l31 -72z" />
    <glyph glyph-name="ccaron.smcp" unicode="&#xf672;" horiz-adv-x="532" 
d="M40 195q-1 117 88.5 208t229.5 91q45 0 85.5 -10t58.5 -20l19 -11l-41 -62q-52 39 -131 39q-101 0 -164.5 -73t-62.5 -160q1 -65 42 -105t110 -40q37 0 75 12.5t57 25.5l19 12l30 -59q-9 -6 -25 -15t-65 -24.5t-97 -15.5q-102 0 -164.5 57t-63.5 150zM319 553l-100 110
l48 38l94 -95l136 95l42 -38l-151 -110h-69z" />
    <glyph glyph-name="ccircumflex.smcp" unicode="&#xf673;" horiz-adv-x="532" 
d="M40 195q-1 117 88.5 208t229.5 91q45 0 85.5 -10t58.5 -20l19 -11l-41 -62q-52 39 -131 39q-101 0 -164.5 -73t-62.5 -160q1 -65 42 -105t110 -40q37 0 75 12.5t57 25.5l19 12l30 -59q-9 -6 -25 -15t-65 -24.5t-97 -15.5q-102 0 -164.5 57t-63.5 150zM235 548l-42 38
l150 110h69l101 -110l-48 -38l-95 95z" />
    <glyph glyph-name="cdotaccent.smcp" unicode="&#xf674;" horiz-adv-x="532" 
d="M40 195q-1 117 88.5 208t229.5 91q45 0 85.5 -10t58.5 -20l19 -11l-41 -62q-52 39 -131 39q-101 0 -164.5 -73t-62.5 -160q1 -65 42 -105t110 -40q37 0 75 12.5t57 25.5l19 12l30 -59q-9 -6 -25 -15t-65 -24.5t-97 -15.5q-102 0 -164.5 57t-63.5 150zM353 571
q-40 0 -40 40q0 25 16.5 46.5t46.5 21.5q40 0 40 -39q0 -25 -16.5 -47t-46.5 -22z" />
    <glyph glyph-name="dcaron.smcp" unicode="&#xf675;" horiz-adv-x="569" 
d="M34 0l95 482h149q102 0 169.5 -48.5t67.5 -153.5q0 -128 -99.5 -204t-239.5 -76h-142zM121 62h49q128 0 195.5 64t67.5 154q0 140 -167 140h-74zM301 553l-100 110l48 38l94 -95l136 95l42 -38l-151 -110h-69z" />
    <glyph glyph-name="dcroat.smcp" unicode="&#xf676;" horiz-adv-x="575" 
d="M29 215l12 60h53l41 207h149q102 0 169.5 -48.5t67.5 -153.5q0 -128 -99.5 -204t-239.5 -76h-142l42 215h-53zM127 62h49q128 0 195.5 64t67.5 154q0 140 -167 140h-74l-29 -145h115l-12 -60h-115z" />
    <glyph glyph-name="ebreve.smcp" unicode="&#xf677;" horiz-adv-x="437" 
d="M34 0l95 482h298l-12 -62h-223l-28 -144h177l-13 -61h-177l-30 -153h225l-12 -62h-300zM300 552q-54 0 -88 26.5t-34 72.5q0 23 8 44h52q-6 -20 -6 -35q0 -55 73 -55q49 0 73.5 27t30.5 63h55q-5 -59 -47.5 -101t-116.5 -42z" />
    <glyph glyph-name="ecaron.smcp" unicode="&#xf678;" horiz-adv-x="437" 
d="M34 0l95 482h298l-12 -62h-223l-28 -144h177l-13 -61h-177l-30 -153h225l-12 -62h-300zM267 553l-100 110l48 38l94 -95l136 95l42 -38l-151 -110h-69z" />
    <glyph glyph-name="edotaccent.smcp" unicode="&#xf679;" horiz-adv-x="437" 
d="M34 0l95 482h298l-12 -62h-223l-28 -144h177l-13 -61h-177l-30 -153h225l-12 -62h-300zM301 571q-40 0 -40 40q0 25 16.5 46.5t46.5 21.5q40 0 40 -39q0 -25 -16.5 -47t-46.5 -22z" />
    <glyph glyph-name="emacron.smcp" unicode="&#xf67a;" horiz-adv-x="437" 
d="M34 0l95 482h298l-12 -62h-223l-28 -144h177l-13 -61h-177l-30 -153h225l-12 -62h-300zM177 595l13 59h258l-13 -59h-258z" />
    <glyph glyph-name="eng.smcp" unicode="&#xf67b;" horiz-adv-x="590" 
d="M34 0l95 482h75l194 -374l74 374h73l-93 -467q-15 -73 -47.5 -115t-106.5 -55l-29 59q4 0 10 1t22.5 7t30 15t27 28.5t17.5 44.5l-196 372l-73 -372h-73z" />
    <glyph glyph-name="eogonek.smcp" unicode="&#xf67c;" horiz-adv-x="437" 
d="M34 0l95 482h298l-12 -62h-223l-28 -144h177l-13 -61h-177l-30 -153h225l-12 -62q-118 -93 -118 -144q0 -36 34 -36q23 0 49 13v-56q-35 -14 -71 -14q-38 0 -59.5 20t-21.5 55q0 29 19 61t37 50.5t54 50.5h-223z" />
    <glyph glyph-name="gbreve.smcp" unicode="&#xf67d;" horiz-adv-x="549" 
d="M39 196q0 117 89.5 207.5t226.5 90.5q44 0 85.5 -10t61.5 -20l19 -11l-42 -60q-53 37 -131 37q-100 0 -164.5 -70.5t-64.5 -159.5q0 -69 43 -108.5t118 -39.5q20 0 42.5 3t34.5 6l12 3l26 129h-101l12 62h176l-48 -244q-94 -23 -166 -23q-102 0 -165.5 56t-63.5 152z
M337 552q-54 0 -88 26.5t-34 72.5q0 23 8 44h52q-6 -20 -6 -35q0 -55 73 -55q49 0 73.5 27t30.5 63h55q-5 -59 -47.5 -101t-116.5 -42z" />
    <glyph glyph-name="gcircumflex.smcp" unicode="&#xf67e;" horiz-adv-x="549" 
d="M39 196q0 117 89.5 207.5t226.5 90.5q44 0 85.5 -10t61.5 -20l19 -11l-42 -60q-53 37 -131 37q-100 0 -164.5 -70.5t-64.5 -159.5q0 -69 43 -108.5t118 -39.5q20 0 42.5 3t34.5 6l12 3l26 129h-101l12 62h176l-48 -244q-94 -23 -166 -23q-102 0 -165.5 56t-63.5 152z
M220 548l-42 38l150 110h69l101 -110l-48 -38l-95 95z" />
    <glyph glyph-name="gcommaaccent.smcp" unicode="&#xf67f;" horiz-adv-x="550" 
d="M40 196q0 117 89.5 207.5t226.5 90.5q44 0 85.5 -10t60.5 -20l20 -11l-42 -60q-53 37 -131 37q-100 0 -164.5 -70.5t-64.5 -159.5q0 -69 43 -108.5t118 -39.5q20 0 42.5 3t34.5 6l12 3l26 129h-101l12 62h176l-48 -244q-94 -23 -166 -23q-102 0 -165.5 56t-63.5 152z
M177 -49h75q12 -17 12 -47q0 -49 -32.5 -87.5t-78.5 -59.5l-28 40q34 14 51.5 40t17.5 56q0 32 -17 58z" />
    <glyph glyph-name="gdotaccent.smcp" unicode="&#xf680;" horiz-adv-x="549" 
d="M39 196q0 117 89.5 207.5t226.5 90.5q44 0 85.5 -10t61.5 -20l19 -11l-42 -60q-53 37 -131 37q-100 0 -164.5 -70.5t-64.5 -159.5q0 -69 43 -108.5t118 -39.5q20 0 42.5 3t34.5 6l12 3l26 129h-101l12 62h176l-48 -244q-94 -23 -166 -23q-102 0 -165.5 56t-63.5 152z
M338 571q-40 0 -40 40q0 25 16.5 46.5t46.5 21.5q40 0 40 -39q0 -25 -16.5 -47t-46.5 -22z" />
    <glyph glyph-name="hbar.smcp" unicode="&#xf681;" horiz-adv-x="605" 
d="M51 348l9 47h55l17 87h75l-17 -87h274l17 87h75l-17 -87h55l-9 -47h-56l-68 -348h-75l40 204h-274l-40 -204h-75l68 348h-54zM164 266h274l16 82h-274z" />
    <glyph glyph-name="hcircumflex.smcp" unicode="&#xf682;" horiz-adv-x="599" 
d="M34 0l95 482h75l-41 -205h274l41 205h75l-95 -482h-75l42 215h-274l-42 -215h-75zM240 548l-42 38l150 110h69l101 -110l-48 -38l-95 95z" />
    <glyph glyph-name="ibreve.smcp" unicode="&#xf683;" horiz-adv-x="250" 
d="M34 0l95 482h75l-95 -482h-75zM185 552q-54 0 -88 26.5t-34 72.5q0 23 8 44h52q-6 -20 -6 -35q0 -55 73 -55q49 0 73.5 27t30.5 63h55q-5 -59 -47.5 -101t-116.5 -42z" />
    <glyph glyph-name="ij.smcp" unicode="&#xf684;" horiz-adv-x="501" 
d="M34 0l95 482h75l-95 -482h-75zM297 64l83 418h75l-82 -416q-10 -52 -30.5 -92t-43 -59.5t-43 -32t-34.5 -14.5l-13 -3l-27 59q4 0 10 1.5t22.5 10t31 21.5t29.5 41.5t22 65.5z" />
    <glyph glyph-name="imacron.smcp" unicode="&#xf685;" horiz-adv-x="250" 
d="M34 0l95 482h75l-95 -482h-75zM62 595l13 59h258l-13 -59h-258z" />
    <glyph glyph-name="iogonek.smcp" unicode="&#xf686;" horiz-adv-x="250" 
d="M-78 -162q0 30 20 62.5t37.5 50.5t54.5 51l95 480h75l-95 -482q-118 -93 -118 -144q0 -36 34 -36q23 0 49 13v-56q-35 -14 -71 -14q-38 0 -59.5 20t-21.5 55z" />
    <glyph glyph-name="itilde.smcp" unicode="&#xf687;" horiz-adv-x="250" 
d="M34 0l95 482h75l-95 -482h-75zM15 572l2.5 12.5t9.5 27t19.5 34.5t34 27t51.5 12q26 0 47.5 -10.5t32.5 -22.5t26 -22.5t30 -10.5q21 0 35.5 17.5t18.5 34.5l4 17l56 -10q-1 -5 -2.5 -13t-9.5 -28t-20 -35.5t-35 -28t-52 -12.5q-33 0 -57 16.5t-42 33t-36 16.5
q-20 0 -34 -16.5t-18 -32.5l-5 -16z" />
    <glyph glyph-name="jcircumflex.smcp" unicode="&#xf688;" horiz-adv-x="251" 
d="M47 64l83 418h75l-82 -416q-10 -52 -30.5 -92t-43 -59.5t-43 -32t-34.5 -14.5l-13 -3l-27 59q4 0 10 1.5t22.5 10t31 21.5t29.5 41.5t22 65.5zM68 548l-42 38l150 110h69l101 -110l-48 -38l-95 95z" />
    <glyph glyph-name="kcommaaccent.smcp" unicode="&#xf689;" horiz-adv-x="478" 
d="M34 0l95 482h75l-39 -198h10l222 198h97l-265 -234l179 -248h-92l-154 222h-9l-44 -222h-75zM149 -49h75q12 -17 12 -47q0 -49 -32.5 -87.5t-78.5 -59.5l-28 40q34 14 51.5 40t17.5 56q0 32 -17 58z" />
    <glyph glyph-name="lacute.smcp" unicode="&#xf68a;" horiz-adv-x="409" 
d="M34 0l95 482h75l-83 -420h231l-12 -62h-306zM109 550l-19 48l193 95l31 -72z" />
    <glyph glyph-name="lcaron.smcp" unicode="&#xf68b;" horiz-adv-x="428" 
d="M34 0l95 482h75l-83 -420h231l-12 -62h-306zM281 354l62 188l86 10l-101 -198h-47z" />
    <glyph glyph-name="lcommaaccent.smcp" unicode="&#xf68c;" horiz-adv-x="410" 
d="M34 0l95 482h75l-83 -420h231l-12 -62h-306zM131 -49h75q12 -17 12 -47q0 -49 -32.5 -87.5t-78.5 -59.5l-28 40q34 14 51.5 40t17.5 56q0 32 -17 58z" />
    <glyph glyph-name="ldot.smcp" unicode="&#xf68d;" horiz-adv-x="434" 
d="M34 0l95 482h75l-83 -420h231l-12 -62h-306zM324 204q-43 0 -43 43q0 30 18 53.5t51 23.5q44 0 44 -42q0 -29 -18.5 -53.5t-51.5 -24.5z" />
    <glyph glyph-name="nacute.smcp" unicode="&#xf68e;" horiz-adv-x="591" 
d="M34 0l95 482h75l194 -374l74 374h73l-95 -482h-74l-196 372l-73 -372h-73zM281 550l-19 48l193 95l31 -72z" />
    <glyph glyph-name="ncaron.smcp" unicode="&#xf68f;" horiz-adv-x="591" 
d="M34 0l95 482h75l194 -374l74 374h73l-95 -482h-74l-196 372l-73 -372h-73zM322 553l-100 110l48 38l94 -95l136 95l42 -38l-151 -110h-69z" />
    <glyph glyph-name="ncommaaccent.smcp" unicode="&#xf690;" horiz-adv-x="591" 
d="M34 0l95 482h75l194 -374l74 374h73l-95 -482h-74l-196 372l-73 -372h-73zM188 -49h75q12 -17 12 -47q0 -49 -32.5 -87.5t-78.5 -59.5l-28 40q34 14 51.5 40t17.5 56q0 32 -17 58z" />
    <glyph glyph-name="obreve.smcp" unicode="&#xf691;" horiz-adv-x="617" 
d="M40 202q0 111 85.5 201.5t215.5 90.5q105 0 165 -57.5t60 -149.5q0 -115 -89.5 -207t-213.5 -92q-104 0 -163.5 60.5t-59.5 153.5zM122 202q0 -64 36 -107.5t105 -43.5q94 0 157.5 74t63.5 161q0 64 -37 104.5t-107 40.5q-93 0 -155.5 -71t-62.5 -158zM368 552
q-54 0 -88 26.5t-34 72.5q0 23 8 44h52q-6 -20 -6 -35q0 -55 73 -55q49 0 73.5 27t30.5 63h55q-5 -59 -47.5 -101t-116.5 -42z" />
    <glyph glyph-name="ohungarumlaut.smcp" unicode="&#xf692;" horiz-adv-x="617" 
d="M40 202q0 111 85.5 201.5t215.5 90.5q105 0 165 -57.5t60 -149.5q0 -115 -89.5 -207t-213.5 -92q-104 0 -163.5 60.5t-59.5 153.5zM122 202q0 -64 36 -107.5t105 -43.5q94 0 157.5 74t63.5 161q0 64 -37 104.5t-107 40.5q-93 0 -155.5 -71t-62.5 -158zM413 579l101 122
h87l-137 -149zM295 552l-51 27l93 122h87z" />
    <glyph glyph-name="omacron.smcp" unicode="&#xf693;" horiz-adv-x="617" 
d="M40 202q0 111 85.5 201.5t215.5 90.5q105 0 165 -57.5t60 -149.5q0 -115 -89.5 -207t-213.5 -92q-104 0 -163.5 60.5t-59.5 153.5zM122 202q0 -64 36 -107.5t105 -43.5q94 0 157.5 74t63.5 161q0 64 -37 104.5t-107 40.5q-93 0 -155.5 -71t-62.5 -158zM245 595l13 59h258
l-13 -59h-258z" />
    <glyph glyph-name="oslashacute.smcp" unicode="&#xf694;" horiz-adv-x="617" 
d="M40 202q0 111 85.5 201.5t215.5 90.5q59 0 109 -21l29 39h59l-47 -63q75 -58 75 -162q0 -115 -89.5 -207t-213.5 -92q-56 0 -102 19l-28 -37h-60l46 61q-79 59 -79 171zM122 202q0 -71 40 -112l246 328q-31 13 -68 13q-93 0 -155.5 -71t-62.5 -158zM484 286q0 66 -37 104
l-245 -328q27 -11 61 -11q94 0 157.5 74t63.5 161zM294 550l-19 48l193 95l31 -72z" />
    <glyph glyph-name="racute.smcp" unicode="&#xf695;" horiz-adv-x="482" 
d="M34 0l95 482h133q84 0 124.5 -34t40.5 -88q0 -56 -39 -97t-92 -59l102 -204h-84l-92 192h-75l-38 -192h-75zM159 255h67q46 0 82.5 27.5t36.5 70.5q0 65 -98 65h-55zM227 550l-19 48l193 95l31 -72z" />
    <glyph glyph-name="rcaron.smcp" unicode="&#xf696;" horiz-adv-x="482" 
d="M34 0l95 482h133q84 0 124.5 -34t40.5 -88q0 -56 -39 -97t-92 -59l102 -204h-84l-92 192h-75l-38 -192h-75zM159 255h67q46 0 82.5 27.5t36.5 70.5q0 65 -98 65h-55zM268 553l-100 110l48 38l94 -95l136 95l42 -38l-151 -110h-69z" />
    <glyph glyph-name="rcommaaccent.smcp" unicode="&#xf697;" horiz-adv-x="481" 
d="M34 0l95 482h133q84 0 124.5 -34t40.5 -88q0 -56 -39 -97t-92 -59l102 -204h-84l-92 192h-75l-38 -192h-75zM159 255h67q46 0 82.5 27.5t36.5 70.5q0 65 -98 65h-55zM147 -49h75q12 -17 12 -47q0 -49 -32.5 -87.5t-78.5 -59.5l-28 40q34 14 51.5 40t17.5 56q0 32 -17 58z
" />
    <glyph glyph-name="sacute.smcp" unicode="&#xf698;" horiz-adv-x="410" 
d="M13 29l15 66q5 -5 15 -12t42.5 -19t65.5 -12q44 0 75 18t31 53q0 25 -18.5 46t-45 37t-53.5 34t-46.5 45t-20.5 61q-2 61 48 104.5t130 43.5q27 0 58 -5.5t48 -10.5l17 -6l-17 -65q-47 23 -104 23q-44 0 -73 -17.5t-29 -51.5q0 -25 18.5 -45.5t45.5 -35.5t54 -32
t46 -45.5t20 -65.5q2 -69 -53.5 -109t-130.5 -40q-37 0 -71.5 10t-50.5 20zM183 550l-19 48l193 95l31 -72z" />
    <glyph glyph-name="scedilla.smcp" unicode="&#xf699;" horiz-adv-x="412" 
d="M92 -73q0 15 24 53l6 10q-30 4 -57 13.5t-39 17.5l-12 8l15 66q5 -5 15 -12t42.5 -19t65.5 -12q44 0 75 18t31 53q0 25 -18.5 46t-45 37t-53.5 34t-46.5 45t-20.5 61q-2 61 48 104.5t130 43.5q27 0 58 -5.5t48 -10.5l17 -6l-17 -65q-47 23 -104 23q-44 0 -73 -17.5
t-29 -51.5q0 -25 18.5 -45.5t45.5 -35.5t54 -32t46 -45.5t20 -65.5q2 -64 -45.5 -103t-117.5 -45l-3 -6q-18 -30 -18 -37q0 -14 16 -25.5t31.5 -27t15.5 -39.5q0 -36 -34 -63.5t-82 -27.5q-24 0 -46 7.5t-33 15.5l-10 8l22 46q29 -27 67 -27q23 0 39.5 10.5t16.5 26.5
q0 13 -15.5 24t-31.5 24t-16 29z" />
    <glyph glyph-name="scircumflex.smcp" unicode="&#xf69a;" horiz-adv-x="410" 
d="M13 29l15 66q5 -5 15 -12t42.5 -19t65.5 -12q44 0 75 18t31 53q0 25 -18.5 46t-45 37t-53.5 34t-46.5 45t-20.5 61q-2 61 48 104.5t130 43.5q27 0 58 -5.5t48 -10.5l17 -6l-17 -65q-47 23 -104 23q-44 0 -73 -17.5t-29 -51.5q0 -25 18.5 -45.5t45.5 -35.5t54 -32
t46 -45.5t20 -65.5q2 -69 -53.5 -109t-130.5 -40q-37 0 -71.5 10t-50.5 20zM140 548l-42 38l150 110h69l101 -110l-48 -38l-95 95z" />
    <glyph glyph-name="scommaaccent.smcp" unicode="&#xf69b;" horiz-adv-x="410" 
d="M13 29l15 66q5 -5 15 -12t42.5 -19t65.5 -12q44 0 75 18t31 53q0 25 -18.5 46t-45 37t-53.5 34t-46.5 45t-20.5 61q-2 61 48 104.5t130 43.5q27 0 58 -5.5t48 -10.5l17 -6l-17 -65q-47 23 -104 23q-44 0 -73 -17.5t-29 -51.5q0 -25 18.5 -45.5t45.5 -35.5t54 -32
t46 -45.5t20 -65.5q2 -69 -53.5 -109t-130.5 -40q-37 0 -71.5 10t-50.5 20zM94 -49h75q12 -17 12 -47q0 -49 -32.5 -87.5t-78.5 -59.5l-28 40q34 14 51.5 40t17.5 56q0 32 -17 58z" />
    <glyph glyph-name="tbar.smcp" unicode="&#xf69c;" horiz-adv-x="458" 
d="M69 218l9 47h110l31 155h-169l12 62h416l-12 -62h-172l-31 -155h114l-9 -47h-114l-43 -218h-75l43 218h-110z" />
    <glyph glyph-name="tcaron.smcp" unicode="&#xf69d;" horiz-adv-x="457" 
d="M135 0l83 420h-169l12 62h416l-12 -62h-172l-83 -420h-75zM254 553l-100 110l48 38l94 -95l136 95l42 -38l-151 -110h-69z" />
    <glyph glyph-name="tcommaaccent.smcp" unicode="&#xf69e;" horiz-adv-x="457" 
d="M135 0l83 420h-169l12 62h416l-12 -62h-172l-83 -420h-6l-10 -17q-18 -30 -18 -37q0 -14 16 -25.5t31.5 -27t15.5 -39.5q0 -36 -34 -63.5t-82 -27.5q-24 0 -46 7.5t-33 15.5l-10 8l22 46q29 -27 67 -27q23 0 39.5 10.5t16.5 26.5q0 13 -15.5 24t-31.5 24t-16 29
q0 15 24 53l13 20h-18z" />
    <glyph glyph-name="ubreve.smcp" unicode="&#xf69f;" horiz-adv-x="566" 
d="M57 138q0 24 6 53l58 291h75l-59 -296q-4 -20 -4 -40q0 -95 106 -95q58 0 100 33t55 99l59 299h75l-62 -311q-18 -90 -79.5 -136.5t-145.5 -46.5t-134 37t-50 113zM340 552q-54 0 -88 26.5t-34 72.5q0 23 8 44h52q-6 -20 -6 -35q0 -55 73 -55q49 0 73.5 27t30.5 63h55
q-5 -59 -47.5 -101t-116.5 -42z" />
    <glyph glyph-name="uhungarumlaut.smcp" unicode="&#xf6a0;" horiz-adv-x="566" 
d="M57 138q0 24 6 53l58 291h75l-59 -296q-4 -20 -4 -40q0 -95 106 -95q58 0 100 33t55 99l59 299h75l-62 -311q-18 -90 -79.5 -136.5t-145.5 -46.5t-134 37t-50 113zM385 579l101 122h87l-137 -149zM267 552l-51 27l93 122h87z" />
    <glyph glyph-name="umacron.smcp" unicode="&#xf6a1;" horiz-adv-x="566" 
d="M57 138q0 24 6 53l58 291h75l-59 -296q-4 -20 -4 -40q0 -95 106 -95q58 0 100 33t55 99l59 299h75l-62 -311q-18 -90 -79.5 -136.5t-145.5 -46.5t-134 37t-50 113zM217 595l13 59h258l-13 -59h-258z" />
    <glyph glyph-name="uogonek.smcp" unicode="&#xf6a2;" horiz-adv-x="568" 
d="M58 138q0 24 6 53l58 291h75l-59 -296q-4 -20 -4 -40q0 -95 106 -95q58 0 100 33t55 99l59 299h75l-62 -311q-22 -106 -104 -153q-141 -109 -141 -162q0 -36 34 -36q23 0 49 13v-56q-35 -14 -71 -14q-38 0 -59.5 20t-21.5 55q0 39 25 73.5t71 76.5h-7q-84 0 -134 37
t-50 113z" />
    <glyph glyph-name="uring.smcp" unicode="&#xf6a3;" horiz-adv-x="566" 
d="M57 138q0 24 6 53l58 291h75l-59 -296q-4 -20 -4 -40q0 -95 106 -95q58 0 100 33t55 99l59 299h75l-62 -311q-18 -90 -79.5 -136.5t-145.5 -46.5t-134 37t-50 113zM343 543q-42 0 -63.5 20t-21.5 50q0 35 28.5 62.5t76.5 27.5q44 0 65 -18.5t21 -47.5q0 -37 -28.5 -65.5
t-77.5 -28.5zM344 577q25 0 42 17t17 40q0 14 -10.5 24.5t-29.5 10.5q-28 0 -42.5 -17.5t-14.5 -38.5q0 -36 38 -36z" />
    <glyph glyph-name="utilde.smcp" unicode="&#xf6a4;" horiz-adv-x="566" 
d="M57 138q0 24 6 53l58 291h75l-59 -296q-4 -20 -4 -40q0 -95 106 -95q58 0 100 33t55 99l59 299h75l-62 -311q-18 -90 -79.5 -136.5t-145.5 -46.5t-134 37t-50 113zM170 572l2.5 12.5t9.5 27t19.5 34.5t34 27t51.5 12q26 0 47.5 -10.5t32.5 -22.5t26 -22.5t30 -10.5
q21 0 35.5 17.5t18.5 34.5l4 17l56 -10q-1 -5 -2.5 -13t-9.5 -28t-20 -35.5t-35 -28t-52 -12.5q-33 0 -57 16.5t-42 33t-36 16.5q-20 0 -34.5 -16.5t-18.5 -32.5l-4 -16z" />
    <glyph glyph-name="wacute.smcp" unicode="&#xf6a5;" horiz-adv-x="744" 
d="M131 -5l-53 487h73l39 -382l190 382h65l37 -383l191 383h78l-247 -487h-75l-40 362l-182 -362h-76zM358 550l-19 48l193 95l31 -72z" />
    <glyph glyph-name="wcircumflex.smcp" unicode="&#xf6a6;" horiz-adv-x="744" 
d="M131 -5l-53 487h73l39 -382l190 382h65l37 -383l191 383h78l-247 -487h-75l-40 362l-182 -362h-76zM315 548l-42 38l150 110h69l101 -110l-48 -38l-95 95z" />
    <glyph glyph-name="wdieresis.smcp" unicode="&#xf6a7;" horiz-adv-x="744" 
d="M131 -5l-53 487h73l39 -382l190 382h65l37 -383l191 383h78l-247 -487h-75l-40 362l-182 -362h-76zM543 574q-42 0 -42 44q0 23 15 40.5t39 17.5q41 0 41 -43q0 -24 -15.5 -41.5t-37.5 -17.5zM335 574q-42 0 -42 44q0 23 15 40.5t39 17.5q20 0 30.5 -12t10.5 -31
q0 -24 -15.5 -41.5t-37.5 -17.5z" />
    <glyph glyph-name="wgrave.smcp" unicode="&#xf6a8;" horiz-adv-x="744" 
d="M131 -5l-53 487h73l39 -382l190 382h65l37 -383l191 383h78l-247 -487h-75l-40 362l-182 -362h-76zM313 621l31 72l193 -95l-19 -48z" />
    <glyph glyph-name="ycircumflex.smcp" unicode="&#xf6a9;" horiz-adv-x="453" 
d="M131 0l41 209l-122 273h86l84 -200l167 200h87l-228 -273l-41 -209h-74zM163 548l-42 38l150 110h69l101 -110l-48 -38l-95 95z" />
    <glyph glyph-name="ygrave.smcp" unicode="&#xf6aa;" horiz-adv-x="453" 
d="M131 0l41 209l-122 273h86l84 -200l167 200h87l-228 -273l-41 -209h-74zM161 621l31 72l193 -95l-19 -48z" />
    <glyph glyph-name="zacute.smcp" unicode="&#xf6ab;" horiz-adv-x="460" 
d="M-4 0v45l337 373h-247l12 64h347l-4 -45l-334 -375h266l-12 -62h-365zM206 550l-19 48l193 95l31 -72z" />
    <glyph glyph-name="zdotaccent.smcp" unicode="&#xf6ac;" horiz-adv-x="460" 
d="M-4 0v45l337 373h-247l12 64h347l-4 -45l-334 -375h266l-12 -62h-365zM281 571q-40 0 -40 40q0 25 16.5 46.5t46.5 21.5q40 0 40 -39q0 -25 -16.5 -47t-46.5 -22z" />
    <glyph glyph-name="commaaccent" unicode="&#xf6c3;" horiz-adv-x="500" 
d="M202 -49h75q12 -17 12 -47q0 -49 -32.5 -87.5t-78.5 -59.5l-28 40q34 14 51.5 40t17.5 56q0 32 -17 58z" />
    <glyph glyph-name="lslash.smcp" unicode="&#xf6f9;" horiz-adv-x="416" 
d="M-3 149l13 64l84 53l43 216h75l-32 -163l109 69l-13 -65l-109 -68l-38 -193h231l-12 -62h-306l40 202z" />
    <glyph glyph-name="oe.smcp" unicode="&#xf6fa;" horiz-adv-x="743" 
d="M38 202q0 111 85.5 201.5t215.5 90.5q41 0 89 -12h305l-12 -62h-223l-28 -144h177l-13 -61h-177l-30 -153h225l-12 -62h-296q-40 -12 -83 -12q-104 0 -163.5 60.5t-59.5 153.5zM120 202q0 -64 36 -107.5t105 -43.5q53 0 92 16l69 348q-32 16 -84 16q-93 0 -155.5 -71
t-62.5 -158z" />
    <glyph glyph-name="scaron.smcp" unicode="&#xf6fd;" horiz-adv-x="410" 
d="M13 29l15 66q5 -5 15 -12t42.5 -19t65.5 -12q44 0 75 18t31 53q0 25 -18.5 46t-45 37t-53.5 34t-46.5 45t-20.5 61q-2 61 48 104.5t130 43.5q27 0 58 -5.5t48 -10.5l17 -6l-17 -65q-47 23 -104 23q-44 0 -73 -17.5t-29 -51.5q0 -25 18.5 -45.5t45.5 -35.5t54 -32
t46 -45.5t20 -65.5q2 -69 -53.5 -109t-130.5 -40q-37 0 -71.5 10t-50.5 20zM224 553l-100 110l48 38l94 -95l136 95l42 -38l-151 -110h-69z" />
    <glyph glyph-name="zcaron.smcp" unicode="&#xf6ff;" horiz-adv-x="460" 
d="M-4 0v45l337 373h-247l12 64h347l-4 -45l-334 -375h266l-12 -62h-365zM247 553l-100 110l48 38l94 -95l136 95l42 -38l-151 -110h-69z" />
    <glyph glyph-name="exclam.smcp" unicode="&#xf721;" horiz-adv-x="273" 
d="M87 176l49 318h90l-82 -318h-57zM36 30q0 27 17 49.5t48 22.5q42 0 42 -41q0 -26 -17.5 -49.5t-48.5 -23.5q-41 0 -41 42z" />
    <glyph glyph-name="ampersand.smcp" unicode="&#xf726;" horiz-adv-x="550" 
d="M11 98q0 48 37 83.5t111 74.5q-14 45 -14 84q0 62 35 108t109 46q50 0 77 -23t27 -65q0 -54 -42.5 -94.5t-109.5 -76.5q31 -67 86 -125q45 33 73.5 72.5t28.5 71.5q0 29 -20 50l61 18q23 -27 23 -65q0 -44 -33.5 -94.5t-88.5 -92.5q52 -43 101 -53l-37 -51q-57 8 -125 65
q-81 -43 -155 -43q-61 0 -102.5 29t-41.5 81zM160 46q48 0 107 28q-52 56 -87 130q-49 -24 -73.5 -47t-24.5 -53q0 -28 21 -43t57 -15zM213 345q0 -26 8 -58q48 25 74.5 49.5t26.5 59.5q0 41 -40 41q-31 0 -50 -24.5t-19 -67.5z" />
    <glyph glyph-name="uni1E9E.smcp" unicode="&#xf727;" horiz-adv-x="525" 
d="M26 0l50 255q26 130 87 184.5t156 54.5q33 0 88.5 -6t62.5 -7l-3 -43l-134 -146q119 -57 119 -149q0 -59 -49 -107t-122 -48q-27 0 -53 7t-38 15l-13 7l17 66q33 -32 84 -32q40 0 68.5 27t28.5 62q0 41 -38 69t-87 37v42l126 139q-28 5 -57 5q-70 0 -109.5 -42.5
t-58.5 -136.5l-50 -253h-75z" />
    <glyph glyph-name="question.smcp" unicode="&#xf73f;" horiz-adv-x="300" 
d="M62 176q2 39 24 73.5t47 54.5t45.5 40t20.5 33q0 19 -29.5 38t-58.5 28l-29 9l27 63q7 -2 19 -6t42.5 -16.5t53.5 -26.5t42 -36t19 -44q0 -27 -21.5 -52t-49 -43t-54 -48.5t-33.5 -66.5h-65zM19 30q0 27 17 49.5t48 22.5q42 0 42 -41q0 -26 -17.5 -49.5t-48.5 -23.5
q-41 0 -41 42z" />
    <glyph glyph-name="a.smcp" unicode="&#xf761;" horiz-adv-x="485" 
d="M-29 0l282 486h73l91 -486h-73l-23 128h-199l-73 -128h-78zM273 393l-116 -203h153z" />
    <glyph glyph-name="b.smcp" unicode="&#xf762;" horiz-adv-x="478" 
d="M34 0l95 482h138q79 0 114.5 -29t35.5 -75q0 -74 -88 -121q71 -30 71 -99t-56.5 -113.5t-136.5 -44.5h-173zM121 62h82q56 0 86.5 26.5t30.5 67.5q0 28 -21.5 44.5t-65.5 16.5h-82zM192 420l-28 -143h101q6 1 21 10t33 32t18 49q0 52 -88 52h-57z" />
    <glyph glyph-name="c.smcp" unicode="&#xf763;" horiz-adv-x="532" 
d="M40 195q-1 117 88.5 208t229.5 91q45 0 85.5 -10t58.5 -20l19 -11l-41 -62q-52 39 -131 39q-101 0 -164.5 -73t-62.5 -160q1 -65 42 -105t110 -40q37 0 75 12.5t57 25.5l19 12l30 -59q-9 -6 -25 -15t-65 -24.5t-97 -15.5q-102 0 -164.5 57t-63.5 150z" />
    <glyph glyph-name="d.smcp" unicode="&#xf764;" horiz-adv-x="569" 
d="M34 0l95 482h149q102 0 169.5 -48.5t67.5 -153.5q0 -128 -99.5 -204t-239.5 -76h-142zM121 62h49q128 0 195.5 64t67.5 154q0 140 -167 140h-74z" />
    <glyph glyph-name="e.smcp" unicode="&#xf765;" horiz-adv-x="437" 
d="M34 0l95 482h298l-12 -62h-223l-28 -144h177l-13 -61h-177l-30 -153h225l-12 -62h-300z" />
    <glyph glyph-name="f.smcp" unicode="&#xf766;" horiz-adv-x="419" 
d="M34 0l95 482h293l-12 -62h-218l-29 -147h174l-13 -63h-174l-41 -210h-75z" />
    <glyph glyph-name="g.smcp" unicode="&#xf767;" horiz-adv-x="549" 
d="M39 196q0 117 89.5 207.5t226.5 90.5q44 0 85.5 -10t61.5 -20l19 -11l-42 -60q-53 37 -131 37q-100 0 -164.5 -70.5t-64.5 -159.5q0 -69 43 -108.5t118 -39.5q20 0 42.5 3t34.5 6l12 3l26 129h-101l12 62h176l-48 -244q-94 -23 -166 -23q-102 0 -165.5 56t-63.5 152z" />
    <glyph glyph-name="h.smcp" unicode="&#xf768;" horiz-adv-x="599" 
d="M34 0l95 482h75l-41 -205h274l41 205h75l-95 -482h-75l42 215h-274l-42 -215h-75z" />
    <glyph glyph-name="i.smcp" unicode="&#xf769;" horiz-adv-x="250" 
d="M34 0l95 482h75l-95 -482h-75z" />
    <glyph glyph-name="j.smcp" unicode="&#xf76a;" horiz-adv-x="251" 
d="M47 64l83 418h75l-82 -416q-10 -52 -30.5 -92t-43 -59.5t-43 -32t-34.5 -14.5l-13 -3l-27 59q4 0 10 1.5t22.5 10t31 21.5t29.5 41.5t22 65.5z" />
    <glyph glyph-name="k.smcp" unicode="&#xf76b;" horiz-adv-x="480" 
d="M34 0l95 482h75l-39 -198h10l222 198h97l-265 -234l179 -248h-92l-154 222h-9l-44 -222h-75z" />
    <glyph glyph-name="l.smcp" unicode="&#xf76c;" horiz-adv-x="409" 
d="M34 0l95 482h75l-83 -420h231l-12 -62h-306z" />
    <glyph glyph-name="m.smcp" unicode="&#xf76d;" horiz-adv-x="682" 
d="M25 0l113 482h106l63 -369l211 369h109l-77 -482h-73l63 394l-228 -394h-52l-69 398l-92 -398h-74z" />
    <glyph glyph-name="n.smcp" unicode="&#xf76e;" horiz-adv-x="591" 
d="M34 0l95 482h75l194 -374l74 374h73l-95 -482h-74l-196 372l-73 -372h-73z" />
    <glyph glyph-name="o.smcp" unicode="&#xf76f;" horiz-adv-x="617" 
d="M40 202q0 111 85.5 201.5t215.5 90.5q105 0 165 -57.5t60 -149.5q0 -115 -89.5 -207t-213.5 -92q-104 0 -163.5 60.5t-59.5 153.5zM122 202q0 -64 36 -107.5t105 -43.5q94 0 157.5 74t63.5 161q0 64 -37 104.5t-107 40.5q-93 0 -155.5 -71t-62.5 -158z" />
    <glyph glyph-name="p.smcp" unicode="&#xf770;" horiz-adv-x="458" 
d="M34 0l95 482h143q84 0 123.5 -34.5t39.5 -93.5q0 -79 -61.5 -127.5t-141.5 -48.5h-88l-35 -178h-75zM156 239h66q60 0 95.5 30.5t35.5 77.5q0 73 -95 73h-66z" />
    <glyph glyph-name="q.smcp" unicode="&#xf771;" horiz-adv-x="618" 
d="M104 -62q31 4 91.5 24t80.5 34v2q-101 -6 -167 53t-68 150q-2 111 86 202t217 91q100 0 161 -57.5t62 -150.5q0 -83 -51.5 -160.5t-129 -129t-166.5 -78.5q105 -32 181 -32q52 0 101.5 15.5t75.5 38.5l20 -58q-72 -54 -202 -54q-62 0 -121.5 14.5t-175.5 56.5zM123 201
q1 -64 40 -107t107 -43q93 0 155 75t60 165q-2 60 -37.5 100t-102.5 40q-93 0 -158.5 -71t-63.5 -159z" />
    <glyph glyph-name="r.smcp" unicode="&#xf772;" horiz-adv-x="482" 
d="M34 0l95 482h133q84 0 124.5 -34t40.5 -88q0 -56 -39 -97t-92 -59l102 -204h-84l-92 192h-75l-38 -192h-75zM159 255h67q46 0 82.5 27.5t36.5 70.5q0 65 -98 65h-55z" />
    <glyph glyph-name="s.smcp" unicode="&#xf773;" horiz-adv-x="410" 
d="M13 29l15 66q5 -5 15 -12t42.5 -19t65.5 -12q44 0 75 18t31 53q0 25 -18.5 46t-45 37t-53.5 34t-46.5 45t-20.5 61q-2 61 48 104.5t130 43.5q27 0 58 -5.5t48 -10.5l17 -6l-17 -65q-47 23 -104 23q-44 0 -73 -17.5t-29 -51.5q0 -25 18.5 -45.5t45.5 -35.5t54 -32
t46 -45.5t20 -65.5q2 -69 -53.5 -109t-130.5 -40q-37 0 -71.5 10t-50.5 20z" />
    <glyph glyph-name="t.smcp" unicode="&#xf774;" horiz-adv-x="457" 
d="M135 0l83 420h-169l12 62h416l-12 -62h-172l-83 -420h-75z" />
    <glyph glyph-name="u.smcp" unicode="&#xf775;" horiz-adv-x="566" 
d="M57 138q0 24 6 53l58 291h75l-59 -296q-4 -20 -4 -40q0 -95 106 -95q58 0 100 33t55 99l59 299h75l-62 -311q-18 -90 -79.5 -136.5t-145.5 -46.5t-134 37t-50 113z" />
    <glyph glyph-name="v.smcp" unicode="&#xf776;" horiz-adv-x="471" 
d="M143 -5l-79 487h74l59 -379l209 379h82l-272 -487h-73z" />
    <glyph glyph-name="w.smcp" unicode="&#xf777;" horiz-adv-x="744" 
d="M131 -5l-53 487h73l39 -382l190 382h65l37 -383l191 383h78l-247 -487h-75l-40 362l-182 -362h-76z" />
    <glyph glyph-name="x.smcp" unicode="&#xf778;" horiz-adv-x="485" 
d="M-23 0l215 248l-111 234h82l83 -183l157 183h91l-213 -245l114 -237h-82l-87 185l-157 -185h-92z" />
    <glyph glyph-name="y.smcp" unicode="&#xf779;" horiz-adv-x="453" 
d="M131 0l41 209l-122 273h86l84 -200l167 200h87l-228 -273l-41 -209h-74z" />
    <glyph glyph-name="z.smcp" unicode="&#xf77a;" horiz-adv-x="460" 
d="M-4 0v45l337 373h-247l12 64h347l-4 -45l-334 -375h266l-12 -62h-365z" />
    <glyph glyph-name="exclamdown.smcp" unicode="&#xf7a1;" horiz-adv-x="270" 
d="M173 306l-49 -318h-90l82 318h57zM224 452q0 -27 -17 -49.5t-48 -22.5q-42 0 -42 41q0 26 17.5 49.5t48.5 23.5q41 0 41 -42z" />
    <glyph glyph-name="questiondown.smcp" unicode="&#xf7bf;" horiz-adv-x="299" 
d="M226 307q-2 -39 -24 -73.5t-47 -54.5t-45.5 -40t-20.5 -33q0 -19 29.5 -38t58.5 -28l29 -9l-27 -63q-7 2 -19 6t-42.5 16.5t-53.5 26.5t-42 36t-19 44q0 27 21.5 52t49 43t54 48.5t33.5 66.5h65zM269 453q0 -27 -17 -49.5t-48 -22.5q-42 0 -42 41q0 26 17.5 49.5
t48.5 23.5q41 0 41 -42z" />
    <glyph glyph-name="agrave.smcp" unicode="&#xf7e0;" horiz-adv-x="485" 
d="M-29 0l282 486h73l91 -486h-73l-23 128h-199l-73 -128h-78zM273 393l-116 -203h153zM189 621l31 72l193 -95l-19 -48z" />
    <glyph glyph-name="aacute.smcp" unicode="&#xf7e1;" horiz-adv-x="485" 
d="M-29 0l282 486h73l91 -486h-73l-23 128h-199l-73 -128h-78zM273 393l-116 -203h153zM234 550l-19 48l193 95l31 -72z" />
    <glyph glyph-name="acircumflex.smcp" unicode="&#xf7e2;" horiz-adv-x="485" 
d="M-29 0l282 486h73l91 -486h-73l-23 128h-199l-73 -128h-78zM273 393l-116 -203h153zM191 548l-42 38l150 110h69l101 -110l-48 -38l-95 95z" />
    <glyph glyph-name="atilde.smcp" unicode="&#xf7e3;" horiz-adv-x="485" 
d="M-29 0l282 486h73l91 -486h-73l-23 128h-199l-73 -128h-78zM273 393l-116 -203h153zM138 572l2.5 12.5t9.5 27t19.5 34.5t34 27t51.5 12q26 0 47.5 -10.5t32.5 -22.5t26 -22.5t30 -10.5q21 0 35.5 17.5t18.5 34.5l4 17l56 -10q-1 -5 -2.5 -13t-9.5 -28t-20 -35.5t-35 -28
t-52 -12.5q-33 0 -57 16.5t-42 33t-36 16.5q-20 0 -34.5 -16.5t-18.5 -32.5l-4 -16z" />
    <glyph glyph-name="adieresis.smcp" unicode="&#xf7e4;" horiz-adv-x="485" 
d="M-29 0l282 486h73l91 -486h-73l-23 128h-199l-73 -128h-78zM273 393l-116 -203h153zM419 574q-42 0 -42 44q0 23 15 40.5t39 17.5q41 0 41 -43q0 -24 -15.5 -41.5t-37.5 -17.5zM211 574q-42 0 -42 44q0 23 15 40.5t39 17.5q20 0 30.5 -12t10.5 -31q0 -24 -15.5 -41.5
t-37.5 -17.5z" />
    <glyph glyph-name="aring.smcp" unicode="&#xf7e5;" horiz-adv-x="485" 
d="M-29 0l282 486h73l91 -486h-73l-23 128h-199l-73 -128h-78zM273 393l-116 -203h153zM311 543q-42 0 -63.5 20t-21.5 50q0 35 28.5 62.5t76.5 27.5q44 0 65 -18.5t21 -47.5q0 -37 -28.5 -65.5t-77.5 -28.5zM312 577q25 0 42 17t17 40q0 14 -10.5 24.5t-29.5 10.5
q-28 0 -42.5 -17.5t-14.5 -38.5q0 -36 38 -36z" />
    <glyph glyph-name="ae.smcp" unicode="&#xf7e6;" horiz-adv-x="676" 
d="M-43 0l362 482h346l-12 -64h-223l-28 -141h177l-13 -63h-177l-30 -150h225l-12 -64h-300l31 159h-148l-119 -159h-79zM202 222h114l40 206z" />
    <glyph glyph-name="ccedilla.smcp" unicode="&#xf7e7;" horiz-adv-x="533" 
d="M166 -73q0 15 24 53l10 16q-73 17 -115.5 69.5t-43.5 129.5q-1 117 88.5 208t229.5 91q45 0 85.5 -10t59.5 -20l18 -11l-41 -62q-52 39 -131 39q-101 0 -164.5 -73t-62.5 -160q1 -65 42 -105t110 -40q37 0 75 12.5t57 25.5l19 12l30 -59q-9 -6 -25 -15t-65 -24.5
t-97 -15.5q-15 0 -22 1l-3 -6q-18 -30 -18 -37q0 -14 16 -25.5t31.5 -27t15.5 -39.5q0 -36 -34 -63.5t-82 -27.5q-24 0 -46 7.5t-33 15.5l-10 8l22 46q29 -27 67 -27q23 0 39.5 10.5t16.5 26.5q0 13 -15.5 24t-31.5 24t-16 29z" />
    <glyph glyph-name="egrave.smcp" unicode="&#xf7e8;" horiz-adv-x="437" 
d="M34 0l95 482h298l-12 -62h-223l-28 -144h177l-13 -61h-177l-30 -153h225l-12 -62h-300zM181 621l31 72l193 -95l-19 -48z" />
    <glyph glyph-name="eacute.smcp" unicode="&#xf7e9;" horiz-adv-x="437" 
d="M34 0l95 482h298l-12 -62h-223l-28 -144h177l-13 -61h-177l-30 -153h225l-12 -62h-300zM226 550l-19 48l193 95l31 -72z" />
    <glyph glyph-name="ecircumflex.smcp" unicode="&#xf7ea;" horiz-adv-x="437" 
d="M34 0l95 482h298l-12 -62h-223l-28 -144h177l-13 -61h-177l-30 -153h225l-12 -62h-300zM183 548l-42 38l150 110h69l101 -110l-48 -38l-95 95z" />
    <glyph glyph-name="edieresis.smcp" unicode="&#xf7eb;" horiz-adv-x="437" 
d="M34 0l95 482h298l-12 -62h-223l-28 -144h177l-13 -61h-177l-30 -153h225l-12 -62h-300zM411 574q-42 0 -42 44q0 23 15 40.5t39 17.5q41 0 41 -43q0 -24 -15.5 -41.5t-37.5 -17.5zM203 574q-42 0 -42 44q0 23 15 40.5t39 17.5q20 0 30.5 -12t10.5 -31q0 -24 -15.5 -41.5
t-37.5 -17.5z" />
    <glyph glyph-name="igrave.smcp" unicode="&#xf7ec;" horiz-adv-x="250" 
d="M34 0l95 482h75l-95 -482h-75zM66 621l31 72l193 -95l-19 -48z" />
    <glyph glyph-name="iacute.smcp" unicode="&#xf7ed;" horiz-adv-x="250" 
d="M34 0l95 482h75l-95 -482h-75zM111 550l-19 48l193 95l31 -72z" />
    <glyph glyph-name="icircumflex.smcp" unicode="&#xf7ee;" horiz-adv-x="250" 
d="M34 0l95 482h75l-95 -482h-75zM68 548l-42 38l150 110h69l101 -110l-48 -38l-95 95z" />
    <glyph glyph-name="idieresis.smcp" unicode="&#xf7ef;" horiz-adv-x="250" 
d="M34 0l95 482h75l-95 -482h-75zM275 574q-42 0 -42 44q0 23 15 40.5t39 17.5q41 0 41 -43q0 -24 -15.5 -41.5t-37.5 -17.5zM110 574q-42 0 -42 44q0 23 15 40.5t39 17.5q20 0 30.5 -12t10.5 -31q0 -24 -15.5 -41.5t-37.5 -17.5z" />
    <glyph glyph-name="eth.smcp" unicode="&#xf7f0;" horiz-adv-x="575" 
d="M29 215l12 60h53l41 207h149q102 0 169.5 -48.5t67.5 -153.5q0 -128 -99.5 -204t-239.5 -76h-142l42 215h-53zM127 62h49q128 0 195.5 64t67.5 154q0 140 -167 140h-74l-29 -145h115l-12 -60h-115z" />
    <glyph glyph-name="ntilde.smcp" unicode="&#xf7f1;" horiz-adv-x="591" 
d="M34 0l95 482h75l194 -374l74 374h73l-95 -482h-74l-196 372l-73 -372h-73zM185 572l2.5 12.5t9.5 27t19.5 34.5t34 27t51.5 12q26 0 47.5 -10.5t32.5 -22.5t26 -22.5t30 -10.5q21 0 35.5 17.5t18.5 34.5l4 17l56 -10q-1 -5 -2.5 -13t-9.5 -28t-20 -35.5t-35 -28
t-52 -12.5q-33 0 -57 16.5t-42 33t-36 16.5q-20 0 -34 -16.5t-18 -32.5l-5 -16z" />
    <glyph glyph-name="ograve.smcp" unicode="&#xf7f2;" horiz-adv-x="617" 
d="M40 202q0 111 85.5 201.5t215.5 90.5q105 0 165 -57.5t60 -149.5q0 -115 -89.5 -207t-213.5 -92q-104 0 -163.5 60.5t-59.5 153.5zM122 202q0 -64 36 -107.5t105 -43.5q94 0 157.5 74t63.5 161q0 64 -37 104.5t-107 40.5q-93 0 -155.5 -71t-62.5 -158zM249 621l31 72
l193 -95l-19 -48z" />
    <glyph glyph-name="oacute.smcp" unicode="&#xf7f3;" horiz-adv-x="617" 
d="M40 202q0 111 85.5 201.5t215.5 90.5q105 0 165 -57.5t60 -149.5q0 -115 -89.5 -207t-213.5 -92q-104 0 -163.5 60.5t-59.5 153.5zM122 202q0 -64 36 -107.5t105 -43.5q94 0 157.5 74t63.5 161q0 64 -37 104.5t-107 40.5q-93 0 -155.5 -71t-62.5 -158zM294 550l-19 48
l193 95l31 -72z" />
    </font>
</defs>
</svg>
