<?xml version="1.0" standalone="no"?>
<!DOCTYPE svg PUBLIC "-//W3C//DTD SVG 1.1//EN" "http://www.w3.org/Graphics/SVG/1.1/DTD/svg11.dtd" >
<svg xmlns="http://www.w3.org/2000/svg" xmlns:xlink="http://www.w3.org/1999/xlink" version="1.1">
<metadata>
Created by FontForge 20161003 at Thu Jun 22 08:37:41 2017
 By www-data
Copyright (c) 2010 by Jos Buivenga. All rights reserved.
</metadata>
<defs>
<font id="CallunaSansBold" horiz-adv-x="520" >
  <font-face 
    font-family="CallunaSansBold"
    font-weight="700"
    font-stretch="normal"
    units-per-em="1000"
    panose-1="2 0 0 0 0 0 0 0 0 0"
    ascent="750"
    descent="-250"
    x-height="455"
    cap-height="667"
    bbox="-159 -249 1156 954"
    underline-thickness="50"
    underline-position="-150"
    unicode-range="U+0020-FB06"
  />
<missing-glyph horiz-adv-x="788" 
d="M93 -53v773h600v-773h-600zM168 147l40 -41l185 186l185 -186l40 41l-185 185l185 186l-39 41l-186 -187l-186 187l-39 -41l185 -186z" />
    <glyph glyph-name="f_b" unicode="fb" horiz-adv-x="865" 
d="M391 13v611q-38 16 -70 16q-103 0 -103 -145v-40h122v-89h-122v-366h-125v366h-71v67l71 25v28q0 117 63.5 183.5t165.5 66.5q70 0 127 -30l67 11v-293q43 43 113 43q96 0 148.5 -63t52.5 -159q0 -108 -67 -182.5t-190 -74.5q-34 0 -79.5 6t-73 12t-29.5 7zM606 372
q-44 0 -90 -35v-252q28 -9 58 -9q58 0 93 42t35 118q0 64 -26 100t-70 36z" />
    <glyph glyph-name="f_f_b" unicode="ffb" horiz-adv-x="1174" 
d="M699 13v606q-40 21 -77 21q-96 0 -96 -135v-50h122v-89h-122v-366h-124v371h-184v-371h-125v366h-71v67l71 25v14q0 112 62.5 176t160.5 64q83 0 143 -44q60 68 161 68q73 0 126 -32l78 13v-293q43 43 113 43q96 0 148.5 -63t52.5 -159q0 -108 -67 -182.5t-190 -74.5
q-34 0 -79.5 6t-73 12t-29.5 7zM914 372q-44 0 -90 -35v-252q28 -9 58 -9q58 0 93 42t35 118q0 64 -26 100t-70 36zM402 496q0 45 11 86q-44 34 -95 34q-100 0 -100 -135v-26h184v41z" />
    <glyph glyph-name="f_f_h" unicode="ffh" horiz-adv-x="1175" 
d="M699 0v619q-40 21 -77 21q-96 0 -96 -135v-50h122v-89h-122v-366h-124v371h-184v-371h-125v366h-71v67l71 25v14q0 112 62.5 176t160.5 64q83 0 143 -44q60 68 161 68q73 0 126 -32l78 13v-334q77 84 166 84q124 0 124 -143v-324h-124v271q0 47 -10.5 67.5t-35.5 20.5
q-49 0 -120 -76v-283h-125zM402 496q0 45 11 86q-44 34 -95 34q-100 0 -100 -135v-26h184v41z" />
    <glyph glyph-name="f_f_j" unicode="ffj" horiz-adv-x="880" 
d="M571 -140q56 9 88.5 44t32.5 113v354h-166v-371h-124v371h-184v-371h-125v366h-71v67l71 25v14q0 112 62.5 176t160.5 64q83 0 143 -44q60 68 161 68q37 0 71.5 -10t50.5 -20l16 -9l-44 -88q-43 31 -93 31q-95 0 -95 -135v-50h291v-432q0 -119 -57 -182.5t-152 -77.5z
M402 496q0 47 11 86q-44 34 -95 34q-100 0 -100 -135v-26h184v41z" />
    <glyph glyph-name="f_f_k" unicode="ffk" horiz-adv-x="1158" 
d="M699 0v619q-40 21 -77 21q-96 0 -96 -135v-50h122v-89h-122v-366h-124v371h-184v-371h-125v366h-71v67l71 25v14q0 112 62.5 176t160.5 64q83 0 143 -44q60 68 161 68q73 0 126 -32l78 13v-419h16l149 157h158l-200 -199l209 -256h-155l-161 207h-16v-207h-125zM402 496
q0 45 11 86q-44 34 -95 34q-100 0 -100 -135v-26h184v41z" />
    <glyph glyph-name="f_h" unicode="fh" horiz-adv-x="865" 
d="M391 0v624q-38 16 -70 16q-103 0 -103 -145v-40h122v-89h-122v-366h-125v366h-71v67l71 25v28q0 117 63.5 183.5t165.5 66.5q70 0 127 -30l67 11v-334q77 84 166 84q124 0 124 -143v-324h-124v271q0 47 -10.5 67.5t-35.5 20.5q-49 0 -120 -76v-283h-125z" />
    <glyph glyph-name="f_k" unicode="fk" horiz-adv-x="849" 
d="M391 0v624q-38 16 -70 16q-103 0 -103 -145v-40h122v-89h-122v-366h-125v366h-71v67l71 25v28q0 117 63.5 183.5t165.5 66.5q70 0 127 -30l67 11v-419h16l149 157h158l-200 -199l209 -256h-155l-161 207h-16v-207h-125z" />
    <glyph glyph-name="ff" unicode="ff" horiz-adv-x="666" 
d="M22 366v67l71 25v14q0 112 62.5 176t160.5 64q83 0 143 -44q60 68 161 68q37 0 71.5 -10t50.5 -20l16 -9l-44 -88q-43 31 -93 31q-95 0 -95 -135v-50h122v-89h-122v-366h-124v371h-184v-371h-125v366h-71zM402 496q0 47 11 86q-44 34 -95 34q-100 0 -100 -135v-26h184v41
z" />
    <glyph glyph-name="fi" unicode="fi" horiz-adv-x="562" 
d="M374 0v371h-156v-371h-125v366h-71v67l71 25v28q0 117 63.5 183.5t165.5 66.5q39 0 74.5 -10t51.5 -20l17 -9l-44 -88q-47 31 -100 31q-103 0 -103 -145v-40h280v-455h-124z" />
    <glyph glyph-name="fl" unicode="fl" horiz-adv-x="580" 
d="M392 0v623q-40 17 -71 17q-103 0 -103 -145v-40h122v-89h-122v-366h-125v366h-71v67l71 25v28q0 117 63.5 183.5t165.5 66.5q64 0 127 -30l67 11v-717h-124z" />
    <glyph glyph-name="f_f_i" unicode="ffi" horiz-adv-x="870" 
d="M682 0v371h-156v-371h-124v371h-184v-371h-125v366h-71v67l71 25v14q0 112 62.5 176t160.5 64q83 0 143 -44q60 68 161 68q37 0 71.5 -10t50.5 -20l16 -9l-44 -88q-43 31 -93 31q-95 0 -95 -135v-50h281v-455h-125zM402 496q0 47 11 86q-44 34 -95 34q-100 0 -100 -135
v-26h184v41z" />
    <glyph glyph-name="f_f_l" unicode="ffl" horiz-adv-x="888" 
d="M700 0v618q-42 22 -78 22q-96 0 -96 -135v-50h122v-89h-122v-366h-124v371h-184v-371h-125v366h-71v67l71 25v14q0 112 62.5 176t160.5 64q83 0 143 -44q60 68 161 68q70 0 126 -32l79 13v-717h-125zM402 496q0 45 11 86q-44 34 -95 34q-100 0 -100 -135v-26h184v41z" />
    <glyph glyph-name="f_j" unicode="fj" horiz-adv-x="572" 
d="M262 -140q57 9 89.5 44t32.5 113v354h-166v-371h-125v366h-71v67l71 25v28q0 117 63.5 183.5t165.5 66.5q39 0 74.5 -10t51.5 -20l17 -9l-44 -88q-47 31 -100 31q-103 0 -103 -145v-40h290v-432q0 -119 -57 -182.5t-151 -77.5z" />
    <glyph glyph-name=".notdef" horiz-adv-x="788" 
d="M93 -53v773h600v-773h-600zM168 147l40 -41l185 186l185 -186l40 41l-185 185l185 186l-39 41l-186 -187l-186 187l-39 -41l185 -186z" />
    <glyph glyph-name=".null" horiz-adv-x="0" 
 />
    <glyph glyph-name="nonmarkingreturn" horiz-adv-x="333" 
 />
    <glyph glyph-name="space" unicode=" " horiz-adv-x="240" 
 />
    <glyph glyph-name="exclam" unicode="!" horiz-adv-x="285" 
d="M94 225l-21 454h143l-23 -454h-99zM64 64q0 32 22.5 55t54.5 23t54.5 -23t22.5 -55q0 -31 -22.5 -53.5t-54.5 -22.5q-31 0 -54 22.5t-23 53.5z" />
    <glyph glyph-name="quotedbl" unicode="&#x22;" horiz-adv-x="387" 
d="M236 402v265h108v-37l-34 -228h-74zM56 402v265h108v-37l-34 -228h-74z" />
    <glyph glyph-name="numbersign" unicode="#" horiz-adv-x="684" 
d="M74 318l11 70h135l39 190h72l-39 -190h142l39 190h73l-39 -190h143l-11 -70h-146l-28 -136h145l-11 -70h-148l-41 -201h-74l42 201h-142l-41 -201h-73l41 201h-129l11 70h133l28 136h-132zM278 318l-28 -136h142l28 136h-142z" />
    <glyph glyph-name="dollar" unicode="$" horiz-adv-x="477" 
d="M36 41l26 103q6 -5 17 -12.5t50 -21t83 -16.5l4 141q-82 28 -127 68t-45 100q0 61 44.5 106t135.5 54l3 88h48l-3 -86q42 -1 79.5 -8.5t54.5 -14.5l16 -7l-32 -99q-48 24 -120 28l-4 -137q84 -28 128.5 -65.5t44.5 -100.5q0 -67 -48.5 -112t-133.5 -54l-2 -84h-48l2 82
q-48 1 -91.5 13t-62.5 24zM325 151q0 24 -14.5 39t-47.5 28l-3 -124q65 7 65 57zM155 411q0 -25 15.5 -39.5t48.5 -28.5l3 121q-67 -6 -67 -53z" />
    <glyph glyph-name="percent" unicode="%" horiz-adv-x="764" 
d="M115 0l473 682l50 -34l-450 -648h-73zM198 352q-71 0 -117.5 46t-46.5 112t46.5 111.5t117.5 45.5q70 0 116.5 -45.5t46.5 -111.5t-46.5 -112t-116.5 -46zM198 425q37 0 60.5 26t23.5 59t-23.5 58.5t-60.5 25.5t-61 -25.5t-24 -58.5t24 -59t61 -26zM404 146
q0 66 46.5 111.5t116.5 45.5q71 0 117.5 -45.5t46.5 -111.5t-46.5 -112t-117.5 -46q-70 0 -116.5 46t-46.5 112zM483 146q0 -34 23.5 -59.5t60.5 -25.5t61 25.5t24 59.5q0 33 -24 58.5t-61 25.5t-60.5 -25.5t-23.5 -58.5z" />
    <glyph glyph-name="ampersand" unicode="&#x26;" horiz-adv-x="704" 
d="M34 166q0 62 35.5 105t98.5 79q-51 89 -51 160q0 69 47.5 119t140.5 50q83 0 130 -42.5t47 -112.5q0 -68 -40 -112t-111 -83q18 -25 36 -44q36 -44 91 -97q78 101 91 267h111q-18 -203 -123 -336q80 -61 138 -80l-42 -81q-75 10 -179 83q-79 -53 -181 -53
q-96 0 -167.5 44t-71.5 134zM271 86q53 0 99 24q-62 54 -114 116l-35 43q-70 -44 -70 -97q0 -41 33.5 -63.5t86.5 -22.5zM245 511q0 -44 32 -103q46 25 70.5 50.5t24.5 59.5q0 27 -17 45t-47 18q-31 0 -47 -20t-16 -50z" />
    <glyph glyph-name="quotesingle" unicode="'" horiz-adv-x="207" 
d="M56 402v265h115v-37l-52 -228h-63z" />
    <glyph glyph-name="parenleft" unicode="(" horiz-adv-x="302" 
d="M44 270q0 74 16 145.5t38.5 120.5t45 88t38.5 58l16 19l87 -29q-6 -7 -15.5 -19t-34.5 -53.5t-44.5 -85t-35 -110.5t-15.5 -134q0 -73 15.5 -144.5t37 -120.5t43.5 -87.5t38 -57.5l15 -18l-86 -33q-6 7 -17 21t-38.5 60t-48.5 96t-38 127.5t-17 156.5z" />
    <glyph glyph-name="parenright" unicode=")" horiz-adv-x="302" 
d="M13 -158q6 7 16 19.5t36 55.5t45.5 89.5t35.5 118.5t16 145q0 67 -15 133t-36 112.5t-42.5 83.5t-36.5 55l-15 18l87 29q6 -7 16.5 -20t37 -56t47 -90t37 -119t16.5 -146q0 -79 -16.5 -156t-40 -129.5t-46.5 -94t-39 -61.5l-17 -20z" />
    <glyph glyph-name="asterisk" unicode="*" horiz-adv-x="501" 
d="M231 533l-38 155h115l-37 -155h-40zM311 486l-19 35l115 110l57 -99zM190 486l-153 46l58 99l115 -110zM292 428l19 34l153 -45l-57 -99zM95 318l-58 99l153 45l20 -34zM193 261l38 154h40l37 -154h-115z" />
    <glyph glyph-name="plus" unicode="+" 
d="M25 215v81h193v202h85v-202h190v-81h-190v-215h-85v215h-193z" />
    <glyph glyph-name="comma" unicode="," horiz-adv-x="248" 
d="M41 107l113 37q46 -64 46 -127q0 -104 -128 -209l-45 45q46 44 58 64q15 26 15 59q0 27 -12.5 54.5t-46.5 76.5z" />
    <glyph glyph-name="hyphen" unicode="-" horiz-adv-x="369" 
d="M52 215v80h265v-80h-265z" />
    <glyph glyph-name="period" unicode="." horiz-adv-x="253" 
d="M49 64q0 32 22.5 55t54.5 23t54.5 -23t22.5 -55q0 -31 -23 -53.5t-54 -22.5t-54 22.5t-23 53.5z" />
    <glyph glyph-name="slash" unicode="/" horiz-adv-x="467" 
d="M20 -196l333 863h84l-332 -863h-85z" />
    <glyph glyph-name="zero" unicode="0" horiz-adv-x="560" 
d="M41 232q0 102 64 178.5t179 76.5q110 0 172.5 -70.5t62.5 -167.5q0 -65 -25.5 -123t-82.5 -98t-134 -40q-110 0 -173 72.5t-63 171.5zM158 235q0 -63 29.5 -106t92.5 -43q64 0 93.5 43t29.5 107t-29.5 108.5t-92.5 44.5q-64 0 -93.5 -44.5t-29.5 -109.5z" />
    <glyph glyph-name="one" unicode="1" horiz-adv-x="427" 
d="M49 0v97h120v277h-116v101h238v-378h110v-97h-352z" />
    <glyph glyph-name="two" unicode="2" horiz-adv-x="464" 
d="M42 0v70q9 6 23.5 17t52.5 42.5t67 60.5t52.5 65t23.5 62q0 30 -19.5 48.5t-51.5 18.5q-23 0 -48.5 -9t-39.5 -19l-14 -9l-49 77q8 7 23 17.5t61 28t92 17.5q77 0 125.5 -43t48.5 -110q0 -62 -46 -118.5t-123 -119.5h211v-96h-389z" />
    <glyph glyph-name="three" unicode="3" horiz-adv-x="411" 
d="M18 -102q24 -2 35 -2q84 0 138.5 33t54.5 94q0 47 -43 68t-101 21h-21v92q54 3 102 40t48 84q0 26 -18 41t-46 15q-23 0 -48.5 -10t-39.5 -20l-14 -11l-55 80q9 7 24.5 17.5t62.5 28.5t93 18q72 0 120.5 -39.5t48.5 -98.5q0 -100 -123 -166q66 -18 102 -61.5t36 -98.5
q0 -101 -90.5 -160.5t-224.5 -59.5q-20 0 -30 1z" />
    <glyph glyph-name="four" unicode="4" horiz-adv-x="538" 
d="M24 13v82l267 383h130v-373h89v-92h-89v-206h-121v206h-276zM144 105h156v236z" />
    <glyph glyph-name="five" unicode="5" horiz-adv-x="411" 
d="M32 -101q28 -2 41 -2q79 0 129 30.5t50 93.5q0 30 -13.5 53t-25.5 35t-48 24.5t-47.5 15t-55.5 10.5q-13 3 -19 4v312h308v-96h-188v-137q46 -12 80.5 -27t67.5 -39t51 -61.5t18 -86.5q0 -107 -85 -166t-220 -59q-21 0 -32 1z" />
    <glyph glyph-name="six" unicode="6" horiz-adv-x="522" 
d="M268 -12q-111 0 -171 83t-60 205q0 76 24.5 146t71.5 126.5t122.5 91.5t169.5 39l8 -97q-216 -16 -260 -201q45 56 127 56q85 0 137.5 -62t52.5 -151q0 -95 -60 -165.5t-162 -70.5zM271 336q-59 0 -108 -49q0 -89 29.5 -145t83.5 -56q41 0 65 35t24 90q0 49 -21 87
t-73 38z" />
    <glyph glyph-name="seven" unicode="7" horiz-adv-x="468" 
d="M48 -179q152 285 257 546h-280v108h421v-73q-112 -283 -278 -606z" />
    <glyph glyph-name="eight" unicode="8" horiz-adv-x="516" 
d="M42 164q0 58 33.5 100t92.5 79q-95 77 -95 162q0 74 54.5 124t140.5 50q79 0 134 -43t55 -118q0 -91 -102 -164q56 -37 88 -76.5t32 -95.5q0 -77 -61.5 -135.5t-157.5 -58.5q-85 0 -149.5 47t-64.5 129zM351 173q0 21 -16 42.5t-34 35t-53 37.5q-47 -30 -72 -57t-25 -61
q0 -37 28.5 -62t67.5 -25q42 0 73 27.5t31 62.5zM197 515q0 -55 76 -107q74 51 74 105q0 32 -21 51.5t-56 19.5t-54 -19.5t-19 -49.5z" />
    <glyph glyph-name="nine" unicode="9" horiz-adv-x="529" 
d="M100 -102q217 16 260 203q-44 -58 -127 -58q-85 0 -137.5 61t-52.5 147q0 94 60 165t162 71q111 0 171 -83t60 -205q0 -75 -24.5 -144t-71.5 -125t-122.5 -90.5t-169.5 -38.5zM263 144q59 0 107 48q-1 86 -30 141.5t-82 55.5q-42 0 -65.5 -35t-23.5 -90q0 -29 6.5 -53.5
t28.5 -45.5t59 -21z" />
    <glyph glyph-name="colon" unicode=":" horiz-adv-x="278" 
d="M139 313q-32 0 -54.5 22.5t-22.5 53.5q0 32 22.5 54.5t54.5 22.5t54.5 -22.5t22.5 -54.5t-22.5 -54t-54.5 -22zM62 64q0 32 22.5 55t54.5 23t54.5 -23t22.5 -55q0 -31 -22.5 -53.5t-54.5 -22.5q-31 0 -54 22.5t-23 53.5z" />
    <glyph glyph-name="semicolon" unicode=";" horiz-adv-x="275" 
d="M55 107l113 37q46 -64 46 -127q0 -104 -128 -209l-45 45q46 44 58 64q15 26 15 59q0 27 -12.5 54.5t-46.5 76.5zM60 388q0 32 22.5 55t54.5 23t54.5 -23t22.5 -55q0 -31 -23 -53.5t-54 -22.5t-54 22.5t-23 53.5z" />
    <glyph glyph-name="less" unicode="&#x3c;" 
d="M26 231v46l426 229l20 -83l-330 -169l330 -180l-20 -81z" />
    <glyph glyph-name="equal" unicode="=" 
d="M41 298v80h438v-80h-438zM41 123v80h438v-80h-438z" />
    <glyph glyph-name="greater" unicode="&#x3e;" 
d="M68 -7l-20 81l329 180l-329 169l20 83l426 -229v-46z" />
    <glyph glyph-name="question" unicode="?" horiz-adv-x="386" 
d="M103 225q-2 12 -2 23q0 40 17.5 78.5t39 63t39 50t17.5 41.5q0 26 -43 56.5t-86 48.5l-43 17l28 111q11 -3 30 -9.5t68 -27.5t86 -44t67.5 -60t30.5 -76q0 -26 -15 -52.5t-37 -50t-44 -48t-37 -56t-15 -65.5h-101zM79 64q0 32 22.5 55t53.5 23q32 0 55 -23t23 -55
q0 -31 -23 -53.5t-55 -22.5q-31 0 -53.5 22.5t-22.5 53.5z" />
    <glyph glyph-name="at" unicode="@" horiz-adv-x="869" 
d="M37 193q0 107 52 199.5t149 150t219 57.5q162 0 265 -94.5t103 -237.5q0 -150 -106 -219q-23 -15 -51 -24.5t-74.5 -19.5t-71.5 -17q-18 70 -19 71q-15 -29 -50 -50t-74 -21q-64 0 -107.5 52.5t-43.5 138.5q0 118 83 190.5t199 72.5q18 0 39 -2t33 -4l13 -2v-261
q0 -20 2 -41t4 -32l2 -11q63 4 95.5 51.5t32.5 118.5q0 112 -73.5 188t-199.5 76q-144 0 -235 -97.5t-91 -230.5q0 -125 81.5 -207t186.5 -88l-15 -81q-148 9 -248 115t-100 259zM401 80q44 0 77 53v224q-57 0 -94.5 -51t-37.5 -122q0 -43 14 -73.5t41 -30.5z" />
    <glyph glyph-name="A" unicode="A" horiz-adv-x="635" 
d="M5 0l251 672h123l251 -672h-131l-54 150h-258l-54 -150h-128zM316 509l-91 -252h181z" />
    <glyph glyph-name="B" unicode="B" horiz-adv-x="603" 
d="M83 0v667h222q119 0 172.5 -46.5t53.5 -113.5q0 -83 -78 -145q42 -20 76 -60.5t34 -107.5q0 -88 -63.5 -141t-164.5 -53h-252zM212 108h108q109 0 109 90q0 40 -27.5 64.5t-81.5 24.5h-108v-179zM212 559v-168h135q4 1 14 9.5t22.5 30.5t12.5 48q0 80 -106 80h-78z" />
    <glyph glyph-name="C" unicode="C" horiz-adv-x="675" 
d="M39 323q0 153 102 254.5t271 101.5q66 0 123.5 -13.5t82.5 -27.5l25 -14l-49 -109q-8 6 -22 14.5t-63 23t-102 14.5q-108 0 -172 -65.5t-64 -167.5q0 -106 67.5 -170t166.5 -64q53 0 101.5 15t71.5 31l22 15l52 -94q-3 -3 -10 -8.5t-31 -19t-51 -24t-71 -19t-92 -8.5
q-152 0 -255 90.5t-103 244.5z" />
    <glyph glyph-name="D" unicode="D" horiz-adv-x="728" 
d="M83 0v667h237q71 0 134 -17.5t116 -54.5t84.5 -101.5t31.5 -149.5q0 -164 -110.5 -254t-293.5 -90h-199zM212 108h60q144 0 212 63t68 167q0 102 -63 161.5t-183 59.5h-94v-451z" />
    <glyph glyph-name="E" unicode="E" horiz-adv-x="550" 
d="M83 0v667h421v-108h-292v-167h230v-107h-230v-177h299v-108h-428z" />
    <glyph glyph-name="F" unicode="F" horiz-adv-x="529" 
d="M83 0v667h419v-108h-290v-172h230v-107h-230v-280h-129z" />
    <glyph glyph-name="G" unicode="G" horiz-adv-x="707" 
d="M38 322q0 96 44 176t132 130.5t205 50.5q61 0 117.5 -12.5t83.5 -24.5l26 -12l-49 -109q-9 5 -24.5 12.5t-63.5 20.5t-95 13q-115 0 -179.5 -68t-64.5 -169q0 -105 70.5 -167.5t178.5 -62.5q23 0 49.5 2.5t41.5 5.5l15 2v147h-134v107h260v-346q-143 -30 -243 -30
q-159 0 -264.5 91.5t-105.5 242.5z" />
    <glyph glyph-name="H" unicode="H" horiz-adv-x="763" 
d="M83 0v667h129v-273h339v273h128v-667h-128v287h-339v-287h-129z" />
    <glyph glyph-name="I" unicode="I" horiz-adv-x="295" 
d="M83 0v667h129v-667h-129z" />
    <glyph glyph-name="J" unicode="J" horiz-adv-x="295" 
d="M-42 -80q126 11 126 190v557h129v-553q0 -57 -9.5 -103.5t-32 -89.5t-66.5 -71.5t-107 -37.5z" />
    <glyph glyph-name="K" unicode="K" horiz-adv-x="624" 
d="M83 0v667h129v-264h18l225 264h159l-275 -312l289 -355h-163l-235 296h-18v-296h-129z" />
    <glyph glyph-name="L" unicode="L" horiz-adv-x="529" 
d="M83 0v667h129v-559h302v-108h-431z" />
    <glyph glyph-name="M" unicode="M" horiz-adv-x="880" 
d="M72 0l24 667h185l161 -463l161 463h182l24 -667h-125l-19 522l-185 -522h-84l-183 521l-17 -521h-124z" />
    <glyph glyph-name="N" unicode="N" horiz-adv-x="747" 
d="M83 0v667h130l325 -470v470h126v-667h-131l-324 467v-467h-126z" />
    <glyph glyph-name="O" unicode="O" horiz-adv-x="801" 
d="M38 332q0 89 41 167t126 129t198 51q162 0 260.5 -96t98.5 -237q0 -93 -44 -174.5t-129.5 -132.5t-194.5 -51q-160 0 -258 101t-98 243zM173 336q0 -94 59.5 -166.5t164.5 -72.5t168 72t63 169q0 95 -60.5 163.5t-166.5 68.5t-167 -69t-61 -165z" />
    <glyph glyph-name="P" unicode="P" horiz-adv-x="586" 
d="M83 0v667h233q122 0 184 -59.5t62 -152.5q0 -105 -69.5 -167t-176.5 -62h-104v-226h-129zM212 334h83q132 0 132 114q0 111 -132 111h-83v-225z" />
    <glyph glyph-name="Q" unicode="Q" horiz-adv-x="801" 
d="M38 332q0 89 41 167t126 129t198 51q162 0 260.5 -96t98.5 -237q0 -115 -68 -210t-183 -131q20 -27 38 -45.5t48 -40t70.5 -32t89.5 -9.5l-18 -115q-28 0 -54 3t-47 7.5t-42 13.5t-36 16t-32 20t-26.5 20.5t-23.5 22t-19.5 20.5t-17 20t-13.5 16l-30 35q-23 28 -63 35
q-136 23 -216.5 117.5t-80.5 222.5zM173 336q0 -95 59.5 -168.5t164.5 -73.5t168 73t63 171q0 95 -60.5 163.5t-166.5 68.5t-167 -69t-61 -165z" />
    <glyph glyph-name="R" unicode="R" horiz-adv-x="630" 
d="M83 0v667h222q123 0 184.5 -55.5t61.5 -143.5q0 -62 -31.5 -109.5t-84.5 -74.5l188 -284h-152l-164 252h-95v-252h-129zM212 359h73q65 0 98 27t33 76q0 97 -132 97h-72v-200z" />
    <glyph glyph-name="S" unicode="S" horiz-adv-x="515" 
d="M39 44l37 114q8 -7 22.5 -17t58 -26t84.5 -15q44 0 74.5 19t30.5 52t-30.5 59t-74 47.5t-87.5 46t-74.5 66.5t-30.5 98q0 80 62 135.5t168 55.5q41 0 86.5 -7.5t70.5 -15.5l24 -7l-21 -116q-78 34 -158 34q-45 0 -73.5 -17.5t-28.5 -48.5q0 -24 16.5 -44.5t42.5 -35.5
t57.5 -30.5t63 -34t57.5 -41t42.5 -57t16.5 -77.5q0 -88 -66.5 -140.5t-165.5 -52.5q-54 0 -105 14t-75 28z" />
    <glyph glyph-name="T" unicode="T" horiz-adv-x="601" 
d="M237 0v559h-220v108h567v-108h-219v-559h-128z" />
    <glyph glyph-name="U" unicode="U" horiz-adv-x="712" 
d="M75 250v417h129v-404q0 -86 41 -126t112 -40t111.5 41.5t40.5 120.5v408h129v-403q0 -130 -80 -203t-202 -73q-126 0 -203.5 63.5t-77.5 198.5z" />
    <glyph glyph-name="V" unicode="V" horiz-adv-x="605" 
d="M241 -5l-236 672h137l163 -479l163 479h132l-236 -672h-123z" />
    <glyph glyph-name="W" unicode="W" horiz-adv-x="969" 
d="M218 -5l-200 672h133l139 -489l145 489h102l145 -489l140 489h129l-201 -672h-131l-135 443l-134 -443h-132z" />
    <glyph glyph-name="X" unicode="X" horiz-adv-x="621" 
d="M15 0l219 331l-219 336h152l145 -231l146 231h148l-219 -333l219 -334h-152l-145 230l-145 -230h-149z" />
    <glyph glyph-name="Y" unicode="Y" horiz-adv-x="608" 
d="M240 0v278l-241 389h151l154 -261l159 261h146l-240 -388v-279h-129z" />
    <glyph glyph-name="Z" unicode="Z" horiz-adv-x="582" 
d="M36 0v78l330 481h-315v108h481v-78l-325 -481h337v-108h-508z" />
    <glyph glyph-name="bracketleft" unicode="[" horiz-adv-x="290" 
d="M74 -162v829h202v-70h-113v-688h113v-71h-202z" />
    <glyph glyph-name="backslash" unicode="\" horiz-adv-x="471" 
d="M362 -196l-332 863h87l333 -863h-88z" />
    <glyph glyph-name="bracketright" unicode="]" horiz-adv-x="288" 
d="M12 -101h113v707h-113v61h202v-829h-202v61z" />
    <glyph glyph-name="asciicircum" unicode="^" horiz-adv-x="471" 
d="M-13 250l214 429h69l214 -429h-90l-160 320l-159 -320h-88z" />
    <glyph glyph-name="underscore" unicode="_" horiz-adv-x="519" 
d="M9 -37h500v-69h-500v69z" />
    <glyph glyph-name="grave" unicode="`" horiz-adv-x="510" 
d="M297 508l-155 199h118l103 -163z" />
    <glyph glyph-name="a" unicode="a" horiz-adv-x="492" 
d="M26 107q0 141 266 176v16q0 38 -12 56.5t-51 18.5q-32 0 -68 -13.5t-56 -26.5l-20 -14l-30 88q9 7 26 16.5t71.5 26t111.5 16.5q85 0 119 -35t34 -113v-176q0 -24 12.5 -37t25.5 -14l13 -2l-36 -97q-96 3 -127 67q-47 -72 -142 -72q-61 0 -99 33.5t-38 85.5zM197 79
q45 0 95 59v73q-139 -20 -139 -94q0 -38 44 -38z" />
    <glyph glyph-name="b" unicode="b" horiz-adv-x="534" 
d="M60 13v684l125 20v-293q43 43 113 43q96 0 148.5 -63t52.5 -159q0 -108 -67 -182.5t-190 -74.5q-34 0 -79.5 6t-73 12t-29.5 7zM275 372q-44 0 -90 -35v-252q28 -9 58 -9q58 0 93 42t35 118q0 64 -26 100t-70 36z" />
    <glyph glyph-name="c" unicode="c" horiz-adv-x="467" 
d="M32 219q0 101 69.5 174.5t179.5 73.5q45 0 85.5 -11.5t58.5 -23.5l18 -11l-44 -91q-47 41 -109 41q-56 0 -92.5 -39t-36.5 -106q0 -64 34.5 -103t90.5 -39q31 0 61 11.5t44 22.5l14 12l38 -84q-6 -6 -17.5 -16t-54.5 -26t-94 -16q-110 0 -177.5 66t-67.5 165z" />
    <glyph glyph-name="d" unicode="d" horiz-adv-x="542" 
d="M34 214q0 104 63 178.5t176 74.5q44 0 79 -14v244l124 20v-578q0 -24 5 -59t11 -58l5 -22l-116 -7q-9 34 -14 66q-41 -71 -139 -71q-87 0 -140.5 65t-53.5 161zM255 81q57 0 97 60v176q0 57 -70 57q-56 0 -87 -39.5t-31 -112.5q0 -66 23.5 -103.5t67.5 -37.5z" />
    <glyph glyph-name="e" unicode="e" horiz-adv-x="493" 
d="M34 225q0 102 63 172t163 70q88 0 141 -58t54 -165l-68 -20l-225 -29q11 -51 44 -81t84 -30q33 0 67.5 14t52.5 28l18 14l32 -88q-3 -3 -8.5 -7t-24.5 -15t-39.5 -19.5t-53 -15.5t-65.5 -7q-111 0 -173 68.5t-62 168.5zM251 374q-39 0 -63 -29.5t-29 -77.5l161 21
q0 3 -0.5 9t-4.5 21t-10.5 26t-20.5 20.5t-33 9.5z" />
    <glyph glyph-name="f" unicode="f" horiz-adv-x="358" 
d="M22 366v67l71 25v38q0 112 61 176t157 64q38 0 72.5 -10t50.5 -20l16 -9l-44 -93q-43 32 -93 32q-95 0 -95 -131v-50h122v-89h-122v-366h-125v366h-71z" />
    <glyph glyph-name="g" unicode="g" horiz-adv-x="513" 
d="M61 79q0 46 72 89q-44 21 -68 58t-24 82q0 74 58.5 116.5t141.5 42.5q31 0 70 -9.5t63 -9.5h57q14 0 29.5 2.5t23.5 5.5l8 2l7 -90h-49q-17 0 -37 3q30 -30 30 -76q0 -66 -63 -106.5t-146 -40.5q-20 0 -29 1q-34 -19 -34 -32q0 -14 101 -40q8 -3 13.5 -4t14 -3.5
t15.5 -4.5q37 -10 58.5 -18t50.5 -23t43.5 -38t14.5 -53q0 -69 -73 -119.5t-180 -50.5q-84 0 -145 31.5t-61 85.5q0 70 110 131q-36 13 -54 29t-18 39zM133 -97q0 -25 27.5 -39t74.5 -14q56 0 93.5 18t37.5 46q0 19 -22 31t-82 29l-49 14q-2 -1 -12.5 -8t-14 -9.5t-12.5 -9
t-13 -10.5l-10.5 -10.5t-9.5 -12t-5.5 -12t-2.5 -13.5zM241 231q37 0 60.5 21t23.5 52q0 30 -22 55t-61 25t-61 -24t-22 -54q0 -29 21.5 -52t60.5 -23z" />
    <glyph glyph-name="h" unicode="h" horiz-adv-x="537" 
d="M63 0v697l125 20v-334q77 84 166 84q124 0 124 -143v-324h-124v271q0 47 -10.5 67.5t-35.5 20.5q-49 0 -120 -76v-283h-125z" />
    <glyph glyph-name="i" unicode="i" horiz-adv-x="251" 
d="M126 554q-32 0 -53 19.5t-21 50.5t21 50.5t53 19.5t52.5 -19.5t20.5 -50.5t-20.5 -50.5t-52.5 -19.5zM63 0v455h125v-455h-125z" />
    <glyph glyph-name="j" unicode="j" horiz-adv-x="251" 
d="M125 554q-32 0 -53 19.5t-21 50.5t21 50.5t53 19.5t52.5 -19.5t20.5 -50.5t-20.5 -50.5t-52.5 -19.5zM63 17v438h125v-432q0 -119 -57 -182.5t-152 -77.5l-37 97q56 9 88.5 44t32.5 113z" />
    <glyph glyph-name="k" unicode="k" 
d="M63 0v697l125 20v-419h16l149 157h158l-200 -199l209 -256h-155l-161 207h-16v-207h-125z" />
    <glyph glyph-name="l" unicode="l" horiz-adv-x="251" 
d="M63 0v697l125 20v-717h-125z" />
    <glyph glyph-name="m" unicode="m" horiz-adv-x="815" 
d="M61 0v445l120 20v-83q78 85 167 85q94 0 116 -86q81 86 169 86q123 0 123 -143v-324h-124v271q0 47 -10.5 67.5t-35.5 20.5q-45 0 -115 -70v-289h-124v271q0 47 -10.5 67.5t-35.5 20.5q-46 0 -115 -71v-288h-125z" />
    <glyph glyph-name="n" unicode="n" horiz-adv-x="535" 
d="M61 0v445l120 20v-84q79 86 172 86q123 0 123 -143v-324h-124v271q0 47 -10.5 67.5t-35.5 20.5q-48 0 -120 -72v-287h-125z" />
    <glyph glyph-name="o" unicode="o" horiz-adv-x="558" 
d="M33 226q0 45 14.5 86t43 76.5t77.5 57t113 21.5q116 0 180 -68t64 -162q0 -44 -14 -86t-42.5 -79.5t-78 -60.5t-113.5 -23q-116 0 -180 70t-64 168zM162 235q0 -64 30.5 -109t87.5 -45q50 0 83 40t33 103q0 60 -30 105t-87 45q-50 0 -83.5 -39t-33.5 -100z" />
    <glyph glyph-name="p" unicode="p" horiz-adv-x="538" 
d="M61 -235v680l120 20v-74q39 76 131 76q87 0 139 -64.5t52 -160.5q0 -104 -61 -179t-169 -75q-56 0 -87 19v-222zM288 369q-55 0 -102 -68v-179q0 -19 17.5 -30t48.5 -11q55 0 88.5 39.5t33.5 113.5q0 63 -23.5 99t-62.5 36z" />
    <glyph glyph-name="q" unicode="q" horiz-adv-x="535" 
d="M34 210q0 108 67 182.5t190 74.5q35 0 80.5 -6.5t73.5 -12.5l28 -6v-657l-124 -20v266q-41 -43 -114 -43q-95 0 -148 63.5t-53 158.5zM259 86q44 0 90 33v250q-29 10 -58 10q-58 0 -93 -42t-35 -118q0 -63 25.5 -98t70.5 -35z" />
    <glyph glyph-name="r" unicode="r" horiz-adv-x="365" 
d="M61 0v445l120 20v-94q57 96 136 96q11 0 21 -2t14 -4l4 -2l-20 -120q-21 9 -43 9q-56 0 -107 -75v-273h-125z" />
    <glyph glyph-name="s" unicode="s" horiz-adv-x="412" 
d="M32 28l26 102q6 -5 17 -13t44.5 -21t66.5 -13q71 0 71 39q0 20 -33.5 39t-73.5 34t-73.5 49.5t-33.5 81.5q0 60 46.5 100.5t142.5 40.5q37 0 71 -6.5t49 -12.5l15 -6l-26 -101q-50 31 -109 31q-65 0 -65 -36q0 -17 22 -31t53.5 -27.5t62.5 -30.5t53 -46t22 -68
q0 -65 -50 -105t-139 -40q-44 0 -83.5 10t-57.5 20z" />
    <glyph glyph-name="t" unicode="t" horiz-adv-x="397" 
d="M92 128v238h-71v67l75 25v106l121 24v-133h139v-89h-139v-208q0 -68 47 -68q31 0 88 39l34 -91q-7 -6 -20.5 -14t-53 -22t-78.5 -14q-65 0 -103.5 36t-38.5 104z" />
    <glyph glyph-name="u" unicode="u" horiz-adv-x="535" 
d="M58 125v330h125v-271q0 -46 9.5 -67t37.5 -21q45 0 115 62v297h124v-316q0 -24 5 -58.5t10 -56.5l5 -22l-120 -11q-10 44 -14 77q-77 -80 -172 -80q-57 0 -91 33.5t-34 103.5z" />
    <glyph glyph-name="v" unicode="v" horiz-adv-x="475" 
d="M176 -3l-170 458h131l98 -295l110 295h126l-182 -458h-113z" />
    <glyph glyph-name="w" unicode="w" horiz-adv-x="767" 
d="M160 -3l-147 458h128l87 -316l104 316h106l102 -316l89 316h125l-148 -458h-121l-102 297l-101 -297h-122z" />
    <glyph glyph-name="x" unicode="x" horiz-adv-x="482" 
d="M14 0l156 227l-156 228h142l87 -133l87 133h138l-157 -225l157 -230h-139l-89 136l-91 -136h-135z" />
    <glyph glyph-name="y" unicode="y" horiz-adv-x="475" 
d="M10 -141q49 6 92 39.5t61 75.5l16 38l-175 443h130l106 -298l104 298h126l-189 -488q-31 -79 -92 -137.5t-141 -66.5z" />
    <glyph glyph-name="z" unicode="z" horiz-adv-x="450" 
d="M36 0v76l208 283h-200v96h362v-76l-212 -283h220v-96h-378z" />
    <glyph glyph-name="braceleft" unicode="{" horiz-adv-x="336" 
d="M124 -66v15q0 36 -0.5 57t-3 59t-10 61.5t-19.5 49t-32.5 38.5t-47.5 14v69q27 1 47.5 13t32.5 37t19.5 47t10 59.5t3 56.5t0.5 56v15q0 81 58 120.5t155 39.5v-66q-43 -3 -67.5 -11t-37.5 -27.5t-16 -42t-3 -66.5q0 -224 -104 -264v-2q104 -40 104 -275q0 -44 3 -66.5
t16 -41.5t37.5 -27t67.5 -12v-66q-213 0 -213 160z" />
    <glyph glyph-name="bar" unicode="|" horiz-adv-x="236" 
d="M73 -225v974h90v-974h-90z" />
    <glyph glyph-name="braceright" unicode="}" horiz-adv-x="336" 
d="M123 -13q0 235 104 275v2q-104 40 -104 264q0 44 -3 66.5t-16 42t-37.5 27.5t-67.5 11v66q98 0 155.5 -39.5t57.5 -120.5q0 -131 13 -184q25 -98 100 -100v-69q-27 -1 -47.5 -14t-32.5 -39t-19.5 -49t-10 -62t-3 -58.5t-0.5 -56.5v-15q0 -160 -213 -160v66q43 4 67.5 12
t37.5 27t16 41.5t3 66.5z" />
    <glyph glyph-name="asciitilde" unicode="~" horiz-adv-x="581" 
d="M54 168q0 86 37 127.5t103 41.5q32 0 57.5 -9.5t41 -23.5t29 -28t29.5 -23.5t34 -9.5q35 0 49 28t14 62h82q0 -86 -37 -127.5t-103 -41.5q-32 0 -57.5 9.5t-41 23.5t-29 28t-29.5 23.5t-34 9.5q-35 0 -49 -28t-14 -62h-82z" />
    <glyph glyph-name="uni00A0" unicode="&#xa0;" horiz-adv-x="240" 
 />
    <glyph glyph-name="exclamdown" unicode="&#xa1;" horiz-adv-x="283" 
d="M192 229l21 -454h-143l23 454h99zM222 390q0 -32 -22.5 -55t-54.5 -23t-54.5 23t-22.5 55q0 31 22.5 53.5t54.5 22.5q31 0 54 -22.5t23 -53.5z" />
    <glyph glyph-name="cent" unicode="&#xa2;" horiz-adv-x="474" 
d="M225 -22l3 89q-88 10 -140 69t-52 142q0 85 55.5 147t153.5 69l4 88h48l-4 -88q43 -4 78.5 -18t49.5 -26l14 -13l-61 -77q-35 29 -85 36l-9 -232q28 2 55.5 13t41.5 21l14 10l38 -84q-6 -6 -17 -14.5t-51 -24.5t-85 -19l-3 -88h-48zM158 282q0 -41 19.5 -72t54.5 -41
l9 225q-38 -8 -60.5 -37.5t-22.5 -74.5z" />
    <glyph glyph-name="sterling" unicode="&#xa3;" horiz-adv-x="553" 
d="M57 239v58h67l10 80q10 89 59 141t137 52q45 0 84 -14.5t55 -29.5l16 -14l-61 -77q-38 39 -95 39q-34 0 -51.5 -21.5t-23.5 -78.5l-8 -77h168l-7 -58h-166q-4 -37 -12 -71.5t-14 -50.5l-6 -16q52 -28 114 -28q51 0 75.5 20t28.5 73h88q-9 -87 -45 -139t-118 -52
q-44 0 -109 21.5t-95 21.5q-33 0 -92 -18l-20 62q3 1 7 3t15.5 9.5t20.5 16.5t17.5 24.5t10.5 33.5l10 90h-60z" />
    <glyph glyph-name="yen" unicode="&#xa5;" horiz-adv-x="567" 
d="M76 272v58h92l-132 228h132l115 -213l118 213h126l-132 -228h103v-58h-137l-17 -30v-42h154v-58h-154v-142h-124v142h-144v58h144v41l-18 31h-126z" />
    <glyph glyph-name="brokenbar" unicode="&#xa6;" horiz-adv-x="236" 
d="M73 333v358h91v-358h-91zM73 178h91v-358h-91v358z" />
    <glyph glyph-name="section" unicode="&#xa7;" horiz-adv-x="493" 
d="M139 -77q17 40 17 92q0 26 -5 56l-58 325q-6 33 -6 66q0 94 48.5 155.5t143.5 61.5q44 0 87.5 -13t65.5 -26l21 -13l-30 -66q-67 47 -142 47q-56 0 -85.5 -42t-29.5 -107q0 -31 5 -55l53 -288q10 -60 10 -101q0 -66 -25 -103zM58 -119q67 -47 142 -47q56 0 85.5 41.5
t29.5 107.5q0 23 -5 55l-52 288q-11 64 -11 101q0 67 26 103l69 -11q-17 -37 -17 -92q0 -26 5 -56l58 -325q6 -33 6 -67q0 -94 -48.5 -155t-143.5 -61q-44 0 -87.5 13t-64.5 26l-22 13z" />
    <glyph glyph-name="dieresis" unicode="&#xa8;" horiz-adv-x="510" 
d="M361 559q-29 0 -47.5 17.5t-18.5 46.5t18.5 46.5t47.5 17.5q30 0 48.5 -17.5t18.5 -46.5t-18.5 -46.5t-48.5 -17.5zM148 559q-29 0 -47.5 17.5t-18.5 46.5t18.5 46.5t47.5 17.5q30 0 48.5 -17.5t18.5 -46.5t-18.5 -46.5t-48.5 -17.5z" />
    <glyph glyph-name="copyright" unicode="&#xa9;" horiz-adv-x="766" 
d="M38 333q0 143 101 244t244 101t244 -101t101 -244t-101 -244t-244 -101t-244 101t-101 244zM94 333q0 -122 84 -208t205 -86t205 86t84 208t-84 208t-205 86t-205 -86t-84 -208zM190 332q0 82 54.5 144t148.5 62q44 0 80.5 -15t50.5 -30l14 -15l-45 -65q-4 5 -12 13
t-34 21t-54 13q-53 0 -82 -35t-29 -86q0 -53 31.5 -90t85.5 -37q30 0 57.5 12t39.5 24l13 12l27 -68q-5 -6 -15.5 -16t-47.5 -26t-81 -16q-88 0 -145 57t-57 141z" />
    <glyph glyph-name="ordfeminine" unicode="&#xaa;" horiz-adv-x="393" 
d="M137 343q-45 0 -72.5 23.5t-27.5 61.5q0 99 187 124v10q0 23 -7.5 35t-32.5 12q-24 0 -50.5 -10.5t-41.5 -20.5l-14 -10l-21 69q7 5 19 11.5t52 18t82 11.5q62 0 86.5 -25t24.5 -78v-123q0 -17 9 -26.5t18 -10.5l9 -1l-25 -68q-75 1 -97 42q-34 -45 -98 -45zM164 410
q28 0 60 36v52q-88 -14 -88 -59q0 -29 28 -29z" />
    <glyph glyph-name="guillemotleft" unicode="&#xab;" horiz-adv-x="510" 
d="M212 249v4q15 12 98 106q54 60 92 103l69 -20l-143 -191q6 -9 143 -191l-69 -20q-44 48 -80.5 89t-52.5 59t-28.5 32t-17.5 19t-11 10zM206 40q-44 48 -80.5 89t-52.5 59t-28.5 32t-17.5 19t-11 10v4q15 12 98 106q54 60 92 103l69 -20l-143 -191q6 -9 143 -191z" />
    <glyph glyph-name="logicalnot" unicode="&#xac;" horiz-adv-x="568" 
d="M47 314v80h463v-283h-83v203h-380z" />
    <glyph glyph-name="registered" unicode="&#xae;" horiz-adv-x="422" 
d="M211 358q-71 0 -122 51t-51 122t51 122t122 51t122 -51t51 -122t-51 -122t-122 -51zM211 390q54 0 95 42.5t41 98.5t-41 98t-95 42q-55 0 -95.5 -42t-40.5 -98q0 -57 40.5 -99t95.5 -42zM249 448l-43 62h-13v-62h-46v170h60q70 0 70 -51q0 -31 -30 -47l53 -72h-51z
M193 540h17q20 0 20 23q0 24 -27 24h-10v-47z" />
    <glyph glyph-name="macron" unicode="&#xaf;" horiz-adv-x="471" 
d="M107 577v78h257v-78h-257z" />
    <glyph glyph-name="degree" unicode="&#xb0;" horiz-adv-x="317" 
d="M158 439q-51 0 -86.5 35t-35.5 85t35.5 85t86.5 35t86.5 -35t35.5 -85t-35.5 -85t-86.5 -35zM158 492q27 0 46 19.5t19 47.5t-19 47t-46 19t-46 -19t-19 -47t19 -47.5t46 -19.5z" />
    <glyph glyph-name="plusminus" unicode="&#xb1;" 
d="M45 305v81h173v172h85v-172h170v-81h-170v-170h-85v170h-173zM52 0v80h418v-80h-418z" />
    <glyph glyph-name="twosuperior" unicode="&#xb2;" horiz-adv-x="350" 
d="M34 376l-7 55q11 11 34.5 32.5t36 33.5t32 31.5t30.5 33.5t22.5 30.5t16.5 31.5t5 29q0 50 -56 50q-18 0 -36 -7.5t-27 -15.5l-9 -7l-48 59q5 6 15.5 15t46 24.5t75.5 15.5q60 0 97.5 -33t37.5 -88q0 -90 -136 -217h158v-73h-288z" />
    <glyph glyph-name="threesuperior" unicode="&#xb3;" horiz-adv-x="333" 
d="M144 368q-33 0 -64 9t-46 19l-15 9l40 66q37 -26 79 -26q29 0 45 14.5t16 34.5q0 23 -22.5 34t-51.5 11h-34v73q34 1 62 18.5t28 44.5q0 33 -40 33q-17 0 -34.5 -6t-26.5 -12l-9 -5l-39 60q54 42 130 42q55 0 87.5 -27.5t32.5 -67.5q0 -36 -24 -64.5t-56 -38.5
q98 -21 98 -94q0 -52 -44 -89.5t-112 -37.5z" />
    <glyph glyph-name="acute" unicode="&#xb4;" horiz-adv-x="523" 
d="M214 508l-67 36l103 163h119z" />
    <glyph glyph-name="mu" unicode="&#xb5;" horiz-adv-x="588" 
d="M73 -39v494h125v-271q0 -46 9.5 -67t37.5 -21q47 0 115 62v297h124v-315q0 -41 11 -50.5t54 -9.5v-87q-40 -5 -63 -5q-59 0 -86 20t-35 56q-76 -76 -167 -76q-15 0 -32 3q3 -42 14 -115.5t11 -91.5h-128q10 97 10 177z" />
    <glyph glyph-name="mu" unicode="&#x3bc;" horiz-adv-x="588" 
d="M73 -39v494h125v-271q0 -46 9.5 -67t37.5 -21q47 0 115 62v297h124v-315q0 -41 11 -50.5t54 -9.5v-87q-40 -5 -63 -5q-59 0 -86 20t-35 56q-76 -76 -167 -76q-15 0 -32 3q3 -42 14 -115.5t11 -91.5h-128q10 97 10 177z" />
    <glyph glyph-name="paragraph" unicode="&#xb6;" horiz-adv-x="674" 
d="M207 -164q65 0 94.5 36t29.5 118v189h-9q-142 0 -216.5 71t-74.5 172q0 99 75.5 172t210.5 73h310v-67h-74v-600h-71v600h-75v-620q0 -217 -185 -217z" />
    <glyph glyph-name="periodcentered" unicode="&#xb7;" horiz-adv-x="259" 
d="M129 179q-32 0 -54.5 22.5t-22.5 53.5q0 32 22.5 54.5t54.5 22.5t54.5 -22.5t22.5 -54.5t-22.5 -54t-54.5 -22z" />
    <glyph glyph-name="cedilla" unicode="&#xb8;" horiz-adv-x="510" 
d="M223 -71q0 16 16 48l12 23h61l-9 -19q-9 -20 -9 -27q0 -10 14 -18t30 -14t30 -22.5t14 -40.5q0 -41 -33.5 -68.5t-87.5 -27.5q-28 0 -53 7.5t-36 15.5l-12 8l24 56q34 -29 76 -29q21 0 34 8t13 19q0 10 -13 19t-29 15t-29 18.5t-13 28.5z" />
    <glyph glyph-name="onesuperior" unicode="&#xb9;" horiz-adv-x="314" 
d="M31 376v69h92v266h-84v69h178v-335h84v-69h-270z" />
    <glyph glyph-name="ordmasculine" unicode="&#xba;" horiz-adv-x="428" 
d="M213 343q-84 0 -130.5 49t-46.5 117t45 118.5t135 50.5q83 0 129.5 -47.5t46.5 -113.5q0 -67 -45 -120.5t-134 -53.5zM215 411q33 0 54.5 27.5t21.5 69.5t-19.5 71.5t-57.5 29.5q-33 0 -55 -26.5t-22 -66.5q0 -44 20 -74.5t58 -30.5z" />
    <glyph glyph-name="guillemotright" unicode="&#xbb;" horiz-adv-x="510" 
d="M235 60l143 191q-6 7 -143 191l69 20q174 -195 183 -203q3 -3 7 -6v-4q-6 -5 -11 -10t-17.5 -19t-28.5 -32t-52.5 -59t-80.5 -89zM39 60l144 191q-6 7 -144 191l69 20q174 -195 183 -203q3 -3 7 -6v-4q-6 -5 -11 -10t-17.5 -19t-28.5 -32t-52.5 -59t-80.5 -89z" />
    <glyph glyph-name="onequarter" unicode="&#xbc;" horiz-adv-x="849" 
d="M670 0v90h-175l-8 62l166 254h107v-246h56v-70h-56v-90h-90zM568 160h102v155zM44 264v69h92v266h-84v69h178v-335h84v-69h-270zM293 0h-82l398 692l66 -28z" />
    <glyph glyph-name="onehalf" unicode="&#xbd;" horiz-adv-x="890" 
d="M568 0l-7 55q11 11 34.5 32.5t36 33.5t32 31.5t30.5 33.5t22.5 30.5t16.5 31.5t5 29q0 50 -56 50q-18 0 -36 -7.5t-27 -15.5l-9 -7l-48 59q5 6 15.5 15t46 24.5t75.5 15.5q60 0 97.5 -33t37.5 -88q0 -90 -136 -217h158v-73h-288zM43 264v69h92v266h-84v69h178v-335h84
v-69h-270zM311 0h-82l398 692l66 -28z" />
    <glyph glyph-name="threequarters" unicode="&#xbe;" horiz-adv-x="855" 
d="M676 0v90h-175l-8 62l166 254h107v-246h56v-70h-56v-90h-90zM574 160h102v155zM160 256q-33 0 -64 9t-46 19l-15 9l40 66q37 -26 79 -26q29 0 45 14.5t16 34.5q0 23 -22.5 34t-51.5 11h-34v73q34 1 62 18.5t28 44.5q0 33 -40 33q-17 0 -34.5 -6t-26.5 -12l-9 -5l-39 60
q54 42 130 42q55 0 87.5 -27.5t32.5 -67.5q0 -36 -24 -64.5t-56 -38.5q98 -21 98 -94q0 -52 -44 -89.5t-112 -37.5zM299 0h-82l398 692l66 -28z" />
    <glyph glyph-name="questiondown" unicode="&#xbf;" horiz-adv-x="380" 
d="M282 230q2 -12 2 -24q0 -38 -17.5 -74.5t-39 -60t-39 -47.5t-17.5 -40q0 -26 43 -56.5t86 -47.5l43 -18l-28 -111q-11 3 -30 9.5t-68 27.5t-86 44t-67.5 60t-30.5 76q0 25 15 50t37 47.5t44 46.5t37 54.5t15 63.5h101zM306 390q0 -31 -22.5 -54t-53.5 -23q-32 0 -55 22.5
t-23 54.5t23 54.5t55 22.5q31 0 53.5 -23t22.5 -54z" />
    <glyph glyph-name="Agrave" unicode="&#xc0;" horiz-adv-x="635" 
d="M5 0l251 672h123l251 -672h-131l-54 150h-258l-54 -150h-128zM316 509l-91 -252h181zM177 778l35 92l216 -95l-25 -67z" />
    <glyph glyph-name="Aacute" unicode="&#xc1;" horiz-adv-x="635" 
d="M5 0l251 672h123l251 -672h-131l-54 150h-258l-54 -150h-128zM316 509l-91 -252h181zM228 708l-24 67l216 95l35 -92z" />
    <glyph glyph-name="Acircumflex" unicode="&#xc2;" horiz-adv-x="635" 
d="M5 0l251 672h123l251 -672h-131l-54 150h-258l-54 -150h-128zM316 509l-91 -252h181zM205 718l-65 43l126 110h98l125 -110l-64 -43l-110 88z" />
    <glyph glyph-name="Atilde" unicode="&#xc3;" horiz-adv-x="635" 
d="M5 0l251 672h123l251 -672h-131l-54 150h-258l-54 -150h-128zM316 509l-91 -252h181zM128 727q-1 6 -1 16q0 13 2 26.5t8.5 31t17.5 30.5t32 22.5t49 9.5q37 0 67.5 -16t52 -32t38.5 -16q33 0 33 52v10h77v-15q0 -18 -3.5 -35t-13.5 -39t-34.5 -35.5t-59.5 -13.5
q-30 0 -54.5 10t-38 22t-29.5 22t-31 10q-36 0 -36 -51l1 -9h-77z" />
    <glyph glyph-name="Adieresis" unicode="&#xc4;" horiz-adv-x="635" 
d="M5 0l251 672h123l251 -672h-131l-54 150h-258l-54 -150h-128zM316 509l-91 -252h181zM441 728q-30 0 -49.5 18.5t-19.5 47.5q0 30 19.5 48t49.5 18t49 -18t19 -48q0 -29 -19.5 -47.5t-48.5 -18.5zM190 728q-29 0 -48.5 18.5t-19.5 47.5q0 30 19 48t49 18t49.5 -18
t19.5 -48q0 -29 -19.5 -47.5t-49.5 -18.5z" />
    <glyph glyph-name="Aring" unicode="&#xc5;" horiz-adv-x="635" 
d="M5 0l251 672h123l251 -672h-131l-54 150h-258l-54 -150h-128zM316 509l-91 -252h181zM315 708q-50 0 -75.5 24t-25.5 60q0 32 25.5 55.5t75.5 23.5t75.5 -23.5t25.5 -55.5q0 -36 -25.5 -60t-75.5 -24zM315 748q21 0 33.5 12t12.5 31q0 16 -12 28t-34 12t-33.5 -12
t-11.5 -28q0 -19 11.5 -31t33.5 -12z" />
    <glyph glyph-name="AE" unicode="&#xc6;" horiz-adv-x="900" 
d="M-11 0l376 667h489v-108h-292v-167h230v-107h-230v-177h299v-108h-427v185h-205l-102 -185h-138zM434 555l-145 -262h145v262z" />
    <glyph glyph-name="Ccedilla" unicode="&#xc7;" horiz-adv-x="676" 
d="M322 -71q0 16 16 48l7 14q-133 16 -219 104t-86 228q0 153 102 254.5t271 101.5q66 0 123.5 -13.5t82.5 -27.5l25 -14l-49 -109q-8 6 -22 14.5t-63 23t-102 14.5q-108 0 -172 -65.5t-64 -167.5q0 -106 67.5 -170t166.5 -64q53 0 101.5 15t70.5 31l23 15l52 -94
q-3 -3 -10 -8t-30 -18.5t-49.5 -23.5t-69.5 -19t-89 -10l-3 -7q-9 -20 -9 -27q0 -10 13.5 -18t30.5 -14t30.5 -22.5t13.5 -40.5q0 -41 -33.5 -68.5t-87.5 -27.5q-28 0 -53 7.5t-37 15.5l-11 8l24 56q34 -29 76 -29q21 0 34 8t13 19q0 10 -13 19t-29 15t-29 18.5t-13 28.5z
" />
    <glyph glyph-name="Egrave" unicode="&#xc8;" horiz-adv-x="550" 
d="M159 778l35 92l216 -95l-25 -67zM83 0v667h421v-108h-292v-167h230v-107h-230v-177h299v-108h-428z" />
    <glyph glyph-name="Eacute" unicode="&#xc9;" horiz-adv-x="550" 
d="M83 0v667h421v-108h-292v-167h230v-107h-230v-177h299v-108h-428zM211 708l-24 67l216 95l35 -92z" />
    <glyph glyph-name="Ecircumflex" unicode="&#xca;" horiz-adv-x="550" 
d="M188 718l-65 43l126 110h98l125 -110l-64 -43l-110 88zM83 0v667h421v-108h-292v-167h230v-107h-230v-177h299v-108h-428z" />
    <glyph glyph-name="Edieresis" unicode="&#xcb;" horiz-adv-x="550" 
d="M83 0v667h421v-108h-292v-167h230v-107h-230v-177h299v-108h-428zM424 728q-30 0 -49.5 18.5t-19.5 47.5q0 30 19.5 48t49.5 18t49 -18t19 -48q0 -29 -19.5 -47.5t-48.5 -18.5zM173 728q-29 0 -48.5 18.5t-19.5 47.5q0 30 19 48t49 18t49.5 -18t19.5 -48
q0 -29 -19.5 -47.5t-49.5 -18.5z" />
    <glyph glyph-name="Igrave" unicode="&#xcc;" horiz-adv-x="295" 
d="M83 0v667h129v-667h-129zM11 778l35 92l216 -95l-25 -67z" />
    <glyph glyph-name="Iacute" unicode="&#xcd;" horiz-adv-x="295" 
d="M83 0v667h129v-667h-129zM62 708l-24 67l216 95l35 -92z" />
    <glyph glyph-name="Icircumflex" unicode="&#xce;" horiz-adv-x="295" 
d="M83 0v667h129v-667h-129zM39 718l-65 43l126 110h98l125 -110l-64 -43l-110 88z" />
    <glyph glyph-name="Idieresis" unicode="&#xcf;" horiz-adv-x="295" 
d="M83 0v667h129v-667h-129zM256 732q-29 0 -47.5 17.5t-18.5 46.5t18.5 46.5t47.5 17.5q30 0 48.5 -17.5t18.5 -46.5t-18.5 -46.5t-48.5 -17.5zM43 732q-29 0 -47.5 17.5t-18.5 46.5t18.5 46.5t47.5 17.5q30 0 48.5 -17.5t18.5 -46.5t-18.5 -46.5t-48.5 -17.5z" />
    <glyph glyph-name="Eth" unicode="&#xd0;" horiz-adv-x="743" 
d="M26 289v99h72v279h237q71 0 134 -17.5t116 -54.5t84.5 -101.5t31.5 -149.5q0 -164 -110.5 -254t-293.5 -90h-199v289h-72zM227 108h60q144 0 212 63t68 167q0 102 -63 161.5t-183 59.5h-94v-171h154v-99h-154v-181z" />
    <glyph glyph-name="Ntilde" unicode="&#xd1;" horiz-adv-x="747" 
d="M186 727q-1 6 -1 16q0 13 2 26.5t8.5 31t17.5 30.5t32 22.5t49 9.5q37 0 67.5 -16t52 -32t38.5 -16q33 0 33 52v10h77v-15q0 -18 -3.5 -35t-13.5 -39t-34.5 -35.5t-59.5 -13.5q-30 0 -54.5 10t-38 22t-29.5 22t-31 10q-36 0 -36 -51l1 -9h-77zM83 0v667h130l325 -470v470
h126v-667h-131l-324 467v-467h-126z" />
    <glyph glyph-name="Ograve" unicode="&#xd2;" horiz-adv-x="801" 
d="M261 778l35 92l216 -95l-25 -67zM38 332q0 89 41 167t126 129t198 51q162 0 260.5 -96t98.5 -237q0 -93 -44 -174.5t-129.5 -132.5t-194.5 -51q-160 0 -258 101t-98 243zM173 336q0 -94 59.5 -166.5t164.5 -72.5t168 72t63 169q0 95 -60.5 163.5t-166.5 68.5t-167 -69
t-61 -165z" />
    <glyph glyph-name="Oacute" unicode="&#xd3;" horiz-adv-x="801" 
d="M313 708l-24 67l216 95l35 -92zM38 332q0 89 41 167t126 129t198 51q162 0 260.5 -96t98.5 -237q0 -93 -44 -174.5t-129.5 -132.5t-194.5 -51q-160 0 -258 101t-98 243zM173 336q0 -94 59.5 -166.5t164.5 -72.5t168 72t63 169q0 95 -60.5 163.5t-166.5 68.5t-167 -69
t-61 -165z" />
    <glyph glyph-name="Ocircumflex" unicode="&#xd4;" horiz-adv-x="801" 
d="M290 718l-65 43l126 110h98l125 -110l-64 -43l-110 88zM38 332q0 89 41 167t126 129t198 51q162 0 260.5 -96t98.5 -237q0 -93 -44 -174.5t-129.5 -132.5t-194.5 -51q-160 0 -258 101t-98 243zM173 336q0 -94 59.5 -166.5t164.5 -72.5t168 72t63 169q0 95 -60.5 163.5
t-166.5 68.5t-167 -69t-61 -165z" />
    <glyph glyph-name="Otilde" unicode="&#xd5;" horiz-adv-x="801" 
d="M38 332q0 89 41 167t126 129t198 51q162 0 260.5 -96t98.5 -237q0 -93 -44 -174.5t-129.5 -132.5t-194.5 -51q-160 0 -258 101t-98 243zM173 336q0 -94 59.5 -166.5t164.5 -72.5t168 72t63 169q0 95 -60.5 163.5t-166.5 68.5t-167 -69t-61 -165zM213 727q-1 6 -1 16
q0 13 2 26.5t8.5 31t17.5 30.5t32 22.5t49 9.5q37 0 67.5 -16t52 -32t38.5 -16q33 0 33 52v10h77v-15q0 -18 -3.5 -35t-13.5 -39t-34.5 -35.5t-59.5 -13.5q-30 0 -54.5 10t-38 22t-29.5 22t-31 10q-36 0 -36 -51l1 -9h-77z" />
    <glyph glyph-name="Odieresis" unicode="&#xd6;" horiz-adv-x="801" 
d="M38 332q0 89 41 167t126 129t198 51q162 0 260.5 -96t98.5 -237q0 -93 -44 -174.5t-129.5 -132.5t-194.5 -51q-160 0 -258 101t-98 243zM173 336q0 -94 59.5 -166.5t164.5 -72.5t168 72t63 169q0 95 -60.5 163.5t-166.5 68.5t-167 -69t-61 -165zM526 728
q-30 0 -49.5 18.5t-19.5 47.5q0 30 19.5 48t49.5 18t49 -18t19 -48q0 -29 -19.5 -47.5t-48.5 -18.5zM275 728q-29 0 -48.5 18.5t-19.5 47.5q0 30 19 48t49 18t49.5 -18t19.5 -48q0 -29 -19.5 -47.5t-49.5 -18.5z" />
    <glyph glyph-name="multiply" unicode="&#xd7;" 
d="M35 429l54 56l171 -176l171 176l54 -56l-171 -176l171 -175l-55 -56l-170 175l-170 -175l-55 56l170 175z" />
    <glyph glyph-name="Oslash" unicode="&#xd8;" horiz-adv-x="801" 
d="M38 332q0 89 41 167t126 129t198 51q103 0 184 -42l46 60h79l-71 -94q58 -46 89.5 -113t31.5 -144q0 -93 -44 -174.5t-129.5 -132.5t-194.5 -51q-104 0 -186 46l-49 -64h-80l77 101q-57 48 -87.5 116t-30.5 145zM628 338q0 98 -63 166l-286 -375q51 -32 118 -32
q105 0 168 72t63 169zM173 336q0 -98 58 -166l284 372q-48 28 -114 28q-106 0 -167 -69t-61 -165z" />
    <glyph glyph-name="Ugrave" unicode="&#xd9;" horiz-adv-x="712" 
d="M217 778l35 92l216 -95l-25 -67zM75 250v417h129v-404q0 -86 41 -126t112 -40t111.5 41.5t40.5 120.5v408h129v-403q0 -130 -80 -203t-202 -73q-126 0 -203.5 63.5t-77.5 198.5z" />
    <glyph glyph-name="Uacute" unicode="&#xda;" horiz-adv-x="712" 
d="M75 250v417h129v-404q0 -86 41 -126t112 -40t111.5 41.5t40.5 120.5v408h129v-403q0 -130 -80 -203t-202 -73q-126 0 -203.5 63.5t-77.5 198.5zM269 708l-24 67l216 95l35 -92z" />
    <glyph glyph-name="Ucircumflex" unicode="&#xdb;" horiz-adv-x="712" 
d="M246 718l-65 43l126 110h98l125 -110l-64 -43l-110 88zM75 250v417h129v-404q0 -86 41 -126t112 -40t111.5 41.5t40.5 120.5v408h129v-403q0 -130 -80 -203t-202 -73q-126 0 -203.5 63.5t-77.5 198.5z" />
    <glyph glyph-name="Udieresis" unicode="&#xdc;" horiz-adv-x="712" 
d="M75 250v417h129v-404q0 -86 41 -126t112 -40t111.5 41.5t40.5 120.5v408h129v-403q0 -130 -80 -203t-202 -73q-126 0 -203.5 63.5t-77.5 198.5zM482 728q-30 0 -49.5 18.5t-19.5 47.5q0 30 19.5 48t49.5 18t49 -18t19 -48q0 -29 -19.5 -47.5t-48.5 -18.5zM231 728
q-29 0 -48.5 18.5t-19.5 47.5q0 30 19 48t49 18t49.5 -18t19.5 -48q0 -29 -19.5 -47.5t-49.5 -18.5z" />
    <glyph glyph-name="Yacute" unicode="&#xdd;" horiz-adv-x="608" 
d="M240 0v278l-241 389h151l154 -261l159 261h146l-240 -388v-279h-129zM217 708l-24 67l216 95l35 -92z" />
    <glyph glyph-name="Thorn" unicode="&#xde;" horiz-adv-x="582" 
d="M83 0v667h129v-137h114q119 0 175 -52t56 -135q0 -95 -63.5 -149.5t-167.5 -54.5h-114v-139h-129zM212 247h94q117 0 117 89q0 87 -117 87h-94v-176z" />
    <glyph glyph-name="germandbls" unicode="&#xdf;" horiz-adv-x="597" 
d="M22 366v67l71 25v35q0 111 56 171.5t162 60.5q89 0 141 -41t52 -108q0 -34 -14 -64t-31.5 -47.5t-31.5 -40t-14 -43.5q0 -23 17 -44t41 -39t47.5 -38t40.5 -50.5t17 -68.5q0 -68 -51 -110.5t-138 -42.5q-32 0 -60.5 6t-40.5 12l-13 7l18 99q37 -29 86 -29q33 0 51.5 16
t18.5 41q0 21 -15 38.5t-37 32t-43.5 32t-36.5 46.5t-15 67q0 36 13 66t29 46.5t29 40.5t13 50q0 38 -22 55.5t-55 17.5q-89 0 -89 -135v-497h-125v366h-71z" />
    <glyph glyph-name="agrave" unicode="&#xe0;" horiz-adv-x="492" 
d="M26 107q0 141 266 176v16q0 38 -12 56.5t-51 18.5q-32 0 -68 -13.5t-56 -26.5l-20 -14l-30 88q9 7 26 16.5t71.5 26t111.5 16.5q85 0 119 -35t34 -113v-176q0 -24 12.5 -37t25.5 -14l13 -2l-36 -97q-96 3 -127 67q-47 -72 -142 -72q-61 0 -99 33.5t-38 85.5zM197 79
q45 0 95 59v73q-139 -20 -139 -94q0 -38 44 -38zM226 508l-155 199h118l103 -163z" />
    <glyph glyph-name="aacute" unicode="&#xe1;" horiz-adv-x="492" 
d="M26 107q0 141 266 176v16q0 38 -12 56.5t-51 18.5q-32 0 -68 -13.5t-56 -26.5l-20 -14l-30 88q9 7 26 16.5t71.5 26t111.5 16.5q85 0 119 -35t34 -113v-176q0 -24 12.5 -37t25.5 -14l13 -2l-36 -97q-96 3 -127 67q-47 -72 -142 -72q-61 0 -99 33.5t-38 85.5zM197 79
q45 0 95 59v73q-139 -20 -139 -94q0 -38 44 -38zM238 508l-67 36l103 163h119z" />
    <glyph glyph-name="acircumflex" unicode="&#xe2;" horiz-adv-x="492" 
d="M26 107q0 141 266 176v16q0 38 -12 56.5t-51 18.5q-32 0 -68 -13.5t-56 -26.5l-20 -14l-30 88q9 7 26 16.5t71.5 26t111.5 16.5q85 0 119 -35t34 -113v-176q0 -24 12.5 -37t25.5 -14l13 -2l-36 -97q-96 3 -127 67q-47 -72 -142 -72q-61 0 -99 33.5t-38 85.5zM197 79
q45 0 95 59v73q-139 -20 -139 -94q0 -38 44 -38zM148 507l-69 29l115 171h77l114 -172l-68 -28l-85 119z" />
    <glyph glyph-name="atilde" unicode="&#xe3;" horiz-adv-x="492" 
d="M26 107q0 141 266 176v16q0 38 -12 56.5t-51 18.5q-32 0 -68 -13.5t-56 -26.5l-20 -14l-30 88q9 7 26 16.5t71.5 26t111.5 16.5q85 0 119 -35t34 -113v-176q0 -24 12.5 -37t25.5 -14l13 -2l-36 -97q-96 3 -127 67q-47 -72 -142 -72q-61 0 -99 33.5t-38 85.5zM197 79
q45 0 95 59v73q-139 -20 -139 -94q0 -38 44 -38zM63 547q-1 6 -1 15q0 18 3 35.5t12.5 40t31.5 36.5t54 14q34 0 60.5 -19t45 -38t33.5 -19q29 0 29 57v12h76v-14q0 -18 -3.5 -36t-12.5 -41t-32 -37.5t-56 -14.5q-34 0 -59 19t-42.5 38t-33.5 19q-29 0 -29 -58v-9h-76z" />
    <glyph glyph-name="adieresis" unicode="&#xe4;" horiz-adv-x="492" 
d="M26 107q0 141 266 176v16q0 38 -12 56.5t-51 18.5q-32 0 -68 -13.5t-56 -26.5l-20 -14l-30 88q9 7 26 16.5t71.5 26t111.5 16.5q85 0 119 -35t34 -113v-176q0 -24 12.5 -37t25.5 -14l13 -2l-36 -97q-96 3 -127 67q-47 -72 -142 -72q-61 0 -99 33.5t-38 85.5zM197 79
q45 0 95 59v73q-139 -20 -139 -94q0 -38 44 -38zM338 559q-29 0 -47.5 17.5t-18.5 46.5t18.5 46.5t47.5 17.5q30 0 48.5 -17.5t18.5 -46.5t-18.5 -46.5t-48.5 -17.5zM125 559q-29 0 -47.5 17.5t-18.5 46.5t18.5 46.5t47.5 17.5q30 0 48.5 -17.5t18.5 -46.5t-18.5 -46.5
t-48.5 -17.5z" />
    <glyph glyph-name="aring" unicode="&#xe5;" horiz-adv-x="492" 
d="M26 107q0 141 266 176v16q0 38 -12 56.5t-51 18.5q-32 0 -68 -13.5t-56 -26.5l-20 -14l-30 88q9 7 26 16.5t71.5 26t111.5 16.5q85 0 119 -35t34 -113v-176q0 -24 12.5 -37t25.5 -14l13 -2l-36 -97q-96 3 -127 67q-47 -72 -142 -72q-61 0 -99 33.5t-38 85.5zM197 79
q45 0 95 59v73q-139 -20 -139 -94q0 -38 44 -38zM232 535q-49 0 -75 28t-26 63t26 61.5t75 26.5t75 -26.5t26 -61.5t-26 -63t-75 -28zM232 582q21 0 33.5 13t12.5 30t-12 29.5t-34 12.5t-33.5 -12.5t-11.5 -29.5q0 -18 12 -30.5t33 -12.5z" />
    <glyph glyph-name="ae" unicode="&#xe6;" horiz-adv-x="751" 
d="M85 320l-30 88q9 7 26 16.5t70 26t108 16.5q93 0 124 -58q53 58 135 58q88 0 141 -56.5t54 -161.5l-68 -20l-226 -28q9 -54 43 -85.5t86 -31.5q33 0 67.5 14t52.5 28l18 14l33 -88q-8 -7 -23.5 -17.5t-65.5 -28.5t-103 -18q-124 0 -186 95q-19 -37 -63.5 -66t-109.5 -29
q-64 0 -103 33.5t-39 85.5q0 128 272 160v25q0 43 -12 62.5t-52 19.5q-34 0 -71 -13.5t-57 -26.5zM202 79q40 0 67.5 30t27.5 87q-144 -15 -144 -79q0 -38 49 -38zM509 374q-38 0 -61.5 -27.5t-29.5 -72.5l160 19q0 3 -0.5 8.5t-4.5 19.5t-10.5 24.5t-20.5 19.5t-33 9z" />
    <glyph glyph-name="ccedilla" unicode="&#xe7;" horiz-adv-x="468" 
d="M200 -71q0 16 16 48l8 16q-88 15 -140 77.5t-52 148.5q0 101 69.5 174.5t179.5 73.5q45 0 85.5 -11.5t58.5 -23.5l18 -11l-44 -91q-47 41 -109 41q-56 0 -92.5 -39t-36.5 -106q0 -64 34.5 -103t90.5 -39q31 0 61 11.5t44 22.5l14 12l38 -84q-6 -6 -17 -15.5t-52.5 -25.5
t-90.5 -17l-3 -7q-9 -20 -9 -27q0 -10 13.5 -18t30.5 -14t30.5 -22.5t13.5 -40.5q0 -41 -33.5 -68.5t-87.5 -27.5q-28 0 -53 7.5t-37 15.5l-11 8l24 56q34 -29 76 -29q21 0 34 8t13 19q0 10 -13 19t-29 15t-29 18.5t-13 28.5z" />
    <glyph glyph-name="egrave" unicode="&#xe8;" horiz-adv-x="493" 
d="M34 225q0 102 63 172t163 70q88 0 141 -58t54 -165l-68 -20l-225 -29q11 -51 44 -81t84 -30q33 0 67.5 14t52.5 28l18 14l32 -88q-3 -3 -8.5 -7t-24.5 -15t-39.5 -19.5t-53 -15.5t-65.5 -7q-111 0 -173 68.5t-62 168.5zM251 374q-39 0 -63 -29.5t-29 -77.5l161 21
q0 3 -0.5 9t-4.5 21t-10.5 26t-20.5 20.5t-33 9.5zM245 508l-155 199h118l103 -163z" />
    <glyph glyph-name="eacute" unicode="&#xe9;" horiz-adv-x="493" 
d="M257 508l-67 36l103 163h119zM34 225q0 102 63 172t163 70q88 0 141 -58t54 -165l-68 -20l-225 -29q11 -51 44 -81t84 -30q33 0 67.5 14t52.5 28l18 14l32 -88q-3 -3 -8.5 -7t-24.5 -15t-39.5 -19.5t-53 -15.5t-65.5 -7q-111 0 -173 68.5t-62 168.5zM251 374
q-39 0 -63 -29.5t-29 -77.5l161 21q0 3 -0.5 9t-4.5 21t-10.5 26t-20.5 20.5t-33 9.5z" />
    <glyph glyph-name="ecircumflex" unicode="&#xea;" horiz-adv-x="493" 
d="M168 507l-69 29l115 171h77l114 -172l-68 -28l-85 119zM34 225q0 102 63 172t163 70q88 0 141 -58t54 -165l-68 -20l-225 -29q11 -51 44 -81t84 -30q33 0 67.5 14t52.5 28l18 14l32 -88q-3 -3 -8.5 -7t-24.5 -15t-39.5 -19.5t-53 -15.5t-65.5 -7q-111 0 -173 68.5
t-62 168.5zM251 374q-39 0 -63 -29.5t-29 -77.5l161 21q0 3 -0.5 9t-4.5 21t-10.5 26t-20.5 20.5t-33 9.5z" />
    <glyph glyph-name="edieresis" unicode="&#xeb;" horiz-adv-x="493" 
d="M358 559q-29 0 -47.5 17.5t-18.5 46.5t18.5 46.5t47.5 17.5q30 0 48.5 -17.5t18.5 -46.5t-18.5 -46.5t-48.5 -17.5zM145 559q-29 0 -47.5 17.5t-18.5 46.5t18.5 46.5t47.5 17.5q30 0 48.5 -17.5t18.5 -46.5t-18.5 -46.5t-48.5 -17.5zM34 225q0 102 63 172t163 70
q88 0 141 -58t54 -165l-68 -20l-225 -29q11 -51 44 -81t84 -30q33 0 67.5 14t52.5 28l18 14l32 -88q-3 -3 -8.5 -7t-24.5 -15t-39.5 -19.5t-53 -15.5t-65.5 -7q-111 0 -173 68.5t-62 168.5zM251 374q-39 0 -63 -29.5t-29 -77.5l161 21q0 3 -0.5 9t-4.5 21t-10.5 26
t-20.5 20.5t-33 9.5z" />
    <glyph glyph-name="igrave" unicode="&#xec;" horiz-adv-x="251" 
d="M63 0v455h125v-455h-125zM120 508l-155 199h118l103 -163z" />
    <glyph glyph-name="iacute" unicode="&#xed;" horiz-adv-x="251" 
d="M132 508l-67 36l103 163h119zM63 0v455h125v-455h-125z" />
    <glyph glyph-name="icircumflex" unicode="&#xee;" horiz-adv-x="251" 
d="M42 507l-69 29l115 171h77l114 -172l-68 -28l-85 119zM63 0v455h125v-455h-125z" />
    <glyph glyph-name="idieresis" unicode="&#xef;" horiz-adv-x="251" 
d="M232 559q-29 0 -47.5 17.5t-18.5 46.5t18.5 46.5t47.5 17.5q30 0 48.5 -17.5t18.5 -46.5t-18.5 -46.5t-48.5 -17.5zM19 559q-29 0 -47.5 17.5t-18.5 46.5t18.5 46.5t47.5 17.5q30 0 48.5 -17.5t18.5 -46.5t-18.5 -46.5t-48.5 -17.5zM63 0v455h125v-455h-125z" />
    <glyph glyph-name="eth" unicode="&#xf0;" horiz-adv-x="547" 
d="M123 489l-34 63l98 55q-50 29 -121 46l23 90q112 -21 200 -77l145 82l33 -64l-116 -66q151 -135 151 -336q0 -129 -65 -211.5t-178 -82.5q-105 0 -165.5 67t-60.5 162q0 98 62.5 174t160.5 76q65 0 98 -33q-33 76 -99 130zM156 226q0 -56 27 -100.5t80 -44.5q52 0 86 45
t34 141q0 46 -24.5 76.5t-73.5 30.5q-57 0 -93 -42t-36 -106z" />
    <glyph glyph-name="ntilde" unicode="&#xf1;" horiz-adv-x="535" 
d="M61 0v445l120 20v-84q79 86 172 86q123 0 123 -143v-324h-124v271q0 47 -10.5 67.5t-35.5 20.5q-48 0 -120 -72v-287h-125zM105 547q-1 6 -1 15q0 18 3 35.5t12.5 40t31.5 36.5t54 14q34 0 60.5 -19t45 -38t33.5 -19q29 0 29 57v12h76v-14q0 -18 -3.5 -36t-12.5 -41
t-32 -37.5t-56 -14.5q-34 0 -59 19t-42.5 38t-33.5 19q-29 0 -29 -58v-9h-76z" />
    <glyph glyph-name="ograve" unicode="&#xf2;" horiz-adv-x="558" 
d="M33 226q0 45 14.5 86t43 76.5t77.5 57t113 21.5q116 0 180 -68t64 -162q0 -44 -14 -86t-42.5 -79.5t-78 -60.5t-113.5 -23q-116 0 -180 70t-64 168zM162 235q0 -64 30.5 -109t87.5 -45q50 0 83 40t33 103q0 60 -30 105t-87 45q-50 0 -83.5 -39t-33.5 -100zM274 508
l-155 199h118l103 -163z" />
    <glyph glyph-name="oacute" unicode="&#xf3;" horiz-adv-x="558" 
d="M285 508l-67 36l103 163h119zM33 226q0 45 14.5 86t43 76.5t77.5 57t113 21.5q116 0 180 -68t64 -162q0 -44 -14 -86t-42.5 -79.5t-78 -60.5t-113.5 -23q-116 0 -180 70t-64 168zM162 235q0 -64 30.5 -109t87.5 -45q50 0 83 40t33 103q0 60 -30 105t-87 45
q-50 0 -83.5 -39t-33.5 -100z" />
    <glyph glyph-name="ocircumflex" unicode="&#xf4;" horiz-adv-x="558" 
d="M195 507l-69 29l115 171h77l114 -172l-68 -28l-85 119zM33 226q0 45 14.5 86t43 76.5t77.5 57t113 21.5q116 0 180 -68t64 -162q0 -44 -14 -86t-42.5 -79.5t-78 -60.5t-113.5 -23q-116 0 -180 70t-64 168zM162 235q0 -64 30.5 -109t87.5 -45q50 0 83 40t33 103
q0 60 -30 105t-87 45q-50 0 -83.5 -39t-33.5 -100z" />
    <glyph glyph-name="otilde" unicode="&#xf5;" horiz-adv-x="558" 
d="M33 226q0 45 14.5 86t43 76.5t77.5 57t113 21.5q116 0 180 -68t64 -162q0 -44 -14 -86t-42.5 -79.5t-78 -60.5t-113.5 -23q-116 0 -180 70t-64 168zM162 235q0 -64 30.5 -109t87.5 -45q50 0 83 40t33 103q0 60 -30 105t-87 45q-50 0 -83.5 -39t-33.5 -100zM110 547
q-1 6 -1 15q0 18 3 35.5t12.5 40t31.5 36.5t54 14q34 0 60.5 -19t45 -38t33.5 -19q29 0 29 57v12h76v-14q0 -18 -3.5 -36t-12.5 -41t-32 -37.5t-56 -14.5q-34 0 -59 19t-42.5 38t-33.5 19q-29 0 -29 -58v-9h-76z" />
    <glyph glyph-name="odieresis" unicode="&#xf6;" horiz-adv-x="558" 
d="M385 559q-29 0 -47.5 17.5t-18.5 46.5t18.5 46.5t47.5 17.5q30 0 48.5 -17.5t18.5 -46.5t-18.5 -46.5t-48.5 -17.5zM172 559q-29 0 -47.5 17.5t-18.5 46.5t18.5 46.5t47.5 17.5q30 0 48.5 -17.5t18.5 -46.5t-18.5 -46.5t-48.5 -17.5zM33 226q0 45 14.5 86t43 76.5
t77.5 57t113 21.5q116 0 180 -68t64 -162q0 -44 -14 -86t-42.5 -79.5t-78 -60.5t-113.5 -23q-116 0 -180 70t-64 168zM162 235q0 -64 30.5 -109t87.5 -45q50 0 83 40t33 103q0 60 -30 105t-87 45q-50 0 -83.5 -39t-33.5 -100z" />
    <glyph glyph-name="divide" unicode="&#xf7;" 
d="M260 370q-28 0 -48.5 20.5t-20.5 49.5t20.5 49.5t48.5 20.5q29 0 49.5 -20.5t20.5 -49.5t-20.5 -49.5t-49.5 -20.5zM36 213v81h448v-81h-448zM191 66q0 29 20 49.5t49 20.5t49.5 -20.5t20.5 -49.5t-20.5 -49t-49.5 -20q-28 0 -48.5 20.5t-20.5 48.5z" />
    <glyph glyph-name="oslash" unicode="&#xf8;" horiz-adv-x="558" 
d="M33 226q0 45 14.5 86t43 76.5t77.5 57t113 21.5q67 0 119 -25l33 43h70l-56 -74q78 -66 78 -174q0 -44 -14 -86t-42.5 -79.5t-78 -60.5t-113.5 -23q-69 0 -123 27l-34 -45h-71l58 78q-74 67 -74 178zM396 224q0 50 -21 90l-158 -214q27 -19 63 -19q50 0 83 40t33 103z
M162 235q0 -50 18 -89l157 210q-24 18 -58 18q-50 0 -83.5 -39t-33.5 -100z" />
    <glyph glyph-name="ugrave" unicode="&#xf9;" horiz-adv-x="535" 
d="M58 125v330h125v-271q0 -46 9.5 -67t37.5 -21q45 0 115 62v297h124v-316q0 -24 5 -58.5t10 -56.5l5 -22l-120 -11q-10 44 -14 77q-77 -80 -172 -80q-57 0 -91 33.5t-34 103.5zM258 508l-155 199h118l103 -163z" />
    <glyph glyph-name="uacute" unicode="&#xfa;" horiz-adv-x="535" 
d="M270 508l-67 36l103 163h119zM58 125v330h125v-271q0 -46 9.5 -67t37.5 -21q45 0 115 62v297h124v-316q0 -24 5 -58.5t10 -56.5l5 -22l-120 -11q-10 44 -14 77q-77 -80 -172 -80q-57 0 -91 33.5t-34 103.5z" />
    <glyph glyph-name="ucircumflex" unicode="&#xfb;" horiz-adv-x="535" 
d="M179 507l-69 29l115 171h77l114 -172l-68 -28l-85 119zM58 125v330h125v-271q0 -46 9.5 -67t37.5 -21q45 0 115 62v297h124v-316q0 -24 5 -58.5t10 -56.5l5 -22l-120 -11q-10 44 -14 77q-77 -80 -172 -80q-57 0 -91 33.5t-34 103.5z" />
    <glyph glyph-name="udieresis" unicode="&#xfc;" horiz-adv-x="535" 
d="M369 559q-29 0 -47.5 17.5t-18.5 46.5t18.5 46.5t47.5 17.5q30 0 48.5 -17.5t18.5 -46.5t-18.5 -46.5t-48.5 -17.5zM156 559q-29 0 -47.5 17.5t-18.5 46.5t18.5 46.5t47.5 17.5q30 0 48.5 -17.5t18.5 -46.5t-18.5 -46.5t-48.5 -17.5zM58 125v330h125v-271q0 -46 9.5 -67
t37.5 -21q45 0 115 62v297h124v-316q0 -24 5 -58.5t10 -56.5l5 -22l-120 -11q-10 44 -14 77q-77 -80 -172 -80q-57 0 -91 33.5t-34 103.5z" />
    <glyph glyph-name="yacute" unicode="&#xfd;" horiz-adv-x="475" 
d="M10 -141q49 6 92 39.5t61 75.5l16 38l-175 443h130l106 -298l104 298h126l-189 -488q-31 -79 -92 -137.5t-141 -66.5zM246 508l-67 36l103 163h119z" />
    <glyph glyph-name="thorn" unicode="&#xfe;" horiz-adv-x="540" 
d="M63 -235v932l125 20v-322q39 72 126 72t139 -64.5t52 -160.5q0 -104 -61 -179t-169 -75q-56 0 -87 19v-222zM188 123q0 -42 66 -42q55 0 88.5 39.5t33.5 113.5q0 63 -23.5 99t-62.5 36q-55 0 -102 -68v-178z" />
    <glyph glyph-name="ydieresis" unicode="&#xff;" horiz-adv-x="475" 
d="M10 -141q49 6 92 39.5t61 75.5l16 38l-175 443h130l106 -298l104 298h126l-189 -488q-31 -79 -92 -137.5t-141 -66.5zM346 559q-29 0 -47.5 17.5t-18.5 46.5t18.5 46.5t47.5 17.5q30 0 48.5 -17.5t18.5 -46.5t-18.5 -46.5t-48.5 -17.5zM133 559q-29 0 -47.5 17.5
t-18.5 46.5t18.5 46.5t47.5 17.5q30 0 48.5 -17.5t18.5 -46.5t-18.5 -46.5t-48.5 -17.5z" />
    <glyph glyph-name="Amacron" unicode="&#x100;" horiz-adv-x="635" 
d="M5 0l251 672h123l251 -672h-131l-54 150h-258l-54 -150h-128zM316 509l-91 -252h181zM171 757v74h287v-74h-287z" />
    <glyph glyph-name="amacron" unicode="&#x101;" horiz-adv-x="492" 
d="M26 107q0 141 266 176v16q0 38 -12 56.5t-51 18.5q-32 0 -68 -13.5t-56 -26.5l-20 -14l-30 88q9 7 26 16.5t71.5 26t111.5 16.5q85 0 119 -35t34 -113v-176q0 -24 12.5 -37t25.5 -14l13 -2l-36 -97q-96 3 -127 67q-47 -72 -142 -72q-61 0 -99 33.5t-38 85.5zM197 79
q45 0 95 59v73q-139 -20 -139 -94q0 -38 44 -38zM104 577v78h257v-78h-257z" />
    <glyph glyph-name="Abreve" unicode="&#x102;" horiz-adv-x="635" 
d="M5 0l251 672h123l251 -672h-131l-54 150h-258l-54 -150h-128zM316 509l-91 -252h181zM315 715q-79 0 -118.5 44.5t-29.5 113.5h68q-6 -87 80 -87t80 87h68q10 -69 -30 -113.5t-118 -44.5z" />
    <glyph glyph-name="abreve" unicode="&#x103;" horiz-adv-x="492" 
d="M26 107q0 141 266 176v16q0 38 -12 56.5t-51 18.5q-32 0 -68 -13.5t-56 -26.5l-20 -14l-30 88q9 7 26 16.5t71.5 26t111.5 16.5q85 0 119 -35t34 -113v-176q0 -24 12.5 -37t25.5 -14l13 -2l-36 -97q-96 3 -127 67q-47 -72 -142 -72q-61 0 -99 33.5t-38 85.5zM197 79
q45 0 95 59v73q-139 -20 -139 -94q0 -38 44 -38zM232 542q-68 0 -106.5 37.5t-38.5 98.5q0 9 2 27h68v-12q0 -43 21 -62.5t54 -19.5q32 0 53.5 19t21.5 63v12h68q0 -5 0.5 -14t0.5 -13q0 -61 -38 -98.5t-106 -37.5z" />
    <glyph glyph-name="Aogonek" unicode="&#x104;" horiz-adv-x="635" 
d="M5 0l251 672h123l251 -672q-81 -74 -81 -126q0 -30 29.5 -33t52.5 10l9 -74q-41 -14 -84 -14q-47 0 -74.5 23.5t-27.5 65.5q0 21 9.5 43.5t16 32.5t30.5 38t28 34h-39l-54 150h-258l-54 -150h-128zM316 509l-91 -252h181z" />
    <glyph glyph-name="aogonek" unicode="&#x105;" horiz-adv-x="493" 
d="M26 107q0 141 266 176v16q0 38 -12 56.5t-51 18.5q-32 0 -68 -13.5t-56 -26.5l-20 -14l-30 88q9 7 26 16.5t71.5 26t111.5 16.5q85 0 119 -35t34 -113v-176q0 -24 12.5 -37t25.5 -14l13 -2l-36 -96l1 -1q-74 -72 -74 -119q0 -33 36 -33q24 0 46 10l9 -74q-41 -14 -84 -14
q-47 0 -74.5 23.5t-27.5 65.5q0 23 9.5 45t20 36t31 38.5t30.5 37.5q-35 18 -50 51q-47 -72 -142 -72q-61 0 -99 33.5t-38 85.5zM197 79q45 0 95 59v73q-139 -20 -139 -94q0 -38 44 -38z" />
    <glyph glyph-name="Cacute" unicode="&#x106;" horiz-adv-x="675" 
d="M39 323q0 153 102 254.5t271 101.5q66 0 123.5 -13.5t82.5 -27.5l25 -14l-49 -109q-8 6 -22 14.5t-63 23t-102 14.5q-108 0 -172 -65.5t-64 -167.5q0 -106 67.5 -170t166.5 -64q53 0 101.5 15t71.5 31l22 15l52 -94q-3 -3 -10 -8.5t-31 -19t-51 -24t-71 -19t-92 -8.5
q-152 0 -255 90.5t-103 244.5zM286 708l-24 67l216 95l35 -92z" />
    <glyph glyph-name="cacute" unicode="&#x107;" horiz-adv-x="467" 
d="M256 508l-67 36l103 163h119zM32 219q0 101 69.5 174.5t179.5 73.5q45 0 85.5 -11.5t58.5 -23.5l18 -11l-44 -91q-47 41 -109 41q-56 0 -92.5 -39t-36.5 -106q0 -64 34.5 -103t90.5 -39q31 0 61 11.5t44 22.5l14 12l38 -84q-6 -6 -17.5 -16t-54.5 -26t-94 -16
q-110 0 -177.5 66t-67.5 165z" />
    <glyph glyph-name="Ccircumflex" unicode="&#x108;" horiz-adv-x="675" 
d="M39 323q0 153 102 254.5t271 101.5q66 0 123.5 -13.5t82.5 -27.5l25 -14l-49 -109q-8 6 -22 14.5t-63 23t-102 14.5q-108 0 -172 -65.5t-64 -167.5q0 -106 67.5 -170t166.5 -64q53 0 101.5 15t71.5 31l22 15l52 -94q-3 -3 -10 -8.5t-31 -19t-51 -24t-71 -19t-92 -8.5
q-152 0 -255 90.5t-103 244.5zM263 718l-65 43l126 110h98l125 -110l-64 -43l-110 88z" />
    <glyph glyph-name="ccircumflex" unicode="&#x109;" horiz-adv-x="467" 
d="M167 507l-69 29l115 171h77l114 -172l-68 -28l-85 119zM32 219q0 101 69.5 174.5t179.5 73.5q45 0 85.5 -11.5t58.5 -23.5l18 -11l-44 -91q-47 41 -109 41q-56 0 -92.5 -39t-36.5 -106q0 -64 34.5 -103t90.5 -39q31 0 61 11.5t44 22.5l14 12l38 -84q-6 -6 -17.5 -16
t-54.5 -26t-94 -16q-110 0 -177.5 66t-67.5 165z" />
    <glyph glyph-name="Cdotaccent" unicode="&#x10a;" horiz-adv-x="675" 
d="M373 725q-32 0 -52.5 19t-20.5 50t20.5 50.5t52.5 19.5t52.5 -19.5t20.5 -50.5t-20.5 -50t-52.5 -19zM39 323q0 153 102 254.5t271 101.5q66 0 123.5 -13.5t82.5 -27.5l25 -14l-49 -109q-8 6 -22 14.5t-63 23t-102 14.5q-108 0 -172 -65.5t-64 -167.5q0 -106 67.5 -170
t166.5 -64q53 0 101.5 15t71.5 31l22 15l52 -94q-3 -3 -10 -8.5t-31 -19t-51 -24t-71 -19t-92 -8.5q-152 0 -255 90.5t-103 244.5z" />
    <glyph glyph-name="cdotaccent" unicode="&#x10b;" horiz-adv-x="467" 
d="M32 219q0 101 69.5 174.5t179.5 73.5q45 0 85.5 -11.5t58.5 -23.5l18 -11l-44 -91q-47 41 -109 41q-56 0 -92.5 -39t-36.5 -106q0 -64 34.5 -103t90.5 -39q31 0 61 11.5t44 22.5l14 12l38 -84q-6 -6 -17.5 -16t-54.5 -26t-94 -16q-110 0 -177.5 66t-67.5 165zM251 554
q-32 0 -52.5 19.5t-20.5 50.5t20.5 50.5t52.5 19.5t52.5 -19.5t20.5 -50.5t-20.5 -50.5t-52.5 -19.5z" />
    <glyph glyph-name="Ccaron" unicode="&#x10c;" horiz-adv-x="675" 
d="M39 323q0 153 102 254.5t271 101.5q66 0 123.5 -13.5t82.5 -27.5l25 -14l-49 -109q-8 6 -22 14.5t-63 23t-102 14.5q-108 0 -172 -65.5t-64 -167.5q0 -106 67.5 -170t166.5 -64q53 0 101.5 15t71.5 31l22 15l52 -94q-3 -3 -10 -8.5t-31 -19t-51 -24t-71 -19t-92 -8.5
q-152 0 -255 90.5t-103 244.5zM323 718l-125 110l65 43l110 -88l110 88l64 -43l-126 -110h-98z" />
    <glyph glyph-name="ccaron" unicode="&#x10d;" horiz-adv-x="467" 
d="M213 521l-115 171l69 29l84 -120l85 120l68 -28l-114 -172h-77zM32 219q0 101 69.5 174.5t179.5 73.5q45 0 85.5 -11.5t58.5 -23.5l18 -11l-44 -91q-47 41 -109 41q-56 0 -92.5 -39t-36.5 -106q0 -64 34.5 -103t90.5 -39q31 0 61 11.5t44 22.5l14 12l38 -84
q-6 -6 -17.5 -16t-54.5 -26t-94 -16q-110 0 -177.5 66t-67.5 165z" />
    <glyph glyph-name="Dcaron" unicode="&#x10e;" horiz-adv-x="728" 
d="M83 0v667h237q71 0 134 -17.5t116 -54.5t84.5 -101.5t31.5 -149.5q0 -164 -110.5 -254t-293.5 -90h-199zM212 108h60q144 0 212 63t68 167q0 102 -63 161.5t-183 59.5h-94v-451zM309 718l-125 110l65 43l110 -88l110 88l64 -43l-126 -110h-98z" />
    <glyph glyph-name="dcaron" unicode="&#x10f;" horiz-adv-x="542" 
d="M541 540l25 197l119 10l-72 -207h-72zM34 214q0 104 63 178.5t176 74.5q44 0 79 -14v244l124 20v-578q0 -24 5 -59t11 -58l5 -22l-116 -7q-9 34 -14 66q-41 -71 -139 -71q-87 0 -140.5 65t-53.5 161zM255 81q57 0 97 60v176q0 57 -70 57q-56 0 -87 -39.5t-31 -112.5
q0 -66 23.5 -103.5t67.5 -37.5z" />
    <glyph glyph-name="Dcroat" unicode="&#x110;" horiz-adv-x="743" 
d="M26 289v99h72v279h237q71 0 134 -17.5t116 -54.5t84.5 -101.5t31.5 -149.5q0 -164 -110.5 -254t-293.5 -90h-199v289h-72zM227 108h60q144 0 212 63t68 167q0 102 -63 161.5t-183 59.5h-94v-171h154v-99h-154v-181z" />
    <glyph glyph-name="dcroat" unicode="&#x111;" horiz-adv-x="542" 
d="M214 528v60h138v109l124 20v-129h76v-60h-76v-389q0 -24 5 -59t11 -58l5 -22l-116 -7q-9 34 -14 66q-41 -71 -139 -71q-87 0 -140.5 65t-53.5 161q0 104 63 178.5t176 74.5q44 0 79 -14v75h-138zM255 81q57 0 97 60v176q0 57 -70 57q-56 0 -87 -39.5t-31 -112.5
q0 -66 23.5 -103.5t67.5 -37.5z" />
    <glyph glyph-name="Emacron" unicode="&#x112;" horiz-adv-x="550" 
d="M83 0v667h421v-108h-292v-167h230v-107h-230v-177h299v-108h-428zM154 757v74h287v-74h-287z" />
    <glyph glyph-name="emacron" unicode="&#x113;" horiz-adv-x="493" 
d="M34 225q0 102 63 172t163 70q88 0 141 -58t54 -165l-68 -20l-225 -29q11 -51 44 -81t84 -30q33 0 67.5 14t52.5 28l18 14l32 -88q-3 -3 -8.5 -7t-24.5 -15t-39.5 -19.5t-53 -15.5t-65.5 -7q-111 0 -173 68.5t-62 168.5zM251 374q-39 0 -63 -29.5t-29 -77.5l161 21
q0 3 -0.5 9t-4.5 21t-10.5 26t-20.5 20.5t-33 9.5zM122 577v78h257v-78h-257z" />
    <glyph glyph-name="Ebreve" unicode="&#x114;" horiz-adv-x="550" 
d="M83 0v667h421v-108h-292v-167h230v-107h-230v-177h299v-108h-428zM298 715q-79 0 -118.5 44.5t-29.5 113.5h68q-6 -87 80 -87t80 87h68q10 -69 -30 -113.5t-118 -44.5z" />
    <glyph glyph-name="ebreve" unicode="&#x115;" horiz-adv-x="493" 
d="M34 225q0 102 63 172t163 70q88 0 141 -58t54 -165l-68 -20l-225 -29q11 -51 44 -81t84 -30q33 0 67.5 14t52.5 28l18 14l32 -88q-3 -3 -8.5 -7t-24.5 -15t-39.5 -19.5t-53 -15.5t-65.5 -7q-111 0 -173 68.5t-62 168.5zM251 374q-39 0 -63 -29.5t-29 -77.5l161 21
q0 3 -0.5 9t-4.5 21t-10.5 26t-20.5 20.5t-33 9.5zM252 542q-68 0 -106.5 37.5t-38.5 98.5q0 9 2 27h68v-12q0 -43 21 -62.5t54 -19.5q32 0 53.5 19t21.5 63v12h68q0 -5 0.5 -14t0.5 -13q0 -61 -38 -98.5t-106 -37.5z" />
    <glyph glyph-name="Edotaccent" unicode="&#x116;" horiz-adv-x="550" 
d="M298 725q-32 0 -52.5 19t-20.5 50t20.5 50.5t52.5 19.5t52.5 -19.5t20.5 -50.5t-20.5 -50t-52.5 -19zM83 0v667h421v-108h-292v-167h230v-107h-230v-177h299v-108h-428z" />
    <glyph glyph-name="edotaccent" unicode="&#x117;" horiz-adv-x="493" 
d="M34 225q0 102 63 172t163 70q88 0 141 -58t54 -165l-68 -20l-225 -29q11 -51 44 -81t84 -30q33 0 67.5 14t52.5 28l18 14l32 -88q-3 -3 -8.5 -7t-24.5 -15t-39.5 -19.5t-53 -15.5t-65.5 -7q-111 0 -173 68.5t-62 168.5zM251 374q-39 0 -63 -29.5t-29 -77.5l161 21
q0 3 -0.5 9t-4.5 21t-10.5 26t-20.5 20.5t-33 9.5zM252 554q-32 0 -52.5 19.5t-20.5 50.5t20.5 50.5t52.5 19.5t52.5 -19.5t20.5 -50.5t-20.5 -50.5t-52.5 -19.5z" />
    <glyph glyph-name="Eogonek" unicode="&#x118;" horiz-adv-x="550" 
d="M83 0v667h421v-108h-292v-167h230v-107h-230v-177h299v-108q-81 -74 -81 -126q0 -30 29.5 -33t52.5 10l9 -74q-41 -14 -84 -14q-47 0 -74.5 23.5t-27.5 65.5q0 21 9 43t17 33.5t29.5 37t28.5 34.5h-336z" />
    <glyph glyph-name="eogonek" unicode="&#x119;" horiz-adv-x="493" 
d="M34 225q0 102 63 172t163 70q88 0 141 -58t54 -165l-68 -20l-225 -29q11 -51 44 -81t84 -30q33 0 67.5 14t52.5 28l18 14l32 -88q-20 -16 -50 -32q-36 -27 -71 -69t-35 -77q0 -33 37 -33q24 0 46 10l9 -74q-41 -14 -84 -14q-48 0 -75.5 23.5t-27.5 65.5q0 16 3.5 30.5
t13.5 30t15.5 24t21.5 27.5t21 25q-5 -1 -15 -1q-111 0 -173 68.5t-62 168.5zM251 374q-39 0 -63 -29.5t-29 -77.5l161 21q0 3 -0.5 9t-4.5 21t-10.5 26t-20.5 20.5t-33 9.5z" />
    <glyph glyph-name="Ecaron" unicode="&#x11a;" horiz-adv-x="550" 
d="M83 0v667h421v-108h-292v-167h230v-107h-230v-177h299v-108h-428zM248 718l-125 110l65 43l110 -88l110 88l64 -43l-126 -110h-98z" />
    <glyph glyph-name="ecaron" unicode="&#x11b;" horiz-adv-x="493" 
d="M214 521l-115 171l69 29l84 -120l85 120l68 -28l-114 -172h-77zM34 225q0 102 63 172t163 70q88 0 141 -58t54 -165l-68 -20l-225 -29q11 -51 44 -81t84 -30q33 0 67.5 14t52.5 28l18 14l32 -88q-3 -3 -8.5 -7t-24.5 -15t-39.5 -19.5t-53 -15.5t-65.5 -7
q-111 0 -173 68.5t-62 168.5zM251 374q-39 0 -63 -29.5t-29 -77.5l161 21q0 3 -0.5 9t-4.5 21t-10.5 26t-20.5 20.5t-33 9.5z" />
    <glyph glyph-name="Gcircumflex" unicode="&#x11c;" horiz-adv-x="707" 
d="M262 718l-65 43l126 110h98l125 -110l-64 -43l-110 88zM38 322q0 96 44 176t132 130.5t205 50.5q61 0 117.5 -12.5t83.5 -24.5l26 -12l-49 -109q-9 5 -24.5 12.5t-63.5 20.5t-95 13q-115 0 -179.5 -68t-64.5 -169q0 -105 70.5 -167.5t178.5 -62.5q23 0 49.5 2.5t41.5 5.5
l15 2v147h-134v107h260v-346q-143 -30 -243 -30q-159 0 -264.5 91.5t-105.5 242.5z" />
    <glyph glyph-name="gcircumflex" unicode="&#x11d;" horiz-adv-x="513" 
d="M158 507l-69 29l115 171h77l114 -172l-68 -28l-85 119zM61 79q0 46 72 89q-44 21 -68 58t-24 82q0 74 58.5 116.5t141.5 42.5q31 0 70 -9.5t63 -9.5h57q14 0 29.5 2.5t23.5 5.5l8 2l7 -90h-49q-17 0 -37 3q30 -30 30 -76q0 -66 -63 -106.5t-146 -40.5q-20 0 -29 1
q-34 -19 -34 -32q0 -14 101 -40q8 -3 13.5 -4t14 -3.5t15.5 -4.5q37 -10 58.5 -18t50.5 -23t43.5 -38t14.5 -53q0 -69 -73 -119.5t-180 -50.5q-84 0 -145 31.5t-61 85.5q0 70 110 131q-36 13 -54 29t-18 39zM133 -97q0 -25 27.5 -39t74.5 -14q56 0 93.5 18t37.5 46
q0 19 -22 31t-82 29l-49 14q-2 -1 -12.5 -8t-14 -9.5t-12.5 -9t-13 -10.5l-10.5 -10.5t-9.5 -12t-5.5 -12t-2.5 -13.5zM241 231q37 0 60.5 21t23.5 52q0 30 -22 55t-61 25t-61 -24t-22 -54q0 -29 21.5 -52t60.5 -23z" />
    <glyph glyph-name="Gbreve" unicode="&#x11e;" horiz-adv-x="707" 
d="M38 322q0 96 44 176t132 130.5t205 50.5q61 0 117.5 -12.5t83.5 -24.5l26 -12l-49 -109q-9 5 -24.5 12.5t-63.5 20.5t-95 13q-115 0 -179.5 -68t-64.5 -169q0 -105 70.5 -167.5t178.5 -62.5q23 0 49.5 2.5t41.5 5.5l15 2v147h-134v107h260v-346q-143 -30 -243 -30
q-159 0 -264.5 91.5t-105.5 242.5zM372 715q-79 0 -118.5 44.5t-29.5 113.5h68q-6 -87 80 -87t80 87h68q10 -69 -30 -113.5t-118 -44.5z" />
    <glyph glyph-name="gbreve" unicode="&#x11f;" horiz-adv-x="513" 
d="M61 79q0 46 72 89q-44 21 -68 58t-24 82q0 74 58.5 116.5t141.5 42.5q31 0 70 -9.5t63 -9.5h57q14 0 29.5 2.5t23.5 5.5l8 2l7 -90h-49q-17 0 -37 3q30 -30 30 -76q0 -66 -63 -106.5t-146 -40.5q-20 0 -29 1q-34 -19 -34 -32q0 -14 101 -40q8 -3 13.5 -4t14 -3.5
t15.5 -4.5q37 -10 58.5 -18t50.5 -23t43.5 -38t14.5 -53q0 -69 -73 -119.5t-180 -50.5q-84 0 -145 31.5t-61 85.5q0 70 110 131q-36 13 -54 29t-18 39zM133 -97q0 -25 27.5 -39t74.5 -14q56 0 93.5 18t37.5 46q0 19 -22 31t-82 29l-49 14q-2 -1 -12.5 -8t-14 -9.5t-12.5 -9
t-13 -10.5l-10.5 -10.5t-9.5 -12t-5.5 -12t-2.5 -13.5zM241 231q37 0 60.5 21t23.5 52q0 30 -22 55t-61 25t-61 -24t-22 -54q0 -29 21.5 -52t60.5 -23zM242 542q-68 0 -106.5 37.5t-38.5 98.5q0 9 2 27h68v-12q0 -43 21 -62.5t54 -19.5q32 0 53.5 19t21.5 63v12h68
q0 -5 0.5 -14t0.5 -13q0 -61 -38 -98.5t-106 -37.5z" />
    <glyph glyph-name="Gdotaccent" unicode="&#x120;" horiz-adv-x="707" 
d="M372 725q-32 0 -52.5 19t-20.5 50t20.5 50.5t52.5 19.5t52.5 -19.5t20.5 -50.5t-20.5 -50t-52.5 -19zM38 322q0 96 44 176t132 130.5t205 50.5q61 0 117.5 -12.5t83.5 -24.5l26 -12l-49 -109q-9 5 -24.5 12.5t-63.5 20.5t-95 13q-115 0 -179.5 -68t-64.5 -169
q0 -105 70.5 -167.5t178.5 -62.5q23 0 49.5 2.5t41.5 5.5l15 2v147h-134v107h260v-346q-143 -30 -243 -30q-159 0 -264.5 91.5t-105.5 242.5z" />
    <glyph glyph-name="gdotaccent" unicode="&#x121;" horiz-adv-x="513" 
d="M61 79q0 46 72 89q-44 21 -68 58t-24 82q0 74 58.5 116.5t141.5 42.5q31 0 70 -9.5t63 -9.5h57q14 0 29.5 2.5t23.5 5.5l8 2l7 -90h-49q-17 0 -37 3q30 -30 30 -76q0 -66 -63 -106.5t-146 -40.5q-20 0 -29 1q-34 -19 -34 -32q0 -14 101 -40q8 -3 13.5 -4t14 -3.5
t15.5 -4.5q37 -10 58.5 -18t50.5 -23t43.5 -38t14.5 -53q0 -69 -73 -119.5t-180 -50.5q-84 0 -145 31.5t-61 85.5q0 70 110 131q-36 13 -54 29t-18 39zM133 -97q0 -25 27.5 -39t74.5 -14q56 0 93.5 18t37.5 46q0 19 -22 31t-82 29l-49 14q-2 -1 -12.5 -8t-14 -9.5t-12.5 -9
t-13 -10.5l-10.5 -10.5t-9.5 -12t-5.5 -12t-2.5 -13.5zM241 231q37 0 60.5 21t23.5 52q0 30 -22 55t-61 25t-61 -24t-22 -54q0 -29 21.5 -52t60.5 -23zM242 554q-32 0 -52.5 19.5t-20.5 50.5t20.5 50.5t52.5 19.5t52.5 -19.5t20.5 -50.5t-20.5 -50.5t-52.5 -19.5z" />
    <glyph glyph-name="Gcommaaccent" unicode="&#x122;" horiz-adv-x="707" 
d="M324 -49h106q24 -26 24 -72q0 -42 -30 -74.5t-72 -53.5l-47 50q51 23 51 72q0 46 -32 78zM38 322q0 96 44 176t132 130.5t205 50.5q61 0 117.5 -12.5t83.5 -24.5l26 -12l-49 -109q-9 5 -24.5 12.5t-63.5 20.5t-95 13q-115 0 -179.5 -68t-64.5 -169q0 -105 70.5 -167.5
t178.5 -62.5q23 0 49.5 2.5t41.5 5.5l15 2v147h-134v107h260v-346q-143 -30 -243 -30q-159 0 -264.5 91.5t-105.5 242.5z" />
    <glyph glyph-name="gcommaaccent" unicode="&#x123;" horiz-adv-x="513" 
d="M288 512h-106q-24 26 -24 72q0 42 30 74.5t72 53.5l47 -50q-51 -23 -51 -72q0 -46 32 -78zM61 79q0 46 72 89q-44 21 -68 58t-24 82q0 74 58.5 116.5t141.5 42.5q31 0 70 -9.5t63 -9.5h57q14 0 29.5 2.5t23.5 5.5l8 2l7 -90h-49q-17 0 -37 3q30 -30 30 -76
q0 -66 -63 -106.5t-146 -40.5q-20 0 -29 1q-34 -19 -34 -32q0 -14 101 -40q8 -3 13.5 -4t14 -3.5t15.5 -4.5q37 -10 58.5 -18t50.5 -23t43.5 -38t14.5 -53q0 -69 -73 -119.5t-180 -50.5q-84 0 -145 31.5t-61 85.5q0 70 110 131q-36 13 -54 29t-18 39zM133 -97
q0 -25 27.5 -39t74.5 -14q56 0 93.5 18t37.5 46q0 19 -22 31t-82 29l-49 14q-2 -1 -12.5 -8t-14 -9.5t-12.5 -9t-13 -10.5l-10.5 -10.5t-9.5 -12t-5.5 -12t-2.5 -13.5zM241 231q37 0 60.5 21t23.5 52q0 30 -22 55t-61 25t-61 -24t-22 -54q0 -29 21.5 -52t60.5 -23z" />
    <glyph glyph-name="Hcircumflex" unicode="&#x124;" horiz-adv-x="763" 
d="M83 0v667h129v-273h339v273h128v-667h-128v287h-339v-287h-129zM271 718l-65 43l126 110h98l125 -110l-64 -43l-110 88z" />
    <glyph glyph-name="hcircumflex" unicode="&#x125;" horiz-adv-x="537" 
d="M42 744l-69 29l115 171h77l114 -172l-68 -28l-85 119zM63 0v697l125 20v-334q77 84 166 84q124 0 124 -143v-324h-124v271q0 47 -10.5 67.5t-35.5 20.5q-49 0 -120 -76v-283h-125z" />
    <glyph glyph-name="Hbar" unicode="&#x126;" horiz-adv-x="777" 
d="M10 485v59h79v123h129v-123h339v123h128v-123h80v-59h-80v-485h-128v287h-339v-287h-129v485h-79zM218 394h339v91h-339v-91z" />
    <glyph glyph-name="hbar" unicode="&#x127;" horiz-adv-x="537" 
d="M-4 528v60h67v109l125 20v-129h147v-60h-147v-145q77 84 166 84q124 0 124 -143v-324h-124v271q0 47 -10.5 67.5t-35.5 20.5q-49 0 -120 -76v-283h-125v528h-67z" />
    <glyph glyph-name="Itilde" unicode="&#x128;" horiz-adv-x="295" 
d="M83 0v667h129v-667h-129zM-38 727q-1 6 -1 16q0 13 2 26.5t8.5 31t17.5 30.5t32 22.5t49 9.5q37 0 67.5 -16t52 -32t38.5 -16q33 0 33 52v10h77v-15q0 -18 -3.5 -35t-13.5 -39t-34.5 -35.5t-59.5 -13.5q-30 0 -54.5 10t-38 22t-29.5 22t-31 10q-36 0 -36 -51l1 -9h-77z
" />
    <glyph glyph-name="itilde" unicode="&#x129;" horiz-adv-x="251" 
d="M63 0v455h125v-455h-125zM-43 547q-1 6 -1 15q0 18 3 35.5t12.5 40t31.5 36.5t54 14q34 0 60.5 -19t45 -38t33.5 -19q29 0 29 57v12h76v-14q0 -18 -3.5 -36t-12.5 -41t-32 -37.5t-56 -14.5q-34 0 -59 19t-42.5 38t-33.5 19q-29 0 -29 -58v-9h-76z" />
    <glyph glyph-name="Imacron" unicode="&#x12a;" horiz-adv-x="295" 
d="M83 0v667h129v-667h-129zM5 757v74h287v-74h-287z" />
    <glyph glyph-name="imacron" unicode="&#x12b;" horiz-adv-x="251" 
d="M63 0v455h125v-455h-125zM-2 577v78h257v-78h-257z" />
    <glyph glyph-name="Ibreve" unicode="&#x12c;" horiz-adv-x="295" 
d="M83 0v667h129v-667h-129zM149 715q-79 0 -118.5 44.5t-29.5 113.5h68q-6 -87 80 -87t80 87h68q10 -69 -30 -113.5t-118 -44.5z" />
    <glyph glyph-name="ibreve" unicode="&#x12d;" horiz-adv-x="251" 
d="M63 0v455h125v-455h-125zM126 542q-68 0 -106.5 37.5t-38.5 98.5q0 9 2 27h68v-12q0 -43 21 -62.5t54 -19.5q32 0 53.5 19t21.5 63v12h68q0 -5 0.5 -14t0.5 -13q0 -61 -38 -98.5t-106 -37.5z" />
    <glyph glyph-name="Iogonek" unicode="&#x12e;" horiz-adv-x="295" 
d="M83 0v667h129v-667q-81 -74 -81 -126q0 -30 29.5 -33t52.5 10l9 -74q-41 -14 -84 -14q-48 0 -75.5 23.5t-27.5 65.5q0 21 9 43t17 33t30.5 38t28.5 34h-37z" />
    <glyph glyph-name="iogonek" unicode="&#x12f;" horiz-adv-x="251" 
d="M63 0v455h125v-455q-81 -74 -81 -126q0 -30 29.5 -33t52.5 10l9 -74q-41 -14 -84 -14q-48 0 -75.5 23.5t-27.5 65.5q0 21 9 43t17 33t30.5 38t28.5 34h-33zM126 554q-32 0 -53 19.5t-21 50.5t21 50.5t53 19.5t52.5 -19.5t20.5 -50.5t-20.5 -50.5t-52.5 -19.5z" />
    <glyph glyph-name="Idotaccent" unicode="&#x130;" horiz-adv-x="295" 
d="M83 0v667h129v-667h-129zM149 725q-32 0 -52.5 19t-20.5 50t20.5 50.5t52.5 19.5t52.5 -19.5t20.5 -50.5t-20.5 -50t-52.5 -19z" />
    <glyph glyph-name="dotlessi" unicode="&#x131;" horiz-adv-x="251" 
d="M63 0v455h125v-455h-125z" />
    <glyph glyph-name="IJ" unicode="&#x132;" horiz-adv-x="591" 
d="M83 0v667h129v-667h-129zM253 -80q126 11 126 190v557h129v-553q0 -57 -9.5 -103.5t-32 -89.5t-66.5 -71.5t-107 -37.5z" />
    <glyph glyph-name="ij" unicode="&#x133;" horiz-adv-x="503" 
d="M126 554q-32 0 -53 19.5t-21 50.5t21 50.5t53 19.5t52.5 -19.5t20.5 -50.5t-20.5 -50.5t-52.5 -19.5zM63 0v455h125v-455h-125zM376 554q-32 0 -53 19.5t-21 50.5t21 50.5t53 19.5t52.5 -19.5t20.5 -50.5t-20.5 -50.5t-52.5 -19.5zM314 17v438h125v-432
q0 -119 -57 -182.5t-152 -77.5l-37 97q56 9 88.5 44t32.5 113z" />
    <glyph glyph-name="Jcircumflex" unicode="&#x134;" horiz-adv-x="295" 
d="M-42 -80q126 11 126 190v557h129v-553q0 -57 -9.5 -103.5t-32 -89.5t-66.5 -71.5t-107 -37.5zM39 718l-65 43l126 110h98l125 -110l-64 -43l-110 88z" />
    <glyph glyph-name="jcircumflex" unicode="&#x135;" horiz-adv-x="251" 
d="M63 17v438h125v-432q0 -119 -57 -182.5t-152 -77.5l-37 97q56 9 88.5 44t32.5 113zM42 507l-69 29l115 171h77l114 -172l-68 -28l-85 119z" />
    <glyph glyph-name="Kcommaaccent" unicode="&#x136;" horiz-adv-x="622" 
d="M264 -49h106q24 -26 24 -72q0 -42 -30 -74.5t-72 -53.5l-47 50q51 23 51 72q0 46 -32 78zM83 0v667h129v-264h18l225 264h159l-275 -312l289 -355h-163l-235 296h-18v-296h-129z" />
    <glyph glyph-name="kcommaaccent" unicode="&#x137;" 
d="M210 -49h106q24 -26 24 -72q0 -42 -30 -74.5t-72 -53.5l-47 50q51 23 51 72q0 46 -32 78zM63 0v697l125 20v-419h16l149 157h158l-200 -199l209 -256h-155l-161 207h-16v-207h-125z" />
    <glyph glyph-name="kgreenlandic" unicode="&#x138;" 
d="M63 0v455h125v-172h14l156 172h158l-204 -213l203 -242h-155l-155 192h-17v-192h-125z" />
    <glyph glyph-name="Lacute" unicode="&#x139;" horiz-adv-x="529" 
d="M61 708l-24 67l216 95l35 -92zM83 0v667h129v-559h302v-108h-431z" />
    <glyph glyph-name="lacute" unicode="&#x13a;" horiz-adv-x="251" 
d="M132 745l-67 36l103 163h119zM63 0v697l125 20v-717h-125z" />
    <glyph glyph-name="Lcommaaccent" unicode="&#x13b;" horiz-adv-x="530" 
d="M244 -49h106q24 -26 24 -72q0 -42 -30 -74.5t-72 -53.5l-47 50q51 23 51 72q0 46 -32 78zM83 0v667h129v-559h302v-108h-431z" />
    <glyph glyph-name="lcommaaccent" unicode="&#x13c;" horiz-adv-x="251" 
d="M68 -49h106q24 -26 24 -72q0 -42 -30 -74.5t-72 -53.5l-47 50q51 23 51 72q0 46 -32 78zM63 0v697l125 20v-717h-125z" />
    <glyph glyph-name="Lcaron" unicode="&#x13d;" horiz-adv-x="537" 
d="M325 541l25 197l119 10l-72 -207h-72zM83 0v667h129v-559h302v-108h-431z" />
    <glyph glyph-name="lcaron" unicode="&#x13e;" horiz-adv-x="251" 
d="M253 541l25 197l119 10l-72 -207h-72zM63 0v697l125 20v-717h-125z" />
    <glyph glyph-name="Ldot" unicode="&#x13f;" horiz-adv-x="564" 
d="M83 0v667h129v-559h302v-108h-431zM425 283q-32 0 -54.5 22.5t-22.5 53.5q0 32 22.5 54.5t54.5 22.5t54.5 -22.5t22.5 -54.5t-22.5 -54t-54.5 -22z" />
    <glyph glyph-name="ldot" unicode="&#x140;" horiz-adv-x="424" 
d="M63 0v697l125 20v-717h-125zM336 283q-32 0 -54.5 22.5t-22.5 53.5q0 32 22.5 54.5t54.5 22.5t54.5 -22.5t22.5 -54.5t-22.5 -54t-54.5 -22z" />
    <glyph glyph-name="Lslash" unicode="&#x141;" horiz-adv-x="543" 
d="M20 222v83l78 44v318h129v-245l147 84v-84l-147 -84v-230h301v-108h-430v266z" />
    <glyph glyph-name="lslash" unicode="&#x142;" horiz-adv-x="286" 
d="M7 219v83l76 43v352l125 20v-301l76 43v-84l-76 -43v-332h-125v262z" />
    <glyph glyph-name="Nacute" unicode="&#x143;" horiz-adv-x="747" 
d="M286 708l-24 67l216 95l35 -92zM83 0v667h130l325 -470v470h126v-667h-131l-324 467v-467h-126z" />
    <glyph glyph-name="nacute" unicode="&#x144;" horiz-adv-x="535" 
d="M280 508l-67 36l103 163h119zM61 0v445l120 20v-84q79 86 172 86q123 0 123 -143v-324h-124v271q0 47 -10.5 67.5t-35.5 20.5q-48 0 -120 -72v-287h-125z" />
    <glyph glyph-name="Ncommaaccent" unicode="&#x145;" horiz-adv-x="747" 
d="M315 -49h106q24 -26 24 -72q0 -42 -30 -74.5t-72 -53.5l-47 50q51 23 51 72q0 46 -32 78zM83 0v667h130l325 -470v470h126v-667h-131l-324 467v-467h-126z" />
    <glyph glyph-name="ncommaaccent" unicode="&#x146;" horiz-adv-x="535" 
d="M208 -49h106q24 -26 24 -72q0 -42 -30 -74.5t-72 -53.5l-47 50q51 23 51 72q0 46 -32 78zM61 0v445l120 20v-84q79 86 172 86q123 0 123 -143v-324h-124v271q0 47 -10.5 67.5t-35.5 20.5q-48 0 -120 -72v-287h-125z" />
    <glyph glyph-name="Ncaron" unicode="&#x147;" horiz-adv-x="747" 
d="M83 0v667h130l325 -470v470h126v-667h-131l-324 467v-467h-126zM323 718l-125 110l65 43l110 -88l110 88l64 -43l-126 -110h-98z" />
    <glyph glyph-name="ncaron" unicode="&#x148;" horiz-adv-x="535" 
d="M235 521l-115 171l69 29l84 -120l85 120l68 -28l-114 -172h-77zM61 0v445l120 20v-84q79 86 172 86q123 0 123 -143v-324h-124v271q0 47 -10.5 67.5t-35.5 20.5q-48 0 -120 -72v-287h-125z" />
    <glyph glyph-name="napostrophe" unicode="&#x149;" horiz-adv-x="535" 
d="M21 731h106q24 -26 24 -72q0 -42 -30 -74.5t-72 -53.5l-47 50q51 23 51 72q0 46 -32 78zM61 0v445l120 20v-84q79 86 172 86q123 0 123 -143v-324h-124v271q0 47 -10.5 67.5t-35.5 20.5q-48 0 -120 -72v-287h-125z" />
    <glyph glyph-name="Eng" unicode="&#x14a;" horiz-adv-x="746" 
d="M83 0v667h130l325 -470v470h126v-553q0 -57 -9.5 -103.5t-32 -89.5t-66.5 -71.5t-108 -37.5l-40 108q91 8 119 88l-318 459v-467h-126z" />
    <glyph glyph-name="eng" unicode="&#x14b;" horiz-adv-x="535" 
d="M61 0v445l120 20v-84q79 86 172 86q123 0 123 -143v-301q0 -119 -57 -182.5t-151 -77.5l-38 97q57 9 89.5 44t32.5 113v254q0 47 -10.5 67.5t-35.5 20.5q-48 0 -120 -72v-287h-125z" />
    <glyph glyph-name="Omacron" unicode="&#x14c;" horiz-adv-x="801" 
d="M38 332q0 89 41 167t126 129t198 51q162 0 260.5 -96t98.5 -237q0 -93 -44 -174.5t-129.5 -132.5t-194.5 -51q-160 0 -258 101t-98 243zM173 336q0 -94 59.5 -166.5t164.5 -72.5t168 72t63 169q0 95 -60.5 163.5t-166.5 68.5t-167 -69t-61 -165zM256 757v74h287v-74h-287
z" />
    <glyph glyph-name="omacron" unicode="&#x14d;" horiz-adv-x="558" 
d="M151 577v78h257v-78h-257zM33 226q0 45 14.5 86t43 76.5t77.5 57t113 21.5q116 0 180 -68t64 -162q0 -44 -14 -86t-42.5 -79.5t-78 -60.5t-113.5 -23q-116 0 -180 70t-64 168zM162 235q0 -64 30.5 -109t87.5 -45q50 0 83 40t33 103q0 60 -30 105t-87 45q-50 0 -83.5 -39
t-33.5 -100z" />
    <glyph glyph-name="Obreve" unicode="&#x14e;" horiz-adv-x="801" 
d="M38 332q0 89 41 167t126 129t198 51q162 0 260.5 -96t98.5 -237q0 -93 -44 -174.5t-129.5 -132.5t-194.5 -51q-160 0 -258 101t-98 243zM173 336q0 -94 59.5 -166.5t164.5 -72.5t168 72t63 169q0 95 -60.5 163.5t-166.5 68.5t-167 -69t-61 -165zM400 715
q-79 0 -118.5 44.5t-29.5 113.5h68q-6 -87 80 -87t80 87h68q10 -69 -30 -113.5t-118 -44.5z" />
    <glyph glyph-name="obreve" unicode="&#x14f;" horiz-adv-x="558" 
d="M33 226q0 45 14.5 86t43 76.5t77.5 57t113 21.5q116 0 180 -68t64 -162q0 -44 -14 -86t-42.5 -79.5t-78 -60.5t-113.5 -23q-116 0 -180 70t-64 168zM162 235q0 -64 30.5 -109t87.5 -45q50 0 83 40t33 103q0 60 -30 105t-87 45q-50 0 -83.5 -39t-33.5 -100zM279 542
q-68 0 -106.5 37.5t-38.5 98.5q0 9 2 27h68v-12q0 -43 21 -62.5t54 -19.5q32 0 53.5 19t21.5 63v12h68q0 -5 0.5 -14t0.5 -13q0 -61 -38 -98.5t-106 -37.5z" />
    <glyph glyph-name="Ohungarumlaut" unicode="&#x150;" horiz-adv-x="801" 
d="M510 713l-68 36l93 123h116zM321 713l-68 36l87 123h116zM38 332q0 89 41 167t126 129t198 51q162 0 260.5 -96t98.5 -237q0 -93 -44 -174.5t-129.5 -132.5t-194.5 -51q-160 0 -258 101t-98 243zM173 336q0 -94 59.5 -166.5t164.5 -72.5t168 72t63 169q0 95 -60.5 163.5
t-166.5 68.5t-167 -69t-61 -165z" />
    <glyph glyph-name="ohungarumlaut" unicode="&#x151;" horiz-adv-x="558" 
d="M373 508l-62 36l108 163h110zM190 508l-62 36l103 163h110zM33 226q0 45 14.5 86t43 76.5t77.5 57t113 21.5q116 0 180 -68t64 -162q0 -44 -14 -86t-42.5 -79.5t-78 -60.5t-113.5 -23q-116 0 -180 70t-64 168zM162 235q0 -64 30.5 -109t87.5 -45q50 0 83 40t33 103
q0 60 -30 105t-87 45q-50 0 -83.5 -39t-33.5 -100z" />
    <glyph glyph-name="OE" unicode="&#x152;" horiz-adv-x="990" 
d="M38 332q0 89 41 167t126 129t198 51q68 0 125 -12h416v-108h-292v-167h230v-107h-230v-177h299v-108h-428q-67 -12 -129 -12q-160 0 -258 101t-98 243zM173 336q0 -93 59.5 -166t164.5 -73q75 0 126 13v442q-54 18 -122 18q-106 0 -167 -69t-61 -165z" />
    <glyph glyph-name="oe" unicode="&#x153;" horiz-adv-x="853" 
d="M33 226q0 45 14.5 86t43 76.5t77.5 57t113 21.5q114 0 178 -82q61 82 161 82q88 0 141 -58t54 -165l-68 -20l-225 -29q11 -51 44 -81t84 -30q33 0 67.5 14t52.5 28l18 14l32 -88q-3 -3 -8.5 -7t-24.5 -15t-39.5 -19.5t-53 -15.5t-65.5 -7q-111 0 -172 82
q-64 -82 -180 -82t-180 70t-64 168zM162 235q0 -64 30.5 -109t87.5 -45q50 0 83 40t33 103q0 60 -30 105t-87 45q-50 0 -83.5 -39t-33.5 -100zM611 374q-39 0 -63 -29t-29 -77l161 20q0 3 -0.5 9t-4.5 21t-10.5 26t-20.5 20.5t-33 9.5z" />
    <glyph glyph-name="Racute" unicode="&#x154;" horiz-adv-x="630" 
d="M83 0v667h222q123 0 184.5 -55.5t61.5 -143.5q0 -62 -31.5 -109.5t-84.5 -74.5l188 -284h-152l-164 252h-95v-252h-129zM212 359h73q65 0 98 27t33 76q0 97 -132 97h-72v-200zM215 708l-24 67l216 95l35 -92z" />
    <glyph glyph-name="racute" unicode="&#x155;" horiz-adv-x="365" 
d="M212 508l-67 36l103 163h119zM61 0v445l120 20v-94q57 96 136 96q11 0 21 -2t14 -4l4 -2l-20 -120q-21 9 -43 9q-56 0 -107 -75v-273h-125z" />
    <glyph glyph-name="Rcommaaccent" unicode="&#x156;" horiz-adv-x="629" 
d="M277 -49h106q24 -26 24 -72q0 -42 -30 -74.5t-72 -53.5l-47 50q51 23 51 72q0 46 -32 78zM83 0v667h222q123 0 184.5 -55.5t61.5 -143.5q0 -62 -31.5 -109.5t-84.5 -74.5l188 -284h-152l-164 252h-95v-252h-129zM212 359h73q65 0 98 27t33 76q0 97 -132 97h-72v-200z" />
    <glyph glyph-name="rcommaaccent" unicode="&#x157;" horiz-adv-x="365" 
d="M65 -49h106q24 -26 24 -72q0 -42 -30 -74.5t-72 -53.5l-47 50q51 23 51 72q0 46 -32 78zM61 0v445l120 20v-94q57 96 136 96q11 0 21 -2t14 -4l4 -2l-20 -120q-21 9 -43 9q-56 0 -107 -75v-273h-125z" />
    <glyph glyph-name="Rcaron" unicode="&#x158;" horiz-adv-x="630" 
d="M83 0v667h222q123 0 184.5 -55.5t61.5 -143.5q0 -62 -31.5 -109.5t-84.5 -74.5l188 -284h-152l-164 252h-95v-252h-129zM212 359h73q65 0 98 27t33 76q0 97 -132 97h-72v-200zM252 718l-125 110l65 43l110 -88l110 88l64 -43l-126 -110h-98z" />
    <glyph glyph-name="rcaron" unicode="&#x159;" horiz-adv-x="365" 
d="M168 521l-115 171l69 29l84 -120l85 120l68 -28l-114 -172h-77zM61 0v445l120 20v-94q57 96 136 96q11 0 21 -2t14 -4l4 -2l-20 -120q-21 9 -43 9q-56 0 -107 -75v-273h-125z" />
    <glyph glyph-name="Sacute" unicode="&#x15a;" horiz-adv-x="515" 
d="M39 44l37 114q8 -7 22.5 -17t58 -26t84.5 -15q44 0 74.5 19t30.5 52t-30.5 59t-74 47.5t-87.5 46t-74.5 66.5t-30.5 98q0 80 62 135.5t168 55.5q41 0 86.5 -7.5t70.5 -15.5l24 -7l-21 -116q-78 34 -158 34q-45 0 -73.5 -17.5t-28.5 -48.5q0 -24 16.5 -44.5t42.5 -35.5
t57.5 -30.5t63 -34t57.5 -41t42.5 -57t16.5 -77.5q0 -88 -66.5 -140.5t-165.5 -52.5q-54 0 -105 14t-75 28zM179 708l-24 67l216 95l35 -92z" />
    <glyph glyph-name="sacute" unicode="&#x15b;" horiz-adv-x="412" 
d="M215 508l-67 36l103 163h119zM32 28l26 102q6 -5 17 -13t44.5 -21t66.5 -13q71 0 71 39q0 20 -33.5 39t-73.5 34t-73.5 49.5t-33.5 81.5q0 60 46.5 100.5t142.5 40.5q37 0 71 -6.5t49 -12.5l15 -6l-26 -101q-50 31 -109 31q-65 0 -65 -36q0 -17 22 -31t53.5 -27.5
t62.5 -30.5t53 -46t22 -68q0 -65 -50 -105t-139 -40q-44 0 -83.5 10t-57.5 20z" />
    <glyph glyph-name="Scircumflex" unicode="&#x15c;" horiz-adv-x="515" 
d="M39 44l37 114q8 -7 22.5 -17t58 -26t84.5 -15q44 0 74.5 19t30.5 52t-30.5 59t-74 47.5t-87.5 46t-74.5 66.5t-30.5 98q0 80 62 135.5t168 55.5q41 0 86.5 -7.5t70.5 -15.5l24 -7l-21 -116q-78 34 -158 34q-45 0 -73.5 -17.5t-28.5 -48.5q0 -24 16.5 -44.5t42.5 -35.5
t57.5 -30.5t63 -34t57.5 -41t42.5 -57t16.5 -77.5q0 -88 -66.5 -140.5t-165.5 -52.5q-54 0 -105 14t-75 28zM156 718l-65 43l126 110h98l125 -110l-64 -43l-110 88z" />
    <glyph glyph-name="scircumflex" unicode="&#x15d;" horiz-adv-x="412" 
d="M126 507l-69 29l115 171h77l114 -172l-68 -28l-85 119zM32 28l26 102q6 -5 17 -13t44.5 -21t66.5 -13q71 0 71 39q0 20 -33.5 39t-73.5 34t-73.5 49.5t-33.5 81.5q0 60 46.5 100.5t142.5 40.5q37 0 71 -6.5t49 -12.5l15 -6l-26 -101q-50 31 -109 31q-65 0 -65 -36
q0 -17 22 -31t53.5 -27.5t62.5 -30.5t53 -46t22 -68q0 -65 -50 -105t-139 -40q-44 0 -83.5 10t-57.5 20z" />
    <glyph glyph-name="Scedilla" unicode="&#x15e;" horiz-adv-x="516" 
d="M199 -71q0 16 16 48l6 12q-48 3 -93.5 16.5t-67.5 26.5l-21 12l37 114q8 -7 22.5 -17t58 -26t84.5 -15q44 0 74.5 19t30.5 52t-30.5 59t-74 47.5t-87.5 46t-74.5 66.5t-30.5 98q0 80 62 135.5t168 55.5q41 0 86.5 -7.5t70.5 -15.5l24 -7l-21 -116q-78 34 -158 34
q-45 0 -73.5 -17.5t-28.5 -48.5q0 -24 16.5 -44.5t42.5 -35.5t57.5 -30.5t63 -34t57.5 -41t42.5 -57t16.5 -77.5q0 -79 -53.5 -129.5t-138.5 -60.5l-4 -10q-9 -20 -9 -27q0 -10 14 -18t30 -14t30 -22.5t14 -40.5q0 -41 -33.5 -68.5t-87.5 -27.5q-28 0 -53 7.5t-36 15.5
l-12 8l24 56q34 -29 76 -29q21 0 34 8t13 19q0 10 -13 19t-29 15t-29 18.5t-13 28.5z" />
    <glyph glyph-name="scedilla" unicode="&#x15f;" horiz-adv-x="413" 
d="M154 -71q0 16 16 48l6 12q-40 1 -76 11t-52 19l-16 9l26 102q6 -5 17 -13t44.5 -21t66.5 -13q71 0 71 39q0 20 -33.5 39t-73.5 34t-73.5 49.5t-33.5 81.5q0 60 46.5 100.5t142.5 40.5q37 0 71 -6.5t49 -12.5l15 -6l-26 -101q-50 31 -109 31q-65 0 -65 -36q0 -17 22 -31
t53.5 -27.5t62.5 -30.5t53 -46t22 -68q0 -55 -37 -93t-104 -48l-5 -11q-9 -20 -9 -27q0 -10 13.5 -18t30.5 -14t30.5 -22.5t13.5 -40.5q0 -41 -33.5 -68.5t-87.5 -27.5q-28 0 -53 7.5t-37 15.5l-11 8l24 56q34 -29 76 -29q21 0 34 8t13 19q0 10 -13 19t-29 15t-29 18.5
t-13 28.5z" />
    <glyph glyph-name="Scaron" unicode="&#x160;" horiz-adv-x="515" 
d="M39 44l37 114q8 -7 22.5 -17t58 -26t84.5 -15q44 0 74.5 19t30.5 52t-30.5 59t-74 47.5t-87.5 46t-74.5 66.5t-30.5 98q0 80 62 135.5t168 55.5q41 0 86.5 -7.5t70.5 -15.5l24 -7l-21 -116q-78 34 -158 34q-45 0 -73.5 -17.5t-28.5 -48.5q0 -24 16.5 -44.5t42.5 -35.5
t57.5 -30.5t63 -34t57.5 -41t42.5 -57t16.5 -77.5q0 -88 -66.5 -140.5t-165.5 -52.5q-54 0 -105 14t-75 28zM216 718l-125 110l65 43l110 -88l110 88l64 -43l-126 -110h-98z" />
    <glyph glyph-name="scaron" unicode="&#x161;" horiz-adv-x="412" 
d="M172 521l-115 171l69 29l84 -120l85 120l68 -28l-114 -172h-77zM32 28l26 102q6 -5 17 -13t44.5 -21t66.5 -13q71 0 71 39q0 20 -33.5 39t-73.5 34t-73.5 49.5t-33.5 81.5q0 60 46.5 100.5t142.5 40.5q37 0 71 -6.5t49 -12.5l15 -6l-26 -101q-50 31 -109 31
q-65 0 -65 -36q0 -17 22 -31t53.5 -27.5t62.5 -30.5t53 -46t22 -68q0 -65 -50 -105t-139 -40q-44 0 -83.5 10t-57.5 20z" />
    <glyph glyph-name="Tcommaaccent" unicode="&#x162;" horiz-adv-x="601" 
d="M237 0v559h-220v108h567v-108h-219v-559h-24l-9 -19q-9 -20 -9 -27q0 -10 13.5 -18t30.5 -14t30.5 -22.5t13.5 -40.5q0 -41 -33.5 -68.5t-87.5 -27.5q-28 0 -53 7.5t-37 15.5l-11 8l24 56q34 -29 76 -29q21 0 34 8t13 19q0 10 -13 19t-29 15t-29 18.5t-13 28.5t16 48
l12 23h-43z" />
    <glyph glyph-name="tcommaaccent" unicode="&#x163;" horiz-adv-x="401" 
d="M178 -71q0 16 16 48l7 14q-50 8 -78.5 43t-28.5 94v238h-71v67l75 25v106l121 24v-133h139v-89h-139v-208q0 -68 47 -68q31 0 88 39l34 -91q-53 -40 -126 -48l-4 -9q-9 -20 -9 -27q0 -10 13.5 -18t30.5 -14t30.5 -22.5t13.5 -40.5q0 -41 -33.5 -68.5t-87.5 -27.5
q-28 0 -53 7.5t-37 15.5l-11 8l24 56q34 -29 76 -29q21 0 34 8t13 19q0 10 -13 19t-29 15t-29 18.5t-13 28.5z" />
    <glyph glyph-name="Tcaron" unicode="&#x164;" horiz-adv-x="601" 
d="M237 0v559h-220v108h567v-108h-219v-559h-128zM248 718l-125 110l65 43l110 -88l110 88l64 -43l-126 -110h-98z" />
    <glyph glyph-name="tcaron" unicode="&#x165;" horiz-adv-x="397" 
d="M289 541l25 197l119 10l-72 -207h-72zM92 128v238h-71v67l75 25v106l121 24v-133h139v-89h-139v-208q0 -68 47 -68q31 0 88 39l34 -91q-7 -6 -20.5 -14t-53 -22t-78.5 -14q-65 0 -103.5 36t-38.5 104z" />
    <glyph glyph-name="Tbar" unicode="&#x166;" horiz-adv-x="601" 
d="M78 307v60h159v192h-220v108h567v-108h-219v-192h160v-60h-160v-307h-128v307h-159z" />
    <glyph glyph-name="tbar" unicode="&#x167;" horiz-adv-x="400" 
d="M23 228v60h70v78h-71v67l75 25v106l121 24v-133h139v-89h-139v-78h140v-60h-140v-70q0 -68 47 -68q31 0 88 39l34 -91q-7 -6 -20.5 -14t-53 -22t-78.5 -14q-65 0 -103.5 36t-38.5 104v100h-70z" />
    <glyph glyph-name="Utilde" unicode="&#x168;" horiz-adv-x="712" 
d="M75 250v417h129v-404q0 -86 41 -126t112 -40t111.5 41.5t40.5 120.5v408h129v-403q0 -130 -80 -203t-202 -73q-126 0 -203.5 63.5t-77.5 198.5zM169 727q-1 6 -1 16q0 13 2 26.5t8.5 31t17.5 30.5t32 22.5t49 9.5q37 0 67.5 -16t52 -32t38.5 -16q33 0 33 52v10h77v-15
q0 -18 -3.5 -35t-13.5 -39t-34.5 -35.5t-59.5 -13.5q-30 0 -54.5 10t-38 22t-29.5 22t-31 10q-36 0 -36 -51l1 -9h-77z" />
    <glyph glyph-name="utilde" unicode="&#x169;" horiz-adv-x="535" 
d="M58 125v330h125v-271q0 -46 9.5 -67t37.5 -21q45 0 115 62v297h124v-316q0 -24 5 -58.5t10 -56.5l5 -22l-120 -11q-10 44 -14 77q-77 -80 -172 -80q-57 0 -91 33.5t-34 103.5zM94 547q-1 6 -1 15q0 18 3 35.5t12.5 40t31.5 36.5t54 14q34 0 60.5 -19t45 -38t33.5 -19
q29 0 29 57v12h76v-14q0 -18 -3.5 -36t-12.5 -41t-32 -37.5t-56 -14.5q-34 0 -59 19t-42.5 38t-33.5 19q-29 0 -29 -58v-9h-76z" />
    <glyph glyph-name="Umacron" unicode="&#x16a;" horiz-adv-x="712" 
d="M75 250v417h129v-404q0 -86 41 -126t112 -40t111.5 41.5t40.5 120.5v408h129v-403q0 -130 -80 -203t-202 -73q-126 0 -203.5 63.5t-77.5 198.5zM212 757v74h287v-74h-287z" />
    <glyph glyph-name="umacron" unicode="&#x16b;" horiz-adv-x="535" 
d="M58 125v330h125v-271q0 -46 9.5 -67t37.5 -21q45 0 115 62v297h124v-316q0 -24 5 -58.5t10 -56.5l5 -22l-120 -11q-10 44 -14 77q-77 -80 -172 -80q-57 0 -91 33.5t-34 103.5zM135 577v78h257v-78h-257z" />
    <glyph glyph-name="Ubreve" unicode="&#x16c;" horiz-adv-x="712" 
d="M75 250v417h129v-404q0 -86 41 -126t112 -40t111.5 41.5t40.5 120.5v408h129v-403q0 -130 -80 -203t-202 -73q-126 0 -203.5 63.5t-77.5 198.5zM356 715q-79 0 -118.5 44.5t-29.5 113.5h68q-6 -87 80 -87t80 87h68q10 -69 -30 -113.5t-118 -44.5z" />
    <glyph glyph-name="ubreve" unicode="&#x16d;" horiz-adv-x="535" 
d="M58 125v330h125v-271q0 -46 9.5 -67t37.5 -21q45 0 115 62v297h124v-316q0 -24 5 -58.5t10 -56.5l5 -22l-120 -11q-10 44 -14 77q-77 -80 -172 -80q-57 0 -91 33.5t-34 103.5zM263 542q-68 0 -106.5 37.5t-38.5 98.5q0 9 2 27h68v-12q0 -43 21 -62.5t54 -19.5
q32 0 53.5 19t21.5 63v12h68q0 -5 0.5 -14t0.5 -13q0 -61 -38 -98.5t-106 -37.5z" />
    <glyph glyph-name="Uring" unicode="&#x16e;" horiz-adv-x="712" 
d="M356 685q-49 0 -75 28t-26 63t26 61.5t75 26.5t75 -26.5t26 -61.5t-26 -63t-75 -28zM356 732q21 0 33.5 13t12.5 30t-12 29.5t-34 12.5t-33.5 -12.5t-11.5 -29.5q0 -18 12 -30.5t33 -12.5zM75 250v417h129v-404q0 -86 41 -126t112 -40t111.5 41.5t40.5 120.5v408h129
v-403q0 -130 -80 -203t-202 -73q-126 0 -203.5 63.5t-77.5 198.5z" />
    <glyph glyph-name="uring" unicode="&#x16f;" horiz-adv-x="535" 
d="M263 535q-49 0 -75 28t-26 63t26 61.5t75 26.5t75 -26.5t26 -61.5t-26 -63t-75 -28zM263 582q21 0 33.5 13t12.5 30t-12 29.5t-34 12.5t-33.5 -12.5t-11.5 -29.5q0 -18 12 -30.5t33 -12.5zM58 125v330h125v-271q0 -46 9.5 -67t37.5 -21q45 0 115 62v297h124v-316
q0 -24 5 -58.5t10 -56.5l5 -22l-120 -11q-10 44 -14 77q-77 -80 -172 -80q-57 0 -91 33.5t-34 103.5z" />
    <glyph glyph-name="Uhungarumlaut" unicode="&#x170;" horiz-adv-x="712" 
d="M466 713l-68 36l93 123h116zM277 713l-68 36l87 123h116zM75 250v417h129v-404q0 -86 41 -126t112 -40t111.5 41.5t40.5 120.5v408h129v-403q0 -130 -80 -203t-202 -73q-126 0 -203.5 63.5t-77.5 198.5z" />
    <glyph glyph-name="uhungarumlaut" unicode="&#x171;" horiz-adv-x="535" 
d="M58 125v330h125v-271q0 -46 9.5 -67t37.5 -21q45 0 115 62v297h124v-316q0 -24 5 -58.5t10 -56.5l5 -22l-120 -11q-10 44 -14 77q-77 -80 -172 -80q-57 0 -91 33.5t-34 103.5zM358 508l-62 36l108 163h110zM175 508l-62 36l103 163h110z" />
    <glyph glyph-name="Uogonek" unicode="&#x172;" horiz-adv-x="713" 
d="M75 250v417h129v-404q0 -86 41 -126t112 -40t111.5 41.5t40.5 120.5v408h129v-403q0 -86 -36.5 -147.5t-99.5 -94.5q-37 -28 -72.5 -70.5t-35.5 -77.5q0 -33 37 -33q24 0 46 10l9 -74q-41 -14 -84 -14q-48 0 -75.5 23.5t-27.5 65.5q0 13 3.5 26.5t7 22.5t13.5 24
t14.5 20.5t19 22.5t17.5 21q-6 -1 -18 -1q-126 0 -203.5 63.5t-77.5 198.5z" />
    <glyph glyph-name="uogonek" unicode="&#x173;" horiz-adv-x="535" 
d="M58 125v330h125v-271q0 -46 9.5 -67t37.5 -21q45 0 115 62v297h124v-316q0 -24 5 -58.5t10 -56.5l5 -22q-81 -74 -81 -128q0 -30 29.5 -33t52.5 10l9 -74q-41 -14 -84 -14q-48 0 -75 23.5t-27 65.5q0 16 4 31t14 31t16 24.5t22.5 28t22.5 26.5l-23 -2q-10 44 -14 77
q-77 -80 -172 -80q-57 0 -91 33.5t-34 103.5z" />
    <glyph glyph-name="Wcircumflex" unicode="&#x174;" horiz-adv-x="969" 
d="M374 718l-65 43l126 110h98l125 -110l-64 -43l-110 88zM218 -5l-200 672h133l139 -489l145 489h102l145 -489l140 489h129l-201 -672h-131l-135 443l-134 -443h-132z" />
    <glyph glyph-name="wcircumflex" unicode="&#x175;" horiz-adv-x="767" 
d="M299 507l-69 29l115 171h77l114 -172l-68 -28l-85 119zM160 -3l-147 458h128l87 -316l104 316h106l102 -316l89 316h125l-148 -458h-121l-102 297l-101 -297h-122z" />
    <glyph glyph-name="Ycircumflex" unicode="&#x176;" horiz-adv-x="608" 
d="M240 0v278l-241 389h151l154 -261l159 261h146l-240 -388v-279h-129zM194 718l-65 43l126 110h98l125 -110l-64 -43l-110 88z" />
    <glyph glyph-name="ycircumflex" unicode="&#x177;" horiz-adv-x="475" 
d="M10 -141q49 6 92 39.5t61 75.5l16 38l-175 443h130l106 -298l104 298h126l-189 -488q-31 -79 -92 -137.5t-141 -66.5zM156 507l-69 29l115 171h77l114 -172l-68 -28l-85 119z" />
    <glyph glyph-name="Ydieresis" unicode="&#x178;" horiz-adv-x="608" 
d="M240 0v278l-241 389h151l154 -261l159 261h146l-240 -388v-279h-129zM430 728q-30 0 -49.5 18.5t-19.5 47.5q0 30 19.5 48t49.5 18t49 -18t19 -48q0 -29 -19.5 -47.5t-48.5 -18.5zM179 728q-29 0 -48.5 18.5t-19.5 47.5q0 30 19 48t49 18t49.5 -18t19.5 -48
q0 -29 -19.5 -47.5t-49.5 -18.5z" />
    <glyph glyph-name="Zacute" unicode="&#x179;" horiz-adv-x="582" 
d="M36 0v78l330 481h-315v108h481v-78l-325 -481h337v-108h-508zM214 708l-24 67l216 95l35 -92z" />
    <glyph glyph-name="zacute" unicode="&#x17a;" horiz-adv-x="450" 
d="M231 508l-67 36l103 163h119zM36 0v76l208 283h-200v96h362v-76l-212 -283h220v-96h-378z" />
    <glyph glyph-name="Zdotaccent" unicode="&#x17b;" horiz-adv-x="582" 
d="M301 725q-32 0 -52.5 19t-20.5 50t20.5 50.5t52.5 19.5t52.5 -19.5t20.5 -50.5t-20.5 -50t-52.5 -19zM36 0v78l330 481h-315v108h481v-78l-325 -481h337v-108h-508z" />
    <glyph glyph-name="zdotaccent" unicode="&#x17c;" horiz-adv-x="450" 
d="M36 0v76l208 283h-200v96h362v-76l-212 -283h220v-96h-378zM226 554q-32 0 -52.5 19.5t-20.5 50.5t20.5 50.5t52.5 19.5t52.5 -19.5t20.5 -50.5t-20.5 -50.5t-52.5 -19.5z" />
    <glyph glyph-name="Zcaron" unicode="&#x17d;" horiz-adv-x="582" 
d="M36 0v78l330 481h-315v108h481v-78l-325 -481h337v-108h-508zM251 718l-125 110l65 43l110 -88l110 88l64 -43l-126 -110h-98z" />
    <glyph glyph-name="zcaron" unicode="&#x17e;" horiz-adv-x="450" 
d="M188 521l-115 171l69 29l84 -120l85 120l68 -28l-114 -172h-77zM36 0v76l208 283h-200v96h362v-76l-212 -283h220v-96h-378z" />
    <glyph glyph-name="longs" unicode="&#x17f;" horiz-adv-x="281" 
d="M22 366v67l71 25v38q0 112 61 176t157 64q38 0 72.5 -10t50.5 -20l16 -9l-44 -93q-43 32 -93 32q-95 0 -95 -131v-505h-125v366h-71z" />
    <glyph glyph-name="florin" unicode="&#x192;" horiz-adv-x="449" 
d="M23 278v70h138l10 81q15 116 85 183t167 67q37 0 71 -12l-27 -93q-32 9 -56 9q-96 0 -114 -145l-11 -90h142v-70h-150l-27 -227q-15 -116 -85 -183t-167 -67q-37 0 -70 12l26 93q32 -9 56 -9q96 0 114 145l28 236h-130z" />
    <glyph glyph-name="Aringacute" unicode="&#x1fa;" horiz-adv-x="631" 
d="M3 0l237 635q-28 21 -28 63q0 32 25.5 55.5t75.5 23.5t75.5 -23.5t25.5 -55.5q0 -36 -25 -60l239 -638h-131l-54 150h-258l-54 -150h-128zM314 509l-91 -252h181zM226 792l-24 67l216 95l35 -92zM313 654q21 0 33.5 12t12.5 31q0 16 -12 28t-34 12t-33.5 -12t-11.5 -28
q0 -19 11.5 -31t33.5 -12z" />
    <glyph glyph-name="aringacute" unicode="&#x1fb;" horiz-adv-x="495" 
d="M27 107q0 141 266 176v16q0 38 -12 56.5t-51 18.5q-32 0 -68 -13.5t-56 -26.5l-20 -14l-30 88q46 32 120 49q-33 23 -33 67q0 32 25.5 55.5t75.5 23.5t75.5 -23.5t25.5 -55.5q0 -38 -27 -62q55 -10 77.5 -44.5t22.5 -98.5v-176q0 -24 13 -37t25 -14l13 -2l-36 -97
q-96 3 -127 67q-47 -72 -142 -72q-61 0 -99 33.5t-38 85.5zM156 614l-24 67l216 95l35 -92zM198 79q45 0 95 59v73q-139 -20 -139 -94q0 -38 44 -38zM244 480q21 0 33.5 12t12.5 31q0 16 -12 28t-34 12t-33.5 -12t-11.5 -28q0 -19 11.5 -31t33.5 -12z" />
    <glyph glyph-name="AEacute" unicode="&#x1fc;" horiz-adv-x="900" 
d="M-11 0l376 667h489v-108h-292v-167h230v-107h-230v-177h299v-108h-427v185h-205l-102 -185h-138zM434 555l-145 -262h145v262zM498 708l-24 67l216 95l35 -92z" />
    <glyph glyph-name="aeacute" unicode="&#x1fd;" horiz-adv-x="751" 
d="M337 508l-67 36l103 163h119zM85 320l-30 88q9 7 26 16.5t70 26t108 16.5q93 0 124 -58q53 58 135 58q88 0 141 -56.5t54 -161.5l-68 -20l-226 -28q9 -54 43 -85.5t86 -31.5q33 0 67.5 14t52.5 28l18 14l33 -88q-8 -7 -23.5 -17.5t-65.5 -28.5t-103 -18q-124 0 -186 95
q-19 -37 -63.5 -66t-109.5 -29q-64 0 -103 33.5t-39 85.5q0 128 272 160v25q0 43 -12 62.5t-52 19.5q-34 0 -71 -13.5t-57 -26.5zM202 79q40 0 67.5 30t27.5 87q-144 -15 -144 -79q0 -38 49 -38zM509 374q-38 0 -61.5 -27.5t-29.5 -72.5l160 19q0 3 -0.5 8.5t-4.5 19.5
t-10.5 24.5t-20.5 19.5t-33 9z" />
    <glyph glyph-name="Oslashacute" unicode="&#x1fe;" horiz-adv-x="801" 
d="M38 332q0 89 41 167t126 129t198 51q103 0 184 -42l46 60h79l-71 -94q58 -46 89.5 -113t31.5 -144q0 -93 -44 -174.5t-129.5 -132.5t-194.5 -51q-104 0 -186 46l-49 -64h-80l77 101q-57 48 -87.5 116t-30.5 145zM628 338q0 98 -63 166l-286 -375q51 -32 118 -32
q105 0 168 72t63 169zM173 336q0 -98 58 -166l284 372q-48 28 -114 28q-106 0 -167 -69t-61 -165zM313 708l-24 67l216 95l35 -92z" />
    <glyph glyph-name="oslashacute" unicode="&#x1ff;" horiz-adv-x="560" 
d="M35 226q0 45 14.5 86t43 76.5t77.5 57t113 21.5q67 0 119 -25l33 43h70l-56 -74q78 -66 78 -174q0 -44 -14 -86t-42.5 -79.5t-78 -60.5t-113.5 -23q-69 0 -123 27l-34 -45h-71l58 78q-74 67 -74 178zM398 224q0 50 -21 90l-158 -214q27 -19 63 -19q50 0 83 40t33 103z
M164 235q0 -50 18 -89l157 210q-24 18 -58 18q-50 0 -83.5 -39t-33.5 -100zM290 508l-67 36l103 163h119z" />
    <glyph glyph-name="Scommaaccent" unicode="&#x218;" horiz-adv-x="515" 
d="M188 -49h106q24 -26 24 -72q0 -42 -30 -74.5t-72 -53.5l-47 50q51 23 51 72q0 46 -32 78zM39 44l37 114q8 -7 22.5 -17t58 -26t84.5 -15q44 0 74.5 19t30.5 52t-30.5 59t-74 47.5t-87.5 46t-74.5 66.5t-30.5 98q0 80 62 135.5t168 55.5q41 0 86.5 -7.5t70.5 -15.5l24 -7
l-21 -116q-78 34 -158 34q-45 0 -73.5 -17.5t-28.5 -48.5q0 -24 16.5 -44.5t42.5 -35.5t57.5 -30.5t63 -34t57.5 -41t42.5 -57t16.5 -77.5q0 -88 -66.5 -140.5t-165.5 -52.5q-54 0 -105 14t-75 28z" />
    <glyph glyph-name="scommaaccent" unicode="&#x219;" horiz-adv-x="411" 
d="M142 -49h106q24 -26 24 -72q0 -42 -30 -74.5t-72 -53.5l-47 50q51 23 51 72q0 46 -32 78zM32 28l26 102q6 -5 17 -13t44.5 -21t66.5 -13q71 0 71 39q0 20 -33.5 39t-73.5 34t-73.5 49.5t-33.5 81.5q0 60 46.5 100.5t142.5 40.5q37 0 71 -6.5t49 -12.5l15 -6l-26 -101
q-50 31 -109 31q-65 0 -65 -36q0 -17 22 -31t53.5 -27.5t62.5 -30.5t53 -46t22 -68q0 -65 -50 -105t-139 -40q-44 0 -83.5 10t-57.5 20z" />
    <glyph glyph-name="uni021A" unicode="&#x21a;" horiz-adv-x="601" 
d="M241 -49h106q24 -26 24 -72q0 -42 -30 -74.5t-72 -53.5l-47 50q51 23 51 72q0 46 -32 78zM237 0v559h-220v108h567v-108h-219v-559h-128z" />
    <glyph glyph-name="uni021B" unicode="&#x21b;" horiz-adv-x="399" 
d="M166 -49h106q24 -26 24 -72q0 -42 -30 -74.5t-72 -53.5l-47 50q51 23 51 72q0 46 -32 78zM92 128v238h-71v67l75 25v106l121 24v-133h139v-89h-139v-208q0 -68 47 -68q31 0 88 39l34 -91q-7 -6 -20.5 -14t-53 -22t-78.5 -14q-65 0 -103.5 36t-38.5 104z" />
    <glyph glyph-name="circumflex" unicode="&#x2c6;" horiz-adv-x="510" 
d="M171 507l-69 29l115 171h77l114 -172l-68 -28l-85 119z" />
    <glyph glyph-name="caron" unicode="&#x2c7;" horiz-adv-x="510" 
d="M217 521l-115 171l69 29l84 -120l85 120l68 -28l-114 -172h-77z" />
    <glyph glyph-name="breve" unicode="&#x2d8;" horiz-adv-x="510" 
d="M255 542q-68 0 -106.5 37.5t-38.5 98.5q0 9 2 27h68v-12q0 -43 21 -62.5t54 -19.5q32 0 53.5 19t21.5 63v12h68q0 -5 0.5 -14t0.5 -13q0 -61 -38 -98.5t-106 -37.5z" />
    <glyph glyph-name="dotaccent" unicode="&#x2d9;" horiz-adv-x="510" 
d="M255 554q-32 0 -52.5 19.5t-20.5 50.5t20.5 50.5t52.5 19.5t52.5 -19.5t20.5 -50.5t-20.5 -50.5t-52.5 -19.5z" />
    <glyph glyph-name="ring" unicode="&#x2da;" horiz-adv-x="510" 
d="M255 535q-49 0 -75 28t-26 63t26 61.5t75 26.5t75 -26.5t26 -61.5t-26 -63t-75 -28zM255 582q21 0 33.5 13t12.5 30t-12 29.5t-34 12.5t-33.5 -12.5t-11.5 -29.5q0 -18 12 -30.5t33 -12.5z" />
    <glyph glyph-name="ogonek" unicode="&#x2db;" horiz-adv-x="510" 
d="M165 -148q0 30 13 55t42.5 59t40.5 50l100 16l7 -10q-37 -28 -72.5 -70.5t-35.5 -77.5q0 -33 37 -33q24 0 46 10l9 -74q-41 -14 -84 -14q-48 0 -75.5 23.5t-27.5 65.5z" />
    <glyph glyph-name="tilde" unicode="&#x2dc;" horiz-adv-x="510" 
d="M88 547q-1 6 -1 15q0 18 3 35.5t12.5 40t31.5 36.5t54 14q34 0 60.5 -19t45 -38t33.5 -19q29 0 29 57v12h76v-14q0 -18 -3.5 -36t-12.5 -41t-32 -37.5t-56 -14.5q-34 0 -59 19t-42.5 38t-33.5 19q-29 0 -29 -58v-9h-76z" />
    <glyph glyph-name="hungarumlaut" unicode="&#x2dd;" horiz-adv-x="510" 
d="M301 508l-62 36l108 163h110zM118 508l-62 36l103 163h110z" />
    <glyph glyph-name="Delta" unicode="&#x394;" horiz-adv-x="627" 
d="M29 0v34l270 633h45l254 -633v-34h-569zM304 511l-176 -436h348z" />
    <glyph glyph-name="Delta" unicode="&#x2206;" horiz-adv-x="627" 
d="M29 0v34l270 633h45l254 -633v-34h-569zM304 511l-176 -436h348z" />
    <glyph glyph-name="Omega" unicode="&#x3a9;" horiz-adv-x="791" 
d="M48 0l-10 98h146q-40 45 -76.5 122t-36.5 157q0 126 91.5 214t230.5 88t231 -87.5t92 -217.5q0 -135 -114 -276h152l-10 -98h-255l-20 48q1 2 9.5 15t13.5 22t15.5 27t17.5 33t16.5 35.5t15.5 40.5t12 42t9 45.5t3 45.5q0 101 -50 158.5t-138 57.5t-137.5 -57.5
t-49.5 -158.5q0 -127 106 -298q3 -5 5 -8l-20 -48h-249z" />
    <glyph glyph-name="Omega" unicode="&#x2126;" horiz-adv-x="791" 
d="M48 0l-10 98h146q-40 45 -76.5 122t-36.5 157q0 126 91.5 214t230.5 88t231 -87.5t92 -217.5q0 -135 -114 -276h152l-10 -98h-255l-20 48q1 2 9.5 15t13.5 22t15.5 27t17.5 33t16.5 35.5t15.5 40.5t12 42t9 45.5t3 45.5q0 101 -50 158.5t-138 57.5t-137.5 -57.5
t-49.5 -158.5q0 -127 106 -298q3 -5 5 -8l-20 -48h-249z" />
    <glyph glyph-name="pi" unicode="&#x3c0;" horiz-adv-x="590" 
d="M38 359v96h518v-96h-97v-243q0 -40 11 -50t54 -10v-63q-37 -5 -57 -5q-38 0 -62 10.5t-34 32t-13 40t-3 49.5v239h-115v-31q0 -61 -4.5 -106t-17.5 -97t-43.5 -87t-77.5 -50l-55 77q65 33 81.5 92.5t16.5 175.5v26h-102z" />
    <glyph glyph-name="Wgrave" unicode="&#x1e80;" horiz-adv-x="969" 
d="M345 778l35 92l216 -95l-25 -67zM218 -5l-200 672h133l139 -489l145 489h102l145 -489l140 489h129l-201 -672h-131l-135 443l-134 -443h-132z" />
    <glyph glyph-name="wgrave" unicode="&#x1e81;" horiz-adv-x="767" 
d="M160 -3l-147 458h128l87 -316l104 316h106l102 -316l89 316h125l-148 -458h-121l-102 297l-101 -297h-122zM377 508l-155 199h118l103 -163z" />
    <glyph glyph-name="Wacute" unicode="&#x1e82;" horiz-adv-x="969" 
d="M397 708l-24 67l216 95l35 -92zM218 -5l-200 672h133l139 -489l145 489h102l145 -489l140 489h129l-201 -672h-131l-135 443l-134 -443h-132z" />
    <glyph glyph-name="wacute" unicode="&#x1e83;" horiz-adv-x="767" 
d="M389 508l-67 36l103 163h119zM160 -3l-147 458h128l87 -316l104 316h106l102 -316l89 316h125l-148 -458h-121l-102 297l-101 -297h-122z" />
    <glyph glyph-name="Wdieresis" unicode="&#x1e84;" horiz-adv-x="969" 
d="M218 -5l-200 672h133l139 -489l145 489h102l145 -489l140 489h129l-201 -672h-131l-135 443l-134 -443h-132zM610 728q-30 0 -49.5 18.5t-19.5 47.5q0 30 19.5 48t49.5 18t49 -18t19 -48q0 -29 -19.5 -47.5t-48.5 -18.5zM359 728q-29 0 -48.5 18.5t-19.5 47.5q0 30 19 48
t49 18t49.5 -18t19.5 -48q0 -29 -19.5 -47.5t-49.5 -18.5z" />
    <glyph glyph-name="wdieresis" unicode="&#x1e85;" horiz-adv-x="767" 
d="M489 559q-29 0 -47.5 17.5t-18.5 46.5t18.5 46.5t47.5 17.5q30 0 48.5 -17.5t18.5 -46.5t-18.5 -46.5t-48.5 -17.5zM276 559q-29 0 -47.5 17.5t-18.5 46.5t18.5 46.5t47.5 17.5q30 0 48.5 -17.5t18.5 -46.5t-18.5 -46.5t-48.5 -17.5zM160 -3l-147 458h128l87 -316
l104 316h106l102 -316l89 316h125l-148 -458h-121l-102 297l-101 -297h-122z" />
    <glyph glyph-name="uni1E9E" unicode="&#x1e9e;" horiz-adv-x="689" 
d="M74 0v353q0 326 313 326q32 0 67.5 -3t74.5 -8t57 -7v-89l-131 -163q199 -80 199 -223q0 -80 -61 -139t-160 -59q-38 0 -75 10t-56 20l-18 10l23 115q55 -43 125 -43q41 0 66 24t25 57q0 56 -61 94.5t-136 50.5v82l122 159q-35 7 -65 7q-95 0 -137.5 -52.5t-42.5 -171.5
v-350h-129z" />
    <glyph glyph-name="Ygrave" unicode="&#x1ef2;" horiz-adv-x="608" 
d="M240 0v278l-241 389h151l154 -261l159 261h146l-240 -388v-279h-129zM165 778l35 92l216 -95l-25 -67z" />
    <glyph glyph-name="ygrave" unicode="&#x1ef3;" horiz-adv-x="475" 
d="M10 -141q49 6 92 39.5t61 75.5l16 38l-175 443h130l106 -298l104 298h126l-189 -488q-31 -79 -92 -137.5t-141 -66.5zM234 508l-155 199h118l103 -163z" />
    <glyph glyph-name="thinspace" unicode="&#x2009;" horiz-adv-x="15" 
 />
    <glyph glyph-name="endash" unicode="&#x2013;" horiz-adv-x="514" 
d="M52 216v81h410v-81h-410z" />
    <glyph glyph-name="emdash" unicode="&#x2014;" horiz-adv-x="904" 
d="M52 216v81h800v-81h-800z" />
    <glyph glyph-name="quoteleft" unicode="&#x2018;" horiz-adv-x="224" 
d="M96 425q-56 69 -56 138q0 99 108 184l41 -46q-61 -49 -61 -103q0 -25 14.5 -50t55.5 -69z" />
    <glyph glyph-name="quoteright" unicode="&#x2019;" horiz-adv-x="216" 
d="M74 425l-42 46q62 49 62 104q0 25 -15 50.5t-56 67.5l103 54q55 -68 55 -137q0 -100 -107 -185z" />
    <glyph glyph-name="quotesinglbase" unicode="&#x201a;" horiz-adv-x="242" 
d="M38 97l103 54q56 -69 56 -137q0 -99 -108 -184l-42 45q62 49 62 104q0 26 -15 50.5t-56 67.5z" />
    <glyph glyph-name="quotedblleft" unicode="&#x201c;" horiz-adv-x="415" 
d="M287 425q-56 69 -56 138q0 99 108 184l41 -46q-61 -49 -61 -103q0 -25 14.5 -50t55.5 -69zM96 425q-56 69 -56 138q0 99 108 184l41 -46q-61 -49 -61 -103q0 -25 14.5 -50t55.5 -69z" />
    <glyph glyph-name="quotedblright" unicode="&#x201d;" horiz-adv-x="407" 
d="M265 425l-42 46q62 49 62 104q0 25 -15 50.5t-55 67.5l102 54q55 -68 55 -137q0 -100 -107 -185zM74 425l-42 46q62 49 62 104q0 25 -15 50.5t-56 67.5l103 54q55 -68 55 -137q0 -100 -107 -185z" />
    <glyph glyph-name="quotedblbase" unicode="&#x201e;" horiz-adv-x="433" 
d="M229 97l103 54q56 -69 56 -137q0 -100 -108 -184l-42 45q62 49 62 104q0 26 -15 50.5t-56 67.5zM38 97l103 54q56 -69 56 -137q0 -99 -108 -184l-42 45q62 49 62 104q0 26 -15 50.5t-56 67.5z" />
    <glyph glyph-name="dagger" unicode="&#x2020;" horiz-adv-x="490" 
d="M197 -139l14 518l-179 -20v105l179 -21l-19 224h105l-18 -224l179 21v-105l-179 20l14 -518h-96z" />
    <glyph glyph-name="daggerdbl" unicode="&#x2021;" horiz-adv-x="506" 
d="M40 64v105l179 -20v230l-179 -20v105l179 -21l-19 224h105l-18 -224l179 21v-105l-179 20v-230l179 20v-105l-179 21l18 -224h-105l19 224z" />
    <glyph glyph-name="bullet" unicode="&#x2022;" horiz-adv-x="407" 
d="M204 104q-64 0 -108 44t-44 108t44 108t108 44t107.5 -44t43.5 -108t-43.5 -108t-107.5 -44z" />
    <glyph glyph-name="ellipsis" unicode="&#x2026;" horiz-adv-x="810" 
d="M607 64q0 32 22.5 55t53.5 23q32 0 55 -23t23 -55q0 -31 -23 -53.5t-55 -22.5q-31 0 -53.5 22.5t-22.5 53.5zM328 64q0 32 22.5 55t53.5 23q32 0 55 -23t23 -55q0 -31 -23 -53.5t-55 -22.5q-31 0 -53.5 22.5t-22.5 53.5zM49 64q0 32 22.5 55t54.5 23t54.5 -23t22.5 -55
q0 -31 -23 -53.5t-54 -22.5t-54 22.5t-23 53.5z" />
    <glyph glyph-name="perthousand" unicode="&#x2030;" horiz-adv-x="1138" 
d="M118 0l473 682l50 -34l-450 -648h-73zM201 352q-71 0 -117.5 46t-46.5 112t46.5 111.5t117.5 45.5q70 0 116.5 -45.5t46.5 -111.5t-46.5 -112t-116.5 -46zM201 425q37 0 60.5 26t23.5 59t-23.5 58.5t-60.5 25.5t-61 -25.5t-24 -58.5t24 -59t61 -26zM780 146
q0 66 46.5 111t117.5 45t117 -45t46 -111t-46.5 -112t-116.5 -46q-71 0 -117.5 46t-46.5 112zM407 146q0 66 46 111t117 45t117.5 -45t46.5 -111t-46.5 -112t-117.5 -46q-70 0 -116.5 46t-46.5 112zM859 146q0 -34 24 -59.5t61 -25.5t60.5 25.5t23.5 59.5q0 33 -23.5 58.5
t-60.5 25.5t-61 -25.5t-24 -58.5zM486 146q0 -34 23.5 -59.5t60.5 -25.5t61 25.5t24 59.5q0 33 -24 58.5t-61 25.5t-60.5 -25.5t-23.5 -58.5z" />
    <glyph glyph-name="guilsinglleft" unicode="&#x2039;" horiz-adv-x="314" 
d="M206 40q-44 48 -80.5 89t-52.5 59t-28.5 32t-17.5 19t-11 10v4q15 12 98 106q54 60 92 103l69 -20l-143 -191q6 -9 143 -191z" />
    <glyph glyph-name="guilsinglright" unicode="&#x203a;" horiz-adv-x="314" 
d="M39 60l144 191q-6 7 -144 191l69 20q174 -195 183 -203q3 -3 7 -6v-4q-6 -5 -11 -10t-17.5 -19t-28.5 -32t-52.5 -59t-80.5 -89z" />
    <glyph glyph-name="fraction" unicode="&#x2044;" horiz-adv-x="147" 
d="M-77 0h-82l398 692l66 -28z" />
    <glyph glyph-name="zerosuperior" unicode="&#x2070;" horiz-adv-x="389" 
d="M194 369q-81 0 -120 57.5t-39 143.5q0 42 9 79.5t27 69t50.5 50t75.5 18.5q79 0 117.5 -57t38.5 -141q0 -91 -39 -155.5t-120 -64.5zM195 443q58 0 58 136q0 134 -57 134q-61 0 -61 -133q0 -137 60 -137z" />
    <glyph glyph-name="foursuperior" unicode="&#x2074;" horiz-adv-x="368" 
d="M197 376v90h-175l-8 62l166 254h107v-246h56v-70h-56v-90h-90zM95 536h102v155z" />
    <glyph glyph-name="fivesuperior" unicode="&#x2075;" horiz-adv-x="330" 
d="M148 369q-33 0 -63 8.5t-44 17.5l-14 9l34 69q39 -28 80 -28q29 0 46 14.5t17 34.5q0 63 -152 85v201h224v-73h-142v-62q166 -44 166 -148q0 -58 -44.5 -93t-107.5 -35z" />
    <glyph glyph-name="sixsuperior" unicode="&#x2076;" horiz-adv-x="366" 
d="M185 369q-79 0 -118.5 49.5t-39.5 125.5q0 99 67.5 169t201.5 75l6 -76q-141 -2 -176 -98q32 27 80 27q59 0 96 -37t37 -90q0 -60 -39.5 -102.5t-114.5 -42.5zM184 571q-34 0 -63 -22q0 -106 64 -106q26 0 41 17.5t15 50.5q0 60 -57 60z" />
    <glyph glyph-name="sevensuperior" unicode="&#x2077;" horiz-adv-x="316" 
d="M131 365l-92 19q100 187 156 319h-170v77h279l3 -44q-51 -122 -176 -371z" />
    <glyph glyph-name="eightsuperior" unicode="&#x2078;" horiz-adv-x="363" 
d="M181 369q-66 0 -107 29.5t-41 75.5q0 59 87 115q-37 27 -54.5 48.5t-17.5 50.5q0 44 38 71.5t98 27.5q58 0 94.5 -27t36.5 -72q0 -29 -18 -51t-54 -46q86 -57 86 -114q0 -45 -40 -76.5t-108 -31.5zM182 443q22 0 35.5 12.5t13.5 30.5q0 5 -1 9.5t-2.5 8t-4.5 8l-5 7.5
t-6.5 7t-6.5 5.5t-7 5.5t-6.5 5t-7.5 4l-5 4q-48 -31 -48 -63q0 -20 14 -32t37 -12zM139 682q0 -25 45 -54q1 1 5.5 4t6.5 5t6.5 5.5t6.5 6t5.5 6.5t5 7.5t3 7.5t1.5 8q0 17 -12 26t-31 9q-15 0 -28.5 -8t-13.5 -23z" />
    <glyph glyph-name="ninesuperior" unicode="&#x2079;" horiz-adv-x="364" 
d="M71 369l-6 76q135 2 170 95q-32 -22 -78 -22q-57 0 -94 36t-37 88q0 60 39 102.5t113 42.5q78 0 117.5 -50t39.5 -125q0 -99 -66.5 -168.5t-197.5 -74.5zM179 588q34 0 62 21q0 104 -63 104q-24 0 -39.5 -18t-15.5 -50q0 -57 56 -57z" />
    <glyph glyph-name="n.sups" unicode="&#x207f;" horiz-adv-x="388" 
d="M44 297v319h94v-50q52 58 116 58q92 0 92 -100v-227h-97v187q0 62 -28 62q-33 0 -80 -49v-200h-97z" />
    <glyph glyph-name="zeroinferior" unicode="&#x2080;" horiz-adv-x="389" 
d="M194 -120q-81 0 -120 57.5t-39 143.5q0 42 9 79.5t27 69t50.5 50t75.5 18.5q79 0 117.5 -57t38.5 -141q0 -91 -39 -155.5t-120 -64.5zM195 -46q58 0 58 136q0 134 -57 134q-61 0 -61 -133q0 -137 60 -137z" />
    <glyph glyph-name="oneinferior" unicode="&#x2081;" horiz-adv-x="315" 
d="M31 -113v69h92v266h-84v69h178v-335h84v-69h-270z" />
    <glyph glyph-name="twoinferior" unicode="&#x2082;" horiz-adv-x="351" 
d="M34 -113l-7 55q11 11 34.5 32.5t36 33.5t32 31.5t30.5 33.5t22.5 30.5t16.5 31.5t5 29q0 50 -56 50q-18 0 -36 -7.5t-27 -14.5l-9 -8l-48 59q5 6 15.5 15t46 24.5t75.5 15.5q60 0 97.5 -33t37.5 -88q0 -90 -136 -217h158v-73h-288z" />
    <glyph glyph-name="threeinferior" unicode="&#x2083;" horiz-adv-x="333" 
d="M144 -121q-33 0 -64 9.5t-46 18.5l-15 9l40 66q37 -26 79 -26q29 0 45 14.5t16 34.5q0 23 -22.5 34t-51.5 11h-34v73q34 1 62 18.5t28 44.5q0 33 -40 33q-17 0 -34.5 -5.5t-26.5 -11.5l-9 -6l-39 60q54 42 130 42q55 0 87.5 -27.5t32.5 -67.5q0 -36 -24 -64.5t-56 -38.5
q98 -21 98 -94q0 -52 -44 -89.5t-112 -37.5z" />
    <glyph glyph-name="fourinferior" unicode="&#x2084;" horiz-adv-x="369" 
d="M198 -113v90h-175l-8 62l166 254h107v-246h56v-70h-56v-90h-90zM96 47h102v155z" />
    <glyph glyph-name="fiveinferior" unicode="&#x2085;" horiz-adv-x="328" 
d="M147 -120q-33 0 -63 9t-44 17l-14 9l34 69q39 -28 80 -28q29 0 46 14.5t17 34.5q0 63 -152 85v201h224v-73h-142v-62q166 -44 166 -148q0 -58 -44.5 -93t-107.5 -35z" />
    <glyph glyph-name="sixinferior" unicode="&#x2086;" horiz-adv-x="367" 
d="M186 -120q-79 0 -118.5 49.5t-39.5 125.5q0 99 67.5 169t201.5 75l6 -76q-141 -2 -176 -98q32 27 80 27q59 0 96 -37t37 -90q0 -60 -39.5 -102.5t-114.5 -42.5zM185 82q-34 0 -63 -22q0 -106 64 -106q26 0 41 17.5t15 50.5q0 60 -57 60z" />
    <glyph glyph-name="seveninferior" unicode="&#x2087;" horiz-adv-x="316" 
d="M131 -124l-92 19q100 187 156 319h-170v77h279l3 -44q-51 -122 -176 -371z" />
    <glyph glyph-name="eightinferior" unicode="&#x2088;" horiz-adv-x="363" 
d="M181 -120q-66 0 -107 29.5t-41 75.5q0 59 87 115q-37 27 -54.5 48.5t-17.5 50.5q0 44 38 71.5t98 27.5q58 0 94.5 -27t36.5 -72q0 -29 -18 -51t-54 -46q86 -57 86 -114q0 -45 -40 -76.5t-108 -31.5zM182 -46q22 0 35.5 12.5t13.5 30.5q0 5 -1 9.5t-2.5 8t-4.5 8l-5 7.5
t-6.5 7t-6.5 5.5t-7 5.5t-6.5 5l-7.5 5l-5 3q-48 -31 -48 -63q0 -20 14 -32t37 -12zM139 193q0 -25 45 -54q1 1 5.5 4t6.5 5t6.5 5.5t6.5 6t5.5 6.5t5 7.5t3 7.5t1.5 8q0 17 -12 26t-31 9q-15 0 -28.5 -8t-13.5 -23z" />
    <glyph glyph-name="nineinferior" unicode="&#x2089;" horiz-adv-x="362" 
d="M71 -120l-6 76q135 2 170 95q-32 -22 -78 -22q-57 0 -94 36t-37 88q0 60 39 102.5t113 42.5q78 0 117.5 -50t39.5 -125q0 -99 -66.5 -168.5t-197.5 -74.5zM179 99q34 0 62 21q0 104 -63 104q-24 0 -39.5 -18t-15.5 -50q0 -57 56 -57z" />
    <glyph glyph-name="Euro" unicode="&#x20ac;" horiz-adv-x="564" 
d="M37 178v58h52q-2 22 -2 36q0 13 2 41h-52v58h64q26 89 95.5 144t167.5 55q40 0 79 -9t59 -19l19 -9l-31 -96q-55 37 -124 37q-100 0 -136 -103h241l-17 -58h-237q-1 -11 -1 -33q0 -23 3 -44h214l-17 -58h-182q39 -94 136 -94q28 0 58.5 7.5t47.5 14.5l16 8l24 -89
q-62 -37 -155 -37q-98 0 -167 51t-95 139h-62z" />
    <glyph glyph-name="trademark" unicode="&#x2122;" horiz-adv-x="700" 
d="M319 401l10 266h95l57 -166l58 166h94l10 -266h-65l-8 193l-68 -193h-44l-68 194l-6 -194h-65zM122 401v213h-87v53h241v-53h-87v-213h-67z" />
    <glyph glyph-name="arrowleft" unicode="&#x2190;" horiz-adv-x="625" 
d="M297 78q-222 243 -240 260q-2 2 -5 4v4q18 14 50.5 49t194.5 215l85 -20q-114 -147 -166 -206h338v-79h-340q46 -53 168 -207z" />
    <glyph glyph-name="arrowup" unicode="&#x2191;" horiz-adv-x="625" 
d="M273 80v363q-67 -58 -207 -168l-20 85q243 222 260 240q2 2 4 5h4q14 -18 49 -50.5t215 -194.5l-20 -85q-151 116 -206 166v-361h-79z" />
    <glyph glyph-name="arrowright" unicode="&#x2192;" horiz-adv-x="625" 
d="M70 305v79h338q-50 55 -166 206l85 20q162 -180 194.5 -215t50.5 -49v-4q-22 -19 -171 -183q-46 -50 -74 -81l-85 20q120 153 168 207h-340z" />
    <glyph glyph-name="arrowdown" unicode="&#x2193;" horiz-adv-x="625" 
d="M310 90q-14 18 -49 50.5t-215 194.5l20 85q140 -110 206 -166v361h79v-363q49 44 207 168l20 -85q-243 -222 -260 -240q-2 -2 -4 -5h-4z" />
    <glyph glyph-name="partialdiff" unicode="&#x2202;" horiz-adv-x="540" 
d="M33 205q0 88 56.5 154.5t155.5 66.5q87 0 118 -49q-8 124 -65 200.5t-168 76.5v94q95 0 167.5 -35t114 -94.5t62 -129.5t20.5 -149q0 -152 -69 -252t-183 -100q-91 0 -150 63t-59 154zM241 81q44 0 78 51.5t43 141.5q-32 58 -95 58q-53 0 -79.5 -42.5t-26.5 -95.5
q0 -48 22 -80.5t58 -32.5z" />
    <glyph glyph-name="product" unicode="&#x220f;" horiz-adv-x="773" 
d="M33 559v108h707v-108h-104v-649h-128v649h-243v-649h-128v649h-104z" />
    <glyph glyph-name="summation" unicode="&#x2211;" horiz-adv-x="593" 
d="M41 -12l214 300l-214 301v78h492v-108h-325l190 -270l-190 -271h352v-108h-519v78z" />
    <glyph glyph-name="minus" unicode="&#x2212;" 
d="M36 213v81h448v-81h-448z" />
    <glyph glyph-name="radical" unicode="&#x221a;" horiz-adv-x="594" 
d="M306 -36l-153 411h-139v80h203l104 -283l203 577h90l-282 -785h-26z" />
    <glyph glyph-name="infinity" unicode="&#x221e;" horiz-adv-x="814" 
d="M213 76q-71 0 -120 50.5t-49 123.5t49 123.5t120 50.5q97 0 194 -125q20 25 36.5 42t42 38.5t56.5 33t64 11.5q68 0 116 -49.5t48 -119.5q0 -75 -49 -127t-120 -52q-58 0 -104 33.5t-90 90.5q-27 -34 -47.5 -55.5t-62 -45t-84.5 -23.5zM452 250q3 -4 8.5 -11.5t22 -26.5
t33.5 -33t40.5 -26t44.5 -12q37 0 66 30t29 79t-29 79t-66 30q-34 0 -71 -27.5t-58 -54.5zM213 141q34 0 71 27.5t58 54.5l20 27q-3 4 -8.5 11.5t-22 26.5t-33.5 33t-40.5 26t-44.5 12q-37 0 -66 -30t-29 -79t29 -79t66 -30z" />
    <glyph glyph-name="integral" unicode="&#x222b;" horiz-adv-x="425" 
d="M15 -132q25 -9 47 -9q96 0 96 145v495q0 117 61.5 183.5t159.5 66.5q37 0 73 -12l-26 -93q-25 9 -47 9q-96 0 -96 -145v-495q0 -116 -62 -183t-159 -67q-37 0 -73 12z" />
    <glyph glyph-name="approxequal" unicode="&#x2248;" 
d="M61 286l-44 61q29 29 70.5 51t81.5 22q46 0 97.5 -35t80.5 -35q60 0 108 52l45 -61q-28 -29 -70 -51t-83 -22q-46 0 -97.5 35t-80.5 35q-56 0 -108 -52zM61 97l-44 61q29 29 70.5 51t81.5 22q46 0 97.5 -35t80.5 -35q60 0 108 52l45 -61q-28 -29 -70 -51t-83 -22
q-46 0 -97.5 35t-80.5 35q-56 0 -108 -52z" />
    <glyph glyph-name="notequal" unicode="&#x2260;" 
d="M41 303v70h264l73 122l50 -30l-55 -92h106v-70h-147l-62 -105h209v-70h-251l-75 -127l-50 30l57 97h-119v70h161l62 105h-223z" />
    <glyph glyph-name="lessequal" unicode="&#x2264;" 
d="M32 321v46l426 194l20 -80l-317 -138l317 -146l-20 -79zM32 0v80h448v-80h-448z" />
    <glyph glyph-name="greaterequal" unicode="&#x2265;" 
d="M62 118l-20 79l316 146l-316 138l20 80l426 -194v-46zM40 0v80h448v-80h-448z" />
    <glyph glyph-name="triagup" unicode="&#x25b2;" horiz-adv-x="625" 
d="M61 147l-12 36q96 115 161 203.5t82 119.5l18 30h5q5 -11 18.5 -33.5t80 -113.5t162.5 -206l-12 -36q-56 19 -251.5 19t-251.5 -19z" />
    <glyph glyph-name="triagrt" unicode="&#x25ba;" horiz-adv-x="625" 
d="M144 92q19 56 19 251.5t-19 251.5l36 12q115 -96 203.5 -161t118.5 -82l31 -18v-5q-11 -5 -33.5 -18.5t-113.5 -80t-206 -162.5z" />
    <glyph glyph-name="triagdn" unicode="&#x25bc;" horiz-adv-x="625" 
d="M310 147q-5 11 -18.5 33.5t-80 113.5t-162.5 206l12 36q56 -19 251.5 -19t251.5 19l12 -36q-96 -115 -161 -203.5t-83 -118.5l-17 -31h-5z" />
    <glyph glyph-name="triaglf" unicode="&#x25c4;" horiz-adv-x="625" 
d="M91 341v5q11 5 33.5 18.5t113.5 80t206 162.5l36 -12q-19 -56 -19 -251.5t19 -251.5l-36 -12q-115 96 -203.5 161.5t-118.5 82.5z" />
    <glyph glyph-name="lozenge" unicode="&#x25ca;" horiz-adv-x="533" 
d="M247 -38l-217 401l217 390h40l216 -390l-216 -401h-40zM122 364l146 -277l143 277l-144 266z" />
    <glyph glyph-name="Euro.uc" unicode="&#xe012;" 
d="M9 223v63h57q-1 12 -1 38t1 39h-57v63h66q23 114 97 183.5t187 69.5q40 0 78.5 -9.5t56.5 -18.5l19 -9l-36 -107q-47 35 -115 35q-122 0 -154 -144h238l-20 -63h-227v-30q0 -17 2 -47h202l-19 -63h-171q35 -126 151 -126q28 0 57 7.5t44 15.5l15 7l24 -102
q-56 -37 -149 -37q-110 0 -183 63t-97 172h-66z" />
    <glyph glyph-name="cent.uc" unicode="&#xe028;" 
d="M250 0l4 112q-93 10 -146 71.5t-53 149.5q0 91 57.5 156t160.5 71l5 107h49l-5 -108q42 -4 77.5 -18t49.5 -26l14 -12l-61 -82q-33 29 -83 36l-10 -243q27 1 54.5 11.5t41.5 20.5l14 10l39 -89q-6 -6 -18 -14.5t-52 -23.5t-84 -18l-4 -111h-50zM181 338q0 -43 20.5 -75
t57.5 -43l10 235q-41 -9 -64.5 -40t-23.5 -77z" />
    <glyph glyph-name="dollar.uc" unicode="&#xe02c;" 
d="M41 59l37 114q7 -6 20 -14.5t51.5 -24t75.5 -18.5l11 166q-45 21 -67 32.5t-55 36t-48 55t-15 69.5q0 75 57 129t156 59l8 103h50l-8 -104q34 -2 71 -9t57 -13l20 -6l-21 -116q-66 28 -135 33l-12 -161q34 -15 52.5 -24t47.5 -27.5t44.5 -36.5t27.5 -46.5t12 -61.5
q0 -82 -60 -133.5t-152 -57.5l-7 -102h-50l7 103q-46 3 -89.5 17t-64.5 26zM178 488q0 -40 68 -75l10 137q-36 -5 -57 -21t-21 -41zM351 183q0 39 -67 75l-10 -141q35 6 56 23.5t21 42.5z" />
    <glyph glyph-name="dotlessi.smcp" unicode="&#xe033;" horiz-adv-x="274" 
d="M74 0v487h126v-487h-126z" />
    <glyph glyph-name="florin.uc" unicode="&#xe039;" 
d="M35 315v75h136l10 82q14 116 84.5 182.5t169.5 66.5q36 0 70 -12l-26 -98q-40 9 -56 9q-94 0 -112 -140l-11 -90h142v-75h-151l-26 -222q-14 -117 -84.5 -183.5t-170.5 -66.5q-36 0 -69 12l25 98q32 -9 56 -9q95 0 113 140l27 231h-127z" />
    <glyph glyph-name="sterling.uc" unicode="&#xe03f;" 
d="M24 286v63h86l16 132q10 90 62 144t146 54q42 0 78 -10.5t51 -21.5l15 -11l-55 -87q-39 29 -90 29q-39 0 -58.5 -23.5t-24.5 -76.5l-13 -129h160l-9 -63h-158l-4 -46q-4 -36 -12.5 -71.5t-15.5 -52.5l-6 -17q52 -21 112 -21q57 0 80.5 21.5t28.5 66.5h93
q-19 -191 -173 -191q-46 0 -110.5 21.5t-93.5 21.5q-34 0 -93 -18l-20 62q7 3 18 8.5t30.5 28t22.5 50.5l15 137h-78z" />
    <glyph glyph-name="orn.001" unicode="&#xe04e;" horiz-adv-x="678" 
d="M340 396q-11 13 -16 32l-45 175q-5 19 17 30.5t44 11.5t43 -11.5t16 -30.5l-45 -175zM279 76l45 175q2 8 6 16t7 12l3 4q9 -13 14 -32l45 -175q5 -19 -16 -30.5t-43 -11.5t-44 11.5t-17 30.5zM389 368q4 14 19 28l129 126q11 11 24.5 6.5t24.5 -14.5t18 -21
q7 -12 10.5 -27.5t0 -29.5t-15.5 -17l-176 -48zM82 419q-13 4 -17 18t-1 29t10 27q7 11 18 21t24.5 15t24.5 -6l129 -127q7 -6 11.5 -13t6.5 -11l1 -4q-15 -2 -34 3zM408 283q-7 6 -11.5 13t-6.5 11l-1 4q15 2 34 -3l173 -48q13 -4 17 -18t1 -29t-10 -27q-11 -19 -32 -31
t-35 1zM74 186q-7 12 -10 27t0.5 29t16.5 18l174 48l34 3q-4 -14 -19 -28l-129 -126q-11 -11 -24.5 -6.5t-24.5 14.5t-18 21z" />
    <glyph glyph-name="orn.002" unicode="&#xe04f;" horiz-adv-x="672" 
d="M79 419q-13 4 -17 18t-1 29t10 27q7 11 18 21t24.5 15t24.5 -6l125 -123q22 27 56 33l-43 170q-5 19 17 30.5t44 11.5t43 -11.5t16 -30.5l-44 -170q35 -6 58 -32l124 121q11 11 24.5 6.5t24.5 -14.5t18 -21q7 -12 10.5 -27.5t0 -29.5t-15.5 -17l-170 -47q6 -20 6 -32
q0 -18 -6 -34l167 -46q13 -4 17 -18t1 -29t-10 -27q-11 -19 -32 -31t-35 1l-125 122q-22 -27 -57 -32l44 -170q5 -19 -16 -30.5t-43 -11.5t-44 11.5t-17 30.5l44 170q-35 6 -57 33l-125 -122q-11 -11 -24.5 -6.5t-24.5 14.5t-18 21q-7 12 -10 27t0.5 29t16.5 18l170 47
q-6 15 -6 33q0 15 5 32zM337 283q23 0 39.5 16.5t16.5 39.5t-16.5 39.5t-39.5 16.5t-39.5 -16.5t-16.5 -39.5t16.5 -39.5t39.5 -16.5z" />
    <glyph glyph-name="orn.003" unicode="&#xe050;" horiz-adv-x="892" 
d="M118 216q-50 0 -50 67q0 72 55 136t139 64q40 0 78 -19t61.5 -40.5t55.5 -54.5q7 -8 10 -11q63 -66 92 -85q38 -24 73 -24q43 0 77.5 28.5t34.5 77.5q0 19 -7 41t-7 31q0 21 14.5 33.5t35.5 12.5q50 0 50 -67q0 -71 -55 -135.5t-139 -64.5q-41 0 -80.5 20.5t-61.5 41
t-59 60.5q-36 39 -53 56t-50.5 36.5t-64.5 19.5q-44 0 -78.5 -28.5t-34.5 -77.5q0 -18 7 -40t7 -32q0 -21 -14.5 -33.5t-35.5 -12.5z" />
    <glyph glyph-name="orn.004" unicode="&#xe051;" horiz-adv-x="846" 
d="M340 587q-19 0 -31 14t-12 33q0 45 66 45q69 0 133.5 -54t64.5 -135q0 -11 -6.5 -17.5t-15.5 -6.5q-21 0 -21 24q-2 42 -30.5 76.5t-75.5 34.5q-18 0 -40 -7t-32 -7zM92 219q-45 0 -45 65q0 71 54.5 135t135.5 64q31 0 59 -10t56 -31.5t44.5 -37.5t45.5 -46
q35 -37 54 -55t50 -36t60 -18q43 0 79 28.5t36 77.5q0 19 -7 41t-7 31q0 19 14 31t33 12q45 0 45 -66q0 -70 -55 -134t-136 -64q-40 0 -79 20t-62.5 42t-58.5 60q-29 31 -40.5 42.5t-36 32.5t-45.5 29t-45 8q-44 0 -80 -28.5t-36 -77.5q0 -18 7 -40t7 -32q0 -19 -14 -31
t-33 -12zM284 201q0 9 6 15.5t15 6.5t15.5 -6.5t6.5 -15.5q0 -43 28.5 -78.5t77.5 -35.5q19 0 41 7t31 7q19 0 31 -14t12 -33q0 -45 -65 -45q-71 0 -135 55t-64 137z" />
    <glyph glyph-name="orn.005" unicode="&#xe052;" horiz-adv-x="659" 
d="M199 529q-19 0 -31 14t-12 33q0 45 65 45q71 0 135 -55t64 -137q0 -9 -6 -15.5t-15 -6.5t-15.5 6.5t-6.5 15.5q0 43 -28.5 78.5t-77.5 35.5q-19 0 -41 -7t-31 -7zM393 275q0 9 6.5 15.5t15.5 6.5q43 0 78.5 28.5t35.5 77.5q0 19 -7 41t-7 31q0 19 14 31t33 12
q45 0 45 -65q0 -71 -55 -135t-137 -64q-9 0 -15.5 6t-6.5 15zM98 170q-45 0 -45 65q0 71 55 135t137 64q9 0 15.5 -6t6.5 -15t-6.5 -15.5t-15.5 -6.5q-43 0 -78.5 -28.5t-35.5 -77.5q0 -19 7 -41t7 -31q0 -19 -14 -31t-33 -12zM240 259q0 9 6 15.5t15 6.5t15.5 -6.5
t6.5 -15.5q0 -43 28.5 -78.5t77.5 -35.5q19 0 41 7t31 7q19 0 31 -14t12 -33q0 -45 -65 -45q-71 0 -135 55t-64 137z" />
    <glyph glyph-name="orn.006" unicode="&#xe053;" horiz-adv-x="806" 
d="M58 333q0 143 101 244t244 101t244 -101t101 -244t-101 -244t-244 -101t-244 101t-101 244zM104 333q0 -126 86.5 -215t212.5 -89t212.5 89t86.5 215t-86.5 215t-212.5 89t-212.5 -89t-86.5 -215zM272 463q-19 0 -31 14t-12 33q0 45 65 45q71 0 135 -55t64 -137
q0 -9 -6 -15.5t-15 -6.5t-15.5 6.5t-6.5 15.5q0 43 -28.5 78.5t-77.5 35.5q-18 0 -40 -7t-32 -7zM411 264q0 9 6.5 15.5t15.5 6.5q43 0 78.5 28.5t35.5 77.5q0 19 -7 41t-7 31q0 19 14 31t33 12q45 0 45 -65q0 -71 -55 -135t-137 -64q-9 0 -15.5 6t-6.5 15zM226 159
q-45 0 -45 65q0 71 55 135t137 64q9 0 15.5 -6t6.5 -15t-6.5 -15.5t-15.5 -6.5q-43 0 -78.5 -28.5t-35.5 -77.5q0 -18 7 -40t7 -32q0 -19 -14 -31t-33 -12zM313 303q0 9 6 15.5t15 6.5t15.5 -6.5t6.5 -15.5q0 -43 28.5 -78.5t77.5 -35.5q18 0 40 7t32 7q19 0 31 -14t12 -33
q0 -45 -65 -45q-71 0 -135 55t-64 137z" />
    <glyph glyph-name="orn.007" unicode="&#xe054;" horiz-adv-x="806" 
d="M58 333q0 143 101 244t244 101t244 -101t101 -244t-101 -244t-244 -101t-244 101t-101 244zM104 333q0 -126 86.5 -215t212.5 -89t212.5 89t86.5 215t-86.5 215t-212.5 89t-212.5 -89t-86.5 -215zM402 375q-8 9 -11 23l-33 129q-4 14 11.5 22t32.5 8t32 -8t12 -22
l-33 -129q-1 -6 -4 -12t-5 -8zM213 391q-14 5 -14 22.5t8 31.5q8 15 22 23.5t28 -0.5l94 -93q5 -4 8.5 -9.5t4.5 -8.5l2 -3q-11 -2 -26 2zM438 354q4 11 15 21l94 92q14 9 28 1t22 -23q5 -8 7 -19t-0.5 -21.5t-11.5 -13.5l-128 -35zM438 312q11 2 26 -2l127 -35
q10 -3 12.5 -13.5t0.5 -21.5t-7 -19q-8 -15 -22 -23.5t-28 0.5l-94 93q-5 4 -8.5 9.5t-4.5 8.5zM207 221q-8 14 -8.5 30.5t13.5 23.5l128 35l26 2q-4 -11 -15 -21l-94 -92q-14 -9 -28 -1t-22 23zM358 139l33 129q1 6 4 12t5 8l2 3q8 -9 11 -23l33 -129q3 -14 -12 -22t-32 -8
t-32 8t-12 22z" />
    <glyph glyph-name="yen.uc" unicode="&#xe06a;" 
d="M52 298v63h114l-167 306h139l122 -247l126 247h133l-169 -306h124v-63h-151v-77h151v-62h-151v-159h-130v159h-141v62h141v77h-141z" />
    <glyph glyph-name="ct" unicode="&#xe087;" horiz-adv-x="863" 
d="M32 219q0 101 69.5 174.5t179.5 73.5q5 0 13 -0.5t12 -0.5q-5 18 -5 44q0 74 51.5 124t136.5 50q88 0 141 -45t53 -118v-66h139v-89h-139v-208q0 -68 47 -68q32 0 89 39l33 -91q-7 -6 -20 -14t-52.5 -22t-78.5 -14q-65 0 -103.5 36t-38.5 104v238h-71v67l75 25
q30 27 30 70q0 48 -30 71t-80 23q-49 0 -82.5 -30.5t-33.5 -82.5q0 -29 12 -57q18 -6 34 -14t23 -12l7 -5l-44 -91q-47 41 -109 41q-56 0 -92.5 -39t-36.5 -106q0 -64 34.5 -103t90.5 -39q31 0 61 11.5t44 22.5l14 12l38 -84q-6 -6 -17.5 -16t-54.5 -26t-94 -16
q-110 0 -177.5 66t-67.5 165z" />
    <glyph glyph-name="germandbls.smcp" unicode="&#xe308;" horiz-adv-x="879" 
d="M42 29l36 103q53 -41 129 -41q67 0 67 39q0 19 -23.5 35t-56.5 30.5t-66 32.5t-56.5 48.5t-23.5 71.5q0 63 51.5 107t141.5 44q31 0 66.5 -5.5t56.5 -11.5l20 -5l-18 -106q-63 25 -126 25q-67 0 -67 -36q0 -22 35 -42t77 -36t77 -53t35 -89q0 -68 -54.5 -110t-137.5 -42
q-40 0 -81 10t-62 20zM481 29l36 103q53 -41 129 -41q67 0 67 39q0 19 -23.5 35t-56.5 30.5t-66 32.5t-56.5 48.5t-23.5 71.5q0 63 51.5 107t141.5 44q31 0 66.5 -5.5t55.5 -11.5l21 -5l-18 -106q-63 25 -126 25q-67 0 -67 -36q0 -22 35 -42t77 -36t77 -53t35 -89
q0 -68 -54.5 -110t-137.5 -42q-40 0 -81 10t-61 20z" />
    <glyph glyph-name="uni021B.smcp" unicode="&#xe30b;" horiz-adv-x="496" 
d="M190 -49h106q24 -26 24 -72q0 -42 -30 -74.5t-72 -53.5l-47 50q51 23 51 72q0 46 -32 78zM187 0v387h-165v100h452v-100h-162v-387h-125z" />
    <glyph glyph-name="ordfeminine.smcp" unicode="&#xe351;" horiz-adv-x="470" 
d="M46 296l137 364h104l136 -364h-96l-25 73h-137l-26 -73h-93zM234 566l-43 -124h85z" />
    <glyph glyph-name="ordmasculine.smcp" unicode="&#xe352;" horiz-adv-x="479" 
d="M236 289q-90 0 -145 54.5t-55 131.5q0 76 55 132t150 56q92 0 147 -52t55 -128q0 -79 -57.5 -136.5t-149.5 -57.5zM237 367q50 0 79 33t29 78q0 43 -27 74.5t-78 31.5q-50 0 -78 -32t-28 -76q0 -43 26.5 -76t76.5 -33z" />
    <glyph glyph-name="a.sups" unicode="&#xe361;" horiz-adv-x="356" 
d="M119 289q-45 0 -72.5 23.5t-27.5 61.5q0 99 187 124v10q0 23 -7.5 35t-32.5 12q-24 0 -50.5 -10.5t-41.5 -20.5l-14 -10l-21 69q7 5 19 11.5t52 18t82 11.5q62 0 86.5 -25t24.5 -78v-123q0 -17 9 -26.5t18 -10.5l9 -1l-25 -68q-75 1 -97 42q-34 -45 -98 -45zM146 356
q28 0 60 36v52q-88 -14 -88 -59q0 -29 28 -29z" />
    <glyph glyph-name="b.sups" unicode="&#xe362;" horiz-adv-x="385" 
d="M43 307v457h97v-164q28 24 76 24q68 0 106 -44.5t38 -110.5q0 -76 -48 -128t-136 -52q-16 0 -35 2t-35.5 4.5t-30.5 5t-23 4.5zM197 554q-29 0 -57 -20v-173q17 -6 37 -6q38 0 61 28.5t23 79.5q0 42 -17 66.5t-47 24.5z" />
    <glyph glyph-name="c.sups" unicode="&#xe363;" horiz-adv-x="334" 
d="M196 289q-79 0 -126.5 46t-47.5 116q0 71 48 122t132 51q36 0 66 -10t42 -20l12 -11l-42 -63q-29 33 -74 33q-37 0 -60.5 -25.5t-23.5 -69.5t23 -71.5t60 -27.5q22 0 43.5 9.5t32.5 19.5l11 9l26 -67q-4 -5 -13 -11.5t-41 -18t-68 -11.5z" />
    <glyph glyph-name="d.sups" unicode="&#xe364;" horiz-adv-x="391" 
d="M166 289q-64 0 -103 46t-39 112q0 72 45.5 124.5t124.5 52.5q30 0 54 -8v148h97v-369q0 -17 3.5 -41t7.5 -40l3 -16l-91 -5q-6 20 -10 41q-27 -45 -92 -45zM187 357q31 0 61 37v121q0 40 -44 40q-38 0 -58.5 -26.5t-20.5 -74.5q0 -45 17 -71t45 -26z" />
    <glyph glyph-name="e.sups" unicode="&#xe365;" horiz-adv-x="354" 
d="M193 289q-80 0 -125 48t-45 117q0 71 45.5 120.5t118.5 49.5q64 0 102 -41.5t39 -119.5l-48 -13l-157 -20q19 -71 85 -71q26 0 51 11t37 22l13 11l23 -69q-6 -5 -17 -12.5t-47.5 -20t-74.5 -12.5zM179 556q-24 0 -40 -20t-19 -52l106 14q0 2 -0.5 6t-3 14t-7 17.5t-14 14
t-22.5 6.5z" />
    <glyph glyph-name="f.sups" unicode="&#xe366;" horiz-adv-x="255" 
d="M15 550v51l50 17v7q0 73 44 114.5t114 41.5q28 0 53.5 -6.5t37.5 -13.5l11 -7l-32 -71q-31 25 -69 25q-28 0 -45 -19t-17 -58v-15h86v-66h-86v-253h-97v253h-50z" />
    <glyph glyph-name="g.sups" unicode="&#xe367;" horiz-adv-x="369" 
d="M164 133q-61 0 -106 23t-45 61q0 45 73 85q-47 18 -47 48q0 33 52 64q-66 31 -66 99q0 51 42 81t102 30q23 0 50.5 -6.5t43.5 -6.5h45q10 0 21 1.5t17 3.5l5 2l5 -66h-34q-17 0 -26 1q21 -23 21 -51q0 -45 -45.5 -73.5t-106.5 -28.5h-14q-20 -13 -20 -20q0 -8 16 -14
t59 -17q5 -1 8.5 -2t7.5 -2q25 -6 42 -12t38 -17t32 -27.5t11 -37.5q0 -47 -52.5 -82.5t-128.5 -35.5zM99 230q0 -15 18 -24t47 -9q36 0 60.5 11.5t24.5 27.5q0 7 -6.5 13t-20.5 11.5t-25.5 9t-33.5 8.5q-11 3 -16 4q-48 -30 -48 -52zM169 461q24 0 39 14.5t15 35.5
q0 20 -13.5 35.5t-38.5 15.5t-39.5 -15.5t-14.5 -35.5t13.5 -35t38.5 -15z" />
    <glyph glyph-name="h.sups" unicode="&#xe368;" horiz-adv-x="388" 
d="M249 297v188q0 62 -28 62q-32 0 -80 -48v-202h-97v467h97v-193q50 54 113 54q92 0 92 -100v-228h-97z" />
    <glyph glyph-name="i.sups" unicode="&#xe369;" horiz-adv-x="186" 
d="M94 690q-23 0 -39 16t-16 40q0 21 16 36t39 15q21 0 37 -15.5t16 -35.5q0 -24 -16 -40t-37 -16zM44 297v319h97v-319h-97z" />
    <glyph glyph-name="j.sups" unicode="&#xe36a;" horiz-adv-x="186" 
d="M94 690q-23 0 -39 16t-16 40q0 21 16 36t39 15q21 0 37 -15.5t16 -35.5q0 -24 -16 -40t-37 -16zM-15 130l-26 76q41 6 63 27t22 75v308h98v-304q0 -162 -157 -182z" />
    <glyph glyph-name="k.sups" unicode="&#xe36b;" horiz-adv-x="380" 
d="M258 297l-106 144h-10v-144h-98v467h98v-255h12l96 107h121l-133 -139l140 -180h-120z" />
    <glyph glyph-name="l.sups" unicode="&#xe36c;" horiz-adv-x="186" 
d="M44 297v467h97v-467h-97z" />
    <glyph glyph-name="m.sups" unicode="&#xe36d;" horiz-adv-x="584" 
d="M44 297v319h94v-49q51 57 112 57q68 0 86 -59q51 59 114 59q92 0 92 -100v-227h-97v187q0 62 -28 62t-76 -48v-201h-97v187q0 62 -27 62q-30 0 -76 -48v-201h-97z" />
    <glyph glyph-name="o.sups" unicode="&#xe36e;" horiz-adv-x="400" 
d="M199 289q-84 0 -130.5 49t-46.5 117t45 118.5t135 50.5q83 0 129.5 -47.5t46.5 -113.5q0 -67 -45 -120.5t-134 -53.5zM201 357q33 0 54.5 27.5t21.5 69.5t-19.5 71.5t-57.5 29.5q-33 0 -55 -26.5t-22 -66.5q0 -44 20 -74.5t58 -30.5z" />
    <glyph glyph-name="p.sups" unicode="&#xe36f;" horiz-adv-x="389" 
d="M44 139v477h89v-45q29 54 92 54t101 -45.5t38 -112.5q0 -73 -44 -125.5t-121 -52.5q-37 0 -58 10v-160h-97zM208 552q-39 0 -67 -41v-125q0 -29 48 -29q33 0 53.5 27t20.5 77q0 42 -15 66.5t-40 24.5z" />
    <glyph glyph-name="q.sups" unicode="&#xe370;" horiz-adv-x="384" 
d="M243 138v174q-30 -24 -74 -24q-70 0 -108 44t-38 111q0 76 48.5 128.5t136.5 52.5q25 0 58 -4.5t54 -9.5l20 -4v-468h-97zM186 359q27 0 57 20v172q-18 7 -35 7q-38 0 -61.5 -28.5t-23.5 -79.5q0 -42 17 -66.5t46 -24.5z" />
    <glyph glyph-name="r.sups" unicode="&#xe371;" horiz-adv-x="263" 
d="M44 297v319h94v-52q40 60 96 60l27 -5l-14 -87q-16 6 -30 6q-39 0 -75 -46v-195h-98z" />
    <glyph glyph-name="s.sups" unicode="&#xe372;" horiz-adv-x="303" 
d="M139 289q-31 0 -60 7t-42 14l-13 7l18 80q39 -38 96 -38q43 0 43 24q0 13 -23.5 25t-51 22t-51 34.5t-23.5 58.5q0 42 34.5 71.5t104.5 29.5q26 0 50.5 -4.5t36.5 -9.5l11 -4l-17 -79q-37 27 -84 27q-40 0 -40 -22q0 -12 23.5 -24t51.5 -22t51.5 -34t23.5 -59
q0 -45 -37 -74.5t-102 -29.5z" />
    <glyph glyph-name="t.sups" unicode="&#xe373;" horiz-adv-x="290" 
d="M168 289q-49 0 -77.5 25.5t-28.5 73.5v162h-49v51l52 17v75l95 17v-94h97v-66h-97v-138q0 -48 28 -48q12 0 27 7t25 14l9 7l29 -68q-47 -35 -110 -35z" />
    <glyph glyph-name="u.sups" unicode="&#xe374;" horiz-adv-x="388" 
d="M135 289q-42 0 -67.5 23.5t-25.5 72.5v231h98v-187q0 -32 6 -47t23 -15q29 0 74 39v210h98v-221q0 -17 3.5 -41.5t7.5 -39.5l3 -16l-95 -7q-6 27 -9 50q-52 -52 -116 -52z" />
    <glyph glyph-name="v.sups" unicode="&#xe375;" horiz-adv-x="334" 
d="M119 294l-120 322h102l65 -204l71 204h99l-128 -322h-89z" />
    <glyph glyph-name="w.sups" unicode="&#xe376;" horiz-adv-x="543" 
d="M110 294l-103 322h99l58 -213l66 213h85l67 -211l57 211h97l-103 -322h-95l-66 194l-67 -194h-95z" />
    <glyph glyph-name="x.sups" unicode="&#xe377;" horiz-adv-x="348" 
d="M9 297l113 160l-112 159h111l56 -86l57 86h105l-114 -159l115 -160h-109l-59 87l-58 -87h-105z" />
    <glyph glyph-name="y.sups" unicode="&#xe378;" horiz-adv-x="332" 
d="M22 130l-26 75q40 4 70.5 24.5t43.5 48.5l10 24l-123 314h100l71 -199l69 199h96l-132 -343q-23 -56 -69 -96.5t-110 -46.5z" />
    <glyph glyph-name="z.sups" unicode="&#xe379;" horiz-adv-x="328" 
d="M26 297v53l144 196h-138v70h264v-53l-146 -196h151l1 -70h-276z" />
    <glyph glyph-name="egrave.sups" unicode="&#xe37a;" horiz-adv-x="354" 
d="M193 289q-80 0 -125 48t-45 117q0 71 45.5 120.5t118.5 49.5q64 0 102 -41.5t39 -119.5l-48 -13l-157 -20q19 -71 85 -71q26 0 51 11t37 22l13 11l23 -69q-6 -5 -17 -12.5t-47.5 -20t-74.5 -12.5zM179 556q-24 0 -40 -20t-19 -52l106 14q0 2 -0.5 6t-3 14t-7 17.5t-14 14
t-22.5 6.5zM77 711l28 74l172 -76l-20 -54z" />
    <glyph glyph-name="ampersand.001" unicode="&#xe37b;" horiz-adv-x="631" 
d="M34 167q0 62 36 105t99 78q-52 93 -52 161t47.5 118t140.5 50q83 0 130 -42.5t47 -112.5q0 -68 -40 -112.5t-111 -82.5q25 -35 35 -45q65 -81 148.5 -163t176 -147.5t152.5 -73.5l-50 -89q-93 4 -254 132.5t-284 282.5q-29 36 -33 43q-71 -45 -71 -97q0 -40 33.5 -63
t81.5 -23q12 0 23 1.5t16 2.5l5 2l20 -98h-3q-3 -1 -8.5 -2t-12 -2t-16.5 -1.5t-20 -0.5q-42 0 -82 10t-75.5 30t-57 56t-21.5 83zM245 512q0 -43 34 -103q45 25 69 50t24 59q0 27 -17 45t-47 18q-31 0 -47 -20t-16 -49z" />
    <glyph glyph-name="exclamdown.uc" unicode="&#xe441;" horiz-adv-x="284" 
d="M190 442l21 -454h-143l23 454h99zM220 603q0 -32 -22.5 -55t-54.5 -23t-54.5 23t-22.5 55q0 31 22.5 53.5t54.5 22.5q31 0 54 -22.5t23 -53.5z" />
    <glyph glyph-name="questiondown.uc" unicode="&#xe444;" horiz-adv-x="367" 
d="M275 442q2 -12 2 -23q0 -40 -17.5 -78.5t-39 -63t-39 -50t-17.5 -41.5q0 -26 43 -56.5t86 -47.5l43 -18l-28 -111q-11 3 -30 9.5t-68 27.5t-86 44t-67.5 60t-30.5 76q0 26 15 52.5t37 50t44 48t37 56t15 65.5h101zM299 603q0 -32 -22.5 -55t-53.5 -23q-32 0 -55 23
t-23 55q0 31 23 53.5t55 22.5q31 0 53.5 -22.5t22.5 -53.5z" />
    <glyph glyph-name="guillemotleft.uc" unicode="&#xe451;" horiz-adv-x="517" 
d="M211 331v4q15 12 98 106q54 60 92 103l69 -20l-143 -191q6 -9 143 -191l-69 -20q-44 48 -80.5 89t-52.5 59t-28.5 32t-17.5 19t-11 10zM205 122q-44 48 -80.5 89t-52.5 59t-28.5 32t-17.5 19t-11 10v4q15 12 98 106q54 60 92 103l69 -20l-143 -191q6 -9 143 -191z" />
    <glyph glyph-name="guillemotright.uc" unicode="&#xe452;" horiz-adv-x="517" 
d="M242 142l143 191q-6 7 -143 191l69 20q174 -195 183 -203q3 -3 7 -6v-4q-6 -5 -11 -10t-17.5 -19t-28.5 -32t-52.5 -59t-80.5 -89zM46 142l144 191q-6 7 -144 191l69 20q174 -195 183 -203q3 -3 7 -6v-4q-6 -5 -11 -10t-17.5 -19t-28.5 -32t-52.5 -59t-80.5 -89z" />
    <glyph glyph-name="guilsinglleft.uc" unicode="&#xe453;" horiz-adv-x="321" 
d="M206 122q-44 48 -80.5 89t-52.5 59t-28.5 32t-17.5 19t-11 10v4q15 12 98 106q54 60 92 103l69 -20l-143 -191q6 -9 143 -191z" />
    <glyph glyph-name="guilsinglright.uc" unicode="&#xe454;" horiz-adv-x="321" 
d="M46 142l144 191q-6 7 -144 191l69 20q174 -195 183 -203q3 -3 7 -6v-4q-6 -5 -11 -10t-17.5 -19t-28.5 -32t-52.5 -59t-80.5 -89z" />
    <glyph glyph-name="braceleft.uc" unicode="&#xe459;" horiz-adv-x="348" 
d="M124 10v15q0 36 -0.5 57t-3 59t-10 61.5t-19.5 49t-32.5 38.5t-47.5 14v69q27 1 47.5 13t32.5 37t19.5 47t10 59.5t3 56.5t0.5 56v15q0 81 58 120.5t155 39.5v-66q-43 -3 -67.5 -11t-37.5 -27.5t-16 -42t-3 -66.5q0 -224 -104 -264v-2q104 -40 104 -275q0 -44 3 -66.5
t16 -41.5t37.5 -27t67.5 -12v-66q-213 0 -213 160z" />
    <glyph glyph-name="slash.uc" unicode="&#xe461;" horiz-adv-x="354" 
d="M-30 -98l333 863h84l-332 -863h-85z" />
    <glyph glyph-name="backslash.uc" unicode="&#xe462;" horiz-adv-x="358" 
d="M301 -98l-332 863h87l333 -863h-88z" />
    <glyph glyph-name="bar.uc" unicode="&#xe463;" horiz-adv-x="234" 
d="M73 -154v974h90v-974h-90z" />
    <glyph glyph-name="slash.smcp" unicode="&#xe467;" horiz-adv-x="358" 
d="M-33 -160l302 782h88l-301 -782h-89z" />
    <glyph glyph-name="backslash.smcp" unicode="&#xe468;" horiz-adv-x="358" 
d="M301 -160l-300 782h88l301 -782h-89z" />
    <glyph glyph-name="bar.smcp" unicode="&#xe469;" horiz-adv-x="244" 
d="M77 -150v783h90v-783h-90z" />
    <glyph glyph-name="hyphen.uc" unicode="&#xe482;" horiz-adv-x="405" 
d="M70 293v80h265v-80h-265z" />
    <glyph glyph-name="endash.uc" unicode="&#xe484;" horiz-adv-x="551" 
d="M70 293v81h410v-81h-410z" />
    <glyph glyph-name="emdash.uc" unicode="&#xe486;" horiz-adv-x="941" 
d="M70 293v81h800v-81h-800z" />
    <glyph glyph-name="parenleft.uc" unicode="&#xe491;" horiz-adv-x="308" 
d="M44 348q0 74 16 145.5t38.5 120.5t45 88t38.5 58l16 19l87 -29q-6 -7 -15.5 -19t-34.5 -53.5t-44.5 -85t-35 -110.5t-15.5 -134q0 -73 15.5 -144.5t37 -120.5t43.5 -87.5t38 -57.5l15 -18l-86 -33q-6 7 -17 21t-38.5 60t-48.5 96t-38 127.5t-17 156.5z" />
    <glyph glyph-name="parenright.uc" unicode="&#xe492;" horiz-adv-x="307" 
d="M18 -80q6 7 16 19.5t36 55.5t45.5 89.5t35.5 118.5t16 145q0 67 -15 133t-36 112.5t-42.5 83.5t-36.5 55l-15 18l87 29q6 -7 16.5 -20t37 -56t47 -90t37 -119t16.5 -146q0 -79 -16.5 -156t-39.5 -129.5t-46.5 -94t-40.5 -61.5l-16 -20z" />
    <glyph glyph-name="bracketleft.uc" unicode="&#xe493;" horiz-adv-x="289" 
d="M74 -82v829h202v-70h-113v-688h113v-71h-202z" />
    <glyph glyph-name="bracketright.uc" unicode="&#xe494;" horiz-adv-x="287" 
d="M11 -21h113v707h-113v61h202v-829h-202v61z" />
    <glyph glyph-name="braceright.uc" unicode="&#xe496;" horiz-adv-x="348" 
d="M134 63q0 235 104 275v2q-104 40 -104 264q0 44 -3 66.5t-16 42t-37.5 27.5t-67.5 11v66q98 0 155.5 -39.5t57.5 -120.5q0 -131 13 -184q25 -98 100 -100v-69q-27 -1 -47.5 -14t-32.5 -39t-19.5 -49t-10 -62t-3 -58.5t-0.5 -56.5v-15q0 -160 -213 -160v66q43 4 67.5 12
t37.5 27t16 41.5t3 66.5z" />
    <glyph glyph-name="zero.zero" unicode="&#xe515;" horiz-adv-x="560" 
d="M41 232q0 102 64 178.5t179 76.5q110 0 172.5 -70.5t62.5 -167.5q0 -65 -25.5 -123t-82.5 -98t-134 -40q-110 0 -173 72.5t-63 171.5zM158 235q0 -63 29.5 -106t92.5 -43q64 0 93.5 43t29.5 107t-29.5 108.5t-92.5 44.5q-64 0 -93.5 -44.5t-29.5 -109.5zM226 237
q0 22 16 38t38 16t38 -16t16 -38t-16 -38t-38 -16t-38 16t-16 38z" />
    <glyph glyph-name="four.pnum" unicode="&#xe529;" horiz-adv-x="545" 
d="M21 164l-5 82l271 424h140v-407h80v-99h-80v-164h-126v164h-280zM139 263h162v257z" />
    <glyph glyph-name="zero.tnum_zero" unicode="&#xe530;" 
d="M258 -12q-79 0 -133 49t-77 121.5t-23 161.5q0 69 13.5 131t40.5 114.5t74.5 83t109.5 30.5q60 0 106 -27.5t72.5 -74.5t40 -103.5t13.5 -121.5q0 -95 -22.5 -174.5t-78 -134.5t-136.5 -55zM260 97q29 0 50 20.5t32 56t16 75t5 86.5q0 235 -102 235q-39 0 -63 -36
t-32.5 -85t-8.5 -113t8.5 -114.5t32.5 -87.5t62 -37zM259 278q-22 0 -38 16t-16 38t16 38t38 16t38 -16t16 -38t-16 -38t-38 -16z" />
    <glyph glyph-name="at.uc" unicode="&#xe531;" horiz-adv-x="843" 
d="M31 301q0 107 52 199.5t149 150t219 57.5q162 0 265 -94.5t103 -237.5q0 -150 -106 -219q-23 -15 -51 -24.5t-74.5 -19.5t-71.5 -17q-18 70 -19 71q-15 -29 -50 -50t-74 -21q-64 0 -107.5 52.5t-43.5 138.5q0 118 83 190.5t199 72.5q18 0 39 -2t33 -4l13 -2v-261
q0 -20 2 -41t4 -32l2 -11q63 4 95.5 51.5t32.5 118.5q0 112 -73.5 188t-199.5 76q-144 0 -235 -97.5t-91 -230.5q0 -125 81.5 -207t186.5 -88l-15 -81q-148 9 -248 115t-100 259zM395 188q44 0 77 53v224q-57 0 -94.5 -51t-37.5 -122q0 -43 14 -73.5t41 -30.5z" />
    <glyph glyph-name="zero.pnum" unicode="&#xe534;" horiz-adv-x="560" 
d="M277 -12q-79 0 -133 49t-77 121.5t-23 161.5q0 69 13.5 131t40.5 114.5t74.5 83t109.5 30.5q60 0 106 -27.5t72.5 -74.5t40 -103.5t13.5 -121.5q0 -95 -22.5 -174.5t-78 -134.5t-136.5 -55zM279 97q29 0 50 20.5t32 56t16 75t5 86.5q0 235 -102 235q-39 0 -63 -36
t-32.5 -85t-8.5 -113t8.5 -114.5t32.5 -87.5t62 -37z" />
    <glyph glyph-name="zero.pnum_zero" unicode="&#xe535;" horiz-adv-x="560" 
d="M277 -12q-79 0 -133 49t-77 121.5t-23 161.5q0 69 13.5 131t40.5 114.5t74.5 83t109.5 30.5q60 0 106 -27.5t72.5 -74.5t40 -103.5t13.5 -121.5q0 -95 -22.5 -174.5t-78 -134.5t-136.5 -55zM279 97q29 0 50 20.5t32 56t16 75t5 86.5q0 235 -102 235q-39 0 -63 -36
t-32.5 -85t-8.5 -113t8.5 -114.5t32.5 -87.5t62 -37zM278 278q-22 0 -38 16t-16 38t16 38t38 16t38 -16t16 -38t-16 -38t-38 -16z" />
    <glyph glyph-name="one.pnum" unicode="&#xe536;" horiz-adv-x="454" 
d="M41 0v104h137v455h-125v108h255v-563h131v-104h-398z" />
    <glyph glyph-name="two.pnum" unicode="&#xe537;" horiz-adv-x="526" 
d="M41 0l-5 76q13 13 61 59.5t62 61t50 52.5t48.5 57.5t31.5 50t25.5 57t6.5 53.5q0 50 -25.5 75t-66.5 25q-31 0 -64 -14.5t-51 -28.5l-17 -15l-63 81q3 4 9.5 10t27.5 21t44 27t58.5 21.5t71.5 9.5q88 0 148.5 -50t60.5 -146q0 -44 -14.5 -88t-32.5 -76.5t-55 -75.5
t-61 -67t-70 -68h267v-108h-447z" />
    <glyph glyph-name="three.pnum" unicode="&#xe538;" horiz-adv-x="495" 
d="M27 44l52 96q54 -43 126 -43q54 0 83.5 27.5t29.5 71.5q0 43 -38.5 64t-92.5 21q-1 0 -52 -3v109q58 2 110 36t52 79q0 32 -21 49.5t-59 17.5q-30 0 -62 -12.5t-49 -24.5l-17 -12l-49 91q10 8 27 19t69 30t101 19q86 0 138.5 -47.5t52.5 -113.5q0 -97 -121 -159
q68 -18 106 -62.5t38 -103.5q0 -84 -69 -144.5t-173 -60.5q-48 0 -93.5 14t-67.5 28z" />
    <glyph glyph-name="five.pnum" unicode="&#xe53a;" horiz-adv-x="482" 
d="M30 42l47 99q58 -44 127 -44q53 0 81.5 28.5t28.5 71.5q0 56 -58 91.5t-181 58.5v320h331v-108h-211v-122q252 -68 252 -238q0 -95 -71.5 -153t-170.5 -58q-46 0 -90 13.5t-65 26.5z" />
    <glyph glyph-name="six.pnum" unicode="&#xe53b;" horiz-adv-x="552" 
d="M287 -12q-119 0 -182.5 83t-63.5 206q0 76 25 145t73.5 126t128.5 92t181 39l9 -109q-215 -9 -271 -170q52 42 119 42q97 0 153.5 -62.5t56.5 -153.5q0 -98 -60 -168t-169 -70zM274 333q-63 0 -105 -46q0 -86 30.5 -138t90.5 -52q45 0 70 32t25 87q0 117 -111 117z" />
    <glyph glyph-name="seven.pnum" unicode="&#xe53c;" horiz-adv-x="465" 
d="M52 13q143 259 254 540h-277v114h426v-72q-127 -319 -279 -607z" />
    <glyph glyph-name="eight.pnum" unicode="&#xe53d;" horiz-adv-x="542" 
d="M42 159q0 59 36 101.5t99 82.5q-98 78 -98 163q0 73 56.5 123t144.5 50q81 0 137.5 -43t56.5 -117q0 -89 -102 -164q59 -38 91.5 -77.5t32.5 -95.5q0 -77 -66 -135.5t-165 -58.5q-92 0 -157.5 45t-65.5 126zM368 175q0 29 -26.5 53.5t-79.5 58.5q-51 -31 -78.5 -58
t-27.5 -59q0 -35 28 -57t75 -22q45 0 77 25.5t32 58.5zM209 513q0 -53 77 -103q73 49 73 100q0 30 -21 48.5t-55 18.5q-36 0 -55 -18t-19 -46z" />
    <glyph glyph-name="nine.pnum" unicode="&#xe53e;" horiz-adv-x="547" 
d="M102 -12l-9 109q215 8 268 177q-50 -44 -121 -44q-95 0 -150 61t-55 150q0 98 59 168t165 70q119 0 182.5 -83t63.5 -206q0 -76 -25 -145t-72.5 -126t-126.5 -92t-179 -39zM272 339q59 0 105 46q-1 83 -31.5 134t-89.5 51q-42 0 -66 -32t-24 -87q0 -112 106 -112z" />
    <glyph glyph-name="zero.tnum" unicode="&#xe53f;" 
d="M258 -12q-79 0 -133 49t-77 121.5t-23 161.5q0 69 13.5 131t40.5 114.5t74.5 83t109.5 30.5q60 0 106 -27.5t72.5 -74.5t40 -103.5t13.5 -121.5q0 -95 -22.5 -174.5t-78 -134.5t-136.5 -55zM260 97q29 0 50 20.5t32 56t16 75t5 86.5q0 235 -102 235q-39 0 -63 -36
t-32.5 -85t-8.5 -113t8.5 -114.5t32.5 -87.5t62 -37z" />
    <glyph glyph-name="one.tnum" unicode="&#xe541;" 
d="M70 0v104h137v455h-125v108h255v-563h131v-104h-398z" />
    <glyph glyph-name="two.tnum" unicode="&#xe542;" 
d="M39 0l-5 76q13 13 61 59.5t62 61t50 52.5t48.5 57.5t31.5 50t25.5 57t6.5 53.5q0 50 -25.5 75t-66.5 25q-31 0 -64 -14.5t-51 -28.5l-17 -15l-63 81q3 4 9.5 10t27.5 21t44 27t58.5 21.5t71.5 9.5q88 0 148.5 -50t60.5 -146q0 -44 -14.5 -88t-32.5 -76.5t-55 -75.5
t-61 -67t-70 -68h267v-108h-447z" />
    <glyph glyph-name="three.tnum" unicode="&#xe543;" 
d="M39 44l52 96q54 -43 126 -43q54 0 83.5 27.5t29.5 71.5q0 43 -38.5 64t-92.5 21q-1 0 -52 -3v109q58 2 110 36t52 79q0 32 -21 49.5t-59 17.5q-30 0 -62 -12.5t-49 -24.5l-17 -12l-49 91q10 8 27 19t69 30t101 19q86 0 138.5 -47.5t52.5 -113.5q0 -97 -121 -159
q68 -18 106 -62.5t38 -103.5q0 -84 -69 -144.5t-173 -60.5q-48 0 -93.5 14t-67.5 28z" />
    <glyph glyph-name="four.tnum" unicode="&#xe544;" 
d="M11 164l-5 82l271 424h140v-407h80v-99h-80v-164h-126v164h-280zM129 263h162v257z" />
    <glyph glyph-name="five.tnum" unicode="&#xe545;" 
d="M48 42l47 99q58 -44 127 -44q53 0 81.5 28.5t28.5 71.5q0 56 -58 91.5t-181 58.5v320h331v-108h-211v-122q252 -68 252 -238q0 -95 -71.5 -153t-170.5 -58q-46 0 -90 13.5t-65 26.5z" />
    <glyph glyph-name="six.tnum" unicode="&#xe546;" 
d="M270 -12q-119 0 -182.5 83t-63.5 206q0 76 25 145t73.5 126t128.5 92t181 39l9 -109q-215 -9 -271 -170q52 42 119 42q97 0 153.5 -62.5t56.5 -153.5q0 -98 -60 -168t-169 -70zM257 333q-63 0 -105 -46q0 -86 30.5 -138t90.5 -52q45 0 70 32t25 87q0 117 -111 117z" />
    <glyph glyph-name="seven.tnum" unicode="&#xe547;" 
d="M77 13q143 259 254 540h-277v114h426v-72q-127 -319 -279 -607z" />
    <glyph glyph-name="eight.tnum" unicode="&#xe548;" 
d="M32 159q0 59 36 101.5t99 82.5q-98 78 -98 163q0 73 56.5 123t144.5 50q81 0 137.5 -43t56.5 -117q0 -89 -102 -164q59 -38 91.5 -77.5t32.5 -95.5q0 -77 -66 -135.5t-165 -58.5q-92 0 -157.5 45t-65.5 126zM358 175q0 29 -26.5 53.5t-79.5 58.5q-51 -31 -78.5 -58
t-27.5 -59q0 -35 28 -57t75 -22q45 0 77 25.5t32 58.5zM199 513q0 -53 77 -103q73 49 73 100q0 30 -21 48.5t-55 18.5q-36 0 -55 -18t-19 -46z" />
    <glyph glyph-name="nine.tnum" unicode="&#xe549;" 
d="M90 -12l-9 109q215 8 268 177q-50 -44 -121 -44q-95 0 -150 61t-55 150q0 98 59 168t165 70q119 0 182.5 -83t63.5 -206q0 -76 -25 -145t-72.5 -126t-126.5 -92t-179 -39zM260 339q59 0 105 46q-1 83 -31.5 134t-89.5 51q-42 0 -66 -32t-24 -87q0 -112 106 -112z" />
    <glyph glyph-name="zero.onum_tab" unicode="&#xe555;" 
d="M22 232q0 102 64 178.5t179 76.5q110 0 172.5 -70.5t62.5 -167.5q0 -65 -25.5 -123t-82.5 -98t-134 -40q-110 0 -173 72.5t-63 171.5zM139 235q0 -63 29.5 -106t92.5 -43q64 0 93.5 43t29.5 107t-29.5 108.5t-92.5 44.5q-64 0 -93.5 -44.5t-29.5 -109.5z" />
    <glyph glyph-name="zero.onum_tab_zero" unicode="&#xe556;" 
d="M22 232q0 102 64 178.5t179 76.5q110 0 172.5 -70.5t62.5 -167.5q0 -65 -25.5 -123t-82.5 -98t-134 -40q-110 0 -173 72.5t-63 171.5zM139 235q0 -63 29.5 -106t92.5 -43q64 0 93.5 43t29.5 107t-29.5 108.5t-92.5 44.5q-64 0 -93.5 -44.5t-29.5 -109.5zM207 237
q0 22 16 38t38 16t38 -16t16 -38t-16 -38t-38 -16t-38 16t-16 38z" />
    <glyph glyph-name="one.onum_tab" unicode="&#xe557;" 
d="M95 0v97h120v277h-116v101h238v-378h110v-97h-352z" />
    <glyph glyph-name="two.onum_tab" unicode="&#xe558;" 
d="M69 0v70q9 6 23.5 17t52.5 42.5t67 60.5t52.5 65t23.5 62q0 30 -19.5 48.5t-51.5 18.5q-23 0 -48.5 -9t-39.5 -19l-14 -9l-49 77q8 7 23 17.5t61 28t92 17.5q77 0 125.5 -43t48.5 -110q0 -62 -46 -118.5t-123 -119.5h211v-96h-389z" />
    <glyph glyph-name="three.onum_tab" unicode="&#xe559;" 
d="M72 -102q24 -2 35 -2q84 0 138.5 33t54.5 94q0 47 -43 68t-101 21h-21v92q54 3 102 40t48 84q0 26 -18 41t-46 15q-23 0 -48.5 -10t-39.5 -20l-14 -11l-55 80q9 7 24.5 17.5t62.5 28.5t93 18q72 0 120.5 -39.5t48.5 -98.5q0 -100 -123 -166q66 -18 102 -61.5t36 -98.5
q0 -101 -90.5 -160.5t-224.5 -59.5q-20 0 -30 1z" />
    <glyph glyph-name="four.onum_tab" unicode="&#xe55a;" 
d="M15 13v82l267 383h130v-373h89v-92h-89v-206h-121v206h-276zM135 105h156v236z" />
    <glyph glyph-name="five.onum_tab" unicode="&#xe55b;" 
d="M86 -101q28 -2 41 -2q79 0 129 30.5t50 93.5q0 30 -13.5 53t-25.5 35t-48 24.5t-47.5 15t-55.5 10.5q-13 3 -19 4v312h308v-96h-188v-137q46 -12 80.5 -27t67.5 -39t51 -61.5t18 -86.5q0 -107 -85 -166t-220 -59q-21 0 -32 1z" />
    <glyph glyph-name="six.onum_tab" unicode="&#xe55c;" 
d="M267 -12q-111 0 -171 83t-60 205q0 76 24.5 146t71.5 126.5t122.5 91.5t169.5 39l8 -97q-216 -16 -260 -201q46 56 127 56q85 0 137.5 -62t52.5 -151q0 -95 -59.5 -165.5t-162.5 -70.5zM270 336q-59 0 -108 -49q0 -89 29.5 -145t83.5 -56q41 0 65 35t24 90q0 49 -21 87
t-73 38z" />
    <glyph glyph-name="seven.onum_tab" unicode="&#xe55d;" 
d="M74 -179q152 285 257 546h-280v108h421v-73q-112 -283 -278 -606z" />
    <glyph glyph-name="eight.onum_tab" unicode="&#xe55e;" 
d="M44 164q0 58 33.5 100t92.5 79q-95 77 -95 162q0 74 54.5 124t140.5 50q79 0 134 -43t55 -118q0 -91 -102 -164q56 -37 88 -76.5t32 -95.5q0 -77 -61.5 -135.5t-157.5 -58.5q-85 0 -149.5 47t-64.5 129zM353 173q0 21 -16 42.5t-34 35t-53 37.5q-47 -30 -72 -57t-25 -61
q0 -37 28.5 -62t67.5 -25q42 0 73 27.5t31 62.5zM199 515q0 -55 76 -107q74 51 74 105q0 32 -21 51.5t-56 19.5t-54 -19.5t-19 -49.5z" />
    <glyph glyph-name="nine.onum_tab" unicode="&#xe55f;" 
d="M96 -102q217 16 260 203q-44 -58 -127 -58q-85 0 -137.5 61t-52.5 147q0 94 60 165t162 71q111 0 171 -83t60 -205q0 -75 -24.5 -144t-71.5 -125t-122.5 -90.5t-169.5 -38.5zM259 144q59 0 107 48q-1 86 -30 141.5t-82 55.5q-42 0 -65.5 -35t-23.5 -90q0 -29 6.5 -53.5
t28.5 -45.5t59 -21z" />
    <glyph glyph-name="braceleft.smcp" unicode="&#xf60c;" horiz-adv-x="358" 
d="M127 33q0 179 -113 182v69q113 0 113 158q0 102 50.5 144t162.5 42v-66q-30 -2 -50.5 -6t-34.5 -13t-21 -16.5t-11 -27t-5 -33.5t-2 -46q-2 -82 -27.5 -117t-76.5 -52v-2q36 -16 55.5 -33.5t33 -58t15.5 -108.5q1 -46 3.5 -64.5t14.5 -38.5t36.5 -27.5t69.5 -11.5v-66
q-124 0 -168.5 44.5t-44.5 147.5z" />
    <glyph glyph-name="braceright.smcp" unicode="&#xf60d;" horiz-adv-x="358" 
d="M17 -93q45 4 69.5 11.5t37 27.5t15 39t3.5 64q1 68 15 108.5t33.5 58t55.5 33.5v2q-52 17 -77.5 52t-26.5 117q-1 31 -2 45.5t-5 34t-11.5 27t-21.5 16.5t-34.5 13t-50.5 6v66q112 0 163 -42t51 -144q0 -158 112 -158v-69q-112 -3 -112 -182q0 -103 -45 -147.5
t-169 -44.5v66z" />
    <glyph glyph-name="bracketleft.smcp" unicode="&#xf60e;" horiz-adv-x="296" 
d="M77 -156v783h200v-66h-113v-651h113v-66h-200z" />
    <glyph glyph-name="bracketright.smcp" unicode="&#xf60f;" horiz-adv-x="296" 
d="M19 -90h113v651h-113v66h200v-783h-200v66z" />
    <glyph glyph-name="parenleft.smcp" unicode="&#xf618;" horiz-adv-x="304" 
d="M51 245q0 69 14.5 135t34.5 110t40.5 78.5t35.5 51.5l14 16l82 -22q-5 -6 -13.5 -16.5t-30.5 -47t-39 -76.5t-30.5 -102t-13.5 -125q0 -64 13.5 -128.5t32.5 -109.5t38.5 -81.5t32.5 -54.5l14 -18l-81 -26q-6 7 -15.5 19.5t-34.5 54.5t-44 87.5t-34.5 115t-15.5 139.5z
" />
    <glyph glyph-name="parenright.smcp" unicode="&#xf619;" horiz-adv-x="301" 
d="M26 -145q5 7 14 19t31.5 52.5t39.5 83.5t31 108t14 129q0 63 -13 124t-31.5 103t-37 75t-31.5 49l-13 16l81 22q6 -6 15.5 -17t33.5 -49.5t42.5 -80.5t33.5 -108.5t15 -135.5q0 -70 -15 -139t-36 -116.5t-42.5 -85.5t-36.5 -56l-15 -19z" />
    <glyph glyph-name="aringacute.smcp" unicode="&#xf625;" horiz-adv-x="530" 
d="M11 0l181 462q-30 23 -30 65q0 32 25.5 55.5t75.5 23.5t75.5 -23.5t25.5 -55.5q0 -39 -28 -63l184 -464h-125l-35 96h-194l-35 -96h-120zM176 620l-24 67l216 95l35 -92zM263 356l-62 -167h124zM263 483q21 0 33.5 12t12.5 31q0 16 -12 28t-34 12t-33.5 -12t-11.5 -28
q0 -19 11.5 -31t33.5 -12z" />
    <glyph glyph-name="zero.dnom" unicode="&#xf655;" horiz-adv-x="389" 
d="M194 -7q-81 0 -120 57.5t-39 143.5q0 42 9 79.5t27 69t50.5 50t75.5 18.5q79 0 117.5 -57t38.5 -141q0 -91 -39 -155.5t-120 -64.5zM195 67q58 0 58 136q0 134 -57 134q-61 0 -61 -133q0 -137 60 -137z" />
    <glyph glyph-name="one.dnom" unicode="&#xf656;" horiz-adv-x="314" 
d="M31 0v69h92v266h-84v69h178v-335h84v-69h-270z" />
    <glyph glyph-name="two.dnom" unicode="&#xf657;" horiz-adv-x="350" 
d="M34 0l-7 55q11 11 34.5 32.5t36 33.5t32 31.5t30.5 33.5t22.5 30.5t16.5 31.5t5 29q0 50 -56 50q-18 0 -36 -7.5t-27 -15.5l-9 -7l-48 59q5 6 15.5 15t46 24.5t75.5 15.5q60 0 97.5 -33t37.5 -88q0 -90 -136 -217h158v-73h-288z" />
    <glyph glyph-name="three.dnom" unicode="&#xf658;" horiz-adv-x="333" 
d="M144 -8q-33 0 -64 9t-46 19l-15 9l40 66q37 -26 79 -26q29 0 45 14.5t16 34.5q0 23 -22.5 34t-51.5 11h-34v73q34 1 62 18.5t28 44.5q0 33 -40 33q-17 0 -34.5 -6t-26.5 -12l-9 -5l-39 60q54 42 130 42q55 0 87.5 -27.5t32.5 -67.5q0 -36 -24 -64.5t-56 -38.5
q98 -21 98 -94q0 -52 -44 -89.5t-112 -37.5z" />
    <glyph glyph-name="four.dnom" unicode="&#xf659;" horiz-adv-x="368" 
d="M197 0v90h-175l-8 62l166 254h107v-246h56v-70h-56v-90h-90zM95 160h102v155z" />
    <glyph glyph-name="five.dnom" unicode="&#xf65a;" horiz-adv-x="330" 
d="M148 -7q-33 0 -63 8.5t-44 17.5l-14 9l34 69q39 -28 80 -28q29 0 46 14.5t17 34.5q0 63 -152 85v201h224v-73h-142v-62q166 -44 166 -148q0 -58 -44.5 -93t-107.5 -35z" />
    <glyph glyph-name="six.dnom" unicode="&#xf65b;" horiz-adv-x="366" 
d="M185 -7q-79 0 -118.5 49.5t-39.5 125.5q0 99 67.5 169t201.5 75l6 -76q-141 -2 -176 -98q32 27 80 27q59 0 96 -37t37 -90q0 -60 -39.5 -102.5t-114.5 -42.5zM184 195q-34 0 -63 -22q0 -106 64 -106q26 0 41 17.5t15 50.5q0 60 -57 60z" />
    <glyph glyph-name="seven.dnom" unicode="&#xf65c;" horiz-adv-x="316" 
d="M131 -11l-92 19q100 187 156 319h-170v77h279l3 -44q-51 -122 -176 -371z" />
    <glyph glyph-name="eight.dnom" unicode="&#xf65d;" horiz-adv-x="363" 
d="M181 -7q-66 0 -107 29.5t-41 75.5q0 59 87 115q-37 27 -54.5 48.5t-17.5 50.5q0 44 38 71.5t98 27.5q58 0 94.5 -27t36.5 -72q0 -29 -18 -51t-54 -46q86 -57 86 -114q0 -45 -40 -76.5t-108 -31.5zM182 67q22 0 35.5 12.5t13.5 30.5q0 5 -1 9.5t-2.5 8t-4.5 8l-5 7.5
t-6.5 7t-6.5 5.5t-7 5.5t-6.5 5t-7.5 4l-5 4q-48 -31 -48 -63q0 -20 14 -32t37 -12zM139 306q0 -25 45 -54q1 1 5.5 4t6.5 5t6.5 5.5t6.5 6t5.5 6.5t5 7.5t3 7.5t1.5 8q0 17 -12 26t-31 9q-15 0 -28.5 -8t-13.5 -23z" />
    <glyph glyph-name="nine.dnom" unicode="&#xf65e;" horiz-adv-x="364" 
d="M71 -7l-6 76q135 2 170 95q-32 -22 -78 -22q-57 0 -94 36t-37 88q0 60 39 102.5t113 42.5q78 0 117.5 -50t39.5 -125q0 -99 -66.5 -168.5t-197.5 -74.5zM179 212q34 0 62 21q0 104 -63 104q-24 0 -39.5 -18t-15.5 -50q0 -57 56 -57z" />
    <glyph glyph-name="zero.numr" unicode="&#xf661;" horiz-adv-x="389" 
d="M194 256q-81 0 -120 57.5t-39 143.5q0 42 9 79.5t27 69t50.5 50t75.5 18.5q79 0 117.5 -57t38.5 -141q0 -91 -39 -155.5t-120 -64.5zM195 330q58 0 58 136q0 134 -57 134q-61 0 -61 -133q0 -137 60 -137z" />
    <glyph glyph-name="one.numr" unicode="&#xf662;" horiz-adv-x="315" 
d="M31 263v69h92v266h-84v69h178v-335h84v-69h-270z" />
    <glyph glyph-name="two.numr" unicode="&#xf663;" horiz-adv-x="351" 
d="M34 263l-7 55q11 11 34.5 32.5t36 33.5t32 31.5t30.5 33.5t22.5 30.5t16.5 31.5t5 29q0 50 -56 50q-18 0 -36 -7.5t-27 -14.5l-9 -8l-48 59q5 6 15.5 15t46 24.5t75.5 15.5q60 0 97.5 -33t37.5 -88q0 -90 -136 -217h158v-73h-288z" />
    <glyph glyph-name="three.numr" unicode="&#xf664;" horiz-adv-x="333" 
d="M144 255q-33 0 -64 9.5t-46 18.5l-15 9l40 66q37 -26 79 -26q29 0 45 14.5t16 34.5q0 23 -22.5 34t-51.5 11h-34v73q34 1 62 18.5t28 44.5q0 33 -40 33q-17 0 -34.5 -5.5t-26.5 -11.5l-9 -6l-39 60q54 42 130 42q55 0 87.5 -27.5t32.5 -67.5q0 -36 -24 -64.5t-56 -38.5
q98 -21 98 -94q0 -52 -44 -89.5t-112 -37.5z" />
    <glyph glyph-name="four.numr" unicode="&#xf665;" horiz-adv-x="369" 
d="M198 263v90h-175l-8 62l166 254h107v-246h56v-70h-56v-90h-90zM96 423h102v155z" />
    <glyph glyph-name="five.numr" unicode="&#xf666;" horiz-adv-x="328" 
d="M147 256q-33 0 -63 9t-44 17l-14 9l34 69q39 -28 80 -28q29 0 46 14.5t17 34.5q0 63 -152 85v201h224v-73h-142v-62q166 -44 166 -148q0 -58 -44.5 -93t-107.5 -35z" />
    <glyph glyph-name="six.numr" unicode="&#xf667;" horiz-adv-x="367" 
d="M186 256q-79 0 -118.5 49.5t-39.5 125.5q0 99 67.5 169t201.5 75l6 -76q-141 -2 -176 -98q32 27 80 27q59 0 96 -37t37 -90q0 -60 -39.5 -102.5t-114.5 -42.5zM185 458q-34 0 -63 -22q0 -106 64 -106q26 0 41 17.5t15 50.5q0 60 -57 60z" />
    <glyph glyph-name="seven.numr" unicode="&#xf668;" horiz-adv-x="316" 
d="M131 252l-92 19q100 187 156 319h-170v77h279l3 -44q-51 -122 -176 -371z" />
    <glyph glyph-name="eight.numr" unicode="&#xf669;" horiz-adv-x="363" 
d="M181 256q-66 0 -107 29.5t-41 75.5q0 59 87 115q-37 27 -54.5 48.5t-17.5 50.5q0 44 38 71.5t98 27.5q58 0 94.5 -27t36.5 -72q0 -29 -18 -51t-54 -46q86 -57 86 -114q0 -45 -40 -76.5t-108 -31.5zM182 330q22 0 35.5 12.5t13.5 30.5q0 5 -1 9.5t-2.5 8t-4.5 8l-5 7.5
t-6.5 7t-6.5 5.5t-7 5.5t-6.5 5l-7.5 5l-5 3q-48 -31 -48 -63q0 -20 14 -32t37 -12zM139 569q0 -25 45 -54q1 1 5.5 4t6.5 5t6.5 5.5t6.5 6t5.5 6.5t5 7.5t3 7.5t1.5 8q0 17 -12 26t-31 9q-15 0 -28.5 -8t-13.5 -23z" />
    <glyph glyph-name="nine.numr" unicode="&#xf66a;" horiz-adv-x="362" 
d="M71 256l-6 76q135 2 170 95q-32 -22 -78 -22q-57 0 -94 36t-37 88q0 60 39 102.5t113 42.5q78 0 117.5 -50t39.5 -125q0 -99 -66.5 -168.5t-197.5 -74.5zM179 475q34 0 62 21q0 104 -63 104q-24 0 -39.5 -18t-15.5 -50q0 -57 56 -57z" />
    <glyph glyph-name="abreve.smcp" unicode="&#xf66d;" horiz-adv-x="529" 
d="M10 0l193 491h122l194 -491h-125l-35 96h-194l-35 -96h-120zM262 356l-62 -167h124zM263 546q-78 0 -118 44t-30 110h68q-7 -83 80 -83q42 0 62.5 21.5t17.5 61.5h68q10 -66 -30 -110t-118 -44z" />
    <glyph glyph-name="amacron.smcp" unicode="&#xf66e;" horiz-adv-x="529" 
d="M10 0l193 491h122l194 -491h-125l-35 96h-194l-35 -96h-120zM262 356l-62 -167h124zM121 586v74h287v-74h-287z" />
    <glyph glyph-name="aogonek.smcp" unicode="&#xf66f;" horiz-adv-x="529" 
d="M10 0l193 491h122l194 -491q-81 -74 -81 -126q0 -30 29.5 -33t52.5 10l9 -74q-41 -14 -84 -14q-48 0 -75 23.5t-27 65.5q0 21 9.5 43.5t16 32.5t30.5 38t28 34h-33l-35 96h-194l-35 -96h-120zM262 356l-62 -167h124z" />
    <glyph glyph-name="aeacute.smcp" unicode="&#xf670;" horiz-adv-x="741" 
d="M368 548l-24 66l216 95l35 -91zM-6 0l298 487h402v-102h-220v-89h172v-100h-172v-94h229v-102h-352v112h-163l-65 -112h-129zM351 391l-104 -178h104v178z" />
    <glyph glyph-name="cacute.smcp" unicode="&#xf671;" horiz-adv-x="548" 
d="M39 235q0 113 81 188.5t210 75.5q51 0 97 -12.5t67 -24.5l20 -13l-45 -99q-6 5 -17.5 12.5t-48.5 20.5t-75 13q-71 0 -117 -39.5t-46 -110.5q0 -74 48.5 -114.5t113.5 -40.5q36 0 73 12.5t56 25.5l19 13l49 -84q-3 -3 -9 -7.5t-26 -16.5t-42 -21.5t-57 -17t-72 -7.5
q-116 0 -197.5 66.5t-81.5 180.5zM203 548l-24 66l216 95l35 -91z" />
    <glyph glyph-name="ccaron.smcp" unicode="&#xf672;" horiz-adv-x="548" 
d="M39 235q0 113 81 188.5t210 75.5q51 0 97 -12.5t67 -24.5l20 -13l-45 -99q-6 5 -17.5 12.5t-48.5 20.5t-75 13q-71 0 -117 -39.5t-46 -110.5q0 -74 48.5 -114.5t113.5 -40.5q36 0 73 12.5t56 25.5l19 13l49 -84q-3 -3 -9 -7.5t-26 -16.5t-42 -21.5t-57 -17t-72 -7.5
q-116 0 -197.5 66.5t-81.5 180.5zM248 547l-125 110l65 43l110 -88l110 88l64 -43l-126 -110h-98z" />
    <glyph glyph-name="ccircumflex.smcp" unicode="&#xf673;" horiz-adv-x="548" 
d="M188 547l-65 43l126 110h98l125 -110l-64 -43l-110 88zM39 235q0 113 81 188.5t210 75.5q51 0 97 -12.5t67 -24.5l20 -13l-45 -99q-6 5 -17.5 12.5t-48.5 20.5t-75 13q-71 0 -117 -39.5t-46 -110.5q0 -74 48.5 -114.5t113.5 -40.5q36 0 73 12.5t56 25.5l19 13l49 -84
q-3 -3 -9 -7.5t-26 -16.5t-42 -21.5t-57 -17t-72 -7.5q-116 0 -197.5 66.5t-81.5 180.5z" />
    <glyph glyph-name="cdotaccent.smcp" unicode="&#xf674;" horiz-adv-x="548" 
d="M298 555q-32 0 -52.5 19t-20.5 50t20.5 50.5t52.5 19.5t52.5 -19.5t20.5 -50.5t-20.5 -50t-52.5 -19zM39 235q0 113 81 188.5t210 75.5q51 0 97 -12.5t67 -24.5l20 -13l-45 -99q-6 5 -17.5 12.5t-48.5 20.5t-75 13q-71 0 -117 -39.5t-46 -110.5q0 -74 48.5 -114.5
t113.5 -40.5q36 0 73 12.5t56 25.5l19 13l49 -84q-3 -3 -9 -7.5t-26 -16.5t-42 -21.5t-57 -17t-72 -7.5q-116 0 -197.5 66.5t-81.5 180.5z" />
    <glyph glyph-name="dcaron.smcp" unicode="&#xf675;" horiz-adv-x="600" 
d="M74 0v487h205q74 0 134.5 -22t102.5 -77t42 -137q0 -119 -85.5 -185t-224.5 -66h-174zM200 100h40q96 0 142.5 40.5t46.5 107.5q0 64 -41 101.5t-120 37.5h-68v-287zM236 547l-125 110l65 43l110 -88l110 88l64 -43l-126 -110h-98z" />
    <glyph glyph-name="dcroat.smcp" unicode="&#xf676;" horiz-adv-x="611" 
d="M32 208v79h54v200h205q74 0 134.5 -22t102.5 -77t42 -137q0 -119 -85.5 -185t-224.5 -66h-174v208h-54zM212 102h40q96 0 142.5 40.5t46.5 105.5q0 62 -41 99.5t-120 37.5h-68v-98h113v-79h-113v-106z" />
    <glyph glyph-name="ebreve.smcp" unicode="&#xf677;" horiz-adv-x="467" 
d="M74 0v487h345v-100h-219v-92h172v-98h-172v-97h229v-100h-355zM251 546q-78 0 -118 44t-30 110h68q-7 -83 80 -83q42 0 62.5 21.5t17.5 61.5h68q10 -66 -30 -110t-118 -44z" />
    <glyph glyph-name="ecaron.smcp" unicode="&#xf678;" horiz-adv-x="467" 
d="M74 0v487h345v-100h-219v-92h172v-98h-172v-97h229v-100h-355zM201 547l-125 110l65 43l110 -88l110 88l64 -43l-126 -110h-98z" />
    <glyph glyph-name="edotaccent.smcp" unicode="&#xf679;" horiz-adv-x="467" 
d="M251 555q-32 0 -52.5 19t-20.5 50t20.5 50.5t52.5 19.5t52.5 -19.5t20.5 -50.5t-20.5 -50t-52.5 -19zM74 0v487h345v-100h-219v-92h172v-98h-172v-97h229v-100h-355z" />
    <glyph glyph-name="emacron.smcp" unicode="&#xf67a;" horiz-adv-x="467" 
d="M74 0v487h345v-100h-219v-92h172v-98h-172v-97h229v-100h-355zM107 586v74h287v-74h-287z" />
    <glyph glyph-name="eng.smcp" unicode="&#xf67b;" horiz-adv-x="621" 
d="M74 0v487h127l224 -315v315h122v-404q0 -65 -19 -114.5t-46.5 -74t-54.5 -39t-46 -17.5l-19 -3l-36 101q3 0 7 0.5t16.5 4.5t23.5 10.5t23.5 20t20.5 31.5l-220 310v-313h-123z" />
    <glyph glyph-name="eogonek.smcp" unicode="&#xf67c;" horiz-adv-x="467" 
d="M74 0v487h345v-100h-219v-92h172v-98h-172v-97h229v-100q-81 -74 -81 -126q0 -30 29.5 -33t52.5 10l9 -74q-41 -14 -84 -14q-47 0 -74.5 23.5t-27.5 65.5q0 21 9.5 43.5t16 32.5t30.5 38t28 34h-263z" />
    <glyph glyph-name="gbreve.smcp" unicode="&#xf67d;" horiz-adv-x="582" 
d="M39 231q0 113 82.5 190.5t220.5 77.5q49 0 94 -10.5t66 -20.5l20 -10l-43 -97q-60 35 -141 35t-126.5 -43t-45.5 -113q0 -74 49.5 -113t121.5 -39l73 7v85h-102v97h221v-268q-124 -21 -203 -21q-126 0 -206.5 66t-80.5 177zM302 546q-78 0 -118 44t-30 110h68
q-7 -83 80 -83q42 0 62.5 21.5t17.5 61.5h68q10 -66 -30 -110t-118 -44z" />
    <glyph glyph-name="gcircumflex.smcp" unicode="&#xf67e;" horiz-adv-x="582" 
d="M39 231q0 113 82.5 190.5t220.5 77.5q49 0 94 -10.5t66 -20.5l20 -10l-43 -97q-60 35 -141 35t-126.5 -43t-45.5 -113q0 -74 49.5 -113t121.5 -39l73 7v85h-102v97h221v-268q-124 -21 -203 -21q-126 0 -206.5 66t-80.5 177zM192 547l-65 43l126 110h98l125 -110l-64 -43
l-110 88z" />
    <glyph glyph-name="gcommaaccent.smcp" unicode="&#xf67f;" horiz-adv-x="582" 
d="M39 231q0 113 82.5 190.5t220.5 77.5q49 0 94 -10.5t66 -20.5l20 -10l-43 -97q-60 35 -141 35t-126.5 -43t-45.5 -113q0 -74 49.5 -113t121.5 -39l73 7v85h-102v97h221v-268q-124 -21 -203 -21q-126 0 -206.5 66t-80.5 177zM240 -49h106q24 -26 24 -72q0 -42 -30 -74.5
t-72 -53.5l-47 50q51 23 51 72q0 46 -32 78z" />
    <glyph glyph-name="gdotaccent.smcp" unicode="&#xf680;" horiz-adv-x="582" 
d="M39 231q0 113 82.5 190.5t220.5 77.5q49 0 94 -10.5t66 -20.5l20 -10l-43 -97q-60 35 -141 35t-126.5 -43t-45.5 -113q0 -74 49.5 -113t121.5 -39l73 7v85h-102v97h221v-268q-124 -21 -203 -21q-126 0 -206.5 66t-80.5 177zM302 555q-32 0 -52.5 19t-20.5 50t20.5 50.5
t52.5 19.5t52.5 -19.5t20.5 -50.5t-20.5 -50t-52.5 -19z" />
    <glyph glyph-name="hbar.smcp" unicode="&#xf681;" horiz-adv-x="648" 
d="M23 348v60h57v79h126v-79h237v79h125v-79h57v-60h-57v-348h-125v179h-237v-179h-126v348h-57zM206 279h237v69h-237v-69z" />
    <glyph glyph-name="hcircumflex.smcp" unicode="&#xf682;" horiz-adv-x="637" 
d="M207 547l-65 43l126 110h98l125 -110l-64 -43l-110 88zM74 0v487h126v-189h237v189h125v-487h-125v199h-237v-199h-126z" />
    <glyph glyph-name="ibreve.smcp" unicode="&#xf683;" horiz-adv-x="274" 
d="M74 0v487h126v-487h-126zM137 546q-78 0 -118 44t-30 110h68q-7 -83 80 -83q42 0 62.5 21.5t17.5 61.5h68q10 -66 -30 -110t-118 -44z" />
    <glyph glyph-name="ij.smcp" unicode="&#xf684;" horiz-adv-x="550" 
d="M255 -44q4 0 10.5 2t22.5 11t28.5 22.5t23 42t10.5 64.5v389h126v-384q0 -65 -19 -114.5t-46.5 -74t-55 -39t-46.5 -17.5l-19 -3zM74 0v487h126v-487h-126z" />
    <glyph glyph-name="imacron.smcp" unicode="&#xf685;" horiz-adv-x="274" 
d="M74 0v487h126v-487h-126zM-5 586v74h287v-74h-287z" />
    <glyph glyph-name="iogonek.smcp" unicode="&#xf686;" horiz-adv-x="274" 
d="M74 0v487h126v-487q-81 -74 -81 -126q0 -30 29.5 -33t52.5 10l9 -74q-41 -14 -84 -14q-48 0 -75.5 23.5t-27.5 65.5q0 21 9 43t17 33t30.5 38t28.5 34h-34z" />
    <glyph glyph-name="itilde.smcp" unicode="&#xf687;" horiz-adv-x="274" 
d="M74 0v487h126v-487h-126zM-50 556q-1 6 -1 15t4 32.5t13.5 41.5t33 32.5t58.5 14.5q37 0 67.5 -16t52 -32t37.5 -16q18 0 26.5 15.5t8.5 30.5l-1 16h76q1 -6 1 -15t-4 -33t-13.5 -42t-34 -33t-59.5 -15q-30 0 -54.5 10t-38 22t-29.5 22t-31 10q-19 0 -27.5 -15t-8.5 -30
l1 -15h-77z" />
    <glyph glyph-name="jcircumflex.smcp" unicode="&#xf688;" horiz-adv-x="275" 
d="M28 547l-65 43l126 110h98l125 -110l-64 -43l-110 88zM-19 -44q4 0 10.5 2t22.5 11t28.5 22.5t23 42t10.5 64.5v389h126v-384q0 -65 -19 -114.5t-46.5 -74t-55 -39t-46.5 -17.5l-19 -3z" />
    <glyph glyph-name="kcommaaccent.smcp" unicode="&#xf689;" horiz-adv-x="545" 
d="M230 -49h106q24 -26 24 -72q0 -42 -30 -74.5t-72 -53.5l-47 50q51 23 51 72q0 46 -32 78zM74 0v487h126v-182h17l155 182h151l-203 -228l215 -259h-154l-164 204h-17v-204h-126z" />
    <glyph glyph-name="lacute.smcp" unicode="&#xf68a;" horiz-adv-x="448" 
d="M74 0v487h126v-387h227v-100h-353zM42 548l-24 66l216 95l35 -91z" />
    <glyph glyph-name="lcaron.smcp" unicode="&#xf68b;" horiz-adv-x="465" 
d="M74 0v487h126v-387h227v-100h-353zM289 345l25 197l119 10l-72 -207h-72z" />
    <glyph glyph-name="lcommaaccent.smcp" unicode="&#xf68c;" horiz-adv-x="449" 
d="M193 -49h106q24 -26 24 -72q0 -42 -30 -74.5t-72 -53.5l-47 50q51 23 51 72q0 46 -32 78zM74 0v487h126v-387h227v-100h-353z" />
    <glyph glyph-name="ldot.smcp" unicode="&#xf68d;" horiz-adv-x="495" 
d="M74 0v487h126v-387h227v-100h-353zM386 199q-32 0 -54.5 22.5t-22.5 53.5q0 32 22.5 54.5t54.5 22.5t54.5 -22.5t22.5 -54.5t-22.5 -54t-54.5 -22z" />
    <glyph glyph-name="nacute.smcp" unicode="&#xf68e;" horiz-adv-x="622" 
d="M216 548l-24 66l216 95l35 -91zM74 0v487h127l224 -315v315h122v-487h-128l-222 313v-313h-123z" />
    <glyph glyph-name="ncaron.smcp" unicode="&#xf68f;" horiz-adv-x="622" 
d="M261 547l-125 110l65 43l110 -88l110 88l64 -43l-126 -110h-98zM74 0v487h127l224 -315v315h122v-487h-128l-222 313v-313h-123z" />
    <glyph glyph-name="ncommaaccent.smcp" unicode="&#xf690;" horiz-adv-x="622" 
d="M253 -49h106q24 -26 24 -72q0 -42 -30 -74.5t-72 -53.5l-47 50q51 23 51 72q0 46 -32 78zM74 0v487h127l224 -315v315h122v-487h-128l-222 313v-313h-123z" />
    <glyph glyph-name="obreve.smcp" unicode="&#xf691;" horiz-adv-x="648" 
d="M38 242q0 102 77 179.5t210 77.5q129 0 206 -71t77 -175q0 -106 -80.5 -185.5t-209.5 -79.5q-127 0 -203.5 75t-76.5 179zM167 244q0 -61 40.5 -109t112.5 -48q73 0 116.5 47t43.5 113q0 64 -41 108.5t-115 44.5q-73 0 -115 -45.5t-42 -110.5zM322 546q-78 0 -118 44
t-30 110h68q-7 -83 80 -83q42 0 62.5 21.5t17.5 61.5h68q10 -66 -30 -110t-118 -44z" />
    <glyph glyph-name="ohungarumlaut.smcp" unicode="&#xf692;" horiz-adv-x="648" 
d="M38 242q0 102 77 179.5t210 77.5q129 0 206 -71t77 -175q0 -106 -80.5 -185.5t-209.5 -79.5q-127 0 -203.5 75t-76.5 179zM167 244q0 -61 40.5 -109t112.5 -48q73 0 116.5 47t43.5 113q0 64 -41 108.5t-115 44.5q-73 0 -115 -45.5t-42 -110.5zM432 548l-68 36l93 123h116
zM243 548l-68 36l87 123h116z" />
    <glyph glyph-name="omacron.smcp" unicode="&#xf693;" horiz-adv-x="648" 
d="M38 242q0 102 77 179.5t210 77.5q129 0 206 -71t77 -175q0 -106 -80.5 -185.5t-209.5 -79.5q-127 0 -203.5 75t-76.5 179zM167 244q0 -61 40.5 -109t112.5 -48q73 0 116.5 47t43.5 113q0 64 -41 108.5t-115 44.5q-73 0 -115 -45.5t-42 -110.5zM179 586v74h287v-74h-287z
" />
    <glyph glyph-name="oslashacute.smcp" unicode="&#xf694;" horiz-adv-x="648" 
d="M38 242q0 102 77 179.5t210 77.5q75 0 137 -27l33 45h67l-53 -71q99 -71 99 -193q0 -106 -80.5 -185.5t-209.5 -79.5q-72 0 -132 27l-33 -45h-68l54 72q-48 36 -74.5 88.5t-26.5 111.5zM179 244q0 -60 38 -101l173 230q-31 13 -66 13q-67 0 -106 -41.5t-39 -100.5z
M468 247q0 57 -37 97l-173 -230q29 -13 62 -13q67 0 107.5 43t40.5 103zM228 548l-24 66l216 95l35 -91z" />
    <glyph glyph-name="racute.smcp" unicode="&#xf695;" horiz-adv-x="540" 
d="M74 0v487h198q98 0 148 -43.5t50 -113.5q0 -90 -83 -135l134 -195h-143l-112 166h-67v-166h-125zM199 264h41q59 0 81 16.5t22 46.5q0 31 -20.5 45.5t-70.5 14.5h-53v-123zM163 548l-24 66l216 95l35 -91z" />
    <glyph glyph-name="rcaron.smcp" unicode="&#xf696;" horiz-adv-x="540" 
d="M74 0v487h198q98 0 148 -43.5t50 -113.5q0 -90 -83 -135l134 -195h-143l-112 166h-67v-166h-125zM199 264h41q59 0 81 16.5t22 46.5q0 31 -20.5 45.5t-70.5 14.5h-53v-123zM208 547l-125 110l65 43l110 -88l110 88l64 -43l-126 -110h-98z" />
    <glyph glyph-name="rcommaaccent.smcp" unicode="&#xf697;" horiz-adv-x="538" 
d="M217 -49h106q24 -26 24 -72q0 -42 -30 -74.5t-72 -53.5l-47 50q51 23 51 72q0 46 -32 78zM74 0v487h198q98 0 148 -43.5t50 -113.5q0 -90 -83 -135l134 -195h-143l-112 166h-67v-166h-125zM199 264h41q59 0 81 16.5t22 46.5q0 31 -20.5 45.5t-70.5 14.5h-53v-123z" />
    <glyph glyph-name="sacute.smcp" unicode="&#xf698;" horiz-adv-x="440" 
d="M42 29l36 103q53 -41 129 -41q67 0 67 39q0 19 -23.5 35t-56.5 30.5t-66 32.5t-56.5 48.5t-23.5 71.5q0 63 51.5 107t141.5 44q31 0 66.5 -5.5t56.5 -11.5l20 -5l-18 -106q-63 25 -126 25q-67 0 -67 -36q0 -22 35 -42t77 -36t77 -53t35 -89q0 -68 -54.5 -110t-137.5 -42
q-40 0 -81 10t-62 20zM128 548l-24 66l216 95l35 -91z" />
    <glyph glyph-name="scedilla.smcp" unicode="&#xf699;" horiz-adv-x="442" 
d="M170 -71q0 16 16 48l6 12q-38 2 -75 12t-55 19l-19 9l36 103q53 -41 129 -41q67 0 67 39q0 19 -23.5 35t-56.5 30.5t-66 32.5t-56.5 48.5t-23.5 71.5q0 63 51.5 107t141.5 44q31 0 66.5 -5.5t55.5 -11.5l21 -5l-18 -106q-63 25 -126 25q-67 0 -67 -36q0 -22 35 -42
t77 -36t77 -53t35 -89q0 -57 -39.5 -96t-103.5 -51l-5 -12q-9 -20 -9 -27q0 -10 13.5 -18t30.5 -14t30.5 -22.5t13.5 -40.5q0 -41 -33.5 -68.5t-87.5 -27.5q-28 0 -53 7.5t-37 15.5l-11 8l24 56q34 -29 76 -29q21 0 34 8t13 19q0 10 -13 19t-29 15t-29 18.5t-13 28.5z" />
    <glyph glyph-name="scircumflex.smcp" unicode="&#xf69a;" horiz-adv-x="440" 
d="M114 547l-65 43l126 110h98l125 -110l-64 -43l-110 88zM42 29l36 103q53 -41 129 -41q67 0 67 39q0 19 -23.5 35t-56.5 30.5t-66 32.5t-56.5 48.5t-23.5 71.5q0 63 51.5 107t141.5 44q31 0 66.5 -5.5t56.5 -11.5l20 -5l-18 -106q-63 25 -126 25q-67 0 -67 -36
q0 -22 35 -42t77 -36t77 -53t35 -89q0 -68 -54.5 -110t-137.5 -42q-40 0 -81 10t-62 20z" />
    <glyph glyph-name="scommaaccent.smcp" unicode="&#xf69b;" horiz-adv-x="440" 
d="M158 -49h106q24 -26 24 -72q0 -42 -30 -74.5t-72 -53.5l-47 50q51 23 51 72q0 46 -32 78zM42 29l36 103q53 -41 129 -41q67 0 67 39q0 19 -23.5 35t-56.5 30.5t-66 32.5t-56.5 48.5t-23.5 71.5q0 63 51.5 107t141.5 44q31 0 66.5 -5.5t56.5 -11.5l20 -5l-18 -106
q-63 25 -126 25q-67 0 -67 -36q0 -22 35 -42t77 -36t77 -53t35 -89q0 -68 -54.5 -110t-137.5 -42q-40 0 -81 10t-62 20z" />
    <glyph glyph-name="tbar.smcp" unicode="&#xf69c;" horiz-adv-x="496" 
d="M74 205v59h113v123h-165v100h452v-100h-162v-123h110v-59h-110v-205h-125v205h-113z" />
    <glyph glyph-name="tcaron.smcp" unicode="&#xf69d;" horiz-adv-x="496" 
d="M187 0v387h-165v100h452v-100h-162v-387h-125zM198 547l-125 110l65 43l110 -88l110 88l64 -43l-126 -110h-98z" />
    <glyph glyph-name="tcommaaccent.smcp" unicode="&#xf69e;" horiz-adv-x="496" 
d="M187 0v387h-165v100h452v-100h-162v-387h-22l-9 -19q-9 -20 -9 -27q0 -10 14 -18t30 -14t30 -22.5t14 -40.5q0 -41 -33.5 -68.5t-87.5 -27.5q-28 0 -53 7.5t-36 15.5l-12 8l24 56q34 -29 76 -29q21 0 34 8t13 19q0 10 -13 19t-29 15t-29 18.5t-13 28.5t16 48l12 23h-42z
" />
    <glyph glyph-name="ubreve.smcp" unicode="&#xf69f;" horiz-adv-x="590" 
d="M67 190v297h126v-291q0 -107 102 -107q48 0 75 27t27 78v293h126v-288q0 -100 -64.5 -155.5t-162.5 -55.5q-102 0 -165.5 49t-63.5 153zM295 546q-78 0 -118 44t-30 110h68q-7 -83 80 -83q42 0 62.5 21.5t17.5 61.5h68q10 -66 -30 -110t-118 -44z" />
    <glyph glyph-name="uhungarumlaut.smcp" unicode="&#xf6a0;" horiz-adv-x="590" 
d="M405 548l-68 36l93 123h116zM216 548l-68 36l87 123h116zM67 190v297h126v-291q0 -107 102 -107q48 0 75 27t27 78v293h126v-288q0 -100 -64.5 -155.5t-162.5 -55.5q-102 0 -165.5 49t-63.5 153z" />
    <glyph glyph-name="umacron.smcp" unicode="&#xf6a1;" horiz-adv-x="590" 
d="M67 190v297h126v-291q0 -107 102 -107q48 0 75 27t27 78v293h126v-288q0 -100 -64.5 -155.5t-162.5 -55.5q-102 0 -165.5 49t-63.5 153zM152 586v74h287v-74h-287z" />
    <glyph glyph-name="uogonek.smcp" unicode="&#xf6a2;" horiz-adv-x="590" 
d="M226 -148q0 13 3.5 26.5t7.5 22.5t13.5 23t14.5 20.5t18 22.5t18 21h-5q-102 0 -165.5 49t-63.5 153v297h126v-291q0 -107 102 -107q48 0 75 27t27 78v293h126v-288q0 -120 -94 -177q-37 -28 -72.5 -70.5t-35.5 -77.5q0 -33 37 -33q24 0 46 10l9 -74q-41 -14 -84 -14
q-48 0 -75.5 23.5t-27.5 65.5z" />
    <glyph glyph-name="uring.smcp" unicode="&#xf6a3;" horiz-adv-x="590" 
d="M295 543q-50 0 -75.5 24t-25.5 60q0 32 25.5 55.5t75.5 23.5t75.5 -23.5t25.5 -55.5q0 -36 -25.5 -60t-75.5 -24zM295 583q21 0 33.5 12t12.5 31q0 16 -12 28t-34 12t-33.5 -12t-11.5 -28q0 -19 11.5 -31t33.5 -12zM67 190v297h126v-291q0 -107 102 -107q48 0 75 27
t27 78v293h126v-288q0 -100 -64.5 -155.5t-162.5 -55.5q-102 0 -165.5 49t-63.5 153z" />
    <glyph glyph-name="utilde.smcp" unicode="&#xf6a4;" horiz-adv-x="590" 
d="M67 190v297h126v-291q0 -107 102 -107q48 0 75 27t27 78v293h126v-288q0 -100 -64.5 -155.5t-162.5 -55.5q-102 0 -165.5 49t-63.5 153zM108 556q-1 6 -1 15t4 32.5t13.5 41.5t33 32.5t58.5 14.5q38 0 68 -16t51.5 -32t37.5 -16q18 0 26.5 15.5t8.5 30.5l-1 16h76
q1 -6 1 -15t-4 -33t-13.5 -42t-34 -33t-59.5 -15q-30 0 -54.5 10t-38 22t-29.5 22t-31 10q-19 0 -27.5 -15t-8.5 -30l1 -15h-77z" />
    <glyph glyph-name="wacute.smcp" unicode="&#xf6a5;" horiz-adv-x="802" 
d="M179 -5l-155 492h128l99 -336l108 336h88l106 -335l99 335h126l-157 -492h-126l-96 285l-93 -285h-127zM304 548l-24 66l216 95l35 -91z" />
    <glyph glyph-name="wcircumflex.smcp" unicode="&#xf6a6;" horiz-adv-x="802" 
d="M179 -5l-155 492h128l99 -336l108 336h88l106 -335l99 335h126l-157 -492h-126l-96 285l-93 -285h-127zM289 547l-65 43l126 110h98l125 -110l-64 -43l-110 88z" />
    <glyph glyph-name="wdieresis.smcp" unicode="&#xf6a7;" horiz-adv-x="802" 
d="M179 -5l-155 492h128l99 -336l108 336h88l106 -335l99 335h126l-157 -492h-126l-96 285l-93 -285h-127zM520 559q-30 0 -49.5 18t-19.5 47q0 30 19.5 48.5t49.5 18.5t49 -18.5t19 -48.5q0 -29 -19 -47t-49 -18zM279 559q-30 0 -49 18t-19 47q0 30 19 48.5t49 18.5
t49.5 -18.5t19.5 -48.5q0 -29 -19.5 -47t-49.5 -18z" />
    <glyph glyph-name="wgrave.smcp" unicode="&#xf6a8;" horiz-adv-x="802" 
d="M179 -5l-155 492h128l99 -336l108 336h88l106 -335l99 335h126l-157 -492h-126l-96 285l-93 -285h-127zM268 618l35 91l216 -95l-25 -66z" />
    <glyph glyph-name="ycircumflex.smcp" unicode="&#xf6a9;" horiz-adv-x="503" 
d="M144 547l-65 43l126 110h98l125 -110l-64 -43l-110 88zM190 0v195l-187 292h147l102 -174l106 174h142l-184 -291v-196h-126z" />
    <glyph glyph-name="ygrave.smcp" unicode="&#xf6aa;" horiz-adv-x="503" 
d="M123 618l35 91l216 -95l-25 -66zM190 0v195l-187 292h147l102 -174l106 174h142l-184 -291v-196h-126z" />
    <glyph glyph-name="zacute.smcp" unicode="&#xf6ab;" horiz-adv-x="488" 
d="M42 0v75l234 312h-225v100h383v-75l-231 -312h244v-100h-405zM149 548l-24 66l216 95l35 -91z" />
    <glyph glyph-name="zdotaccent.smcp" unicode="&#xf6ac;" horiz-adv-x="488" 
d="M245 555q-32 0 -52.5 19t-20.5 50t20.5 50.5t52.5 19.5t52.5 -19.5t20.5 -50.5t-20.5 -50t-52.5 -19zM42 0v75l234 312h-225v100h383v-75l-231 -312h244v-100h-405z" />
    <glyph glyph-name="commaaccent" unicode="&#xf6c3;" horiz-adv-x="510" 
d="M197 -49h106q24 -26 24 -72q0 -42 -30 -74.5t-72 -53.5l-47 50q51 23 51 72q0 46 -32 78z" />
    <glyph glyph-name="lslash.smcp" unicode="&#xf6f9;" horiz-adv-x="461" 
d="M23 154v69l64 36v228h126v-157l113 65v-67l-113 -66v-160h227v-102h-353v190z" />
    <glyph glyph-name="oe.smcp" unicode="&#xf6fa;" horiz-adv-x="801" 
d="M39 241q0 104 77.5 181t215.5 77q52 0 98 -12h324v-102h-219v-89h172v-100h-172v-94h229v-102h-347q-43 -12 -94 -12q-130 0 -207 74.5t-77 178.5zM168 246q0 -69 41 -115.5t119 -46.5q47 0 83 17v287q-37 15 -78 15q-78 0 -121.5 -43.5t-43.5 -113.5z" />
    <glyph glyph-name="scaron.smcp" unicode="&#xf6fd;" horiz-adv-x="440" 
d="M42 29l36 103q53 -41 129 -41q67 0 67 39q0 19 -23.5 35t-56.5 30.5t-66 32.5t-56.5 48.5t-23.5 71.5q0 63 51.5 107t141.5 44q31 0 66.5 -5.5t56.5 -11.5l20 -5l-18 -106q-63 25 -126 25q-67 0 -67 -36q0 -22 35 -42t77 -36t77 -53t35 -89q0 -68 -54.5 -110t-137.5 -42
q-40 0 -81 10t-62 20zM174 547l-125 110l65 43l110 -88l110 88l64 -43l-126 -110h-98z" />
    <glyph glyph-name="zcaron.smcp" unicode="&#xf6ff;" horiz-adv-x="488" 
d="M42 0v75l234 312h-225v100h383v-75l-231 -312h244v-100h-405zM195 547l-125 110l65 43l110 -88l110 88l64 -43l-126 -110h-98z" />
    <glyph glyph-name="exclam.smcp" unicode="&#xf721;" horiz-adv-x="292" 
d="M93 191l-18 308h142l-25 -308h-99zM70 57q0 28 20.5 48.5t49.5 20.5q28 0 48.5 -20t20.5 -49t-20.5 -49t-48.5 -20q-29 0 -49.5 20.5t-20.5 48.5z" />
    <glyph glyph-name="ampersand.smcp" unicode="&#xf726;" horiz-adv-x="578" 
d="M36 123q0 44 26 75.5t79 60.5q-39 67 -39 115q0 49 37.5 87t110.5 38q64 0 104 -31.5t40 -86.5q0 -86 -112 -147q38 -42 88 -85q56 70 62 178h105q-21 -146 -90 -235q57 -38 101 -48l-44 -77q-51 3 -134 57q-62 -35 -144 -35q-80 0 -135 33t-55 101zM229 74q34 0 61 13
q-58 52 -104 107q-44 -25 -44 -57q0 -63 87 -63zM205 374q0 -32 28 -76q64 33 64 75q0 43 -47 43q-45 0 -45 -42z" />
    <glyph glyph-name="uni1E9E.smcp" unicode="&#xf727;" horiz-adv-x="580" 
d="M66 0v258q0 241 260 241q39 0 103 -6t75 -7v-76l-116 -118q154 -51 154 -153q0 -62 -49 -106.5t-127 -44.5q-30 0 -59 7t-43 13l-13 7l18 97q43 -28 92 -28q30 0 47 14.5t17 36.5q0 31 -46 53.5t-101 29.5v85l96 99q-27 5 -53 5q-67 0 -97.5 -36t-30.5 -115v-256h-127z
" />
    <glyph glyph-name="question.smcp" unicode="&#xf73f;" horiz-adv-x="336" 
d="M85 191q-4 35 7.5 63.5t28 43t30.5 30.5t14 29q0 20 -31 37t-62 24l-32 7l26 102q5 -1 13.5 -3t33.5 -8.5t47.5 -15t50 -22t47.5 -28.5t33.5 -36t13.5 -44q0 -26 -19 -50t-41 -40t-40 -40t-16 -49h-104zM67 57q0 28 20.5 48.5t48.5 20.5q29 0 49.5 -20.5t20.5 -48.5
t-20.5 -48.5t-49.5 -20.5q-28 0 -48.5 20.5t-20.5 48.5z" />
    <glyph glyph-name="a.smcp" unicode="&#xf761;" horiz-adv-x="529" 
d="M10 0l193 491h122l194 -491h-125l-35 96h-194l-35 -96h-120zM262 356l-62 -167h124z" />
    <glyph glyph-name="b.smcp" unicode="&#xf762;" horiz-adv-x="519" 
d="M74 0v487h198q94 0 136.5 -33.5t42.5 -82.5q0 -63 -70 -106q92 -32 92 -122q0 -65 -50 -104t-131 -39h-218zM196 100h85q63 0 63 49q0 51 -63 51h-85v-100zM196 387v-97h101q1 0 6.5 4.5t11.5 17t6 28.5q0 47 -61 47h-64z" />
    <glyph glyph-name="c.smcp" unicode="&#xf763;" horiz-adv-x="548" 
d="M39 235q0 113 81 188.5t210 75.5q51 0 97 -12.5t67 -24.5l20 -13l-45 -99q-6 5 -17.5 12.5t-48.5 20.5t-75 13q-71 0 -117 -39.5t-46 -110.5q0 -74 48.5 -114.5t113.5 -40.5q36 0 73 12.5t56 25.5l19 13l49 -84q-3 -3 -9 -7.5t-26 -16.5t-42 -21.5t-57 -17t-72 -7.5
q-116 0 -197.5 66.5t-81.5 180.5z" />
    <glyph glyph-name="d.smcp" unicode="&#xf764;" horiz-adv-x="600" 
d="M74 0v487h205q74 0 134.5 -22t102.5 -77t42 -137q0 -119 -85.5 -185t-224.5 -66h-174zM200 100h40q96 0 142.5 40.5t46.5 107.5q0 64 -41 101.5t-120 37.5h-68v-287z" />
    <glyph glyph-name="e.smcp" unicode="&#xf765;" horiz-adv-x="467" 
d="M74 0v487h345v-100h-219v-92h172v-98h-172v-97h229v-100h-355z" />
    <glyph glyph-name="f.smcp" unicode="&#xf766;" horiz-adv-x="451" 
d="M74 0v487h348v-100h-222v-97h175v-96h-175v-194h-126z" />
    <glyph glyph-name="g.smcp" unicode="&#xf767;" horiz-adv-x="582" 
d="M39 231q0 113 82.5 190.5t220.5 77.5q49 0 94 -10.5t66 -20.5l20 -10l-43 -97q-60 35 -141 35t-126.5 -43t-45.5 -113q0 -74 49.5 -113t121.5 -39l73 7v85h-102v97h221v-268q-124 -21 -203 -21q-126 0 -206.5 66t-80.5 177z" />
    <glyph glyph-name="h.smcp" unicode="&#xf768;" horiz-adv-x="637" 
d="M74 0v487h126v-189h237v189h125v-487h-125v199h-237v-199h-126z" />
    <glyph glyph-name="i.smcp" unicode="&#xf769;" horiz-adv-x="274" 
d="M74 0v487h126v-487h-126z" />
    <glyph glyph-name="j.smcp" unicode="&#xf76a;" horiz-adv-x="275" 
d="M-19 -44q4 0 10.5 2t22.5 11t28.5 22.5t23 42t10.5 64.5v389h126v-384q0 -65 -19 -114.5t-46.5 -74t-55 -39t-46.5 -17.5l-19 -3z" />
    <glyph glyph-name="k.smcp" unicode="&#xf76b;" horiz-adv-x="545" 
d="M74 0v487h126v-182h17l155 182h151l-203 -228l215 -259h-154l-164 204h-17v-204h-126z" />
    <glyph glyph-name="l.smcp" unicode="&#xf76c;" horiz-adv-x="448" 
d="M74 0v487h126v-387h227v-100h-353z" />
    <glyph glyph-name="m.smcp" unicode="&#xf76d;" horiz-adv-x="735" 
d="M65 0l19 487h178l107 -299l109 299h173l19 -487h-120l-15 357l-130 -357h-80l-128 353l-12 -353h-120z" />
    <glyph glyph-name="n.smcp" unicode="&#xf76e;" horiz-adv-x="622" 
d="M74 0v487h127l224 -315v315h122v-487h-128l-222 313v-313h-123z" />
    <glyph glyph-name="o.smcp" unicode="&#xf76f;" horiz-adv-x="648" 
d="M38 242q0 102 77 179.5t210 77.5q129 0 206 -71t77 -175q0 -106 -80.5 -185.5t-209.5 -79.5q-127 0 -203.5 75t-76.5 179zM167 244q0 -61 40.5 -109t112.5 -48q73 0 116.5 47t43.5 113q0 64 -41 108.5t-115 44.5q-73 0 -115 -45.5t-42 -110.5z" />
    <glyph glyph-name="p.smcp" unicode="&#xf770;" horiz-adv-x="495" 
d="M74 0v487h198q96 0 146 -45t50 -117q0 -77 -56 -124t-140 -47h-72v-154h-126zM200 252h51q44 0 66 18.5t22 49.5q0 33 -20 50t-68 17h-51v-135z" />
    <glyph glyph-name="q.smcp" unicode="&#xf771;" horiz-adv-x="650" 
d="M39 243q0 102 77.5 179t210.5 77q129 0 206 -71t77 -174q0 -82 -50.5 -152.5t-136.5 -98.5q30 -37 72 -57.5t119 -17.5l-19 -109q-46 0 -86 9.5t-63 19t-49.5 30.5t-33.5 28t-25 28l-23 27q-20 24 -51 30q-103 17 -164 89t-61 163zM169 245q0 -63 40.5 -113.5
t111.5 -50.5q73 0 116.5 49.5t43.5 117.5q0 64 -41 108t-115 44q-72 0 -114 -45.5t-42 -109.5z" />
    <glyph glyph-name="r.smcp" unicode="&#xf772;" horiz-adv-x="540" 
d="M74 0v487h198q98 0 148 -43.5t50 -113.5q0 -90 -83 -135l134 -195h-143l-112 166h-67v-166h-125zM199 264h41q59 0 81 16.5t22 46.5q0 31 -20.5 45.5t-70.5 14.5h-53v-123z" />
    <glyph glyph-name="s.smcp" unicode="&#xf773;" horiz-adv-x="440" 
d="M42 29l36 103q53 -41 129 -41q67 0 67 39q0 19 -23.5 35t-56.5 30.5t-66 32.5t-56.5 48.5t-23.5 71.5q0 63 51.5 107t141.5 44q31 0 66.5 -5.5t56.5 -11.5l20 -5l-18 -106q-63 25 -126 25q-67 0 -67 -36q0 -22 35 -42t77 -36t77 -53t35 -89q0 -68 -54.5 -110t-137.5 -42
q-40 0 -81 10t-62 20z" />
    <glyph glyph-name="t.smcp" unicode="&#xf774;" horiz-adv-x="496" 
d="M187 0v387h-165v100h452v-100h-162v-387h-125z" />
    <glyph glyph-name="u.smcp" unicode="&#xf775;" horiz-adv-x="590" 
d="M67 190v297h126v-291q0 -107 102 -107q48 0 75 27t27 78v293h126v-288q0 -100 -64.5 -155.5t-162.5 -55.5q-102 0 -165.5 49t-63.5 153z" />
    <glyph glyph-name="v.smcp" unicode="&#xf776;" horiz-adv-x="506" 
d="M194 -5l-185 492h133l113 -321l114 321h128l-184 -492h-119z" />
    <glyph glyph-name="w.smcp" unicode="&#xf777;" horiz-adv-x="802" 
d="M179 -5l-155 492h128l99 -336l108 336h88l106 -335l99 335h126l-157 -492h-126l-96 285l-93 -285h-127z" />
    <glyph glyph-name="x.smcp" unicode="&#xf778;" horiz-adv-x="532" 
d="M22 0l171 242l-171 245h147l98 -152l100 152h143l-170 -243l170 -244h-147l-99 150l-97 -150h-145z" />
    <glyph glyph-name="y.smcp" unicode="&#xf779;" horiz-adv-x="503" 
d="M190 0v195l-187 292h147l102 -174l106 174h142l-184 -291v-196h-126z" />
    <glyph glyph-name="z.smcp" unicode="&#xf77a;" horiz-adv-x="488" 
d="M42 0v75l234 312h-225v100h383v-75l-231 -312h244v-100h-405z" />
    <glyph glyph-name="exclamdown.smcp" unicode="&#xf7a1;" horiz-adv-x="294" 
d="M197 295l18 -308h-142l25 308h99zM220 429q0 -28 -20.5 -48.5t-49.5 -20.5q-28 0 -48.5 20t-20.5 49t20.5 49t48.5 20q29 0 49.5 -20.5t20.5 -48.5z" />
    <glyph glyph-name="questiondown.smcp" unicode="&#xf7bf;" horiz-adv-x="336" 
d="M251 296q4 -35 -7.5 -63.5t-28 -43t-30.5 -30.5t-14 -29q0 -20 31.5 -37t62.5 -24l31 -7l-26 -102q-5 1 -13.5 3t-33.5 8.5t-47.5 15t-50 22t-47.5 28.5t-33.5 36t-13.5 44q0 26 19 50t41 40t40 40t16 49h104zM269 430q0 -28 -20.5 -48.5t-48.5 -20.5q-29 0 -49.5 20.5
t-20.5 48.5t20.5 48.5t49.5 20.5q28 0 48.5 -20.5t20.5 -48.5z" />
    <glyph glyph-name="agrave.smcp" unicode="&#xf7e0;" horiz-adv-x="529" 
d="M133 618l35 91l216 -95l-25 -66zM10 0l193 491h122l194 -491h-125l-35 96h-194l-35 -96h-120zM262 356l-62 -167h124z" />
    <glyph glyph-name="aacute.smcp" unicode="&#xf7e1;" horiz-adv-x="529" 
d="M168 548l-24 66l216 95l35 -91zM10 0l193 491h122l194 -491h-125l-35 96h-194l-35 -96h-120zM262 356l-62 -167h124z" />
    <glyph glyph-name="acircumflex.smcp" unicode="&#xf7e2;" horiz-adv-x="529" 
d="M153 547l-65 43l126 110h98l125 -110l-64 -43l-110 88zM10 0l193 491h122l194 -491h-125l-35 96h-194l-35 -96h-120zM262 356l-62 -167h124z" />
    <glyph glyph-name="atilde.smcp" unicode="&#xf7e3;" horiz-adv-x="529" 
d="M10 0l193 491h122l194 -491h-125l-35 96h-194l-35 -96h-120zM262 356l-62 -167h124zM76 556q-1 6 -1 15t4 32.5t13.5 41.5t33 32.5t58.5 14.5q37 0 67.5 -16t52 -32t37.5 -16q18 0 26.5 15.5t8.5 30.5l-1 16h76q1 -6 1 -15t-4 -33t-13.5 -42t-34 -33t-59.5 -15
q-30 0 -54.5 10t-38 22t-29.5 22t-31 10q-19 0 -27.5 -15t-8.5 -30l1 -15h-77z" />
    <glyph glyph-name="adieresis.smcp" unicode="&#xf7e4;" horiz-adv-x="529" 
d="M10 0l193 491h122l194 -491h-125l-35 96h-194l-35 -96h-120zM262 356l-62 -167h124zM384 559q-30 0 -49.5 18t-19.5 47q0 30 19.5 48.5t49.5 18.5t49 -18.5t19 -48.5q0 -29 -19 -47t-49 -18zM143 559q-30 0 -49 18t-19 47q0 30 19 48.5t49 18.5t49.5 -18.5t19.5 -48.5
q0 -29 -19.5 -47t-49.5 -18z" />
    <glyph glyph-name="aring.smcp" unicode="&#xf7e5;" horiz-adv-x="529" 
d="M263 543q-50 0 -75.5 24t-25.5 60q0 32 25.5 55.5t75.5 23.5t75.5 -23.5t25.5 -55.5q0 -36 -25.5 -60t-75.5 -24zM263 583q21 0 33.5 12t12.5 31q0 16 -12 28t-34 12t-33.5 -12t-11.5 -28q0 -19 11.5 -31t33.5 -12zM10 0l193 491h122l194 -491h-125l-35 96h-194l-35 -96
h-120zM262 356l-62 -167h124z" />
    <glyph glyph-name="ae.smcp" unicode="&#xf7e6;" horiz-adv-x="741" 
d="M-6 0l298 487h402v-102h-220v-89h172v-100h-172v-94h229v-102h-352v112h-163l-65 -112h-129zM351 391l-104 -178h104v178z" />
    <glyph glyph-name="ccedilla.smcp" unicode="&#xf7e7;" horiz-adv-x="550" 
d="M244 -71q0 16 16 48l7 15q-98 14 -162.5 78.5t-64.5 164.5q0 113 81 188.5t210 75.5q51 0 97 -12.5t66 -24.5l21 -13l-45 -99q-6 5 -17.5 12.5t-48.5 20.5t-75 13q-71 0 -117 -39.5t-46 -110.5q0 -74 48.5 -114.5t113.5 -40.5q36 0 73 12.5t56 25.5l19 13l49 -84
q-8 -8 -23.5 -19t-67 -30.5t-107.5 -20.5l-3 -7q-9 -20 -9 -27q0 -10 13.5 -18t30.5 -14t30.5 -22.5t13.5 -40.5q0 -41 -33.5 -68.5t-87.5 -27.5q-28 0 -53 7.5t-37 15.5l-11 8l24 56q34 -29 76 -29q21 0 34 8t13 19q0 10 -13 19t-29 15t-29 18.5t-13 28.5z" />
    <glyph glyph-name="egrave.smcp" unicode="&#xf7e8;" horiz-adv-x="467" 
d="M120 618l35 91l216 -95l-25 -66zM74 0v487h345v-100h-219v-92h172v-98h-172v-97h229v-100h-355z" />
    <glyph glyph-name="eacute.smcp" unicode="&#xf7e9;" horiz-adv-x="467" 
d="M74 0v487h345v-100h-219v-92h172v-98h-172v-97h229v-100h-355zM155 548l-24 66l216 95l35 -91z" />
    <glyph glyph-name="ecircumflex.smcp" unicode="&#xf7ea;" horiz-adv-x="467" 
d="M74 0v487h345v-100h-219v-92h172v-98h-172v-97h229v-100h-355zM141 547l-65 43l126 110h98l125 -110l-64 -43l-110 88z" />
    <glyph glyph-name="edieresis.smcp" unicode="&#xf7eb;" horiz-adv-x="467" 
d="M74 0v487h345v-100h-219v-92h172v-98h-172v-97h229v-100h-355zM372 559q-30 0 -49.5 18t-19.5 47q0 30 19.5 48.5t49.5 18.5t49 -18.5t19 -48.5q0 -29 -19 -47t-49 -18zM131 559q-30 0 -49 18t-19 47q0 30 19 48.5t49 18.5t49.5 -18.5t19.5 -48.5q0 -29 -19.5 -47
t-49.5 -18z" />
    <glyph glyph-name="igrave.smcp" unicode="&#xf7ec;" horiz-adv-x="274" 
d="M7 618l35 91l216 -95l-25 -66zM74 0v487h126v-487h-126z" />
    <glyph glyph-name="iacute.smcp" unicode="&#xf7ed;" horiz-adv-x="274" 
d="M42 548l-24 66l216 95l35 -91zM74 0v487h126v-487h-126z" />
    <glyph glyph-name="icircumflex.smcp" unicode="&#xf7ee;" horiz-adv-x="274" 
d="M27 547l-65 43l126 110h98l125 -110l-64 -43l-110 88zM74 0v487h126v-487h-126z" />
    <glyph glyph-name="idieresis.smcp" unicode="&#xf7ef;" horiz-adv-x="274" 
d="M243 559q-29 0 -47.5 17.5t-18.5 46.5t18.5 46.5t47.5 17.5q30 0 48.5 -17.5t18.5 -46.5t-18.5 -46.5t-48.5 -17.5zM30 559q-29 0 -47.5 17.5t-18.5 46.5t18.5 46.5t47.5 17.5q30 0 48.5 -17.5t18.5 -46.5t-18.5 -46.5t-48.5 -17.5zM74 0v487h126v-487h-126z" />
    <glyph glyph-name="eth.smcp" unicode="&#xf7f0;" horiz-adv-x="611" 
d="M32 208v79h54v200h205q74 0 134.5 -22t102.5 -77t42 -137q0 -119 -85.5 -185t-224.5 -66h-174v208h-54zM212 102h40q96 0 142.5 40.5t46.5 105.5q0 62 -41 99.5t-120 37.5h-68v-98h113v-79h-113v-106z" />
    <glyph glyph-name="ntilde.smcp" unicode="&#xf7f1;" horiz-adv-x="622" 
d="M74 0v487h127l224 -315v315h122v-487h-128l-222 313v-313h-123zM124 556q-1 6 -1 15t4 32.5t13.5 41.5t33 32.5t58.5 14.5q38 0 68 -16t51.5 -32t37.5 -16q18 0 26.5 15.5t8.5 30.5l-1 16h76q1 -6 1 -15t-4 -33t-13.5 -42t-34 -33t-59.5 -15q-30 0 -54.5 10t-38 22
t-29.5 22t-31 10q-19 0 -27.5 -15t-8.5 -30l1 -15h-77z" />
    <glyph glyph-name="ograve.smcp" unicode="&#xf7f2;" horiz-adv-x="648" 
d="M38 242q0 102 77 179.5t210 77.5q129 0 206 -71t77 -175q0 -106 -80.5 -185.5t-209.5 -79.5q-127 0 -203.5 75t-76.5 179zM167 244q0 -61 40.5 -109t112.5 -48q73 0 116.5 47t43.5 113q0 64 -41 108.5t-115 44.5q-73 0 -115 -45.5t-42 -110.5zM191 618l35 91l216 -95
l-25 -66z" />
    <glyph glyph-name="oacute.smcp" unicode="&#xf7f3;" horiz-adv-x="648" 
d="M38 242q0 102 77 179.5t210 77.5q129 0 206 -71t77 -175q0 -106 -80.5 -185.5t-209.5 -79.5q-127 0 -203.5 75t-76.5 179zM167 244q0 -61 40.5 -109t112.5 -48q73 0 116.5 47t43.5 113q0 64 -41 108.5t-115 44.5q-73 0 -115 -45.5t-42 -110.5zM227 548l-24 66l216 95
l35 -91z" />
    <glyph glyph-name="ocircumflex.smcp" unicode="&#xf7f4;" horiz-adv-x="648" 
d="M38 242q0 102 77 179.5t210 77.5q129 0 206 -71t77 -175q0 -106 -80.5 -185.5t-209.5 -79.5q-127 0 -203.5 75t-76.5 179zM167 244q0 -61 40.5 -109t112.5 -48q73 0 116.5 47t43.5 113q0 64 -41 108.5t-115 44.5q-73 0 -115 -45.5t-42 -110.5zM212 547l-65 43l126 110h98
l125 -110l-64 -43l-110 88z" />
    <glyph glyph-name="otilde.smcp" unicode="&#xf7f5;" horiz-adv-x="648" 
d="M38 242q0 102 77 179.5t210 77.5q129 0 206 -71t77 -175q0 -106 -80.5 -185.5t-209.5 -79.5q-127 0 -203.5 75t-76.5 179zM167 244q0 -61 40.5 -109t112.5 -48q73 0 116.5 47t43.5 113q0 64 -41 108.5t-115 44.5q-73 0 -115 -45.5t-42 -110.5zM135 556q-1 6 -1 15t4 32.5
t13.5 41.5t33 32.5t58.5 14.5q37 0 67.5 -16t52 -32t37.5 -16q18 0 26.5 15.5t7.5 30.5v16h76q1 -6 1 -15t-4 -33t-13.5 -42t-34 -33t-59.5 -15q-30 0 -54.5 10t-38 22t-29.5 22t-31 10q-19 0 -27.5 -15t-7.5 -30v-15h-77z" />
    <glyph glyph-name="odieresis.smcp" unicode="&#xf7f6;" horiz-adv-x="648" 
d="M38 242q0 102 77 179.5t210 77.5q129 0 206 -71t77 -175q0 -106 -80.5 -185.5t-209.5 -79.5q-127 0 -203.5 75t-76.5 179zM167 244q0 -61 40.5 -109t112.5 -48q73 0 116.5 47t43.5 113q0 64 -41 108.5t-115 44.5q-73 0 -115 -45.5t-42 -110.5zM443 559q-30 0 -49.5 18
t-19.5 47q0 30 19.5 48.5t49.5 18.5t49 -18.5t19 -48.5q0 -29 -19 -47t-49 -18zM202 559q-30 0 -49 18t-19 47q0 30 19 48.5t49 18.5t49.5 -18.5t19.5 -48.5q0 -29 -19.5 -47t-49.5 -18z" />
    <glyph glyph-name="oslash.smcp" unicode="&#xf7f8;" horiz-adv-x="648" 
d="M38 242q0 102 77 179.5t210 77.5q75 0 137 -27l33 45h67l-53 -71q99 -71 99 -193q0 -106 -80.5 -185.5t-209.5 -79.5q-72 0 -132 27l-33 -45h-68l54 72q-48 36 -74.5 88.5t-26.5 111.5zM179 244q0 -60 38 -101l173 230q-31 13 -66 13q-67 0 -106 -41.5t-39 -100.5z
M468 247q0 57 -37 97l-173 -230q29 -13 62 -13q67 0 107.5 43t40.5 103z" />
    <glyph glyph-name="ugrave.smcp" unicode="&#xf7f9;" horiz-adv-x="590" 
d="M165 618l35 91l216 -95l-25 -66zM67 190v297h126v-291q0 -107 102 -107q48 0 75 27t27 78v293h126v-288q0 -100 -64.5 -155.5t-162.5 -55.5q-102 0 -165.5 49t-63.5 153z" />
    <glyph glyph-name="uacute.smcp" unicode="&#xf7fa;" horiz-adv-x="590" 
d="M67 190v297h126v-291q0 -107 102 -107q48 0 75 27t27 78v293h126v-288q0 -100 -64.5 -155.5t-162.5 -55.5q-102 0 -165.5 49t-63.5 153zM200 548l-24 66l216 95l35 -91z" />
    <glyph glyph-name="ucircumflex.smcp" unicode="&#xf7fb;" horiz-adv-x="590" 
d="M67 190v297h126v-291q0 -107 102 -107q48 0 75 27t27 78v293h126v-288q0 -100 -64.5 -155.5t-162.5 -55.5q-102 0 -165.5 49t-63.5 153zM185 547l-65 43l126 110h98l125 -110l-64 -43l-110 88z" />
    <glyph glyph-name="udieresis.smcp" unicode="&#xf7fc;" horiz-adv-x="590" 
d="M67 190v297h126v-291q0 -107 102 -107q48 0 75 27t27 78v293h126v-288q0 -100 -64.5 -155.5t-162.5 -55.5q-102 0 -165.5 49t-63.5 153zM416 559q-30 0 -49.5 18t-19.5 47q0 30 19.5 48.5t49.5 18.5t49 -18.5t19 -48.5q0 -29 -19 -47t-49 -18zM175 559q-30 0 -49 18
t-19 47q0 30 19 48.5t49 18.5t49.5 -18.5t19.5 -48.5q0 -29 -19.5 -47t-49.5 -18z" />
    <glyph glyph-name="yacute.smcp" unicode="&#xf7fd;" horiz-adv-x="503" 
d="M158 548l-24 66l216 95l35 -91zM190 0v195l-187 292h147l102 -174l106 174h142l-184 -291v-196h-126z" />
    <glyph glyph-name="thorn.smcp" unicode="&#xf7fe;" horiz-adv-x="505" 
d="M74 0v486h126v-85h82q96 0 146 -43.5t50 -111.5q0 -75 -56 -119.5t-140 -44.5h-82v-82h-126zM200 182h61q44 0 66 16t22 43q0 58 -88 58h-61v-117z" />
    <glyph glyph-name="ydieresis.smcp" unicode="&#xf7ff;" horiz-adv-x="503" 
d="M190 0v195l-187 292h147l102 -174l106 174h142l-184 -291v-196h-126zM375 559q-30 0 -49.5 18t-19.5 47q0 30 19.5 48.5t49.5 18.5t49 -18.5t19 -48.5q0 -29 -19 -47t-49 -18zM134 559q-30 0 -49 18t-19 47q0 30 19 48.5t49 18.5t49.5 -18.5t19.5 -48.5q0 -29 -19.5 -47
t-49.5 -18z" />
    <glyph glyph-name="apple" unicode="&#xf8ff;" horiz-adv-x="1130" 
d="M168 -5v152l-126 72v278l126 71v151l265 142l134 -71l132 71l265 -142v-151l124 -71v-278l-124 -72v-152l-265 -141l-132 71l-134 -71zM208 30l238 -126l121 66l118 -66l238 126v139l114 64v249l-114 66v136l-238 126l-118 -64l-121 64l-238 -126v-136l-114 -66v-249
l114 -64v-139zM242 64v121l-99 60v225l99 58v123l215 114l110 -59l107 59l214 -114v-123l100 -58v-225l-100 -60v-121l-214 -114l-107 58l-110 -58zM333 142q0 -43 83 -43q89 0 130.5 53t65.5 184h141l14 53h-146q4 27 8 60t6 49t5.5 31.5t8.5 21t14 5.5t40.5 -15t50.5 -15
t31 9.5t12 27.5q0 43 -80 43q-48 0 -82.5 -17t-55 -50t-31.5 -67.5t-19 -82.5h-138v-53h129q-5 -29 -11 -76q-10 -70 -17 -90.5t-25 -20.5q-9 0 -40 15t-52 15q-19 0 -30.5 -10t-11.5 -27z" />
    <glyph glyph-name="st" unicode="&#xfb06;" horiz-adv-x="809" 
d="M32 28l26 102q6 -5 17 -13t44.5 -21t66.5 -13q71 0 71 39q0 20 -33.5 39t-73.5 34t-73.5 49.5t-33.5 81.5q0 60 46.5 100.5t142.5 40.5q13 0 19 -1q-5 18 -5 44q0 74 51.5 124t137.5 50q88 0 141 -45t53 -118v-66h139v-89h-139v-208q0 -68 47 -68q31 0 88 39l34 -91
q-7 -6 -20.5 -14t-53 -22t-77.5 -14q-66 0 -104.5 36t-38.5 104v238h-70v67l74 25q31 27 31 70q0 48 -30 71t-80 23t-83 -30.5t-33 -82.5q0 -30 10 -53l44 -14l-26 -101q-50 31 -109 31q-65 0 -65 -36q0 -17 22 -31t53.5 -27.5t62.5 -30.5t53 -46t22 -68q0 -65 -50 -105
t-139 -40q-44 0 -83.5 10t-57.5 20z" />
    <glyph glyph-name="f.alt" horiz-adv-x="358" 
d="M22 366v67l71 25v53q0 102 54.5 161t141.5 59q34 0 64 -8.5t43 -16.5l12 -9l-44 -88q-30 26 -68 26q-34 0 -56 -27.5t-22 -87.5v-65h122v-89h-122v-366h-125v366h-71z" />
    <glyph glyph-name="f.alt3" horiz-adv-x="358" 
d="M22 366v67l71 25v64q0 92 49 147.5t131 55.5q28 0 55.5 -7t40.5 -14l13 -7l-44 -88q-26 20 -56 20q-28 0 -46 -24.5t-18 -74.5v-75h122v-89h-122v-366h-125v366h-71z" />
    <glyph glyph-name="ff.alt" horiz-adv-x="666" 
d="M22 366v67l71 25v14q0 112 62.5 176t160.5 64q74 0 139 -41q54 60 143 60q34 0 63.5 -8.5t42.5 -16.5l12 -9l-44 -88q-30 26 -68 26q-34 0 -56 -27.5t-22 -87.5v-65h122v-89h-122v-366h-124v371h-184v-371h-125v366h-71zM402 511q0 38 8 73q-44 32 -92 32
q-100 0 -100 -135v-26h184v56z" />
    <glyph glyph-name="ff.alt3" horiz-adv-x="666" 
d="M22 366v67l71 25v14q0 112 62.5 176t160.5 64q75 0 137 -40q50 53 128 53q29 0 56 -7t40 -14l13 -7l-43 -88q-26 20 -56 20q-29 0 -47 -24.5t-18 -74.5v-75h122v-89h-122v-366h-124v371h-184v-371h-125v366h-71zM402 522q0 36 7 63q-47 31 -91 31q-100 0 -100 -135v-26
h184v67z" />
    <glyph glyph-name="c_k" horiz-adv-x="986" 
d="M528 0v645h-49q-54 0 -90 -32.5t-36 -88.5q0 -32 17 -70q21 -6 39 -14t26 -14l8 -5l-44 -91q-47 41 -109 41q-56 0 -92.5 -39t-36.5 -106q0 -64 34.5 -103t90.5 -39q31 0 61 11.5t44 22.5l14 12l38 -84q-6 -6 -17.5 -16t-54.5 -26t-94 -16q-110 0 -177.5 66t-67.5 165
q0 101 69.5 174.5t179.5 73.5h14q-11 26 -11 63q0 71 53.5 124t141.5 53h111l63 10v-419h16l149 157h158l-200 -199l209 -256h-155l-161 207h-16v-207h-125z" />
    <glyph glyph-name="i.trk" horiz-adv-x="251" 
d="M126 554q-32 0 -53 19.5t-21 50.5t21 50.5t53 19.5t52.5 -19.5t20.5 -50.5t-20.5 -50.5t-52.5 -19.5zM63 0v455h125v-455h-125z" />
    <glyph glyph-name="c_b" horiz-adv-x="1000" 
d="M526 13v632h-47q-53 0 -89.5 -32.5t-36.5 -88.5q0 -32 17 -70q21 -6 39 -14t26 -14l8 -5l-44 -91q-47 41 -109 41q-56 0 -92.5 -39t-36.5 -106q0 -64 34.5 -103t90.5 -39q31 0 61 11.5t44 22.5l14 12l38 -84q-6 -6 -17.5 -16t-54.5 -26t-94 -16q-110 0 -177.5 66
t-67.5 165q0 101 69.5 174.5t179.5 73.5h14q-11 26 -11 63q0 71 53.5 124t141.5 53h109l63 10v-293q43 43 113 43q96 0 148.5 -63t52.5 -159q0 -108 -67 -182.5t-190 -74.5q-34 0 -79.5 6t-73 12t-29.5 7zM741 372q-44 0 -90 -35v-252q28 -9 58 -9q58 0 93 42t35 118
q0 64 -26 100t-70 36z" />
    <glyph glyph-name="c_h" horiz-adv-x="1003" 
d="M529 0v645h-50q-53 0 -89.5 -32.5t-36.5 -88.5q0 -32 17 -70q21 -6 39 -14t26 -14l8 -5l-44 -91q-47 41 -109 41q-56 0 -92.5 -39t-36.5 -106q0 -64 34.5 -103t90.5 -39q31 0 61 11.5t44 22.5l14 12l38 -84q-6 -6 -17.5 -16t-54.5 -26t-94 -16q-110 0 -177.5 66
t-67.5 165q0 101 69.5 174.5t179.5 73.5h14q-11 26 -11 63q0 71 53.5 124t141.5 53h112l63 10v-334q77 84 166 84q124 0 124 -143v-324h-124v271q0 47 -10.5 67.5t-35.5 20.5q-49 0 -120 -76v-283h-125z" />
    <glyph glyph-name="s_b" horiz-adv-x="946" 
d="M472 13v632h-47q-53 0 -89.5 -32.5t-36.5 -88.5q0 -27 15 -66l53 -16l-26 -101q-50 31 -109 31q-65 0 -65 -36q0 -17 22 -31t53.5 -27.5t62.5 -30.5t53 -46t22 -68q0 -65 -50 -105t-139 -40q-44 0 -83.5 10t-57.5 20l-18 10l26 102q6 -5 17 -13t44.5 -21t66.5 -13
q71 0 71 39q0 20 -33.5 39t-73.5 34t-73.5 49.5t-33.5 81.5q0 60 46.5 100.5t142.5 40.5h9q-11 26 -11 63q0 71 53.5 124t141.5 53h109l63 10v-293q43 43 113 43q96 0 148.5 -63t52.5 -159q0 -108 -67 -182.5t-190 -74.5q-34 0 -79.5 6t-73 12t-29.5 7zM687 372
q-44 0 -90 -35v-252q28 -9 58 -9q58 0 93 42t35 118q0 64 -26 100t-70 36z" />
    <glyph glyph-name="s_h" horiz-adv-x="949" 
d="M475 0v645h-50q-53 0 -89.5 -32.5t-36.5 -88.5q0 -27 15 -66l53 -16l-26 -101q-50 31 -109 31q-65 0 -65 -36q0 -17 22 -31t53.5 -27.5t62.5 -30.5t53 -46t22 -68q0 -65 -50 -105t-139 -40q-44 0 -83.5 10t-57.5 20l-18 10l26 102q6 -5 17 -13t44.5 -21t66.5 -13
q71 0 71 39q0 20 -33.5 39t-73.5 34t-73.5 49.5t-33.5 81.5q0 60 46.5 100.5t142.5 40.5h9q-11 26 -11 63q0 71 53.5 124t141.5 53h112l63 10v-334q77 84 166 84q124 0 124 -143v-324h-124v271q0 47 -10.5 67.5t-35.5 20.5q-49 0 -120 -76v-283h-125z" />
    </font>
</defs>
</svg>
